<?xml version="1.0" standalone="no"?>
<!DOCTYPE svg PUBLIC "-//W3C//DTD SVG 20010904//EN"
 "http://www.w3.org/TR/2001/REC-SVG-20010904/DTD/svg10.dtd">
<svg version="1.0" xmlns="http://www.w3.org/2000/svg"
 width="700.000000pt" height="700.000000pt" viewBox="0 0 700.000000 700.000000"
 preserveAspectRatio="xMidYMid meet">
<metadata>
Created by potrace 1.11, written by Peter Selinger 2001-2013
</metadata>
<g transform="translate(0.000000,700.000000) scale(0.100000,-0.100000)"
fill="#000000" stroke="none">
<path d="M1758 6728 c60 -79 126 -166 148 -194 70 -90 94 -122 472 -616 204
-268 372 -491 372 -495 0 -4 -206 -136 -458 -293 l-457 -286 -3 -571 -2 -570
120 -97 c66 -54 122 -101 125 -105 2 -5 -47 -48 -110 -96 l-115 -87 0 -57 c-2
-255 -1 -1093 2 -1095 2 -1 67 -42 146 -92 78 -49 154 -96 167 -104 13 -8 50
-31 82 -51 32 -20 146 -91 253 -159 107 -68 212 -134 233 -147 l38 -24 -39
-47 c-32 -39 -1031 -1340 -1070 -1394 -13 -17 47 -18 1541 -18 l1555 0 65 108
c35 59 167 275 291 480 125 205 225 376 222 380 -2 4 -351 7 -775 6 -424 0
-771 2 -771 4 0 2 48 68 106 145 58 78 108 147 112 154 4 6 48 36 97 67 50 31
98 62 107 68 10 7 244 152 521 322 l503 310 -1 572 0 572 -26 21 c-15 11 -44
35 -66 53 -22 18 -55 45 -74 60 -19 14 -45 36 -58 47 l-24 21 24 27 c22 24 63
69 173 186 l36 38 0 539 0 538 -222 139 c-123 76 -231 143 -240 148 -10 6 -71
43 -135 84 -65 40 -234 145 -375 233 l-257 159 -100 139 c-56 76 -101 139
-101 142 0 2 349 3 775 3 732 0 774 1 769 17 -3 10 -62 111 -132 225 -70 115
-147 242 -172 283 -24 41 -47 77 -51 80 -3 3 -8 10 -10 15 -2 6 -50 88 -107
183 l-103 172 -1555 0 -1555 0 109 -142z m1852 -1185 c224 -139 999 -618 1020
-630 14 -8 95 -58 180 -111 l154 -98 0 -416 0 -416 -61 -64 c-34 -34 -75 -79
-93 -98 -18 -19 -57 -62 -88 -95 -32 -33 -69 -74 -85 -91 l-27 -31 168 -135
c93 -75 176 -143 185 -153 15 -15 17 -58 17 -453 l-1 -437 -545 -335 c-301
-184 -628 -385 -727 -447 -163 -101 -184 -111 -202 -99 -11 7 -99 61 -195 121
-96 59 -204 127 -240 150 -84 54 -450 284 -494 310 -18 11 -132 82 -252 159
l-219 138 0 413 0 412 25 30 c25 30 240 261 293 314 15 15 27 32 27 38 0 5
-35 38 -77 72 -43 35 -80 66 -83 69 -3 3 -49 41 -103 84 l-97 79 2 440 3 441
300 189 c165 104 308 191 318 194 9 3 17 8 17 12 0 4 15 15 33 24 17 10 44 25
59 35 40 24 386 241 553 344 77 48 145 88 150 88 6 0 44 -21 85 -47z"/>
<path d="M3349 5182 c-13 -10 -243 -155 -511 -322 l-488 -304 0 -305 1 -306
166 -135 c92 -74 271 -220 398 -323 126 -103 237 -193 245 -200 41 -33 126
-103 136 -112 22 -20 77 -60 83 -60 3 0 6 183 6 407 l1 406 -92 74 -91 73 -1
199 0 198 26 24 c15 13 30 24 34 24 4 0 33 18 65 41 l58 40 1 295 c0 162 -3
297 -7 299 -3 3 -17 -3 -30 -13z"/>
<path d="M3668 5193 c-3 -4 -4 -138 -4 -298 l1 -290 40 -22 c22 -12 51 -27 65
-33 14 -6 53 -25 87 -42 l63 -31 -2 -94 c0 -52 3 -98 8 -102 5 -5 144 -109
309 -232 165 -122 303 -227 306 -231 3 -5 41 29 84 74 l79 83 1 288 c0 158 -2
291 -5 296 -3 4 -225 143 -493 310 -269 166 -499 309 -512 317 -13 8 -25 11
-27 7z"/>
<path d="M3665 3513 l0 -408 100 -83 100 -83 2 -199 1 -199 -101 -63 -102 -64
0 -297 c-1 -163 2 -297 6 -297 7 0 314 186 464 282 17 10 154 95 305 187 l275
169 3 305 2 305 -277 227 c-153 124 -285 231 -293 238 -112 89 -157 127 -199
163 -20 16 -72 59 -116 94 -44 35 -82 67 -85 70 -8 8 -78 60 -82 60 -2 0 -3
-183 -3 -407z"/>
<path d="M2447 3122 l-77 -77 0 -295 0 -295 48 -29 c26 -16 70 -44 97 -62 28
-17 151 -96 275 -174 124 -79 248 -157 275 -175 72 -46 197 -124 263 -166 l58
-35 0 300 -1 301 -115 61 -115 62 -5 98 -5 98 -270 203 c-148 111 -288 216
-311 232 l-41 30 -76 -77z"/>
</g>
</svg>
