<?xml version="1.0" encoding="UTF-8" standalone="no"?>
<!-- Created with Inkscape (http://www.inkscape.org/) -->

<svg
   xmlns:dc="http://purl.org/dc/elements/1.1/"
   xmlns:cc="http://creativecommons.org/ns#"
   xmlns:rdf="http://www.w3.org/1999/02/22-rdf-syntax-ns#"
   xmlns:svg="http://www.w3.org/2000/svg"
   xmlns="http://www.w3.org/2000/svg"
   xmlns:sodipodi="http://sodipodi.sourceforge.net/DTD/sodipodi-0.dtd"
   xmlns:inkscape="http://www.inkscape.org/namespaces/inkscape"
   width="800"
   height="800"
   viewBox="0 0 211.66666 211.66667"
   version="1.1"
   id="svg9155"
   sodipodi:docname="about.svg"
   inkscape:version="0.92.4 (5da689c313, 2019-01-14)">
  <defs
     id="defs9149" />
  <sodipodi:namedview
     id="base"
     pagecolor="#1e1e1e"
     bordercolor="#666666"
     borderopacity="1.0"
     inkscape:pageopacity="0.0"
     inkscape:pageshadow="2"
     inkscape:zoom="0.24748738"
     inkscape:cx="503.58004"
     inkscape:cy="149.31859"
     inkscape:document-units="mm"
     inkscape:current-layer="layer1"
     showgrid="false"
     inkscape:pagecheckerboard="true"
     borderlayer="true"
     inkscape:showpageshadow="false"
     units="px"
     showguides="true"
     inkscape:guide-bbox="true"
     inkscape:snap-global="false"
     inkscape:window-width="1920"
     inkscape:window-height="1028"
     inkscape:window-x="0"
     inkscape:window-y="0"
     inkscape:window-maximized="1" />
  <metadata
     id="metadata9152">
    <rdf:RDF>
      <cc:Work
         rdf:about="">
        <dc:format>image/svg+xml</dc:format>
        <dc:type
           rdf:resource="http://purl.org/dc/dcmitype/StillImage" />
        <dc:title></dc:title>
      </cc:Work>
    </rdf:RDF>
  </metadata>
  <g
     inkscape:label="Layer 1"
     inkscape:groupmode="layer"
     id="layer1"
     transform="translate(0,-85.333317)">
    <g
       id="g11094">
      <path
         inkscape:connector-curvature="0"
         id="path1663"
         d="m 161.25802,176.58804 c -0.1765,1.47167 -0.37861,2.91896 -0.6003,4.33002 0.11356,1.15942 0.062,2.2428 -0.0936,3.43502 1.01878,1.946 0.77207,5.19801 0.77207,5.19801 -0.22302,-1.46362 -0.57586,-2.61532 -1.05349,-3.4364 -0.33881,1.86394 -0.83197,4.10885 -1.33399,7.26431 -0.62879,3.95216 -3.26285,6.18133 -5.4415,8.60335 -0.40916,0.45483 -0.80972,0.91256 -1.20334,1.37326 4.63073,1.67004 7.31234,-3.23566 9.74043,-7.31958 2.98801,-5.02558 5.20762,-11.99192 2.73194,-16.91795 -0.81962,-1.63088 -2.13116,-2.32563 -3.51817,-2.53004 z"
         style="opacity:1;vector-effect:none;fill:#fcd1ae;fill-opacity:1;stroke:none;stroke-width:1.12935436;stroke-linecap:butt;stroke-linejoin:miter;stroke-miterlimit:4;stroke-dasharray:none;stroke-dashoffset:0;stroke-opacity:1" />
      <path
         inkscape:connector-curvature="0"
         id="path1665"
         d="m 49.352476,176.72373 c -1.135822,0.31383 -2.171299,1.02427 -2.859847,2.39435 -2.475679,4.92603 -0.256103,11.89237 2.731479,16.91795 2.326121,3.91239 4.885702,8.57783 9.167998,7.49456 -0.44028,-0.52037 -0.891788,-1.03585 -1.352722,-1.54824 -2.178643,-2.42202 -4.812724,-4.65119 -5.441485,-8.60335 -0.415978,-2.61453 -0.788847,-4.58644 -1.073136,-6.25103 -0.249156,0.67821 -0.449215,1.48256 -0.592529,2.42312 0,0 -0.165278,-2.18468 0.335327,-4.04446 -0.203591,-1.41169 -0.308802,-2.62891 -0.253109,-3.88503 a 3.6311661,3.6311661 0 0 1 0,-0.005 c -0.0026,-0.009 -0.0152,-0.0527 -0.01497,-0.0525 0,-0.003 -0.0073,-0.0302 -0.0073,-0.0302 a 3.6311661,3.6311661 0 0 1 -0.06304,-0.64371 c -0.212503,-1.35943 -0.406364,-2.75148 -0.576554,-4.16644 z"
         style="opacity:1;vector-effect:none;fill:#fcd1ae;fill-opacity:1;stroke:none;stroke-width:1.12935436;stroke-linecap:butt;stroke-linejoin:miter;stroke-miterlimit:4;stroke-dasharray:none;stroke-dashoffset:0;stroke-opacity:1" />
      <path
         inkscape:connector-curvature="0"
         id="path1961"
         d="m 105.81464,150.91417 c -2.3362,0 -4.67086,0.0222 -6.99387,0.09 -2.32301,0.0677 -4.63449,0.18097 -6.92351,0.36318 -1.14451,0.0911 -2.28328,0.1995 -3.41539,0.32803 -1.13211,0.12851 -2.25716,0.2773 -3.37427,0.44908 -1.11711,0.17178 -2.22634,0.36662 -3.32585,0.5875 -1.099507,0.22088 -2.189427,0.46744 -3.268735,0.74328 -1.419428,0.423 -2.907954,0.93518 -4.438723,1.5067 -1.530769,0.5715 -3.10388,1.20261 -4.692718,1.86393 -3.177771,1.32262 -6.418509,2.76626 -9.509266,4.09564 -1.550584,0.66691 -3.064654,1.30514 -4.531476,1.88586 -1.000835,0.39621 -1.945205,0.71743 -2.898698,1.05075 -0.179172,6.81977 0.594681,13.74677 1.70861,19.83126 5.134601,11.49187 9.859937,18.08607 12.895868,23.61167 3.328448,5.41959 5.432218,21.84823 16.499488,29.30396 16.09416,10.30974 31.0432,8.09421 43.49272,0 11.06719,-7.45573 9.70273,-14.43779 13.0311,-19.85729 3.03598,-5.52569 1.93376,-10.24413 16.36654,-33.05834 1.13442,-6.19644 1.93335,-13.27009 1.70312,-20.21091 -0.62022,-0.22872 -1.21166,-0.41811 -1.85068,-0.6711 -1.46669,-0.58072 -2.98055,-1.21895 -4.53101,-1.88586 -3.09254,-1.33023 -6.33552,-2.77504 -9.51521,-4.09838 -1.58984,-0.66167 -3.16388,-1.29273 -4.69547,-1.86439 -1.53158,-0.57167 -3.02059,-1.08387 -4.44055,-1.50668 -0.93735,-0.2518 -1.93475,-0.48037 -2.97909,-0.68801 -1.04436,-0.20764 -2.1355,-0.39437 -3.26052,-0.56147 -1.12502,-0.1671 -2.28399,-0.31476 -3.46336,-0.44498 -1.17936,-0.13019 -2.37933,-0.24298 -3.5867,-0.33989 -2.41475,-0.19383 -4.85941,-0.32461 -7.22823,-0.40704 -2.36882,-0.0824 -4.66187,-0.11651 -6.77412,-0.11651 z m -29.693218,15.89278 a 16.613573,11.455974 88.083386 0 1 1.145772,0.0809 16.613573,11.455974 88.083386 0 1 1.137092,0.24625 16.613573,11.455974 88.083386 0 1 1.117447,0.40842 16.613573,11.455974 88.083386 0 1 1.086381,0.56741 16.613573,11.455974 88.083386 0 1 1.044806,0.71999 16.613573,11.455974 88.083386 0 1 0.99228,0.8657 16.613573,11.455974 88.083386 0 1 0.93059,1.00325 16.613573,11.455974 88.083386 0 1 0.85887,1.12979 16.613573,11.455974 88.083386 0 1 0.77893,1.24582 16.613573,11.455974 88.083386 0 1 0.69121,1.34905 16.613573,11.455974 88.083386 0 1 0.59664,1.43908 16.613573,11.455974 88.083386 0 1 0.49568,1.51445 16.613573,11.455974 88.083386 0 1 0.39015,1.57475 16.613573,11.455974 88.083386 0 1 0.28096,1.61951 16.613573,11.455974 88.083386 0 1 0.16857,1.64787 16.613573,11.455974 88.083386 0 1 0.0503,1.17455 16.613573,11.455974 88.083386 0 1 -0.0265,1.65835 16.613573,11.455974 88.083386 0 1 -0.14117,1.6419 16.613573,11.455974 88.083386 0 1 -0.25355,1.60901 16.613573,11.455974 88.083386 0 1 -0.36411,1.56059 16.613573,11.455974 88.083386 0 1 -0.47055,1.49571 16.613573,11.455974 88.083386 0 1 -0.57243,1.41623 16.613573,11.455974 88.083386 0 1 -0.66882,1.32304 16.613573,11.455974 88.083386 0 1 -0.75836,1.21657 16.613573,11.455974 88.083386 0 1 -0.84015,1.09736 16.613573,11.455974 88.083386 0 1 -0.91415,0.96713 16.613573,11.455974 88.083386 0 1 -0.9781,0.82826 16.613573,11.455974 88.083386 0 1 -1.032936,0.6798 16.613573,11.455974 88.083386 0 1 -1.077702,0.52582 16.613573,11.455974 88.083386 0 1 -1.110595,0.36548 16.613573,11.455974 88.083386 0 1 -1.133436,0.2024 16.613573,11.455974 88.083386 0 1 -0.809989,0.0434 16.613573,11.455974 88.083386 0 1 -1.145316,-0.0809 16.613573,11.455974 88.083386 0 1 -1.137092,-0.24624 16.613573,11.455974 88.083386 0 1 -1.117447,-0.40842 16.613573,11.455974 88.083386 0 1 -1.086381,-0.56741 16.613573,11.455974 88.083386 0 1 -1.044809,-0.71998 16.613573,11.455974 88.083386 0 1 -0.992728,-0.86573 16.613573,11.455974 88.083386 0 1 -0.930142,-1.00325 16.613573,11.455974 88.083386 0 1 -0.858878,-1.12976 16.613573,11.455974 88.083386 0 1 -0.779373,-1.24583 16.613573,11.455974 88.083386 0 1 -0.691214,-1.34907 16.613573,11.455974 88.083386 0 1 -0.596179,-1.43906 16.613573,11.455974 88.083386 0 1 -0.496137,-1.51444 16.613573,11.455974 88.083386 0 1 -0.390154,-1.57477 16.613573,11.455974 88.083386 0 1 -0.2805,-1.61952 16.613573,11.455974 88.083386 0 1 -0.168576,-1.64784 16.613573,11.455974 88.083386 0 1 -0.05024,-1.17456 16.613573,11.455974 88.083386 0 1 0.0265,-1.65834 16.613573,11.455974 88.083386 0 1 0.140694,-1.64192 16.613573,11.455974 88.083386 0 1 0.253998,-1.60902 16.613573,11.455974 88.083386 0 1 0.363653,-1.56059 16.613573,11.455974 88.083386 0 1 0.471016,-1.49571 16.613573,11.455974 88.083386 0 1 0.572437,-1.41623 16.613573,11.455974 88.083386 0 1 0.668806,-1.32301 16.613573,11.455974 88.083386 0 1 0.758368,-1.21659 16.613573,11.455974 88.083386 0 1 0.840142,-1.09735 16.613573,11.455974 88.083386 0 1 0.914159,-0.96715 16.613573,11.455974 88.083386 0 1 0.978109,-0.82826 16.613573,11.455974 88.083386 0 1 1.032929,-0.67978 16.613573,11.455974 88.083386 0 1 1.077245,-0.52584 16.613573,11.455974 88.083386 0 1 1.111052,-0.36548 16.613573,11.455974 88.083386 0 1 1.133438,-0.20237 16.613573,11.455974 88.083386 0 1 0.809531,-0.0434 z m 57.505128,0 a 11.455975,16.613573 1.9166138 0 1 0.80999,0.0434 11.455975,16.613573 1.9166138 0 1 1.13344,0.20193 11.455975,16.613573 1.9166138 0 1 1.11059,0.36592 11.455975,16.613573 1.9166138 0 1 1.07725,0.52538 11.455975,16.613573 1.9166138 0 1 1.03339,0.68024 11.455975,16.613573 1.9166138 0 1 0.97811,0.82826 11.455975,16.613573 1.9166138 0 1 0.91369,0.96715 11.455975,16.613573 1.9166138 0 1 0.8406,1.09735 11.455975,16.613573 1.9166138 0 1 0.75836,1.21659 11.455975,16.613573 1.9166138 0 1 0.66883,1.32257 11.455975,16.613573 1.9166138 0 1 0.57243,1.41667 11.455975,16.613573 1.9166138 0 1 0.47055,1.49571 11.455975,16.613573 1.9166138 0 1 0.36411,1.56059 11.455975,16.613573 1.9166138 0 1 0.25354,1.60902 11.455975,16.613573 1.9166138 0 1 0.14117,1.64192 11.455975,16.613573 1.9166138 0 1 0.0265,1.65788 11.455975,16.613573 1.9166138 0 1 -0.0503,1.17502 11.455975,16.613573 1.9166138 0 1 -0.16857,1.64784 11.455975,16.613573 1.9166138 0 1 -0.28096,1.61952 11.455975,16.613573 1.9166138 0 1 -0.39015,1.57477 11.455975,16.613573 1.9166138 0 1 -0.49568,1.51444 11.455975,16.613573 1.9166138 0 1 -0.59664,1.43861 11.455975,16.613573 1.9166138 0 1 -0.69121,1.34952 11.455975,16.613573 1.9166138 0 1 -0.77892,1.24583 11.455975,16.613573 1.9166138 0 1 -0.85887,1.12976 11.455975,16.613573 1.9166138 0 1 -0.9306,1.00325 11.455975,16.613573 1.9166138 0 1 -0.99227,0.86573 11.455975,16.613573 1.9166138 0 1 -1.04481,0.71998 11.455975,16.613573 1.9166138 0 1 -1.08638,0.56741 11.455975,16.613573 1.9166138 0 1 -1.11745,0.40842 11.455975,16.613573 1.9166138 0 1 -1.13709,0.24624 11.455975,16.613573 1.9166138 0 1 -1.14577,0.0804 11.455975,16.613573 1.9166138 0 1 -0.80954,-0.0429 11.455975,16.613573 1.9166138 0 1 -1.13343,-0.2024 11.455975,16.613573 1.9166138 0 1 -1.11106,-0.36548 11.455975,16.613573 1.9166138 0 1 -1.07724,-0.52582 11.455975,16.613573 1.9166138 0 1 -1.03293,-0.68024 11.455975,16.613573 1.9166138 0 1 -0.97857,-0.82782 11.455975,16.613573 1.9166138 0 1 -0.91369,-0.96759 11.455975,16.613573 1.9166138 0 1 -0.84014,-1.09735 11.455975,16.613573 1.9166138 0 1 -0.75837,-1.21612 11.455975,16.613573 1.9166138 0 1 -0.66882,-1.32304 11.455975,16.613573 1.9166138 0 1 -0.57289,-1.41623 11.455975,16.613573 1.9166138 0 1 -0.47055,-1.49615 11.455975,16.613573 1.9166138 0 1 -0.36365,-1.56015 11.455975,16.613573 1.9166138 0 1 -0.254,-1.60901 11.455975,16.613573 1.9166138 0 1 -0.14071,-1.6419 11.455975,16.613573 1.9166138 0 1 -0.027,-1.65835 11.455975,16.613573 1.9166138 0 1 0.0507,-1.17455 11.455975,16.613573 1.9166138 0 1 0.16812,-1.64787 11.455975,16.613573 1.9166138 0 1 0.28096,-1.61951 11.455975,16.613573 1.9166138 0 1 0.39015,-1.57475 11.455975,16.613573 1.9166138 0 1 0.49614,-1.51445 11.455975,16.613573 1.9166138 0 1 0.59618,-1.43908 11.455975,16.613573 1.9166138 0 1 0.69121,-1.34905 11.455975,16.613573 1.9166138 0 1 0.77892,-1.24582 11.455975,16.613573 1.9166138 0 1 0.85933,-1.12979 11.455975,16.613573 1.9166138 0 1 0.93014,-1.00325 11.455975,16.613573 1.9166138 0 1 0.99273,-0.8657 11.455975,16.613573 1.9166138 0 1 1.04435,-0.72046 11.455975,16.613573 1.9166138 0 1 1.08684,-0.56694 11.455975,16.613573 1.9166138 0 1 1.11745,-0.40889 11.455975,16.613573 1.9166138 0 1 1.13709,-0.24578 11.455975,16.613573 1.9166138 0 1 1.14531,-0.0809 z m -42.98608,47.49836 c 0,0 0.16103,0.44585 0.50801,1.11426 0.1735,0.3342 0.39352,0.72391 0.66335,1.14167 0.26982,0.41775 0.58911,0.86325 0.96166,1.30886 0.37255,0.44559 0.79842,0.89158 1.28008,1.30931 0.48167,0.41776 1.01915,0.80747 1.61633,1.14167 0.29858,0.1671 0.61198,0.32017 0.94064,0.45593 0.32867,0.13578 0.67294,0.2543 1.03248,0.35177 0.35953,0.0975 0.73446,0.17393 1.12567,0.22614 0.39121,0.0522 0.79838,0.0799 1.22206,0.0799 0.84737,0 1.82259,-0.0764 2.88042,-0.21061 1.05784,-0.13421 2.19819,-0.32632 3.3761,-0.55644 1.17791,-0.23009 2.39328,-0.49814 3.60087,-0.78578 1.20758,-0.28763 2.4074,-0.59454 3.55426,-0.90135 2.29373,-0.61361 4.37574,-1.22738 5.88419,-1.68758 1.50846,-0.46021 2.44367,-0.76705 2.44367,-0.76705 0,0 -0.69426,0.48928 -1.89043,1.21612 -0.59808,0.36342 -1.3215,0.78653 -2.14672,1.23715 -0.82522,0.45062 -1.7522,0.92905 -2.75662,1.40388 -1.00441,0.47483 -2.08646,0.94596 -3.22214,1.38196 -1.13567,0.43602 -2.32475,0.8367 -3.54376,1.17091 -0.60949,0.1671 -1.2266,0.31787 -1.84794,0.44769 -0.62134,0.12984 -1.24725,0.23877 -1.87444,0.32347 -0.62719,0.0847 -1.25562,0.14511 -1.88267,0.17679 -0.62705,0.0317 -1.25261,0.0347 -1.87353,0.006 -0.62091,-0.0292 -1.20314,-0.0921 -1.74972,-0.18458 -0.54658,-0.0925 -1.05756,-0.21435 -1.53455,-0.36136 -0.47698,-0.14703 -0.92004,-0.31923 -1.33216,-0.51213 -0.41213,-0.1929 -0.79331,-0.40674 -1.14532,-0.63683 -0.352,-0.23012 -0.6751,-0.47645 -0.97171,-0.73508 -0.29662,-0.25865 -0.56676,-0.52965 -0.81273,-0.80816 -0.24597,-0.27849 -0.46786,-0.56463 -0.66791,-0.8543 -0.20006,-0.28969 -0.37792,-0.58268 -0.5368,-0.87487 -0.31776,-0.58439 -0.55815,-1.1653 -0.73963,-1.7077 -0.18148,-0.54238 -0.30432,-1.04645 -0.38741,-1.47744 -0.16618,-0.86197 -0.1736,-1.43176 -0.1736,-1.43176 z m 10.3124,10.46089 c 0,0 0.0417,0.0717 0.13112,0.17955 0.0894,0.1078 0.22649,0.25142 0.41847,0.39516 0.19198,0.14375 0.43876,0.28737 0.74649,0.39518 0.30773,0.10781 0.67668,0.17999 1.11333,0.17999 0.87332,0 2.2736,-0.14474 3.45559,-0.28918 1.18199,-0.14443 2.14535,-0.28873 2.14535,-0.28873 0,0 -0.17879,0.12614 -0.487,0.31341 -0.3082,0.18724 -0.74559,0.43558 -1.26318,0.68024 -0.51759,0.24465 -1.11516,0.48564 -1.74332,0.65786 -0.31409,0.0861 -0.63573,0.15506 -0.95892,0.19873 -0.32321,0.0436 -0.6481,0.0621 -0.96806,0.047 -0.31997,-0.015 -0.60029,-0.065 -0.84608,-0.1407 -0.2458,-0.0757 -0.45683,-0.17746 -0.63822,-0.29603 -0.18139,-0.11859 -0.33329,-0.25395 -0.46004,-0.39747 -0.12676,-0.1435 -0.22833,-0.29531 -0.3102,-0.44587 -0.16375,-0.30116 -0.24773,-0.5984 -0.29056,-0.8205 -0.0428,-0.22211 -0.0448,-0.36868 -0.0448,-0.36868 z"
         style="opacity:1;vector-effect:none;fill:#fcd1ae;fill-opacity:1;stroke:none;stroke-width:1.2470839;stroke-linecap:butt;stroke-linejoin:miter;stroke-miterlimit:4;stroke-dasharray:none;stroke-dashoffset:0;stroke-opacity:1" />
      <path
         inkscape:connector-curvature="0"
         id="path1673"
         d="m 89.11323,251.85447 -3.75162,1.69764 c 0,0 2.72961,1.69659 3.57848,6.42602 0,0 -2.24419,-7.03263 -7.701069,-6.12313 -5.456832,0.90952 -7.395783,9.09567 -8.850949,13.09735 -1.378448,3.79089 -1.856829,9.03694 -1.907792,9.61296 0.176121,-0.17978 0.337528,-0.38854 0.519434,-0.55597 0.519593,-0.47824 1.061082,-0.90674 1.617237,-1.28922 0.556155,-0.38248 1.126594,-0.71905 1.703581,-1.0133 0.576986,-0.29423 1.160784,-0.54622 1.742872,-0.75973 0.582086,-0.2135 1.162733,-0.38875 1.73419,-0.52902 0.571455,-0.1403 1.133817,-0.24567 1.678911,-0.32026 0.545093,-0.0746 1.078987,-0.12365 1.596679,-0.15258 0.517696,-0.0289 1.018896,-0.0379 1.497546,-0.0315 0.9573,0.0126 1.82475,0.0858 2.55606,0.17725 0.36085,0.0452 0.56905,0.0933 0.85795,0.14255 0.28737,-0.50735 0.56804,-1.09913 0.77162,-1.88587 0,0 0.25423,0.9211 0.51898,2.12892 0.0576,0.0147 0.23162,0.0548 0.23162,0.0548 a 2.6748407,2.6748407 0 0 1 0.23116,0.0745 2.6748407,2.6748407 0 0 1 0.24579,0.10598 2.6748407,2.6748407 0 0 1 0.23344,0.13021 2.6748407,2.6748407 0 0 1 0.21975,0.15258 2.6748407,2.6748407 0 0 1 0.20284,0.17405 2.6748407,2.6748407 0 0 1 0.18502,0.19325 2.6748407,2.6748407 0 0 1 0.16447,0.21061 2.6748407,2.6748407 0 0 1 0.14253,0.22614 2.6748407,2.6748407 0 0 1 0.1197,0.23894 c 0.2086,0.47588 0.3558,0.94217 0.45547,1.39246 0.0997,0.45029 0.15179,0.8847 0.16904,1.29789 0.0172,0.41322 -1.4e-4,0.80492 -0.0388,1.16953 -0.0387,0.36464 -0.0986,0.70237 -0.16675,1.00689 0.45872,0.14622 0.94887,0.30974 0.94887,0.30974 a 2.6748407,2.6748407 0 0 1 0.0343,0.0133 2.6748407,2.6748407 0 0 1 0.24441,0.10827 c -0.19288,-0.10418 -0.2751,-0.12582 -0.25172,-0.12975 0.0234,-0.004 0.15216,0.01 0.38238,-0.0229 0.60459,-0.0858 1.58056,-0.31109 2.72783,-0.64095 1.14725,-0.32983 2.4764,-0.76089 3.90102,-1.25085 1.42461,-0.48994 2.94447,-1.03871 4.47253,-1.60352 3.05613,-1.12965 6.15422,-2.32369 8.70293,-3.26418 1.27437,-0.47024 2.40911,-0.87712 3.36056,-1.18735 0.47573,-0.1551 0.86821,-0.29011 1.25907,-0.39745 0.39086,-0.10734 0.7804,-0.18705 1.24948,-0.23161 a 2.6748407,2.6748407 0 0 1 0.16035,-0.01 v 0 a 2.6748407,2.6748407 0 0 0 4.7e-4,0 2.6748407,2.6748407 0 0 1 0.26726,0.004 2.6748407,2.6748407 0 0 1 0.26542,0.0311 c 1.0651,0.17791 1.98591,0.39675 2.77352,0.63 0.78761,0.23323 1.44203,0.48077 1.97404,0.71587 0.39507,0.17461 0.68343,0.34737 0.96897,0.51305 0.0213,-0.006 0.19655,-0.0377 0.23756,-0.048 0.26229,-1.18952 0.51212,-2.09556 0.51212,-2.09556 0.14648,0.72137 0.43693,1.31619 0.74558,1.8411 0.002,0 0.002,0 0.004,0 0.41494,-0.0658 0.90394,-0.13031 1.45323,-0.18046 0.54928,-0.0502 1.15911,-0.0862 1.81642,-0.0941 0.5884,-0.007 1.21449,0.007 1.86804,0.0557 0.65356,0.0482 1.33455,0.13019 2.03206,0.25767 0.69751,0.12747 1.41181,0.30061 2.1321,0.53131 0.7203,0.2307 1.44632,0.5188 2.1682,0.87668 0.72188,0.3579 1.43477,0.79135 2.12251,1.30339 0.34387,0.25601 0.68163,0.53158 1.011,0.82735 0.23653,0.21239 0.46301,0.44746 0.6903,0.68071 -0.0684,-1.17034 -0.38231,-5.94475 -1.67298,-9.49373 -1.45517,-4.00168 -3.39594,-12.18784 -8.85277,-13.09736 -5.45688,-0.90949 -7.69924,6.12313 -7.69924,6.12313 0.84885,-4.72942 3.57665,-6.42601 3.57665,-6.42601 l -3.74934,-1.69764 c -6.63731,7.12238 -14.50426,8.47358 -16.19796,8.68877 -1.69373,-0.2151 -9.55884,-1.56639 -16.19613,-8.68877 z"
         style="opacity:1;vector-effect:none;fill:#999999;fill-opacity:1;stroke:none;stroke-width:0.37145561;stroke-linecap:butt;stroke-linejoin:miter;stroke-miterlimit:4;stroke-dasharray:none;stroke-dashoffset:0;stroke-opacity:1" />
      <path
         sodipodi:nodetypes="ccccccccc"
         inkscape:connector-curvature="0"
         id="path1675"
         d="m 96.69648,243.84892 c 0,0 -0.49438,4.89217 -2.8928,8.86837 0,0 4.38655,4.16981 11.48692,5.36903 7.10039,-1.19922 11.54067,-5.36903 11.54067,-5.36903 -2.39836,-3.9762 -2.90351,-8.86837 -2.90351,-8.86837 -4.35227,1.73424 -8.64092,1.60968 -8.64613,1.6095 h -8.8e-4 c -0.009,1.8e-4 -4.22936,0.12536 -8.5816,-1.6095 z"
         style="opacity:1;vector-effect:none;fill:#fcd1ae;fill-opacity:1;stroke:none;stroke-width:1.09365833;stroke-linecap:butt;stroke-linejoin:miter;stroke-miterlimit:4;stroke-dasharray:none;stroke-dashoffset:0;stroke-opacity:1" />
      <path
         inkscape:connector-curvature="0"
         id="path1677"
         d="m 53.556164,180.82181 c -0.3508,2.43442 0.510523,4.96864 1.627267,11.98802 0.699949,4.3994 7.933947,8.30019 10.533804,15.85044 1.552104,4.50734 -2.522308,12.73513 0.581963,16.87409 13.354541,17.80587 38.656022,18.14898 38.896722,18.1518 h 0.0207 0.0207 c 5e-4,0 0.033,0 0.037,0 h 8.9e-4 c 0.004,2.7e-4 0.033,0 0.033,0 h 0.0207 0.0207 c 0.24062,0 25.54218,-0.34593 38.89672,-18.1518 3.10428,-4.13896 -0.97014,-12.36675 0.58198,-16.87409 2.59985,-7.55025 9.83384,-11.45104 10.53379,-15.85044 1.11675,-7.01938 1.97811,-9.5536 1.6273,-11.98802 -0.43965,2.08186 -1.23571,4.32753 -7.8655,11.24586 -4.73592,4.34114 -9.21818,15.22921 -10.13901,23.38539 0,0 -0.7241,-2.5664 -0.13207,-5.19743 -11.15703,-2.58417 -22.38942,-3.99344 -33.5798,-4.05851 h -0.004 c -11.19036,0.0654 -22.42275,1.47434 -33.579784,4.05851 0.591873,2.63103 -0.13206,5.19743 -0.13206,5.19743 -0.920856,-8.15618 -5.403099,-19.04425 -10.139012,-23.38539 -6.629784,-6.91833 -7.42582,-9.164 -7.865477,-11.24586 z M 97.97452,210.8719 c 0.69061,0 1.36015,0 1.99407,0.0203 1.68282,0 3.50934,0.15223 5.3041,0.26654 8.8e-4,1.8e-4 0.003,-9e-5 0.004,0 1.79475,-0.11378 3.62127,-0.26654 5.30409,-0.26654 5.07139,-0.12969 12.37345,0.28342 15.25113,3.40811 4.60435,4.99878 -1.97335,7.94763 -5.39364,11.89413 -3.41413,3.93943 -7.0907,7.08957 -15.08481,7.10212 h -0.0426 c -0.0128,0 -0.0207,0 -0.033,0 -8.9e-4,-9e-5 -8.9e-4,0 -8.9e-4,0 -0.0128,2.7e-4 -0.0207,0 -0.037,0 h -0.0424 c -7.99412,-0.0124 -11.6707,-3.16269 -15.08478,-7.10212 -3.42032,-3.9465 -9.998028,-6.89535 -5.39369,-11.89413 2.51799,-2.73393 8.42259,-3.39229 13.25705,-3.42747 z"
         style="opacity:1;vector-effect:none;fill:#a05a2c;fill-opacity:1;stroke:none;stroke-width:0.80594307;stroke-linecap:butt;stroke-linejoin:miter;stroke-miterlimit:4;stroke-dasharray:none;stroke-dashoffset:0;stroke-opacity:1"
         sodipodi:nodetypes="ccccccssccccccccccccccccccccccccccsccsccccc" />
      <path
         sodipodi:nodetypes="cccccccccc"
         inkscape:connector-curvature="0"
         id="path1679"
         d="m 76.801007,158.29987 c -4.585933,-0.31234 -11.34783,0.75542 -12.97126,8.77201 3.931673,-5.19629 11.063846,-7.22307 16.631043,-4.3529 -3.253543,-0.53618 -6.228477,-0.65181 -9.185659,0.69725 4.619891,-0.20466 9.015126,1.76439 13.493789,2.53175 2.47052,0.38386 10.787,1.45418 13.13118,3.9221 0,0 2.45067,-4.4223 1.04505,-6.62217 -3.93987,-5.11937 -11.8431,-2.79237 -18.554739,-4.38066 -0.773909,-0.20475 -2.060735,-0.46298 -3.589404,-0.56721 z"
         style="opacity:1;vector-effect:none;fill:#a05a2c;fill-opacity:1;stroke:none;stroke-width:0.36797193;stroke-linecap:butt;stroke-linejoin:miter;stroke-miterlimit:4;stroke-dasharray:none;stroke-dashoffset:0;stroke-opacity:1" />
      <path
         style="opacity:1;vector-effect:none;fill:#a05a2c;fill-opacity:1;stroke:none;stroke-width:0.36797193;stroke-linecap:butt;stroke-linejoin:miter;stroke-miterlimit:4;stroke-dasharray:none;stroke-dashoffset:0;stroke-opacity:1"
         d="m 133.7725,158.29987 c 4.58598,-0.31234 11.34787,0.75542 12.97127,8.77201 -3.93164,-5.19629 -11.06381,-7.22307 -16.63105,-4.3529 3.25355,-0.53618 6.22852,-0.65181 9.18569,0.69725 -4.61989,-0.20466 -9.01515,1.76439 -13.49378,2.53175 -2.47051,0.38386 -10.78704,1.45418 -13.13122,3.9221 0,0 -2.45062,-4.4223 -1.04502,-6.62217 3.93988,-5.11937 11.84312,-2.79237 18.55475,-4.38066 0.77386,-0.20475 2.06069,-0.46298 3.58936,-0.56721 z"
         id="path1681"
         inkscape:connector-curvature="0"
         sodipodi:nodetypes="cccccccccc" />
      <path
         inkscape:connector-curvature="0"
         id="path1685"
         d="m 123.62099,274.99179 c 0,0 12.84361,-3.5096 17.17461,7.61647 0,0 -3.72032,3.7558 -7.3108,5.28707 0,0 2.21768,-0.68638 3.16808,-1.05618 0,0 -3.32648,7.9731 -5.49133,8.34263 -2.16483,0.3698 -6.44177,-0.52796 -10.56027,0.10617 -4.11845,0.63369 -12.09148,0.42249 -17.21319,-4.32964 0,0 13.2003,-6.44165 17.31881,-9.34585 0,0 6.91699,-2.48154 12.40827,0.15842 0,0 -4.11845,-4.06558 -9.45142,-2.5344 0,0 -0.9832,-2.09927 -0.043,-4.24416 z"
         style="opacity:1;vector-effect:none;fill:#fcd1ae;fill-opacity:1;stroke:none;stroke-width:0.924236;stroke-linecap:butt;stroke-linejoin:miter;stroke-miterlimit:4;stroke-dasharray:none;stroke-dashoffset:0;stroke-opacity:1" />
      <path
         sodipodi:nodetypes="cccccccscccccc"
         style="opacity:1;vector-effect:none;fill:#fcd1ae;fill-opacity:1;stroke:none;stroke-width:0.924236;stroke-linecap:butt;stroke-linejoin:miter;stroke-miterlimit:4;stroke-dasharray:none;stroke-dashoffset:0;stroke-opacity:1"
         d="m 86.80204,274.99179 c 0,0 -12.843597,-3.5096 -17.174606,7.61647 0,0 3.720332,3.7558 7.310796,5.28707 0,0 -2.217637,-0.68638 -3.168064,-1.05618 0,0 3.326513,7.9731 5.491319,8.34263 2.164867,0.3698 6.053025,1.47557 10.560265,0.10617 7.77744,-2.65189 25.53402,-11.44591 32.07453,-15.97412 0,0 -0.42941,-2.21702 0.39085,-4.33512 0,0 -1.48931,-1.18631 -5.33226,-1.82814 -2.97165,0.28228 -25.00805,10.03488 -27.23874,8.46189 0,0 -6.91695,-2.48154 -12.408269,0.15842 0,0 4.118491,-4.06558 9.451429,-2.5344 0,0 0.9832,-2.09927 0.043,-4.24416 z"
         id="path1687"
         inkscape:connector-curvature="0" />
      <g
         style="fill:#d38d5f;fill-opacity:1"
         transform="matrix(4.8615225,0,0,4.8615225,82.60311,-1475.8547)"
         id="g1691">
        <path
           sodipodi:nodetypes="ccccccccccccccccccccccc"
           inkscape:connector-curvature="0"
           id="path1689"
           d="m 1.9285154,342.74357 c -0.6114549,0.66788 -1.64655144,1.90897 -1.30790258,2.66154 0.33865455,0.75254 1.43012778,0.91293 1.43012778,0.91293 0,0 -0.6395645,-0.60199 -1.05347012,-1.26048 -0.41390755,-0.65849 0.93124492,-2.31399 0.93124492,-2.31399 z m 5.4735547,0 c 0,0 1.3459847,1.6555 0.9320753,2.31399 -0.4139076,0.65849 -1.0543022,1.26048 -1.0543022,1.26048 0,0 1.091475,-0.16045 1.4301278,-0.91293 0.3386507,-0.75257 -0.6964477,-1.99366 -1.3079009,-2.66154 z m -5.156766,2.34474 c -0.1099363,0 -0.2064704,0.0229 -0.2793732,0.0724 -0.291613,0.19753 -0.1596367,0.52711 -0.1596367,0.52711 0.6114549,-0.73371 2.0034968,0.29132 2.2857056,0.46067 0.2388118,0.14316 0.4861169,0.15295 0.5737159,0.15295 0.088343,3e-5 0.3345996,-0.009 0.5728798,-0.15295 0.2822086,-0.16933 1.6750865,-1.19438 2.2865358,-0.46067 0,0 0.1311455,-0.32958 -0.1604652,-0.52711 -0.2916169,-0.19755 -0.9591076,0.0474 -1.3636108,0.28268 -0.3869849,0.22497 -0.8360388,0.48031 -1.3353339,0.48223 -0.4996418,0 -0.9489635,-0.25712 -1.3361738,-0.48223 -0.3033755,-0.17646 -0.7544001,-0.3586 -1.084232,-0.35506 z"
           style="opacity:1;vector-effect:none;fill:#a05a2c;fill-opacity:1;stroke:none;stroke-width:0.46573013;stroke-linecap:butt;stroke-linejoin:miter;stroke-miterlimit:4;stroke-dasharray:none;stroke-dashoffset:0;stroke-opacity:1" />
      </g>
      <path
         transform="matrix(0.26458333,0,0,0.26458333,0,85.333317)"
         id="path1703"
         d="M 398.375 3.9511719 L 398.375 4.0625 C 383.62698 4.6164465 290.61934 16.67429 234.46875 45.072266 C 234.46875 45.072266 175.07409 55.369712 180.6582 209.1875 C 174.06547 230.49307 147.30078 279.17027 165.42969 282.82617 C 188.78167 285.87209 246.65512 251.35321 292.85156 237.64648 C 327.61302 228.71421 364.16402 227.44141 399.92969 227.44141 C 432.458 227.44141 475.90703 229.25249 507.01367 237.64648 C 553.21001 251.35321 611.07957 285.87209 634.43164 282.82617 C 652.44438 266.17743 627.14256 228.22955 619.20117 209.1875 C 619.20117 209.1875 627.85237 76.661311 565.39258 45.072266 C 509.23262 16.669872 416.21497 4.6158304 401.48438 4.0625 L 401.48438 3.9511719 C 401.48438 3.9511719 400.35866 3.9980469 399.92969 3.9980469 C 399.50249 3.9980469 398.375 3.9511719 398.375 3.9511719 z M 399.28516 38.224609 A 75.346624 75.346624 0 0 1 406.80859 38.601562 A 75.346624 75.346624 0 0 1 414.25391 39.726562 A 75.346624 75.346624 0 0 1 421.55273 41.589844 A 75.346624 75.346624 0 0 1 428.62695 44.171875 A 75.346624 75.346624 0 0 1 435.4082 47.449219 A 75.346624 75.346624 0 0 1 441.83008 51.384766 A 75.346624 75.346624 0 0 1 447.82617 55.943359 A 75.346624 75.346624 0 0 1 453.33594 61.076172 A 75.346624 75.346624 0 0 1 458.30664 66.734375 A 75.346624 75.346624 0 0 1 462.6875 72.861328 A 75.346624 75.346624 0 0 1 466.43555 79.394531 A 75.346624 75.346624 0 0 1 469.51172 86.269531 A 75.346624 75.346624 0 0 1 471.88672 93.416016 A 75.346624 75.346624 0 0 1 473.53516 100.76562 A 75.346624 75.346624 0 0 1 474.44336 108.24219 A 75.346624 75.346624 0 0 1 474.63281 113.57227 A 75.346624 75.346624 0 0 1 474.25586 121.09375 A 75.346624 75.346624 0 0 1 473.13086 128.54102 A 75.346624 75.346624 0 0 1 471.26758 135.83789 A 75.346624 75.346624 0 0 1 468.68359 142.91211 A 75.346624 75.346624 0 0 1 465.4082 149.69531 A 75.346624 75.346624 0 0 1 461.47266 156.11523 A 75.346624 75.346624 0 0 1 456.91406 162.11133 A 75.346624 75.346624 0 0 1 451.7793 167.62109 A 75.346624 75.346624 0 0 1 446.12109 172.5918 A 75.346624 75.346624 0 0 1 439.99609 176.97266 A 75.346624 75.346624 0 0 1 433.46289 180.7207 A 75.346624 75.346624 0 0 1 426.58789 183.79688 A 75.346624 75.346624 0 0 1 419.44141 186.17188 A 75.346624 75.346624 0 0 1 412.0918 187.82227 A 75.346624 75.346624 0 0 1 404.61523 188.72852 A 75.346624 75.346624 0 0 1 399.28516 188.91797 A 75.346624 75.346624 0 0 1 391.76367 188.54102 A 75.346624 75.346624 0 0 1 384.31641 187.41602 A 75.346624 75.346624 0 0 1 377.01953 185.55273 A 75.346624 75.346624 0 0 1 369.94336 182.9707 A 75.346624 75.346624 0 0 1 363.16211 179.69336 A 75.346624 75.346624 0 0 1 356.74219 175.75781 A 75.346624 75.346624 0 0 1 350.74609 171.19922 A 75.346624 75.346624 0 0 1 345.23438 166.06641 A 75.346624 75.346624 0 0 1 340.26367 160.4082 A 75.346624 75.346624 0 0 1 335.88281 154.28125 A 75.346624 75.346624 0 0 1 332.13672 147.74805 A 75.346624 75.346624 0 0 1 329.06055 140.87305 A 75.346624 75.346624 0 0 1 326.68555 133.72656 A 75.346624 75.346624 0 0 1 325.03516 126.37695 A 75.346624 75.346624 0 0 1 324.12695 118.90039 A 75.346624 75.346624 0 0 1 323.93945 113.57227 A 75.346624 75.346624 0 0 1 324.31641 106.04883 A 75.346624 75.346624 0 0 1 325.44141 98.601562 A 75.346624 75.346624 0 0 1 327.30469 91.304688 A 75.346624 75.346624 0 0 1 329.88672 84.230469 A 75.346624 75.346624 0 0 1 333.16211 77.449219 A 75.346624 75.346624 0 0 1 337.09961 71.027344 A 75.346624 75.346624 0 0 1 341.6582 65.03125 A 75.346624 75.346624 0 0 1 346.79102 59.521484 A 75.346624 75.346624 0 0 1 352.44922 54.550781 A 75.346624 75.346624 0 0 1 358.57617 50.169922 A 75.346624 75.346624 0 0 1 365.10938 46.421875 A 75.346624 75.346624 0 0 1 371.98242 43.345703 A 75.346624 75.346624 0 0 1 379.13086 40.970703 A 75.346624 75.346624 0 0 1 386.47852 39.320312 A 75.346624 75.346624 0 0 1 393.95508 38.414062 A 75.346624 75.346624 0 0 1 399.28516 38.224609 z M 399.92969 198.30078 C 475.26928 198.42777 511.82273 207.51917 544.96484 218.38867 C 578.34862 229.33713 627.26067 262.26289 631.38867 254.9043 C 631.38867 266.5805 605.4948 253.88802 577.57422 240.68945 C 549.84016 227.57888 506.0459 203.45974 400.97852 203.13867 L 400.97852 203.0918 L 399.92969 203.0918 L 398.88086 203.0918 L 398.88086 203.13867 C 293.8144 203.45615 250.01921 227.57888 222.28516 240.68945 C 194.36457 253.88862 168.47656 266.5805 168.47656 254.9043 C 172.60473 262.26289 221.51893 229.33713 254.90234 218.38867 C 288.0446 207.51917 324.59006 198.4317 399.92969 198.30078 z "
         style="opacity:1;vector-effect:none;fill:#999999;fill-opacity:1;stroke:none;stroke-width:3.11008215;stroke-linecap:butt;stroke-linejoin:miter;stroke-miterlimit:4;stroke-dasharray:none;stroke-dashoffset:0;stroke-opacity:1" />
      <g
         transform="matrix(1.2976873,0,0,1.2976873,-31.640792,-245.8215)"
         id="g7192">
        <g
           transform="translate(111.88095,146.46577)"
           id="g7185"
           style="font-style:normal;font-variant:normal;font-weight:normal;font-stretch:normal;font-size:29.62626648px;line-height:1.25;font-family:sans-serif;font-variant-ligatures:normal;font-variant-position:normal;font-variant-caps:normal;font-variant-numeric:normal;font-variant-alternates:normal;font-feature-settings:normal;text-indent:0;text-align:start;text-decoration:none;text-decoration-line:none;text-decoration-style:solid;text-decoration-color:#000000;letter-spacing:0px;word-spacing:0px;text-transform:none;writing-mode:lr-tb;direction:ltr;text-orientation:mixed;dominant-baseline:auto;baseline-shift:baseline;text-anchor:start;white-space:normal;shape-padding:0;opacity:1;vector-effect:none;fill:#ffffff;fill-opacity:1;stroke:none;stroke-width:0.74065661;stroke-linecap:butt;stroke-linejoin:miter;stroke-miterlimit:4;stroke-dasharray:none;stroke-dashoffset:0;stroke-opacity:1"
           aria-label="i">
          <path
             inkscape:connector-curvature="0"
             id="path7183"
             style="font-style:normal;font-variant:normal;font-weight:normal;font-stretch:normal;font-family:'Atomic Age';-inkscape-font-specification:'Atomic Age';stroke-width:0.74065661"
             d="m -6.5392727,125.27302 q -0.5063083,0 -0.9547527,-0.18806 -0.4339786,-0.18805 -0.7666954,-0.52077 -0.7088316,-0.70883 -0.7088316,-1.72145 0,-1.01261 0.7088316,-1.72145 0.7232975,-0.72329 1.7214481,-0.72329 0.9981506,0 1.7214481,0.72329 0.7232975,0.7233 0.7232975,1.72145 0,0.99815 -0.7232975,1.72145 -0.7088316,0.70883 -1.7214481,0.70883 z m -1.6925162,3.50076 h 3.4573621 v 12.67217 h 3.0957134 q -0.086796,1.02709 -0.8390251,1.75038 -0.7377635,0.7233 -1.6780502,0.7233 h -1.2730037 q -1.1428101,0 -1.9529033,-1.07048 -0.8100932,-1.08494 -0.8100932,-2.60387 z" />
        </g>
      </g>
    </g>
  </g>
</svg>
