<?xml version="1.0" encoding="UTF-8" standalone="no"?>
<!-- Created with Inkscape (http://www.inkscape.org/) -->

<svg
   xmlns:dc="http://purl.org/dc/elements/1.1/"
   xmlns:cc="http://creativecommons.org/ns#"
   xmlns:rdf="http://www.w3.org/1999/02/22-rdf-syntax-ns#"
   xmlns:svg="http://www.w3.org/2000/svg"
   xmlns="http://www.w3.org/2000/svg"
   xmlns:sodipodi="http://sodipodi.sourceforge.net/DTD/sodipodi-0.dtd"
   xmlns:inkscape="http://www.inkscape.org/namespaces/inkscape"
   width="400"
   height="400"
   viewBox="0 0 105.83333 105.83334"
   version="1.1"
   id="svg4652"
   sodipodi:docname="icon3.svg"
   inkscape:version="0.92.4 (5da689c313, 2019-01-14)">
  <defs
     id="defs4646" />
  <sodipodi:namedview
     id="base"
     pagecolor="#1e1e1e"
     bordercolor="#666666"
     borderopacity="1.0"
     inkscape:pageopacity="0.0"
     inkscape:pageshadow="2"
     inkscape:zoom="0.98994949"
     inkscape:cx="194.30034"
     inkscape:cy="225.53868"
     inkscape:document-units="mm"
     inkscape:current-layer="layer1"
     showgrid="false"
     units="px"
     inkscape:pagecheckerboard="true"
     borderlayer="true"
     inkscape:showpageshadow="false"
     inkscape:window-width="1920"
     inkscape:window-height="1028"
     inkscape:window-x="0"
     inkscape:window-y="0"
     inkscape:window-maximized="1" />
  <metadata
     id="metadata4649">
    <rdf:RDF>
      <cc:Work
         rdf:about="">
        <dc:format>image/svg+xml</dc:format>
        <dc:type
           rdf:resource="http://purl.org/dc/dcmitype/StillImage" />
        <dc:title></dc:title>
      </cc:Work>
    </rdf:RDF>
  </metadata>
  <g
     inkscape:label="Layer 1"
     inkscape:groupmode="layer"
     id="layer1"
     transform="translate(0,-191.16665)">
    <path
       style="opacity:1;vector-effect:none;fill:#ffffff;fill-opacity:1;fill-rule:evenodd;stroke:none;stroke-width:0.38299948;stroke-linecap:butt;stroke-linejoin:miter;stroke-miterlimit:4;stroke-dasharray:none;stroke-dashoffset:0;stroke-opacity:1"
       d="M 85.630859 316.97852 L 117.54883 373.66016 L 223.91602 373.66016 L 258.89844 316.97852 L 85.630859 316.97852 z M 133.26953 328.11523 C 134.5671 328.11523 135.76874 328.22654 136.87305 328.44727 C 138.00497 328.64053 138.97087 328.97011 139.77148 329.43945 C 140.59972 329.90874 141.24747 330.54497 141.7168 331.3457 C 142.18613 332.14628 142.42187 333.12565 142.42188 334.28516 L 142.42188 337.14258 C 142.42187 338.35719 142.18613 339.37868 141.7168 340.20703 C 141.27507 341.03525 140.54492 341.84981 139.52344 342.65039 L 133.22852 347.61914 C 132.78679 347.97794 132.41304 348.30958 132.10938 348.61328 C 131.8057 348.91695 131.5585 349.24847 131.36523 349.60742 C 131.19959 349.93871 131.07501 350.29702 130.99219 350.68359 C 130.90932 351.07001 130.86719 351.52613 130.86719 352.05078 L 130.86719 354.20508 L 141.96484 354.20508 L 141.96484 358.4707 L 124.2832 358.4707 L 124.2832 351.22266 C 124.2832 349.86979 124.517 348.65479 124.98633 347.57812 C 125.45566 346.50136 126.21654 345.5623 127.26562 344.76172 L 133.76562 339.66797 C 134.37299 339.19855 134.78694 338.75778 135.00781 338.34375 C 135.22866 337.92959 135.33984 337.44667 135.33984 336.89453 L 135.33984 333.70508 C 135.33984 333.08395 135.16729 332.61718 134.82227 332.30664 C 134.47724 331.9961 133.95973 331.8418 133.26953 331.8418 C 132.57934 331.8418 132.06183 331.9961 131.7168 332.30664 C 131.37177 332.61718 131.19922 333.08395 131.19922 333.70508 L 131.19922 338.26172 L 124.69727 338.26172 L 124.69727 334.32617 C 124.69727 333.13905 124.90424 332.15968 125.31836 331.38672 C 125.73248 330.58599 126.31319 329.95169 127.05859 329.48242 C 127.83162 328.98551 128.74193 328.6406 129.79102 328.44727 C 130.84011 328.22654 131.99957 328.11523 133.26953 328.11523 z M 171.60742 328.11523 C 172.87737 328.11523 174.06365 328.22654 175.16797 328.44727 C 176.27227 328.64053 177.22476 328.98544 178.02539 329.48242 C 178.85363 329.95169 179.50332 330.58599 179.97266 331.38672 C 180.44199 332.15968 180.67578 333.13905 180.67578 334.32617 L 180.67578 353.16992 C 180.67578 354.35705 180.44199 355.34979 179.97266 356.15039 C 179.50332 356.92348 178.85363 357.55778 178.02539 358.05469 C 177.22476 358.52395 176.27227 358.85549 175.16797 359.04883 C 174.06365 359.26955 172.87737 359.38086 171.60742 359.38086 C 170.30986 359.38086 169.0948 359.26955 167.96289 359.04883 C 166.85857 358.85557 165.89269 358.52403 165.06445 358.05469 C 164.26384 357.5854 163.62949 356.9511 163.16016 356.15039 C 162.69082 355.34979 162.45508 354.37045 162.45508 353.21094 L 162.45508 334.28516 C 162.45508 333.12565 162.69082 332.14628 163.16016 331.3457 C 163.62949 330.54497 164.26384 329.90874 165.06445 329.43945 C 165.89269 328.97019 166.85857 328.6406 167.96289 328.44727 C 169.0948 328.22654 170.30986 328.11523 171.60742 328.11523 z M 145.35547 328.98438 L 160.55469 328.98438 L 160.55469 333.00195 L 152.39648 333.00195 L 152.39648 340.74609 L 160.30469 340.74609 L 160.30469 344.63867 L 152.39648 344.63867 L 152.39648 358.4707 L 145.35547 358.4707 L 145.35547 328.98438 z M 183.32617 328.98438 L 200.84375 328.98438 L 200.84375 332.46289 L 189.82812 332.46289 L 189.82812 339.91797 L 194.01172 339.91797 C 195.17124 339.91797 196.18827 340.01412 197.06445 340.20703 C 197.94063 340.39994 198.67596 340.68963 199.26953 341.07617 C 199.8631 341.44885 200.30855 341.92416 200.60547 342.50391 C 200.90239 343.08365 201.05078 343.76784 201.05078 344.55469 L 201.05078 353.21094 C 201.05078 354.37045 200.81699 355.34979 200.34766 356.15039 C 199.87832 356.9511 199.22861 357.5854 198.40039 358.05469 C 197.59976 358.52395 196.63386 358.85549 195.50195 359.04883 C 194.39764 359.26955 193.196 359.38086 191.89844 359.38086 C 190.62849 359.38086 189.46903 359.26955 188.41992 359.04883 C 187.37083 358.85557 186.46051 358.52403 185.6875 358.05469 C 184.94209 357.55778 184.36138 356.92348 183.94727 356.15039 C 183.53315 355.34979 183.32617 354.35705 183.32617 353.16992 L 183.32617 347.82617 L 189.82812 347.82617 L 189.82812 353.79102 C 189.82812 354.41214 190.00067 354.87891 190.3457 355.18945 C 190.69073 355.49999 191.20824 355.6543 191.89844 355.6543 C 192.58863 355.6543 193.10762 355.49999 193.45312 355.18945 C 193.79864 354.87891 193.9707 354.41214 193.9707 353.79102 L 193.9707 346.08789 C 193.9707 345.2873 193.74294 344.68755 193.28711 344.28711 C 192.83128 343.88667 192.14738 343.68555 191.23633 343.68555 L 183.32617 343.68555 L 183.32617 328.98438 z M 214.05859 328.98438 L 221.14062 328.98438 L 221.14062 353.21094 C 221.14063 354.37045 220.90488 355.34979 220.43555 356.15039 C 219.96622 356.9511 219.31847 357.5854 218.49023 358.05469 C 217.68962 358.52395 216.72177 358.85549 215.58984 359.04883 C 214.48554 359.26955 213.28585 359.38086 211.98828 359.38086 C 210.71832 359.38086 209.55886 359.26955 208.50977 359.04883 C 207.46067 358.85557 206.54841 358.52403 205.77539 358.05469 C 205.02999 357.55778 204.45122 356.92348 204.03711 356.15039 C 203.62299 355.34979 203.41602 354.35705 203.41602 353.16992 L 203.41602 346.99805 L 209.91797 346.99805 L 209.91797 353.79102 C 209.91797 354.41214 210.09052 354.87891 210.43555 355.18945 C 210.78058 355.49999 211.29809 355.6543 211.98828 355.6543 C 212.67848 355.6543 213.19599 355.49999 213.54102 355.18945 C 213.88604 354.87891 214.05859 354.41214 214.05859 353.79102 L 214.05859 328.98438 z M 171.60742 331.8418 C 170.91723 331.8418 170.39972 331.9961 170.05469 332.30664 C 169.70966 332.61718 169.53711 333.08395 169.53711 333.70508 L 169.53711 353.79102 C 169.53711 354.41214 169.70966 354.87891 170.05469 355.18945 C 170.39972 355.49999 170.91723 355.6543 171.60742 355.6543 C 172.29762 355.6543 172.81513 355.49999 173.16016 355.18945 C 173.50518 354.87891 173.67773 354.41214 173.67773 353.79102 L 173.67773 333.70508 C 173.67773 333.08395 173.50518 332.61718 173.16016 332.30664 C 172.81513 331.9961 172.29762 331.8418 171.60742 331.8418 z "
       transform="matrix(0.26458333,0,0,0.26458333,0,191.16665)"
       id="path7091" />
    <g
       transform="matrix(0.28336766,0.35501803,0.35501803,-0.28336766,-443.46091,443.31355)"
       id="g6719">
      <path
         style="opacity:1;vector-effect:none;fill:#fcd1ae;fill-opacity:1;stroke:none;stroke-width:2.51587796;stroke-linecap:butt;stroke-linejoin:miter;stroke-miterlimit:4;stroke-dasharray:none;stroke-dashoffset:0;stroke-opacity:1"
         d="m 429.28673,1085.1181 c 0,0 11.33795,0.3652 19.5338,5.6216 0,0 2.06683,-6.0044 -0.0525,-9.0046 -2.11902,-3 -18.14729,-9.4106 -19.48125,3.383 z"
         id="path6713"
         inkscape:connector-curvature="0" />
      <path
         inkscape:connector-curvature="0"
         id="path6715"
         d="m 424.76303,1098.2947 c 0,0 14.02951,2.0304 23.4765,9.6984 0,0 3.40179,-7.1693 1.18709,-11.1898 -2.21433,-4.0204 -21.22775,-14.2108 -24.66374,1.4917 z"
         style="opacity:1;vector-effect:none;fill:#fcd1ae;fill-opacity:1;stroke:none;stroke-width:3.14392972;stroke-linecap:butt;stroke-linejoin:miter;stroke-miterlimit:4;stroke-dasharray:none;stroke-dashoffset:0;stroke-opacity:1" />
      <path
         style="opacity:1;vector-effect:none;fill:#fcd1ae;fill-opacity:1;stroke:none;stroke-width:3.14392972;stroke-linecap:butt;stroke-linejoin:miter;stroke-miterlimit:4;stroke-dasharray:none;stroke-dashoffset:0;stroke-opacity:1"
         d="m 418.96794,1113.6541 c 0,0 7.3708,10.5418 23.47651,9.6984 0,0 3.40178,-7.1693 1.18709,-11.1899 -2.21434,-4.0203 -21.22776,-14.2108 -24.66374,1.4918 z"
         id="path6717"
         inkscape:connector-curvature="0"
         sodipodi:nodetypes="ccccc" />
    </g>
    <g
       id="g6727"
       transform="matrix(-0.28336766,0.35501803,-0.35501803,-0.28336766,535.16494,443.31355)">
      <path
         inkscape:connector-curvature="0"
         id="path6721"
         d="m 429.28673,1085.1181 c 0,0 11.33795,0.3652 19.5338,5.6216 0,0 2.06683,-6.0044 -0.0525,-9.0046 -2.11902,-3 -18.14729,-9.4106 -19.48125,3.383 z"
         style="opacity:1;vector-effect:none;fill:#fcd1ae;fill-opacity:1;stroke:none;stroke-width:2.51587796;stroke-linecap:butt;stroke-linejoin:miter;stroke-miterlimit:4;stroke-dasharray:none;stroke-dashoffset:0;stroke-opacity:1" />
      <path
         style="opacity:1;vector-effect:none;fill:#fcd1ae;fill-opacity:1;stroke:none;stroke-width:3.14392972;stroke-linecap:butt;stroke-linejoin:miter;stroke-miterlimit:4;stroke-dasharray:none;stroke-dashoffset:0;stroke-opacity:1"
         d="m 424.76303,1098.2947 c 0,0 14.02951,2.0304 23.4765,9.6984 0,0 3.40179,-7.1693 1.18709,-11.1898 -2.21433,-4.0204 -21.22775,-14.2108 -24.66374,1.4917 z"
         id="path6723"
         inkscape:connector-curvature="0" />
      <path
         sodipodi:nodetypes="ccccc"
         inkscape:connector-curvature="0"
         id="path6725"
         d="m 418.96794,1113.6541 c 0,0 7.3708,10.5418 23.47651,9.6984 0,0 3.40178,-7.1693 1.18709,-11.1899 -2.21434,-4.0203 -21.22776,-14.2108 -24.66374,1.4918 z"
         style="opacity:1;vector-effect:none;fill:#fcd1ae;fill-opacity:1;stroke:none;stroke-width:3.14392972;stroke-linecap:butt;stroke-linejoin:miter;stroke-miterlimit:4;stroke-dasharray:none;stroke-dashoffset:0;stroke-opacity:1" />
    </g>
    <path
       sodipodi:nodetypes="cccccccccc"
       style="opacity:1;vector-effect:none;fill:#fcd1ae;fill-opacity:1;stroke:none;stroke-width:0.55026484;stroke-linecap:butt;stroke-linejoin:miter;stroke-miterlimit:4;stroke-dasharray:none;stroke-dashoffset:0;stroke-opacity:1"
       d="m 46.047851,263.56696 c 1.098168,1.25047 3.716201,2.06931 5.647774,1.82294 2.825859,-0.36039 6.166337,-1.598 7.314968,-4.02623 0.407301,-0.86106 0.22186,-1.61059 -0.170518,-2.22837 -0.06837,0.0413 -0.136763,0.0887 -0.204993,0.12948 -0.698834,0.4184 -1.394319,0.81368 -2.078175,1.18677 -0.219759,0.17816 -0.461442,0.33569 -0.711982,0.49334 -0.206404,1.11084 -1.872118,2.22793 -1.872118,2.22793 0.632943,-0.67085 0.991224,-1.26534 1.093062,-1.7773 -2.747753,1.66258 -5.346039,3.13169 -9.018018,2.17144 z"
       id="path6729"
       inkscape:connector-curvature="0" />
    <path
       sodipodi:nodetypes="ccccccccccc"
       style="opacity:1;vector-effect:none;fill:#fcd1ae;fill-opacity:1;stroke:none;stroke-width:0.55026484;stroke-linecap:butt;stroke-linejoin:miter;stroke-miterlimit:4;stroke-dasharray:none;stroke-dashoffset:0;stroke-opacity:1"
       d="m 25.416928,216.45331 c -0.479996,-0.40673 -1.086668,-0.66417 -1.890129,-0.50321 -2.633998,0.52731 -4.64257,3.46923 -5.675824,6.1238 -0.650823,1.67229 -0.514174,4.02129 0.106998,5.3765 0.314841,-2.99635 2.064831,-5.36776 4.062794,-7.6353 -0.424433,0.0854 -0.910095,0.27214 -1.467574,0.58548 0,0 1.050201,-0.94815 2.054959,-1.21476 0.09353,-0.0979 0.194645,-0.2162 0.286616,-0.30601 0.265729,-0.25929 0.529423,-0.48667 0.816604,-0.69261 0.533857,-0.57675 1.123836,-1.15578 1.705578,-1.73389 z"
       id="path6731"
       inkscape:connector-curvature="0" />
    <path
       style="opacity:1;vector-effect:none;fill:#fcd1ae;fill-opacity:1;stroke:none;stroke-width:0.60762721;stroke-linecap:butt;stroke-linejoin:miter;stroke-miterlimit:4;stroke-dasharray:none;stroke-dashoffset:0;stroke-opacity:1"
       d="m 34.315713,211.61171 c -3.926231,2.18468 -7.488885,5.54393 -10.254003,8.65583 -3.773403,6.63228 -4.573926,8.80988 -5.784761,11.63316 -1.082273,2.90367 -4.559296,7.49312 -4.101889,13.97899 0.869744,9.27189 6.20514,14.3468 13.047392,16.69862 6.182683,2.01238 6.286076,1.36503 9.365321,1.01713 3.032279,-0.49198 4.403839,-3.03765 18.158268,-4.05646 2.529645,-1.32395 5.25377,-2.99871 7.713002,-4.97094 -3.09043,-27.08317 -20.035322,-28.29926 -28.14333,-42.95633 z m -1.196334,9.7554 a 4.9055201,7.1140348 25.750482 0 1 0.512916,0.0149 4.9055201,7.1140348 25.750482 0 1 0.494121,0.0822 4.9055201,7.1140348 25.750482 0 1 0.469999,0.14864 4.9055201,7.1140348 25.750482 0 1 0.315764,0.1447 4.9055201,7.1140348 25.750482 0 1 0.41841,0.25856 4.9055201,7.1140348 25.750482 0 1 0.382228,0.31912 4.9055201,7.1140348 25.750482 0 1 0.342413,0.37719 4.9055201,7.1140348 25.750482 0 1 0.299496,0.43131 4.9055201,7.1140348 25.750482 0 1 0.252947,0.48066 4.9055201,7.1140348 25.750482 0 1 0.204158,0.52581 4.9055201,7.1140348 25.750482 0 1 0.153403,0.56535 4.9055201,7.1140348 25.750482 0 1 0.101224,0.59928 4.9055201,7.1140348 25.750482 0 1 0.04768,0.62732 4.9055201,7.1140348 25.750482 0 1 -0.0062,0.64921 4.9055201,7.1140348 25.750482 0 1 -0.06002,0.66435 4.9055201,7.1140348 25.750482 0 1 -0.113013,0.67275 4.9055201,7.1140348 25.750482 0 1 -0.165176,0.675 4.9055201,7.1140348 25.750482 0 1 -0.215372,0.66995 4.9055201,7.1140348 25.750482 0 1 -0.263888,0.65847 4.9055201,7.1140348 25.750482 0 1 -0.214252,0.45541 4.9055201,7.1140348 25.750482 0 1 -0.339871,0.62369 4.9055201,7.1140348 25.750482 0 1 -0.379988,0.59451 4.9055201,7.1140348 25.750482 0 1 -0.416171,0.56002 4.9055201,7.1140348 25.750482 0 1 -0.448131,0.51937 4.9055201,7.1140348 25.750482 0 1 -0.475886,0.47364 4.9055201,7.1140348 25.750482 0 1 -0.498888,0.42318 4.9055201,7.1140348 25.750482 0 1 -0.516562,0.36876 4.9055201,7.1140348 25.750482 0 1 -0.529457,0.31044 4.9055201,7.1140348 25.750482 0 1 -0.537022,0.24931 4.9055201,7.1140348 25.750482 0 1 -0.53899,0.18508 4.9055201,7.1140348 25.750482 0 1 -0.53563,0.11947 4.9055201,7.1140348 25.750482 0 1 -0.526929,0.0527 4.9055201,7.1140348 25.750482 0 1 -0.512916,-0.0149 4.9055201,7.1140348 25.750482 0 1 -0.494121,-0.0824 4.9055201,7.1140348 25.750482 0 1 -0.469999,-0.14862 4.9055201,7.1140348 25.750482 0 1 -0.315764,-0.14443 4.9055201,7.1140348 25.750482 0 1 -0.41841,-0.25856 4.9055201,7.1140348 25.750482 0 1 -0.382228,-0.31941 4.9055201,7.1140348 25.750482 0 1 -0.342685,-0.3769 4.9055201,7.1140348 25.750482 0 1 -0.299224,-0.4313 4.9055201,7.1140348 25.750482 0 1 -0.252947,-0.48066 4.9055201,7.1140348 25.750482 0 1 -0.204158,-0.52582 4.9055201,7.1140348 25.750482 0 1 -0.153402,-0.56535 4.9055201,7.1140348 25.750482 0 1 -0.101225,-0.59928 4.9055201,7.1140348 25.750482 0 1 -0.04768,-0.62761 4.9055201,7.1140348 25.750482 0 1 0.0062,-0.64891 4.9055201,7.1140348 25.750482 0 1 0.05973,-0.66435 4.9055201,7.1140348 25.750482 0 1 0.1133,-0.67304 4.9055201,7.1140348 25.750482 0 1 0.164889,-0.67472 4.9055201,7.1140348 25.750482 0 1 0.215659,-0.66995 4.9055201,7.1140348 25.750482 0 1 0.263601,-0.65845 4.9055201,7.1140348 25.750482 0 1 0.214525,-0.45542 4.9055201,7.1140348 25.750482 0 1 0.339886,-0.62369 4.9055201,7.1140348 25.750482 0 1 0.379987,-0.59479 4.9055201,7.1140348 25.750482 0 1 0.416171,-0.55975 4.9055201,7.1140348 25.750482 0 1 0.448117,-0.51936 4.9055201,7.1140348 25.750482 0 1 0.4759,-0.47365 4.9055201,7.1140348 25.750482 0 1 0.498888,-0.42345 4.9055201,7.1140348 25.750482 0 1 0.516563,-0.36877 4.9055201,7.1140348 25.750482 0 1 0.529456,-0.31044 4.9055201,7.1140348 25.750482 0 1 0.536735,-0.24903 4.9055201,7.1140348 25.750482 0 1 0.53899,-0.18507 4.9055201,7.1140348 25.750482 0 1 0.53563,-0.11948 4.9055201,7.1140348 25.750482 0 1 0.526929,-0.0527 z m -11.508372,22.59021 c 0,0 0.122403,0.0488 0.322211,0.17697 0.199822,0.12818 0.477006,0.33589 0.786625,0.65396 0.154809,0.15904 0.317788,0.34559 0.483179,0.56366 0.165377,0.21807 0.333339,0.46759 0.498041,0.75241 0.164716,0.28481 0.326202,0.60485 0.478987,0.96412 0.152771,0.35927 0.296653,0.75769 0.42625,1.19913 0.259193,0.88289 0.461901,1.7495 0.692105,2.56567 0.115109,0.40809 0.237254,0.80367 0.376628,1.18231 0.13936,0.37864 0.296022,0.74039 0.480653,1.08107 0.184631,0.34066 0.397189,0.66013 0.648083,0.95431 0.125447,0.14708 0.260399,0.28789 0.406349,0.42177 0.145951,0.13387 0.302885,0.26096 0.471966,0.38055 0.169082,0.11959 0.350324,0.23171 0.545164,0.33595 0.19484,0.10424 0.403263,0.20045 0.626489,0.28828 0.223211,0.0878 0.461427,0.16717 0.715652,0.23753 0.254239,0.0703 0.52456,0.13186 0.812412,0.18368 0,0 -0.173777,0.0603 -0.473359,0.13517 -0.299597,0.0749 -0.724957,0.16431 -1.228022,0.2221 -0.251526,0.0289 -0.522694,0.0498 -0.807085,0.0572 -0.284377,0.007 -0.582065,0.001 -0.88729,-0.0244 -0.30521,-0.0256 -0.617816,-0.0709 -0.931871,-0.14105 -0.314041,-0.0702 -0.629432,-0.16522 -0.940285,-0.29137 -0.310868,-0.12615 -0.617156,-0.28336 -0.912804,-0.47702 -0.295663,-0.19365 -0.580715,-0.42394 -0.849154,-0.69659 -0.26844,-0.27266 -0.520382,-0.58752 -0.749595,-0.95066 -0.229214,-0.36315 -0.435884,-0.77438 -0.613868,-1.23951 -0.177983,-0.46515 -0.327236,-0.98424 -0.441958,-1.56285 -0.114735,-0.57862 -0.194983,-1.2168 -0.234439,-1.9204 -0.03947,-0.70361 -0.03828,-1.47265 0.0095,-2.31273 0.04781,-0.84008 0.142289,-1.75121 0.289403,-2.73927 z m 27.096766,1.75607 a 4.9055201,7.1140347 86.58499 0 1 0.709219,0.006 4.9055201,7.1140347 86.58499 0 1 0.701639,0.0553 4.9055201,7.1140347 86.58499 0 1 0.687051,0.10377 4.9055201,7.1140347 86.58499 0 1 0.665471,0.15115 4.9055201,7.1140347 86.58499 0 1 0.637142,0.19686 4.9055201,7.1140347 86.58499 0 1 0.602654,0.24118 4.9055201,7.1140347 86.58499 0 1 0.562264,0.28239 4.9055201,7.1140347 86.58499 0 1 0.515988,0.32138 4.9055201,7.1140347 86.58499 0 1 0.464687,0.3567 4.9055201,7.1140347 86.58499 0 1 0.408589,0.38869 4.9055201,7.1140347 86.58499 0 1 0.348572,0.41671 4.9055201,7.1140347 86.58499 0 1 0.284923,0.44084 4.9055201,7.1140347 86.58499 0 1 0.218732,0.46019 4.9055201,7.1140347 86.58499 0 1 0.150028,0.47506 4.9055201,7.1140347 86.58499 0 1 0.0802,0.48514 4.9055201,7.1140347 86.58499 0 1 0.01378,0.3469 4.9055201,7.1140347 86.58499 0 1 -0.04122,0.49132 4.9055201,7.1140347 86.58499 0 1 -0.111606,0.48823 4.9055201,7.1140347 86.58499 0 1 -0.18117,0.48009 4.9055201,7.1140347 86.58499 0 1 -0.249013,0.46749 4.9055201,7.1140347 86.58499 0 1 -0.314085,0.4501 4.9055201,7.1140347 86.58499 0 1 -0.376068,0.42822 4.9055201,7.1140347 86.58499 0 1 -0.434391,0.40185 4.9055201,7.1140347 86.58499 0 1 -0.488506,0.37158 4.9055201,7.1140347 86.58499 0 1 -0.53731,0.33791 4.9055201,7.1140347 86.58499 0 1 -0.581332,0.30035 4.9055201,7.1140347 86.58499 0 1 -0.618922,0.26024 4.9055201,7.1140347 86.58499 0 1 -0.650596,0.21734 4.9055201,7.1140347 86.58499 0 1 -0.676124,0.17218 4.9055201,7.1140347 86.58499 0 1 -0.694345,0.12535 4.9055201,7.1140347 86.58499 0 1 -0.705846,0.0774 4.9055201,7.1140347 86.58499 0 1 -0.502821,0.0252 4.9055201,7.1140347 86.58499 0 1 -0.709493,-0.006 4.9055201,7.1140347 86.58499 0 1 -0.701366,-0.0552 4.9055201,7.1140347 86.58499 0 1 -0.687051,-0.10376 4.9055201,7.1140347 86.58499 0 1 -0.665471,-0.15115 4.9055201,7.1140347 86.58499 0 1 -0.637142,-0.19687 4.9055201,7.1140347 86.58499 0 1 -0.602653,-0.24117 4.9055201,7.1140347 86.58499 0 1 -0.562265,-0.2824 4.9055201,7.1140347 86.58499 0 1 -0.515988,-0.32137 4.9055201,7.1140347 86.58499 0 1 -0.464687,-0.3567 4.9055201,7.1140347 86.58499 0 1 -0.408589,-0.38869 4.9055201,7.1140347 86.58499 0 1 -0.348572,-0.41672 4.9055201,7.1140347 86.58499 0 1 -0.285196,-0.44084 4.9055201,7.1140347 86.58499 0 1 -0.218459,-0.4599 4.9055201,7.1140347 86.58499 0 1 -0.150315,-0.47505 4.9055201,7.1140347 86.58499 0 1 -0.07992,-0.48544 4.9055201,7.1140347 86.58499 0 1 -0.01378,-0.34689 4.9055201,7.1140347 86.58499 0 1 0.04093,-0.49132 4.9055201,7.1140347 86.58499 0 1 0.111893,-0.48795 4.9055201,7.1140347 86.58499 0 1 0.181156,-0.48038 4.9055201,7.1140347 86.58499 0 1 0.249028,-0.46749 4.9055201,7.1140347 86.58499 0 1 0.314084,-0.45009 4.9055201,7.1140347 86.58499 0 1 0.376068,-0.42793 4.9055201,7.1140347 86.58499 0 1 0.434391,-0.40215 4.9055201,7.1140347 86.58499 0 1 0.488219,-0.37157 4.9055201,7.1140347 86.58499 0 1 0.537598,-0.33792 4.9055201,7.1140347 86.58499 0 1 0.581059,-0.30034 4.9055201,7.1140347 86.58499 0 1 0.619194,-0.26024 4.9055201,7.1140347 86.58499 0 1 0.650596,-0.21734 4.9055201,7.1140347 86.58499 0 1 0.676124,-0.17218 4.9055201,7.1140347 86.58499 0 1 0.694345,-0.12535 4.9055201,7.1140347 86.58499 0 1 0.705846,-0.0771 4.9055201,7.1140347 86.58499 0 1 0.502822,-0.0255 z"
       id="path6733"
       inkscape:connector-curvature="0" />
    <path
       sodipodi:nodetypes="ccccccccccccccccccccccccccccccccccccccccccc"
       style="opacity:1;vector-effect:none;fill:#a05a2c;fill-opacity:1;stroke:none;stroke-width:0.39268643;stroke-linecap:butt;stroke-linejoin:miter;stroke-miterlimit:4;stroke-dasharray:none;stroke-dashoffset:0;stroke-opacity:1"
       d="m 24.99185,219.17312 c -1.039874,0.59558 -1.754489,1.68651 -4.114477,4.22099 -1.479176,1.5885 -2.171265,7.25316 -4.290199,10.51634 -1.264892,1.94802 -4.28163,1.13488 -4.939476,3.56838 -2.8302224,10.46891 4.628184,20.28602 4.699301,20.3793 l 0.0033,0.0125 0.0033,0.0125 c 1.3e-4,2.2e-4 0.0079,0.0163 0.0095,0.0174 0,0 1.57e-4,3.8e-4 5.43e-4,2.2e-4 0.0011,0 0.0075,0.0157 0.0075,0.0157 l 0.0033,0.0125 0.0033,0.0125 c 0.07339,0.0912 7.795123,9.70282 18.637677,9.48863 2.520314,-0.0499 2.533734,-3.46641 4.729886,-4.22257 3.678767,-1.26681 9.269848,-0.27551 11.168909,-1.32655 3.030039,-1.67691 4.26141,-2.10643 5.090859,-2.97145 -0.931215,0.45574 -2.032194,0.82372 -6.677266,0.35372 -3.087448,-0.51603 -8.612443,1.02939 -12.020147,3.12257 0,0 0.7681,-1.04789 1.955895,-1.60988 -2.354822,-5.05882 -5.18327,-9.79421 -8.515223,-14.11017 -2.12e-4,-3.8e-4 -5.43e-4,-2.2e-4 -0.0011,0 -3.382047,-4.27683 -7.292692,-8.16658 -11.631753,-11.6751 -0.832574,1.01658 -2.035125,1.50851 -2.035125,1.50851 2.855262,-2.80034 5.690954,-7.78747 5.937038,-10.90814 0.66737,-4.62084 1.290745,-5.60008 1.958147,-6.39341 z m 1.78751,26.06854 c 0.208721,0.26401 0.40685,0.52313 0.590234,0.77189 0.504873,0.64605 0.994274,1.39304 1.488803,2.11636 1.69e-4,4.3e-4 5.43e-4,2.7e-4 0.0011,0 0.582382,0.65468 1.188679,1.31038 1.693541,1.95643 1.571121,1.90825 3.602995,4.83573 3.266632,6.87791 -0.538046,3.26741 -3.643418,1.62659 -6.184702,1.49733 -2.536627,-0.12916 -4.849099,-0.59564 -7.251975,-3.66118 l -0.01118,-0.0185 c -0.0038,0 -0.0027,-0.0119 -0.0071,-0.0152 -2.5e-4,-3.3e-4 -2.5e-4,-3.3e-4 -5.43e-4,-2.2e-4 -0.0038,0 -0.0079,-0.005 -0.01405,-0.0109 l -0.01102,-0.0184 c -2.393325,-3.07303 -2.286712,-5.42963 -1.798477,-7.92211 0.489184,-2.49715 -0.351824,-5.90723 2.948649,-5.63904 1.805038,0.14657 3.82913,2.2161 5.292922,4.06166 z"
       id="path6735"
       inkscape:connector-curvature="0" />
    <path
       style="opacity:1;vector-effect:none;fill:#a05a2c;fill-opacity:1;stroke:none;stroke-width:0.24565457;stroke-linecap:butt;stroke-linejoin:miter;stroke-miterlimit:4;stroke-dasharray:none;stroke-dashoffset:0;stroke-opacity:1"
       d="m 37.69029,213.88708 c -2.248986,-2.0877 -6.206826,-4.37277 -10.415446,-0.89372 4.085385,0.55819 6.090603,1.04855 11.339607,8.20875 1.121079,1.23652 4.988028,5.28397 5.168449,7.54913 0,0 3.128789,-1.26627 3.322967,-2.99825 0.104675,-4.31124 -4.974337,-6.4219 -7.790808,-10.06441 -0.315725,-0.4312 -0.87512,-1.10558 -1.624818,-1.80144 z"
       id="path6737"
       inkscape:connector-curvature="0"
       sodipodi:nodetypes="cccccccc" />
    <g
       id="g6741"
       transform="matrix(1.2037564,1.4758657,-1.4330193,1.2228944,520.89881,-183.87916)"
       style="fill:#d38d5f;fill-opacity:1">
      <path
         style="opacity:1;vector-effect:none;fill:#a05a2c;fill-opacity:1;stroke:none;stroke-width:0.50199479;stroke-linecap:butt;stroke-linejoin:miter;stroke-miterlimit:4;stroke-dasharray:none;stroke-dashoffset:0;stroke-opacity:1"
         d="m 1.8351634,342.51753 c -0.6590667,0.71988 -1.77476233,2.05762 -1.40974414,2.86879 0.36502433,0.81113 1.54148654,0.98401 1.54148654,0.98401 0,0 -0.689365,-0.64886 -1.13549994,-1.35863 -0.446137,-0.70976 1.00375754,-2.49417 1.00375754,-2.49417 z m 5.89976,0 c 0,0 1.4507916,1.78441 1.0046526,2.49417 -0.446137,0.70977 -1.1363968,1.35863 -1.1363968,1.35863 0,0 1.1764641,-0.17295 1.5414865,-0.98401 0.3650202,-0.81117 -0.7506774,-2.14891 -1.4097423,-2.86879 z m -5.5583042,2.52731 c -0.1184966,0 -0.2225474,0.0247 -0.3011269,0.078 -0.3143198,0.2129 -0.1720671,0.56815 -0.1720671,0.56815 0.6590667,-0.79085 2.1595017,0.314 2.463685,0.49654 0.2574072,0.1543 0.523969,0.16486 0.6183891,0.16486 0.095222,3e-5 0.3606536,-0.0102 0.6174878,-0.16486 0.3041832,-0.18252 1.8055193,-1.28739 2.4645799,-0.49654 0,0 0.1413572,-0.35525 -0.17296,-0.56815 -0.3143241,-0.21294 -1.0337898,0.0511 -1.4697901,0.30468 -0.4171181,0.24249 -0.9011382,0.51771 -1.4393115,0.51979 -0.538547,0 -1.0228558,-0.27715 -1.4402167,-0.51979 -0.3269982,-0.1902 -0.8131424,-0.38652 -1.1686571,-0.3827 z"
         id="path6739"
         inkscape:connector-curvature="0"
         sodipodi:nodetypes="ccccccccccccccccccccccc" />
    </g>
    <path
       sodipodi:nodetypes="ccccccccccc"
       inkscape:connector-curvature="0"
       id="path6783"
       d="m 67.779324,252.37836 29.160408,-18.25698 -21.53939,-0.50495 6.563767,-11.70343 -13.764872,-1.29047 4.696734,-10.8745 -12.676061,0.52477 9.762012,-18.21351 -32.117283,14.03278 c 0,0 -0.04689,5.58152 13.8285,16.28692 13.875333,10.70546 16.086185,29.99937 16.086185,29.99937 z"
       style="opacity:1;vector-effect:none;fill:#ffcc00;fill-opacity:1;stroke:none;stroke-width:0.10787987;stroke-linecap:butt;stroke-linejoin:miter;stroke-miterlimit:4;stroke-dasharray:none;stroke-dashoffset:0;stroke-opacity:1" />
    <g
       id="g6759"
       transform="matrix(0.18164016,0.28888361,-0.32589614,0.17246965,243.2412,201.69178)">
      <path
         style="fill:#ffffff;stroke-width:0.11224927"
         d="m -176.61352,437.90286 c -0.0689,0.005 -0.15637,0.0354 -0.28655,0.0859 -0.20602,0.0799 -0.85454,0.30208 -1.44104,0.49351 -0.5865,0.19141 -1.12951,0.39744 -1.20668,0.45776 -0.20028,0.15657 -0.20588,18.49283 -0.006,18.69301 0.0912,0.0912 0.61447,0.13483 1.61972,0.13483 1.87319,0 1.83528,0.0295 1.84444,-1.43929 l 0.007,-1.08632 1.32879,-1.20668 c 0.75412,-0.6848 1.42541,-1.20668 1.5522,-1.20668 0.13975,0 1.15741,0.91426 2.71766,2.44142 l 2.49448,2.44143 1.64318,0.0561 c 1.87449,0.064 2.00158,0.05 2.15597,-0.23853 0.15668,-0.29276 0.0362,-0.47461 -0.92298,-1.39062 -4.6358,-4.4271 -5.59493,-5.39007 -5.59493,-5.61838 0,-0.22487 0.73183,-1.00921 2.154,-2.30835 0.22779,-0.20807 1.32582,-1.23689 2.44011,-2.28642 2.68919,-2.53291 2.6895,-2.63786 0.007,-2.63786 h -1.58705 l -0.97407,0.92431 c -0.53568,0.50838 -1.52949,1.45928 -2.20859,2.11323 -4.55118,4.38251 -4.70315,4.50567 -5.08498,4.12383 -0.1014,-0.10138 -0.13462,-1.61107 -0.13462,-6.10508 0,-5.71257 -0.009,-5.98199 -0.21463,-6.23554 -0.12435,-0.15347 -0.18787,-0.21437 -0.30276,-0.20564 z"
         id="path6745"
         inkscape:connector-curvature="0" />
      <path
         style="fill:#ffffff;stroke-width:0.11224927"
         d="m -152.41153,438.23654 c -1.03768,0 -1.56981,0.043 -1.66137,0.13461 -0.19518,0.19517 -0.19518,19.17901 0,19.37418 0.0909,0.0909 0.60799,0.13483 1.59078,0.13483 1.19732,0 1.49258,-0.0331 1.66138,-0.18591 0.19577,-0.17718 0.2052,-0.6248 0.2052,-9.68699 0,-7.24027 -0.032,-9.53347 -0.13461,-9.63611 -0.0916,-0.0916 -0.62369,-0.13461 -1.66138,-0.13461 z"
         id="path6747"
         inkscape:connector-curvature="0" />
      <path
         style="fill:#ffffff;stroke-width:0.11224927"
         d="m -145.67657,438.23654 c -1.03768,0 -1.56982,0.043 -1.66138,0.13461 -0.19892,0.19891 -0.19443,18.96734 0.005,19.28605 0.12781,0.20464 0.26437,0.22296 1.66137,0.22296 1.03415,0 1.56525,-0.0433 1.65678,-0.13483 0.19517,-0.19517 0.19517,-19.17901 0,-19.37418 -0.0916,-0.0916 -0.6237,-0.13461 -1.66138,-0.13461 z"
         id="path6749"
         inkscape:connector-curvature="0" />
      <path
         style="fill:#ffffff;stroke-width:0.11224927"
         d="m -159.30039,438.34879 c -1.92844,0 -1.86658,-0.0583 -1.86658,1.75718 v 1.3858 h 1.79599 1.79599 v -1.43689 c 0,-0.96783 -0.0439,-1.48074 -0.13462,-1.57149 -0.0909,-0.0909 -0.60799,-0.1346 -1.59078,-0.1346 z"
         id="path6751"
         inkscape:connector-curvature="0" />
      <path
         style="fill:#ffffff;stroke-width:0.11224927"
         d="m -161.16697,443.06326 v 7.15896 c 0,6.29776 0.021,7.18899 0.17473,7.40845 0.16487,0.23539 0.25481,0.24949 1.59078,0.24949 1.16006,0 1.45308,-0.0337 1.62126,-0.18591 0.19479,-0.17631 0.20521,-0.55379 0.20521,-7.40845 v -7.22254 h -1.79599 z"
         id="path6753"
         inkscape:connector-curvature="0" />
      <path
         style="fill:#ffffff;fill-opacity:1;stroke-width:0.11224927"
         d="m -138.33674,443.13866 c -1.5564,0.0213 -1.95063,0.0653 -2.07968,0.15565 -0.23539,0.16487 -0.24949,0.25459 -0.24949,1.59056 0,1.16007 0.0335,1.45309 0.18569,1.62126 0.11096,0.1226 0.30854,0.17214 2.14348,0.19205 h 5.98846 c -0.0547,0.0488 -0.11595,0.10187 -0.16728,0.14843 l -6.79722,6.3366 c -0.49798,0.573 -1.34018,1.17831 -1.34018,1.91832 -0.0104,0.21682 -0.0129,0.51245 -0.0129,0.95215 0,1.16006 0.0335,1.45309 0.18569,1.62126 0.11096,0.1226 0.30854,0.17213 2.14348,0.19204 h 9.29279 c 1.83477,-0.0199 2.03231,-0.0695 2.14326,-0.19204 0.1522,-0.16817 0.18592,-0.4612 0.18592,-1.62126 0,-1.33597 -0.0141,-1.42569 -0.2495,-1.59057 -0.12905,-0.0904 -0.52328,-0.13432 -2.07968,-0.15565 h -6.2546 l 5.21016,-4.8572 c 1.01363,-1.02404 2.1691,-1.95312 3.1877,-2.94418 0.1522,-0.16817 0.18592,-0.46119 0.18592,-1.62126 0,-1.33597 -0.0141,-1.42569 -0.2495,-1.59056 -0.12905,-0.0904 -0.52328,-0.13433 -2.07968,-0.15565 z"
         id="path6755"
         inkscape:connector-curvature="0" />
      <path
         style="fill:#ffffff;stroke-width:0.11224927"
         d="m -188.8123,443.40327 c -2.97664,0.002 -5.79092,0.0523 -6.25395,0.11181 -1.06392,0.13669 -2.19359,0.67661 -2.55389,1.22071 -0.42673,0.64443 -0.50162,1.16818 -0.45097,3.15022 0.0409,1.602 0.0823,1.94302 0.3032,2.49185 0.33118,0.82273 0.70574,1.16894 1.65151,1.52654 0.76587,0.28958 0.79003,0.29126 5.05144,0.35516 4.07493,0.0611 4.29399,0.075 4.52965,0.28853 0.21105,0.19118 0.24041,0.31202 0.19841,0.81841 -0.0588,0.70965 -0.34924,1.14942 -0.88243,1.33624 -0.27368,0.0959 -1.8426,0.13577 -5.52016,0.14032 l -5.13782,0.006 -0.10041,0.25256 c -0.0553,0.13891 -0.18569,0.72264 -0.28983,1.29723 -0.17974,0.99152 -0.17945,1.05578 0.008,1.26281 0.19057,0.21058 0.39568,0.21803 5.93277,0.21769 4.67625,-2.9e-4 5.92202,-0.0326 6.7457,-0.17472 2.49056,-0.4299 3.06731,-1.29618 2.95181,-4.43429 -0.0728,-1.97776 -0.41518,-2.65785 -1.60767,-3.19385 -0.9087,-0.40844 -1.94589,-0.50296 -5.51885,-0.50381 -2.00216,-3.7e-4 -3.51747,-0.0483 -3.77284,-0.11925 -0.59989,-0.16659 -0.86315,-0.63406 -0.86358,-1.53401 -3.7e-4,-0.61483 0.0394,-0.74429 0.3271,-1.06637 l 0.32732,-0.36656 5.00277,-0.0324 c 4.58643,-0.0298 5.01141,-0.0485 5.10493,-0.2245 0.19678,-0.37044 0.46149,-2.39726 0.34223,-2.6201 -0.10739,-0.20067 -0.35058,-0.20991 -5.52433,-0.20652 z"
         id="path6757"
         inkscape:connector-curvature="0" />
    </g>
    <path
       style="opacity:1;vector-effect:none;fill:#ffcc00;fill-opacity:1;stroke:none;stroke-width:0.30188397;stroke-linecap:butt;stroke-linejoin:miter;stroke-miterlimit:4;stroke-dasharray:none;stroke-dashoffset:0;stroke-opacity:1"
       d="m 66.074343,243.78883 c 0,0 5.469757,-1.46098 10.742328,-3.97728 0,0 -5.654692,6.98573 -1.332432,18.73289 5.936799,14.23092 -8.585998,3.88557 -9.409896,-14.75561 z"
       id="path6785"
       inkscape:connector-curvature="0"
       sodipodi:nodetypes="cccc" />
    <path
       sodipodi:nodetypes="cccccccc"
       inkscape:connector-curvature="0"
       id="path6763"
       d="m 63.233962,250.20394 c 1.076391,2.87365 1.685928,7.40299 -3.131496,9.97367 1.03626,-3.99101 1.344762,-6.03215 -3.283487,-13.60842 -0.717686,-1.50688 -2.991949,-6.62187 -5.018581,-7.64958 0,0 2.360276,-2.41281 4.036088,-1.93423 4.02758,1.54161 4.049688,7.04168 6.348599,11.03111 0.278873,0.45584 0.690075,1.22953 1.048796,2.1875 z"
       style="opacity:1;vector-effect:none;fill:#a05a2c;fill-opacity:1;stroke:none;stroke-width:0.24565457;stroke-linecap:butt;stroke-linejoin:miter;stroke-miterlimit:4;stroke-dasharray:none;stroke-dashoffset:0;stroke-opacity:1" />
    <path
       inkscape:connector-curvature="0"
       id="path6771"
       d="m 12.764691,265.34664 c 0,0 -2.369094,-2.91077 -3.379442,-5.5088 -1.0103367,-2.59803 -0.1503466,-8.64575 -0.1503466,-8.64575 0,0 0.5314255,0.0185 1.7561436,-0.44049 0,0 2.959747,10.51222 12.34927,14.84977 0,0 -4.781065,-0.27578 -10.575625,-0.25473 z"
       style="opacity:1;vector-effect:none;fill:#fcd1ae;fill-opacity:1;stroke:none;stroke-width:0.22330816;stroke-linecap:butt;stroke-linejoin:miter;stroke-miterlimit:4;stroke-dasharray:none;stroke-dashoffset:0;stroke-opacity:1"
       sodipodi:nodetypes="cccccc" />
    <path
       style="opacity:1;vector-effect:none;fill:#ffffff;fill-opacity:1;fill-rule:evenodd;stroke:none;stroke-width:0.14271416;stroke-linecap:butt;stroke-linejoin:miter;stroke-miterlimit:4;stroke-dasharray:none;stroke-dashoffset:0;stroke-opacity:1"
       d="m 44.758159,252.71764 a 1.1915866,1.7280508 86.58499 0 1 -1.712703,-1.14862 1.1915866,1.7280508 86.58499 0 1 1.740054,-1.23755 1.1915866,1.7280508 86.58499 0 1 1.712708,1.14861 1.1915866,1.7280508 86.58499 0 1 -1.740059,1.23756 z"
       id="path6787"
       inkscape:connector-curvature="0" />
    <path
       inkscape:connector-curvature="0"
       id="path6789"
       d="m 29.462117,231.62766 a 1.1915866,1.7280508 16.437388 0 1 1.661985,-1.22085 1.1915866,1.7280508 16.437388 0 1 0.573092,2.05694 1.1915866,1.7280508 16.437388 0 1 -1.661985,1.22084 1.1915866,1.7280508 16.437388 0 1 -0.573092,-2.05693 z"
       style="opacity:1;vector-effect:none;fill:#ffffff;fill-opacity:1;fill-rule:evenodd;stroke:none;stroke-width:0.14271416;stroke-linecap:butt;stroke-linejoin:miter;stroke-miterlimit:4;stroke-dasharray:none;stroke-dashoffset:0;stroke-opacity:1" />
  </g>
</svg>
