<?xml version="1.0" encoding="UTF-8" standalone="no"?>
<!-- Created with Inkscape (http://www.inkscape.org/) -->

<svg
   xmlns:dc="http://purl.org/dc/elements/1.1/"
   xmlns:cc="http://creativecommons.org/ns#"
   xmlns:rdf="http://www.w3.org/1999/02/22-rdf-syntax-ns#"
   xmlns:svg="http://www.w3.org/2000/svg"
   xmlns="http://www.w3.org/2000/svg"
   xmlns:sodipodi="http://sodipodi.sourceforge.net/DTD/sodipodi-0.dtd"
   xmlns:inkscape="http://www.inkscape.org/namespaces/inkscape"
   width="400"
   height="400"
   viewBox="0 0 105.83333 105.83334"
   version="1.1"
   id="svg15453"
   inkscape:export-filename="/home/probe/Work/Qtox/Mikeyslice/skillz-strategy-page.png"
   inkscape:export-xdpi="96"
   inkscape:export-ydpi="96"
   sodipodi:docname="mikey-shop.svg"
   inkscape:version="0.92.4 (5da689c313, 2019-01-14)">
  <defs
     id="defs15447">
    <clipPath
       clipPathUnits="userSpaceOnUse"
       id="clipPath7035">
      <path
         sodipodi:nodetypes="sssss"
         style="color:#000000;font-style:normal;font-variant:normal;font-weight:normal;font-stretch:normal;font-size:medium;line-height:normal;font-family:sans-serif;font-variant-ligatures:normal;font-variant-position:normal;font-variant-caps:normal;font-variant-numeric:normal;font-variant-alternates:normal;font-feature-settings:normal;text-indent:0;text-align:start;text-decoration:none;text-decoration-line:none;text-decoration-style:solid;text-decoration-color:#000000;letter-spacing:normal;word-spacing:normal;text-transform:none;writing-mode:lr-tb;direction:ltr;text-orientation:mixed;dominant-baseline:auto;baseline-shift:baseline;text-anchor:start;white-space:normal;shape-padding:0;clip-rule:nonzero;display:inline;overflow:visible;visibility:visible;opacity:1;isolation:auto;mix-blend-mode:normal;color-interpolation:sRGB;color-interpolation-filters:linearRGB;solid-color:#000000;solid-opacity:1;vector-effect:none;fill:#000000;fill-opacity:1;fill-rule:evenodd;stroke:none;stroke-width:3.03842711;stroke-linecap:butt;stroke-linejoin:miter;stroke-miterlimit:4;stroke-dasharray:none;stroke-dashoffset:0;stroke-opacity:1;color-rendering:auto;image-rendering:auto;shape-rendering:auto;text-rendering:auto;enable-background:accumulate"
         d="m 224.82949,180.37314 c -6.51127,10.1556 -3.5469,23.71271 6.60871,30.22401 10.15564,6.51127 23.71275,3.5469 30.22403,-6.60872 6.51127,-10.15562 3.54569,-23.71081 -6.60994,-30.2221 -10.15561,-6.51128 -23.71152,-3.54882 -30.2228,6.60681 z"
         id="path7037"
         inkscape:connector-curvature="0" />
    </clipPath>
  </defs>
  <sodipodi:namedview
     id="base"
     pagecolor="#1e1e1e"
     bordercolor="#666666"
     borderopacity="1.0"
     inkscape:pageopacity="0.0"
     inkscape:pageshadow="2"
     inkscape:zoom="1.4"
     inkscape:cx="272.47119"
     inkscape:cy="117.43523"
     inkscape:document-units="mm"
     inkscape:current-layer="layer1"
     showgrid="false"
     units="px"
     inkscape:pagecheckerboard="true"
     borderlayer="true"
     inkscape:showpageshadow="false"
     inkscape:window-width="1920"
     inkscape:window-height="1028"
     inkscape:window-x="0"
     inkscape:window-y="0"
     inkscape:window-maximized="1"
     inkscape:snap-global="false" />
  <metadata
     id="metadata15450">
    <rdf:RDF>
      <cc:Work
         rdf:about="">
        <dc:format>image/svg+xml</dc:format>
        <dc:type
           rdf:resource="http://purl.org/dc/dcmitype/StillImage" />
        <dc:title></dc:title>
      </cc:Work>
    </rdf:RDF>
  </metadata>
  <g
     inkscape:label="Layer 1"
     inkscape:groupmode="layer"
     id="layer1"
     transform="translate(0,-191.16665)">
    <g
       transform="matrix(0.14478399,0,0,0.14478399,2.9638465,193.08704)"
       id="g3302">
      <g
         id="g3300"
         style="fill:#ffffff;fill-opacity:1" />
    </g>
    <g
       transform="matrix(0.50492232,0,0,0.50492232,0.36794886,147.55901)"
       id="g10719">
      <g
         transform="matrix(1.2768604,0,0,1.2768604,-61.363332,-53.381055)"
         id="g9870">
        <path
           inkscape:connector-curvature="0"
           transform="matrix(0.20721399,0,0,0.20721399,48.05798,108.63707)"
           id="path9913"
           d="m 491.92773,561.77148 c -1.03254,1.16737 -2.06924,2.33383 -3.1875,3.41993 -1.47571,1.43378 -3.02144,2.79281 -4.63281,4.07226 l -0.002,0.002 -0.006,0.004 c -1.61321,1.27979 -3.28664,2.47746 -5.01953,3.58985 -1.73334,1.1128 -3.52168,2.14001 -5.35742,3.07421 h -0.002 c -1.83591,0.9341 -3.71668,1.7734 -5.63672,2.51953 -1.91672,0.74571 -3.86808,1.39439 -5.8496,1.94532 l -0.004,0.004 h -0.004 c -1.98485,0.55107 -3.99541,1.00315 -6.02539,1.35352 h -0.006 -0.004 c -2.02984,0.34925 -4.07637,0.59546 -6.13086,0.74023 -1.44695,0.10228 -2.89904,0.15401 -4.34961,0.1543 -2.06047,9.6e-4 -4.11958,-0.0981 -6.16992,-0.30273 l -0.0117,-0.004 h -0.0117 c -2.04503,-0.20582 -4.0775,-0.51313 -6.0918,-0.92187 -10e-4,-3.6e-4 -0.003,-0.002 -0.006,-0.002 -0.005,-4.7e-4 -0.007,4.9e-4 -0.01,0 -2.0142,-0.40802 -4.00713,-0.91491 -5.97071,-1.52148 l -0.008,-0.004 -0.004,-0.002 c -1.96545,-0.60869 -3.90193,-1.31555 -5.79687,-2.11719 -1.89766,-0.80251 -3.75251,-1.69954 -5.56055,-2.6875 v 0.002 c -1.80713,-0.98728 -3.56216,-2.0638 -5.26172,-3.22656 -1.7006,-1.16319 -3.342,-2.4111 -4.91797,-3.73828 -1.05823,-0.89127 -2.03956,-1.86771 -3.03515,-2.82812 V 768.57227 H 765.84961 V 565.39258 c -1.40925,1.3557 -2.87278,2.65505 -4.4043,3.87109 l -0.002,0.002 -0.006,0.004 c -1.61321,1.27979 -3.28664,2.47746 -5.01953,3.58985 -1.73329,1.1128 -3.52173,2.14001 -5.35742,3.07421 h -0.002 c -1.83593,0.9341 -3.71667,1.7734 -5.63671,2.51953 -1.91674,0.74571 -3.86809,1.39439 -5.84961,1.94532 l -0.004,0.004 h -0.004 c -1.98486,0.55107 -3.99541,1.00315 -6.02539,1.35352 h -0.006 -0.004 c -2.02983,0.34925 -4.07637,0.59546 -6.13086,0.74023 -1.44695,0.10228 -2.89903,0.15401 -4.34961,0.1543 -2.06047,9.6e-4 -4.11958,-0.0981 -6.16992,-0.30273 l -0.01,-0.004 h -0.008 c -2.04498,-0.20582 -4.07756,-0.51313 -6.0918,-0.92187 l -0.004,-0.002 c -0.005,-4.7e-4 -0.009,4.9e-4 -0.0117,0 -2.0142,-0.40802 -4.00714,-0.91491 -5.97071,-1.52148 l -0.01,-0.004 -0.006,-0.002 c -1.96551,-0.60869 -3.89997,-1.31555 -5.79492,-2.11719 -1.89664,-0.80207 -3.75539,-1.69816 -5.5625,-2.68555 -1.80712,-0.98728 -3.56217,-2.0638 -5.26172,-3.22656 -1.70065,-1.16319 -3.34201,-2.4111 -4.91797,-3.73828 -1.57542,-1.32688 -3.08244,-2.73338 -4.51758,-4.21094 -0.66487,-0.68436 -1.25828,-1.43235 -1.89062,-2.14648 -1.03376,1.16875 -2.06984,2.33645 -3.18946,3.42383 -1.47567,1.43378 -3.02344,2.79281 -4.63476,4.07226 l -0.002,0.002 -0.006,0.004 c -1.61321,1.27979 -3.28664,2.47746 -5.01953,3.58985 -1.73327,1.1128 -3.52169,2.14001 -5.35742,3.07421 h -0.002 c -1.83592,0.9341 -3.71668,1.7734 -5.63672,2.51953 -1.91667,0.74571 -3.86814,1.39439 -5.84961,1.94532 l -0.004,0.004 h -0.004 c -1.98491,0.55107 -3.99541,1.00315 -6.02539,1.35352 h -0.006 -0.004 c -2.02984,0.34925 -4.07633,0.59546 -6.13086,0.74023 -1.44696,0.10228 -2.89903,0.15401 -4.34961,0.1543 -2.06048,9.6e-4 -4.11966,-0.0981 -6.16992,-0.30273 l -0.01,-0.004 h -0.01 c -2.04499,-0.20582 -4.0775,-0.51313 -6.0918,-0.92187 -0.001,-3.6e-4 -0.005,-0.002 -0.006,-0.002 -0.006,-4.7e-4 -0.005,4.9e-4 -0.008,0 -2.01425,-0.40802 -4.00718,-0.91491 -5.9707,-1.52148 l -0.01,-0.004 -0.006,-0.002 c -1.96546,-0.60869 -3.89993,-1.31555 -5.79492,-2.11719 -1.8966,-0.80207 -3.7535,-1.69816 -5.56055,-2.68555 -1.80716,-0.98728 -3.56406,-2.0638 -5.26367,-3.22656 -1.7006,-1.16319 -3.34196,-2.4111 -4.91797,-3.73828 -1.57537,-1.32688 -3.08248,-2.73338 -4.51758,-4.21094 -0.66491,-0.68436 -1.25833,-1.43235 -1.89062,-2.14648 -1.03376,1.16875 -2.06993,2.33645 -3.18945,3.42383 -1.47572,1.43378 -3.02345,2.79281 -4.63477,4.07226 l -0.002,0.002 -0.006,0.004 c -1.61321,1.27979 -3.28664,2.47746 -5.01953,3.58985 -1.73329,1.1128 -3.52169,2.14001 -5.35742,3.07421 h -0.004 c -1.83597,0.9341 -3.71668,1.7734 -5.63672,2.51953 -1.91672,0.74571 -3.86809,1.39439 -5.84961,1.94532 l -0.004,0.004 h -0.004 c -1.98491,0.55107 -3.99541,1.00315 -6.02539,1.35352 h -0.006 -0.004 c -2.02984,0.34925 -4.07631,0.59546 -6.13086,0.74023 -1.4469,0.10228 -2.89908,0.15401 -4.34961,0.1543 -2.06048,9.6e-4 -4.11966,-0.0981 -6.16992,-0.30273 l -0.01,-0.004 h -0.01 c -2.04499,-0.20582 -4.0794,-0.51313 -6.09375,-0.92187 -10e-4,-3.6e-4 -10e-4,-0.002 -0.004,-0.002 -0.005,-4.7e-4 -0.007,4.9e-4 -0.01,0 -2.01421,-0.40802 -4.00712,-0.91491 -5.9707,-1.52148 l -0.008,-0.004 -0.006,-0.002 c -1.96545,-0.60869 -3.89997,-1.31555 -5.79492,-2.11719 -1.89665,-0.80207 -3.75543,-1.69816 -5.5625,-2.68555 -1.80711,-0.98728 -3.56216,-2.0638 -5.26172,-3.22656 -1.70065,-1.16319 -3.34203,-2.4111 -4.91797,-3.73828 -1.57542,-1.32688 -3.08248,-2.73338 -4.51757,-4.21094 -0.66393,-0.68334 -1.25744,-1.4294 -1.88868,-2.14258 z m 126.61719,51.54688 H 736.56445 V 741.45312 H 618.54492 Z m -185.7168,0.20703 h 137.0625 v 82.99609 h -137.0625 z"
           style="opacity:1;vector-effect:none;fill:#ff0000;fill-opacity:1;fill-rule:evenodd;stroke:none;stroke-width:1.12312591;stroke-linecap:butt;stroke-linejoin:miter;stroke-miterlimit:4;stroke-dasharray:none;stroke-dashoffset:0;stroke-opacity:1" />
        <path
           inkscape:connector-curvature="0"
           transform="matrix(0.20721399,0,0,0.20721399,48.05798,108.63707)"
           id="path9911"
           d="m 691.07031,453.90234 0.002,63.55664 v 8.0918 c 0.0782,0.9164 0.177,1.83405 0.32226,2.74219 10e-4,0.005 -0.001,0.0147 0,0.0195 l 0.01,0.0508 c 0.21075,1.21213 0.48385,2.40807 0.8125,3.59375 0.33588,1.20783 0.73094,2.39815 1.18554,3.56641 0.45301,1.16565 0.97036,2.31299 1.53711,3.42773 v 0.01 c 0.56748,1.11445 1.19547,2.19956 1.8711,3.25195 0.67693,1.05447 1.40678,2.07295 2.18554,3.05469 0.77929,0.9814 1.60322,1.92353 2.47657,2.82226 0.87325,0.89907 1.79518,1.75903 2.7539,2.56641 0.95901,0.80767 1.95141,1.56371 2.98633,2.27148 1.03425,0.70758 2.10344,1.36797 3.20313,1.96875 1.10021,0.60127 2.23392,1.14829 3.38867,1.63672 1.15417,0.48839 2.33017,0.91257 3.52734,1.28321 1.19731,0.3699 2.41428,0.68115 3.64258,0.92968 1.22825,0.24946 2.46592,0.43312 3.71289,0.5586 1.2477,0.12402 2.49808,0.18617 3.75195,0.18554 h 0.01 c 0.88676,0 1.76975,-0.0252 2.6543,-0.0879 1.25025,-0.0878 2.49527,-0.23834 3.73046,-0.45117 1.23535,-0.21306 2.45619,-0.48686 3.66407,-0.82226 1.20778,-0.33579 2.39619,-0.73095 3.56445,-1.18555 v -0.01 c 1.16841,-0.45407 2.32225,-0.95889 3.43945,-1.52734 1.11711,-0.56849 2.1972,-1.19392 3.25196,-1.87109 1.05451,-0.67689 2.07299,-1.40479 3.05468,-2.1836 0.9814,-0.77924 1.92354,-1.60521 2.82227,-2.47851 0.89907,-0.87335 1.75893,-1.79329 2.56641,-2.75196 0.80757,-0.95828 1.56356,-1.95413 2.27148,-2.98828 0.70763,-1.03497 1.36802,-2.10271 1.96875,-3.20312 v -0.01 c 0.60112,-1.09954 1.14824,-2.22483 1.63672,-3.3789 0.48722,-1.15205 0.91305,-2.33058 1.2832,-3.5254 0.36894,-1.19432 0.68164,-2.40965 0.92969,-3.63476 0.22151,-1.10668 0.37887,-2.21782 0.5,-3.33984 v -8.44336 -63.69532 z"
           style="opacity:1;vector-effect:none;fill:#ffffff;fill-opacity:1;fill-rule:evenodd;stroke:none;stroke-width:1.12312591;stroke-linecap:butt;stroke-linejoin:miter;stroke-miterlimit:4;stroke-dasharray:none;stroke-dashoffset:0;stroke-opacity:1" />
        <path
           inkscape:connector-curvature="0"
           transform="matrix(0.20721399,0,0,0.20721399,48.05798,108.63707)"
           id="path9909"
           d="m 595.01172,453.90234 0.002,63.55664 v 8.0918 c 0.0782,0.9164 0.17701,1.83405 0.32227,2.74219 10e-4,0.005 -0.001,0.0147 0,0.0195 l 0.01,0.0508 c 0.21065,1.21213 0.48386,2.40807 0.8125,3.59375 0.33579,1.20783 0.73095,2.39815 1.18555,3.56641 0.45296,1.16565 0.97026,2.31299 1.53711,3.42773 v 0.01 c 0.56738,1.11445 1.19546,2.19956 1.87109,3.25195 0.67694,1.05447 1.40679,2.07295 2.18555,3.05469 0.77929,0.9814 1.60321,1.92353 2.47656,2.82226 0.87335,0.89907 1.79519,1.75903 2.75391,2.56641 0.95906,0.80767 1.95145,1.56371 2.98633,2.27148 1.03424,0.70758 2.10344,1.36797 3.20312,1.96875 1.10027,0.60127 2.23393,1.14829 3.38867,1.63672 1.15412,0.48839 2.33023,0.91257 3.52735,1.28321 1.19741,0.3699 2.41428,0.68115 3.64258,0.92968 1.22819,0.24946 2.46587,0.43312 3.71289,0.5586 1.24764,0.12402 2.49812,0.18617 3.75195,0.18554 h 0.01 c 0.88678,0 1.76976,-0.0252 2.6543,-0.0879 1.25026,-0.0878 2.49527,-0.23834 3.73047,-0.45117 1.23534,-0.21306 2.45623,-0.48686 3.66406,-0.82226 1.20784,-0.33579 2.39624,-0.73095 3.56446,-1.18555 v -0.01 c 1.1684,-0.45407 2.3222,-0.95889 3.43945,-1.52734 1.11711,-0.56849 2.1972,-1.19392 3.25195,-1.87109 1.05456,-0.67689 2.073,-1.40479 3.05469,-2.1836 0.9814,-0.77924 1.92353,-1.60521 2.82227,-2.47851 0.89916,-0.87335 1.75893,-1.79329 2.5664,-2.75196 0.80757,-0.95828 1.56362,-1.95413 2.27149,-2.98828 0.70767,-1.03497 1.36801,-2.10271 1.96875,-3.20312 v -0.01 c 0.60116,-1.09954 1.14823,-2.22483 1.63671,-3.3789 0.48729,-1.15205 0.91306,-2.33058 1.28321,-3.5254 0.36899,-1.19432 0.68163,-2.40965 0.92969,-3.63476 0.22151,-1.10668 0.37886,-2.21782 0.5,-3.33984 v -8.44336 -63.69532 z"
           style="opacity:1;vector-effect:none;fill:#ffffff;fill-opacity:1;fill-rule:evenodd;stroke:none;stroke-width:1.12312591;stroke-linecap:butt;stroke-linejoin:miter;stroke-miterlimit:4;stroke-dasharray:none;stroke-dashoffset:0;stroke-opacity:1" />
        <path
           inkscape:connector-curvature="0"
           transform="matrix(0.20721399,0,0,0.20721399,48.05798,108.63707)"
           id="path9907"
           d="m 498.95312,453.90234 0.002,63.55664 v 8.0918 c 0.0787,0.9164 0.177,1.83405 0.32226,2.74219 0.001,0.005 -10e-4,0.0147 0,0.0195 l 0.01,0.0508 c 0.21065,1.21213 0.48385,2.40807 0.8125,3.59375 0.33579,1.20783 0.73046,2.39815 1.18555,3.56641 0.45296,1.16565 0.97025,2.31299 1.53711,3.42773 v 0.01 c 0.56743,1.11445 1.19541,2.19956 1.87109,3.25195 0.67684,1.05447 1.40674,2.07295 2.18555,3.05469 0.77929,0.9814 1.60321,1.92353 2.47656,2.82226 0.8733,0.89907 1.79522,1.75903 2.75391,2.56641 0.959,0.80767 1.95145,1.56371 2.98632,2.27148 1.03425,0.70758 2.1034,1.36797 3.20313,1.96875 1.10021,0.60127 2.23387,1.14829 3.38867,1.63672 1.15417,0.48839 2.33022,0.91257 3.52734,1.28321 1.19741,0.3699 2.41429,0.68115 3.64258,0.92968 1.22825,0.24946 2.46592,0.43312 3.71289,0.5586 1.24765,0.12402 2.49808,0.18617 3.75196,0.18554 h 0.01 c 0.88677,0 1.76975,-0.0252 2.6543,-0.0879 1.2502,-0.0878 2.49522,-0.23834 3.73047,-0.45117 1.23529,-0.21306 2.45613,-0.48686 3.66406,-0.82226 1.20774,-0.33579 2.39619,-0.73095 3.56445,-1.18555 v -0.01 c 1.16846,-0.45407 2.32225,-0.95889 3.43946,-1.52734 1.1171,-0.56849 2.19715,-1.19392 3.25195,-1.87109 1.05451,-0.67689 2.073,-1.40479 3.05469,-2.1836 0.98145,-0.77924 1.92353,-1.60521 2.82226,-2.47851 0.89912,-0.87335 1.75903,-1.79329 2.56641,-2.75196 0.80762,-0.95828 1.56357,-1.95413 2.27148,-2.98828 0.70758,-1.03497 1.36797,-2.10271 1.96875,-3.20312 v -0.01 c 0.60117,-1.09954 1.14829,-2.22483 1.63672,-3.3789 0.48728,-1.15205 0.91306,-2.33058 1.2832,-3.5254 0.36895,-1.19432 0.68164,-2.40965 0.92969,-3.63476 0.22151,-1.10668 0.37887,-2.21782 0.5,-3.33984 v -8.44336 -63.69532 z"
           style="opacity:1;vector-effect:none;fill:#ffffff;fill-opacity:1;fill-rule:evenodd;stroke:none;stroke-width:1.12312591;stroke-linecap:butt;stroke-linejoin:miter;stroke-miterlimit:4;stroke-dasharray:none;stroke-dashoffset:0;stroke-opacity:1" />
        <path
           inkscape:connector-curvature="0"
           transform="matrix(0.20721399,0,0,0.20721399,48.05798,108.63707)"
           id="path9905"
           d="M 460.14453,434.58008 H 765.85156 V 373.26367 H 494.48633 c -0.11336,1.07638 -0.12291,2.10892 -0.31445,3.2168 -0.43159,2.49628 -1.06612,5.07232 -1.9336,7.72656 -0.86748,2.65424 -1.96683,5.38778 -3.32422,8.19727 -2.71478,5.61897 -5.3118,10.47956 -7.81054,14.74804 -2.49875,4.26849 -4.89852,7.94393 -7.22266,11.19141 -2.32414,3.24748 -4.57271,6.06709 -6.76367,8.62305 -2.19097,2.55596 -4.32461,4.84904 -6.42383,7.04297 -0.18554,0.19391 -0.36383,0.37782 -0.54883,0.57031 z"
           style="opacity:1;vector-effect:none;fill:#ff0000;fill-opacity:1;fill-rule:evenodd;stroke:none;stroke-width:1.12312591;stroke-linecap:butt;stroke-linejoin:miter;stroke-miterlimit:4;stroke-dasharray:none;stroke-dashoffset:0;stroke-opacity:1" />
        <path
           inkscape:connector-curvature="0"
           transform="matrix(0.20721399,0,0,0.20721399,48.05798,108.63707)"
           id="path9903"
           d="m 410,544.12109 c 0.2783,0.37879 0.52802,0.77802 0.82031,1.14649 0.77925,0.9814 1.60517,1.92353 2.47852,2.82226 0.87325,0.89907 1.79328,1.75903 2.75195,2.56641 0.95906,0.80767 1.95141,1.56371 2.98633,2.27148 1.03424,0.70758 2.10344,1.36797 3.20312,1.96875 1.10022,0.60127 2.23393,1.14829 3.38868,1.63672 1.15417,0.48839 2.33022,0.91257 3.52734,1.28321 1.19731,0.3699 2.41428,0.68115 3.64258,0.92968 1.22825,0.24946 2.46592,0.43312 3.71289,0.5586 1.24769,0.12402 2.49808,0.18617 3.75195,0.18554 h 0.01 c 0.88681,0 1.76975,-0.0252 2.65429,-0.0879 1.25026,-0.0878 2.49723,-0.23834 3.73243,-0.45117 1.23529,-0.21306 2.45422,-0.48686 3.66211,-0.82226 1.20778,-0.33579 2.39809,-0.73095 3.5664,-1.18555 v -0.01 c 1.16841,-0.45407 2.32025,-0.95889 3.4375,-1.52734 1.11706,-0.56849 2.1972,-1.19392 3.25195,-1.87109 1.05458,-0.67689 2.07295,-1.40479 3.05469,-2.1836 0.9814,-0.77924 1.92354,-1.60521 2.82227,-2.47851 0.89907,-0.87335 1.75898,-1.79329 2.5664,-2.75196 0.80762,-0.95828 1.56357,-1.95413 2.27149,-2.98828 0.70762,-1.03497 1.3583,-2.10271 1.95898,-3.20312 l 0.01,-0.01 c 0.60116,-1.09954 1.14824,-2.22483 1.63672,-3.3789 0.48843,-1.15485 0.91257,-2.32759 1.2832,-3.5254 0.36894,-1.19432 0.68164,-2.40965 0.92969,-3.63476 0.22199,-1.10668 0.37887,-2.21782 0.5,-3.33984 v -8.44336 -63.69532 h -34.1875 c -0.41015,0.58335 -0.81252,1.02339 -1.22461,1.63672 -2.07259,3.08471 -4.17179,6.56486 -6.31836,10.60547 -1.07329,2.02031 -1.96547,4.00239 -2.70508,5.95117 -0.73961,1.94879 -1.32638,3.86388 -1.79101,5.74805 -0.46464,1.88417 -0.80635,3.73799 -1.05469,5.56445 -0.24835,1.82647 -0.40339,3.62669 -0.49414,5.40235 -0.18151,3.55132 -0.10644,7.00695 -0.01,10.39648 0.0967,3.38954 0.21385,6.7131 0.11914,9.99609 -0.0473,1.6415 -0.14684,3.27322 -0.33008,4.89844 -0.18323,1.62522 -0.4503,3.24353 -0.82812,4.85938 -0.37782,1.61585 -0.86695,3.22841 -1.49805,4.84179 -0.6311,1.61339 -1.40263,3.22789 -2.3457,4.84571 -0.94307,1.61782 -2.05735,3.23802 -3.37109,4.86718 -1.31375,1.62917 -2.82721,3.26665 -4.57032,4.91407 -1.7431,1.64741 -3.7161,3.30594 -5.94726,4.97851 -0.31391,0.23532 -0.73046,0.477 -1.05469,0.71289 z"
           style="opacity:1;vector-effect:none;fill:#ffffff;fill-opacity:1;fill-rule:evenodd;stroke:none;stroke-width:1.12312591;stroke-linecap:butt;stroke-linejoin:miter;stroke-miterlimit:4;stroke-dasharray:none;stroke-dashoffset:0;stroke-opacity:1" />
        <path
           inkscape:connector-curvature="0"
           transform="matrix(0.20721399,0,0,0.20721399,48.05798,108.63707)"
           id="path9899"
           d="m 405.93164,373.26367 h -3.07422 v 12.4961 c 0.74754,-2.38616 1.49882,-4.77457 2.06055,-7.08789 0.44877,-1.84813 0.69657,-3.61414 1.01367,-5.40821 z"
           style="opacity:1;vector-effect:none;fill:#ff0000;fill-opacity:1;fill-rule:evenodd;stroke:none;stroke-width:1.12312591;stroke-linecap:butt;stroke-linejoin:miter;stroke-miterlimit:4;stroke-dasharray:none;stroke-dashoffset:0;stroke-opacity:1" />
      </g>
      <g
         id="g9893">
        <path
           style="opacity:1;vector-effect:none;fill:#fcd1ae;fill-opacity:1;stroke:none;stroke-width:1.06775701;stroke-linecap:butt;stroke-linejoin:miter;stroke-miterlimit:4;stroke-dasharray:none;stroke-dashoffset:0;stroke-opacity:1"
           d="m 118.14462,177.38318 c -0.16688,1.39141 -0.35796,2.75976 -0.56756,4.09386 0.10737,1.09618 0.0586,2.12047 -0.0885,3.24766 0.96322,1.83986 0.72996,4.9145 0.72996,4.9145 -0.21085,-1.38379 -0.54445,-2.47267 -0.99603,-3.24897 -0.32033,1.76228 -0.78659,3.88475 -1.26123,6.8681 -0.59449,3.7366 -3.08489,5.84419 -5.14471,8.13411 -0.38684,0.43002 -0.76555,0.86278 -1.1377,1.29836 4.37816,1.57895 6.91351,-3.05918 9.20916,-6.92036 2.82504,-4.75147 4.92359,-11.33785 2.58294,-15.99521 -0.77492,-1.54193 -2.01493,-2.19878 -3.32628,-2.39205 z"
           id="path1663"
           inkscape:connector-curvature="0" />
        <path
           style="opacity:1;vector-effect:none;fill:#fcd1ae;fill-opacity:1;stroke:none;stroke-width:1.06775701;stroke-linecap:butt;stroke-linejoin:miter;stroke-miterlimit:4;stroke-dasharray:none;stroke-dashoffset:0;stroke-opacity:1"
           d="m 12.342627,177.51147 c -1.073872,0.29672 -2.052872,0.96841 -2.703865,2.26376 -2.34065,4.65736 -0.242134,11.24374 2.582499,15.99521 2.199249,3.699 4.619226,8.10998 8.667956,7.08579 -0.416266,-0.49199 -0.843148,-0.97935 -1.278941,-1.46379 -2.059816,-2.28992 -4.550229,-4.39751 -5.144696,-8.13411 -0.393289,-2.47193 -0.745821,-4.33628 -1.014605,-5.91008 -0.235566,0.64121 -0.424713,1.40169 -0.560211,2.29095 0,0 -0.156263,-2.06552 0.317038,-3.82386 -0.192487,-1.3347 -0.29196,-2.48553 -0.239304,-3.67314 a 3.4331149,3.4331149 0 0 1 0,-0.005 c -0.0025,-0.009 -0.01437,-0.0498 -0.01415,-0.0496 0,-0.003 -0.0069,-0.0285 -0.0069,-0.0285 a 3.4331149,3.4331149 0 0 1 -0.0596,-0.6086 c -0.200913,-1.28529 -0.3842,-2.60141 -0.545108,-3.9392 z"
           id="path1665"
           inkscape:connector-curvature="0" />
        <path
           style="opacity:1;vector-effect:none;fill:#fcd1ae;fill-opacity:1;stroke:none;stroke-width:1.17906535;stroke-linecap:butt;stroke-linejoin:miter;stroke-miterlimit:4;stroke-dasharray:none;stroke-dashoffset:0;stroke-opacity:1"
           d="m 65.725226,153.10962 c -2.20878,0 -4.4161,0.021 -6.61241,0.0851 -2.1963,0.064 -4.38171,0.1711 -6.54588,0.34337 -1.08209,0.0861 -2.15875,0.18862 -3.22911,0.31014 -1.07036,0.1215 -2.13405,0.26218 -3.19023,0.42459 -1.05618,0.16241 -2.10491,0.34662 -3.14445,0.55545 -1.03954,0.20884 -2.07001,0.44195 -3.09046,0.70274 -1.342,0.39993 -2.749343,0.88418 -4.196621,1.42453 -1.447278,0.54032 -2.934588,1.13701 -4.436768,1.76226 -3.004448,1.25048 -6.06843,2.61539 -8.990611,3.87226 -1.466012,0.63053 -2.897501,1.23395 -4.28432,1.783 -0.946247,0.3746 -1.839109,0.6783 -2.740597,0.99344 -0.169399,6.44781 0.562246,12.99699 1.615419,18.74962 4.854549,10.86508 9.322156,17.09962 12.192501,22.32384 3.146908,5.124 5.135934,20.65659 15.599577,27.70567 15.21635,9.74742 29.35004,7.65273 41.12053,0 10.46357,-7.04908 9.17353,-13.65033 12.32036,-18.77424 2.870394,-5.2243 1.82829,-9.68539 15.473884,-31.25527 1.07254,-5.85847 1.8279,-12.54631 1.61022,-19.10856 -0.58639,-0.21625 -1.14557,-0.39531 -1.74974,-0.6345 -1.38669,-0.54905 -2.81798,-1.15247 -4.28388,-1.783 -2.92386,-1.25768 -5.98996,-2.62369 -8.99623,-3.87485 -1.503124,-0.62558 -2.991314,-1.22222 -4.439374,-1.7627 -1.44804,-0.54049 -2.85584,-1.02475 -4.19835,-1.4245 -0.88622,-0.23807 -1.82922,-0.45417 -2.8166,-0.65049 -0.9874,-0.19631 -2.01903,-0.37286 -3.08269,-0.53084 -1.06366,-0.15799 -2.15941,-0.2976 -3.27446,-0.42071 -1.11503,-0.12309 -2.24956,-0.22973 -3.39107,-0.32135 -2.28305,-0.18326 -4.59437,-0.30691 -6.83399,-0.38484 -2.23962,-0.0779 -4.4076,-0.11016 -6.40465,-0.11016 z M 37.65154,168.13558 a 15.707435,10.831142 88.083386 0 1 1.083276,0.0765 15.707435,10.831142 88.083386 0 1 1.07508,0.23282 15.707435,10.831142 88.083386 0 1 1.0565,0.38615 15.707435,10.831142 88.083386 0 1 1.02712,0.53646 15.707435,10.831142 88.083386 0 1 0.98782,0.68072 15.707435,10.831142 88.083386 0 1 0.93816,0.81848 15.707435,10.831142 88.083386 0 1 0.87984,0.94853 15.707435,10.831142 88.083386 0 1 0.81202,1.06817 15.707435,10.831142 88.083386 0 1 0.73645,1.17787 15.707435,10.831142 88.083386 0 1 0.65351,1.27547 15.707435,10.831142 88.083386 0 1 0.56409,1.36059 15.707435,10.831142 88.083386 0 1 0.46865,1.43185 15.707435,10.831142 88.083386 0 1 0.36887,1.48886 15.707435,10.831142 88.083386 0 1 0.26564,1.53118 15.707435,10.831142 88.083386 0 1 0.15937,1.55799 15.707435,10.831142 88.083386 0 1 0.0476,1.11049 15.707435,10.831142 88.083386 0 1 -0.0251,1.5679 15.707435,10.831142 88.083386 0 1 -0.13347,1.55235 15.707435,10.831142 88.083386 0 1 -0.23972,1.52125 15.707435,10.831142 88.083386 0 1 -0.34425,1.47547 15.707435,10.831142 88.083386 0 1 -0.44488,1.41413 15.707435,10.831142 88.083386 0 1 -0.54121,1.33899 15.707435,10.831142 88.083386 0 1 -0.63234,1.25087 15.707435,10.831142 88.083386 0 1 -0.717,1.15022 15.707435,10.831142 88.083386 0 1 -0.79433,1.03751 15.707435,10.831142 88.083386 0 1 -0.86429,0.91438 15.707435,10.831142 88.083386 0 1 -0.92475,0.78308 15.707435,10.831142 88.083386 0 1 -0.9766,0.64273 15.707435,10.831142 88.083386 0 1 -1.01892,0.49714 15.707435,10.831142 88.083386 0 1 -1.05002,0.34554 15.707435,10.831142 88.083386 0 1 -1.07162,0.19136 15.707435,10.831142 88.083386 0 1 -0.76581,0.041 15.707435,10.831142 88.083386 0 1 -1.082845,-0.0765 15.707435,10.831142 88.083386 0 1 -1.075073,-0.23281 15.707435,10.831142 88.083386 0 1 -1.056499,-0.38614 15.707435,10.831142 88.083386 0 1 -1.027128,-0.53647 15.707435,10.831142 88.083386 0 1 -0.987823,-0.68071 15.707435,10.831142 88.083386 0 1 -0.938582,-0.81851 15.707435,10.831142 88.083386 0 1 -0.87941,-0.94853 15.707435,10.831142 88.083386 0 1 -0.812033,-1.06814 15.707435,10.831142 88.083386 0 1 -0.736865,-1.17788 15.707435,10.831142 88.083386 0 1 -0.653514,-1.27549 15.707435,10.831142 88.083386 0 1 -0.563662,-1.36057 15.707435,10.831142 88.083386 0 1 -0.469076,-1.43184 15.707435,10.831142 88.083386 0 1 -0.368875,-1.48888 15.707435,10.831142 88.083386 0 1 -0.265201,-1.53119 15.707435,10.831142 88.083386 0 1 -0.159381,-1.55796 15.707435,10.831142 88.083386 0 1 -0.0475,-1.1105 15.707435,10.831142 88.083386 0 1 0.02506,-1.56789 15.707435,10.831142 88.083386 0 1 0.13302,-1.55236 15.707435,10.831142 88.083386 0 1 0.240144,-1.52126 15.707435,10.831142 88.083386 0 1 0.343819,-1.47548 15.707435,10.831142 88.083386 0 1 0.445326,-1.41413 15.707435,10.831142 88.083386 0 1 0.541215,-1.33898 15.707435,10.831142 88.083386 0 1 0.632328,-1.25085 15.707435,10.831142 88.083386 0 1 0.717005,-1.15024 15.707435,10.831142 88.083386 0 1 0.794319,-1.0375 15.707435,10.831142 88.083386 0 1 0.864299,-0.9144 15.707435,10.831142 88.083386 0 1 0.924761,-0.78308 15.707435,10.831142 88.083386 0 1 0.976591,-0.64271 15.707435,10.831142 88.083386 0 1 1.01849,-0.49715 15.707435,10.831142 88.083386 0 1 1.050453,-0.34555 15.707435,10.831142 88.083386 0 1 1.071618,-0.19133 15.707435,10.831142 88.083386 0 1 0.765377,-0.041 z m 54.368676,0 a 10.831143,15.707435 1.9166138 0 1 0.76582,0.041 10.831143,15.707435 1.9166138 0 1 1.07162,0.19091 10.831143,15.707435 1.9166138 0 1 1.05001,0.34597 10.831143,15.707435 1.9166138 0 1 1.0185,0.49672 10.831143,15.707435 1.9166138 0 1 0.97702,0.64314 10.831143,15.707435 1.9166138 0 1 0.92477,0.78308 10.831143,15.707435 1.9166138 0 1 0.86385,0.9144 10.831143,15.707435 1.9166138 0 1 0.79475,1.0375 10.831143,15.707435 1.9166138 0 1 0.717004,1.15024 10.831143,15.707435 1.9166138 0 1 0.63235,1.25043 10.831143,15.707435 1.9166138 0 1 0.54121,1.3394 10.831143,15.707435 1.9166138 0 1 0.44488,1.41413 10.831143,15.707435 1.9166138 0 1 0.34426,1.47548 10.831143,15.707435 1.9166138 0 1 0.23971,1.52126 10.831143,15.707435 1.9166138 0 1 0.13347,1.55236 10.831143,15.707435 1.9166138 0 1 0.025,1.56746 10.831143,15.707435 1.9166138 0 1 -0.0476,1.11093 10.831143,15.707435 1.9166138 0 1 -0.15938,1.55796 10.831143,15.707435 1.9166138 0 1 -0.26564,1.53119 10.831143,15.707435 1.9166138 0 1 -0.36887,1.48888 10.831143,15.707435 1.9166138 0 1 -0.46864,1.43184 10.831143,15.707435 1.9166138 0 1 -0.5641,1.36015 10.831143,15.707435 1.9166138 0 1 -0.65351,1.27591 10.831143,15.707435 1.9166138 0 1 -0.736444,1.17788 10.831143,15.707435 1.9166138 0 1 -0.81202,1.06814 10.831143,15.707435 1.9166138 0 1 -0.87984,0.94853 10.831143,15.707435 1.9166138 0 1 -0.93815,0.81851 10.831143,15.707435 1.9166138 0 1 -0.98783,0.68071 10.831143,15.707435 1.9166138 0 1 -1.02712,0.53647 10.831143,15.707435 1.9166138 0 1 -1.05651,0.38614 10.831143,15.707435 1.9166138 0 1 -1.07507,0.23281 10.831143,15.707435 1.9166138 0 1 -1.08327,0.076 10.831143,15.707435 1.9166138 0 1 -0.76539,-0.0406 10.831143,15.707435 1.9166138 0 1 -1.07161,-0.19136 10.831143,15.707435 1.9166138 0 1 -1.05046,-0.34554 10.831143,15.707435 1.9166138 0 1 -1.01849,-0.49714 10.831143,15.707435 1.9166138 0 1 -0.97659,-0.64314 10.831143,15.707435 1.9166138 0 1 -0.9252,-0.78267 10.831143,15.707435 1.9166138 0 1 -0.86385,-0.91482 10.831143,15.707435 1.9166138 0 1 -0.79432,-1.03749 10.831143,15.707435 1.9166138 0 1 -0.717,-1.14979 10.831143,15.707435 1.9166138 0 1 -0.63235,-1.25088 10.831143,15.707435 1.9166138 0 1 -0.54164,-1.33899 10.831143,15.707435 1.9166138 0 1 -0.44488,-1.41455 10.831143,15.707435 1.9166138 0 1 -0.34382,-1.47505 10.831143,15.707435 1.9166138 0 1 -0.24015,-1.52125 10.831143,15.707435 1.9166138 0 1 -0.13303,-1.55235 10.831143,15.707435 1.9166138 0 1 -0.0255,-1.5679 10.831143,15.707435 1.9166138 0 1 0.0479,-1.11049 10.831143,15.707435 1.9166138 0 1 0.15895,-1.55799 10.831143,15.707435 1.9166138 0 1 0.26563,-1.53118 10.831143,15.707435 1.9166138 0 1 0.36887,-1.48886 10.831143,15.707435 1.9166138 0 1 0.46908,-1.43185 10.831143,15.707435 1.9166138 0 1 0.56366,-1.36059 10.831143,15.707435 1.9166138 0 1 0.65351,-1.27547 10.831143,15.707435 1.9166138 0 1 0.73644,-1.17787 10.831143,15.707435 1.9166138 0 1 0.81246,-1.06817 10.831143,15.707435 1.9166138 0 1 0.87941,-0.94853 10.831143,15.707435 1.9166138 0 1 0.93858,-0.81848 10.831143,15.707435 1.9166138 0 1 0.98739,-0.68117 10.831143,15.707435 1.9166138 0 1 1.02756,-0.53601 10.831143,15.707435 1.9166138 0 1 1.05651,-0.38659 10.831143,15.707435 1.9166138 0 1 1.07507,-0.23238 10.831143,15.707435 1.9166138 0 1 1.08284,-0.0765 z m -40.64153,44.9077 c 0,0 0.15225,0.42153 0.48031,1.05348 0.16403,0.31598 0.37205,0.68443 0.62717,1.0794 0.2551,0.39497 0.55697,0.81617 0.9092,1.23748 0.35223,0.42128 0.75488,0.84295 1.21027,1.23789 0.45539,0.39498 0.96356,0.76343 1.52817,1.07941 0.28229,0.15798 0.5786,0.3027 0.88933,0.43106 0.31075,0.12837 0.63624,0.24043 0.97617,0.33258 0.33992,0.0922 0.6944,0.16444 1.06427,0.21381 0.36988,0.0494 0.75484,0.0755 1.15541,0.0755 0.80115,0 1.72318,-0.0722 2.72332,-0.19912 1.00014,-0.12689 2.07829,-0.30853 3.19196,-0.52609 1.11366,-0.21754 2.26274,-0.47097 3.40447,-0.74293 1.14171,-0.27194 2.27609,-0.56211 3.3604,-0.85218 2.16863,-0.58015 4.13708,-1.16044 5.56326,-1.59554 1.42618,-0.43511 2.31038,-0.72521 2.31038,-0.72521 0,0 -0.65639,0.46259 -1.78732,1.14979 -0.56546,0.34359 -1.24942,0.74363 -2.02963,1.16967 -0.78021,0.42604 -1.65663,0.87838 -2.60627,1.32731 -0.94963,0.44893 -1.97266,0.89436 -3.0464,1.30658 -1.07373,0.41224 -2.19795,0.79107 -3.35047,1.10705 -0.57625,0.15799 -1.1597,0.30053 -1.74715,0.42327 -0.58746,0.12276 -1.17923,0.22575 -1.77221,0.30583 -0.59298,0.0801 -1.18713,0.1372 -1.77998,0.16715 -0.59285,0.03 -1.18429,0.0328 -1.77135,0.006 -0.58704,-0.0276 -1.13752,-0.0871 -1.65428,-0.17451 -0.51677,-0.0875 -0.99988,-0.20266 -1.45086,-0.34165 -0.45096,-0.13901 -0.86986,-0.30182 -1.2595,-0.4842 -0.38965,-0.18238 -0.75004,-0.38456 -1.08285,-0.6021 -0.3328,-0.21757 -0.63828,-0.45046 -0.91871,-0.69498 -0.28044,-0.24455 -0.53585,-0.50077 -0.7684,-0.76409 -0.23256,-0.2633 -0.44235,-0.53383 -0.63148,-0.8077 -0.18915,-0.27389 -0.35731,-0.5509 -0.50753,-0.82715 -0.30042,-0.55252 -0.5277,-1.10174 -0.69928,-1.61456 -0.17159,-0.5128 -0.28773,-0.98938 -0.36628,-1.39686 -0.15712,-0.81496 -0.16414,-1.35367 -0.16414,-1.35367 z m 9.74994,9.89033 c 0,0 0.0394,0.0678 0.12397,0.16976 0.0845,0.10192 0.21414,0.2377 0.39565,0.3736 0.18151,0.13591 0.41483,0.2717 0.70577,0.37363 0.29095,0.10193 0.63978,0.17017 1.05261,0.17017 0.82569,0 2.14959,-0.13684 3.26712,-0.27341 1.11752,-0.13655 2.02833,-0.27298 2.02833,-0.27298 0,0 -0.16904,0.11926 -0.46043,0.29632 -0.29139,0.17703 -0.70493,0.41182 -1.19429,0.64314 -0.48936,0.2313 -1.05434,0.45915 -1.64823,0.62198 -0.29696,0.0814 -0.60106,0.1466 -0.90662,0.18789 -0.30558,0.0412 -0.61275,0.0587 -0.91526,0.0444 -0.30252,-0.0142 -0.56755,-0.0615 -0.79994,-0.13302 -0.23239,-0.0716 -0.43191,-0.16778 -0.60341,-0.27989 -0.17149,-0.11212 -0.31511,-0.2401 -0.43494,-0.37579 -0.11985,-0.13567 -0.21588,-0.2792 -0.29329,-0.42155 -0.15481,-0.28473 -0.23421,-0.56576 -0.27471,-0.77575 -0.0405,-0.20999 -0.0423,-0.34857 -0.0423,-0.34857 z"
           id="path1961"
           inkscape:connector-curvature="0" />
        <path
           style="opacity:1;vector-effect:none;fill:#ff0000;fill-opacity:1;stroke:none;stroke-width:0.35119566;stroke-linecap:butt;stroke-linejoin:miter;stroke-miterlimit:4;stroke-dasharray:none;stroke-dashoffset:0;stroke-opacity:1"
           d="m 49.934746,248.54443 -3.547,1.60505 c 0,0 2.58073,1.60405 3.38331,6.07553 0,0 -2.12179,-6.64906 -7.28104,-5.78916 -5.159206,0.85991 -6.992403,8.59957 -8.368201,12.38299 -1.303265,3.58413 -1.755554,8.54405 -1.803737,9.08865 0.166515,-0.16997 0.319118,-0.36735 0.491103,-0.52565 0.491253,-0.45215 1.003208,-0.85728 1.529029,-1.2189 0.525821,-0.36162 1.065148,-0.67983 1.610664,-0.95803 0.545516,-0.27818 1.097473,-0.51643 1.647813,-0.7183 0.550339,-0.20185 1.099319,-0.36754 1.639599,-0.50016 0.54029,-0.13265 1.07198,-0.23227 1.58734,-0.30279 0.51537,-0.0705 1.02014,-0.11691 1.5096,-0.14426 0.48946,-0.0273 0.96332,-0.0358 1.41586,-0.0298 0.90509,0.0119 1.72523,0.0811 2.41665,0.16758 0.34117,0.0427 0.53801,0.0882 0.81116,0.13477 0.27169,-0.47967 0.53705,-1.03918 0.72953,-1.78301 0,0 0.24036,0.87086 0.49067,2.01281 0.0545,0.0139 0.21899,0.0518 0.21899,0.0518 a 2.5289494,2.5289494 0 0 1 0.21855,0.0704 2.5289494,2.5289494 0 0 1 0.23239,0.10019 2.5289494,2.5289494 0 0 1 0.22071,0.12311 2.5289494,2.5289494 0 0 1 0.20776,0.14426 2.5289494,2.5289494 0 0 1 0.19178,0.16456 2.5289494,2.5289494 0 0 1 0.17493,0.18271 2.5289494,2.5289494 0 0 1 0.15549,0.19912 2.5289494,2.5289494 0 0 1 0.13476,0.21381 2.5289494,2.5289494 0 0 1 0.11317,0.2259 c 0.19722,0.44993 0.3364,0.89079 0.43063,1.31652 0.0943,0.42573 0.14351,0.83644 0.15982,1.2271 0.0163,0.39068 -1.3e-4,0.76101 -0.0367,1.10574 -0.0366,0.34475 -0.0932,0.66406 -0.15766,0.95197 0.4337,0.13825 0.89712,0.29285 0.89712,0.29285 a 2.5289494,2.5289494 0 0 1 0.0324,0.0126 2.5289494,2.5289494 0 0 1 0.23108,0.10237 c -0.18236,-0.0985 -0.2601,-0.11896 -0.23799,-0.12268 0.0221,-0.004 0.14386,0.009 0.36152,-0.0216 0.57161,-0.0811 1.49435,-0.29412 2.57905,-0.60599 1.08468,-0.31184 2.34133,-0.71939 3.68825,-1.18263 1.34691,-0.46321 2.78387,-0.98205 4.22859,-1.51606 2.88944,-1.06803 5.81855,-2.19695 8.22825,-3.08614 1.20487,-0.44459 2.27771,-0.82928 3.17727,-1.12259 0.44978,-0.14664 0.82086,-0.27429 1.1904,-0.37577 0.36954,-0.10149 0.73783,-0.17685 1.18133,-0.21898 a 2.5289494,2.5289494 0 0 1 0.1516,-0.009 v 0 a 2.5289494,2.5289494 0 0 0 4.5e-4,0 2.5289494,2.5289494 0 0 1 0.25268,0.004 2.5289494,2.5289494 0 0 1 0.25094,0.0294 c 1.00701,0.16821 1.8776,0.37511 2.62225,0.59564 0.74465,0.22051 1.36338,0.45455 1.86637,0.67682 0.37352,0.16509 0.64616,0.32843 0.91612,0.48507 0.0201,-0.006 0.18583,-0.0356 0.22461,-0.0454 0.24798,-1.12464 0.48418,-1.98126 0.48418,-1.98126 0.13849,0.68202 0.4131,1.2444 0.70492,1.74068 0.002,0 0.002,0 0.004,0 0.39231,-0.0622 0.85464,-0.1232 1.37397,-0.17062 0.51932,-0.0475 1.09589,-0.0815 1.71735,-0.089 0.5563,-0.007 1.14825,0.007 1.76615,0.0527 0.61791,0.0456 1.26176,0.12309 1.92123,0.24362 0.65946,0.12052 1.3348,0.28422 2.01581,0.50233 0.68101,0.21812 1.36743,0.49051 2.04994,0.82887 0.68251,0.33838 1.35652,0.74818 2.00674,1.2323 0.32512,0.24204 0.64446,0.50258 0.95586,0.78222 0.22363,0.20081 0.43776,0.42306 0.65265,0.64358 -0.0647,-1.1065 -0.36146,-5.62051 -1.58173,-8.97592 -1.3758,-3.78342 -3.21072,-11.52309 -8.36992,-12.383 -5.15925,-0.85989 -7.27931,5.78916 -7.27931,5.78916 0.80255,-4.47147 3.38157,-6.07552 3.38157,-6.07552 l -3.54501,-1.60572 c -6.2753,6.73391 -13.71317,8.01141 -15.31449,8.21487 -1.60135,-0.20337 -9.03748,-1.48096 -15.31276,-8.21487 z"
           id="path1673"
           inkscape:connector-curvature="0" />
        <path
           style="opacity:1;vector-effect:none;fill:#fcd1ae;fill-opacity:1;stroke:none;stroke-width:1.03400791;stroke-linecap:butt;stroke-linejoin:miter;stroke-miterlimit:4;stroke-dasharray:none;stroke-dashoffset:0;stroke-opacity:1"
           d="m 57.104396,240.97552 c 0,0 -0.46742,4.62534 -2.73502,8.38467 0,0 4.14729,3.94238 10.8604,5.07619 6.71312,-1.13381 10.91121,-5.07619 10.91121,-5.07619 -2.26754,-3.75933 -2.74514,-8.38467 -2.74514,-8.38467 -4.11489,1.63965 -8.16963,1.52188 -8.17456,1.52171 h -8.3e-4 c -0.009,1.7e-4 -3.99868,0.11853 -8.11354,-1.52171 z"
           id="path1675"
           inkscape:connector-curvature="0"
           sodipodi:nodetypes="ccccccccc" />
        <path
           sodipodi:nodetypes="ccccccssccccccccccccccccccccccccccsccsccccc"
           style="opacity:1;vector-effect:none;fill:#a05a2c;fill-opacity:1;stroke:none;stroke-width:0.7619853;stroke-linecap:butt;stroke-linejoin:miter;stroke-miterlimit:4;stroke-dasharray:none;stroke-dashoffset:0;stroke-opacity:1"
           d="m 16.317038,181.38604 c -0.331667,2.30164 0.482678,4.69764 1.538512,11.33416 0.661773,4.15945 7.501213,7.84749 9.959269,14.98593 1.467449,4.2615 -2.384736,12.04053 0.550221,15.95374 12.626156,16.8347 36.547646,17.1591 36.775216,17.16177 h 0.0196 0.0196 c 4.7e-4,0 0.0312,0 0.035,0 h 8.5e-4 c 0.004,2.5e-4 0.0312,0 0.0312,0 h 0.0196 0.0196 c 0.22749,0 24.14905,-0.32707 36.775214,-17.16177 2.93497,-3.91321 -0.91723,-11.69224 0.55024,-15.95374 2.45805,-7.13844 9.29748,-10.82648 9.95925,-14.98593 1.05584,-6.63652 1.87022,-9.03252 1.53855,-11.33416 -0.41567,1.96831 -1.16831,4.09149 -7.4365,10.63248 -4.47762,4.10437 -8.715404,14.39858 -9.586014,22.10991 0,0 -0.68461,-2.42643 -0.12487,-4.91395 -10.5485,-2.44323 -21.16825,-3.77563 -31.74829,-3.83716 h -0.004 c -10.58001,0.0618 -21.19976,1.39393 -31.748271,3.83716 0.559591,2.48752 -0.124857,4.91395 -0.124857,4.91395 -0.870631,-7.71133 -5.108403,-18.00554 -9.58601,-22.10991 -6.268182,-6.54099 -7.020801,-8.66417 -7.436478,-10.63248 z m 41.995688,28.41109 c 0.65294,0 1.28596,0 1.88531,0.0192 1.59103,0 3.31793,0.14392 5.0148,0.252 8.3e-4,1.7e-4 0.003,-9e-5 0.004,0 1.69686,-0.10758 3.42376,-0.252 5.0148,-0.252 4.79478,-0.12262 11.69858,0.26796 14.4193,3.22222 4.35322,4.72614 -1.86572,7.51415 -5.09946,11.2454 -3.22792,3.72457 -6.70396,6.70289 -14.26205,6.71476 h -0.0403 c -0.0121,0 -0.0196,0 -0.0312,0 -8.4e-4,-9e-5 -8.4e-4,0 -8.4e-4,0 -0.0121,2.5e-4 -0.0196,0 -0.035,0 h -0.0401 c -7.5581,-0.0117 -11.03416,-2.99019 -14.26203,-6.71476 -3.23376,-3.73125 -9.45271,-6.51926 -5.0995,-11.2454 2.38065,-2.58482 7.9632,-3.20727 12.53398,-3.24053 z"
           id="path1677"
           inkscape:connector-curvature="0" />
        <path
           style="opacity:1;vector-effect:none;fill:#a05a2c;fill-opacity:1;stroke:none;stroke-width:0.34790197;stroke-linecap:butt;stroke-linejoin:miter;stroke-miterlimit:4;stroke-dasharray:none;stroke-dashoffset:0;stroke-opacity:1"
           d="m 38.294056,160.09249 c -4.335804,-0.29531 -10.728893,0.71422 -12.263778,8.29357 3.717232,-4.91288 10.460402,-6.82911 15.723948,-4.11549 -3.07608,-0.50693 -5.888759,-0.61626 -8.68465,0.65922 4.367913,-0.1935 8.52342,1.66816 12.75781,2.39367 2.33577,0.36292 10.19865,1.37486 12.41498,3.70818 0,0 2.317,-4.1811 0.98805,-6.26099 -3.72498,-4.84015 -11.19715,-2.64007 -17.54273,-4.14173 -0.73169,-0.19358 -1.94833,-0.43773 -3.39363,-0.53627 z"
           id="path1679"
           inkscape:connector-curvature="0"
           sodipodi:nodetypes="cccccccccc" />
        <path
           sodipodi:nodetypes="cccccccccc"
           inkscape:connector-curvature="0"
           id="path1681"
           d="m 92.158206,160.09249 c 4.33586,-0.29531 10.728944,0.71422 12.263794,8.29357 -3.7172,-4.91288 -10.460364,-6.82911 -15.723954,-4.11549 3.07609,-0.50693 5.8888,-0.61626 8.68468,0.65922 -4.36791,-0.1935 -8.52345,1.66816 -12.7578,2.39367 -2.33576,0.36292 -10.19869,1.37486 -12.41502,3.70818 0,0 -2.31696,-4.1811 -0.98802,-6.26099 3.72499,-4.84015 11.19717,-2.64007 17.54274,-4.14173 0.73165,-0.19358 1.94829,-0.43773 3.39358,-0.53627 z"
           style="opacity:1;vector-effect:none;fill:#a05a2c;fill-opacity:1;stroke:none;stroke-width:0.34790197;stroke-linecap:butt;stroke-linejoin:miter;stroke-miterlimit:4;stroke-dasharray:none;stroke-dashoffset:0;stroke-opacity:1" />
        <path
           style="opacity:1;vector-effect:none;fill:#fcd1ae;fill-opacity:1;stroke:none;stroke-width:0.87382627;stroke-linecap:butt;stroke-linejoin:miter;stroke-miterlimit:4;stroke-dasharray:none;stroke-dashoffset:0;stroke-opacity:1"
           d="m 82.560386,270.41979 c 0,0 12.14309,-3.31818 16.23787,7.20105 0,0 -3.51741,3.55096 -6.91205,4.99871 0,0 2.09672,-0.64895 2.99528,-0.99858 0,0 -3.14504,7.53823 -5.19182,7.88761 -2.04675,0.34963 -6.09042,-0.49916 -9.98429,0.10038 -3.89382,0.59913 -11.43199,0.39945 -16.27435,-4.09349 0,0 12.48033,-6.09031 16.37421,-8.83611 0,0 6.53972,-2.34619 11.7315,0.14978 0,0 -3.89382,-3.84384 -8.93592,-2.39617 0,0 -0.92958,-1.98477 -0.0407,-4.01268 z"
           id="path1685"
           inkscape:connector-curvature="0" />
        <path
           inkscape:connector-curvature="0"
           id="path1687"
           d="m 47.749616,270.41979 c 0,0 -12.143081,-3.31818 -16.237868,7.20105 0,0 3.517417,3.55096 6.912048,4.99871 0,0 -2.096681,-0.64895 -2.995269,-0.99858 0,0 3.145079,7.53823 5.191809,7.88761 2.04679,0.34963 5.72288,1.39509 9.98429,0.10038 7.35324,-2.50725 24.14134,-10.82163 30.32512,-15.10286 0,0 -0.40599,-2.0961 0.36953,-4.09867 0,0 -1.40808,-1.12161 -5.04143,-1.72843 -2.80957,0.26688 -23.64406,9.48755 -25.75308,8.00036 0,0 -6.53969,-2.34619 -11.7315,0.14978 0,0 3.89386,-3.84384 8.93593,-2.39617 0,0 0.92958,-1.98477 0.0407,-4.01268 z"
           style="opacity:1;vector-effect:none;fill:#fcd1ae;fill-opacity:1;stroke:none;stroke-width:0.87382627;stroke-linecap:butt;stroke-linejoin:miter;stroke-miterlimit:4;stroke-dasharray:none;stroke-dashoffset:0;stroke-opacity:1"
           sodipodi:nodetypes="cccccccscccccc" />
        <g
           id="g1691"
           transform="matrix(4.5963651,0,0,4.5963651,43.779706,-1384.9319)"
           style="fill:#d38d5f;fill-opacity:1">
          <path
             style="opacity:1;vector-effect:none;fill:#a05a2c;fill-opacity:1;stroke:none;stroke-width:0.46573013;stroke-linecap:butt;stroke-linejoin:miter;stroke-miterlimit:4;stroke-dasharray:none;stroke-dashoffset:0;stroke-opacity:1"
             d="m 1.9285154,342.74357 c -0.6114549,0.66788 -1.64655144,1.90897 -1.30790258,2.66154 0.33865455,0.75254 1.43012778,0.91293 1.43012778,0.91293 0,0 -0.6395645,-0.60199 -1.05347012,-1.26048 -0.41390755,-0.65849 0.93124492,-2.31399 0.93124492,-2.31399 z m 5.4735547,0 c 0,0 1.3459847,1.6555 0.9320753,2.31399 -0.4139076,0.65849 -1.0543022,1.26048 -1.0543022,1.26048 0,0 1.091475,-0.16045 1.4301278,-0.91293 0.3386507,-0.75257 -0.6964477,-1.99366 -1.3079009,-2.66154 z m -5.156766,2.34474 c -0.1099363,0 -0.2064704,0.0229 -0.2793732,0.0724 -0.291613,0.19753 -0.1596367,0.52711 -0.1596367,0.52711 0.6114549,-0.73371 2.0034968,0.29132 2.2857056,0.46067 0.2388118,0.14316 0.4861169,0.15295 0.5737159,0.15295 0.088343,3e-5 0.3345996,-0.009 0.5728798,-0.15295 0.2822086,-0.16933 1.6750865,-1.19438 2.2865358,-0.46067 0,0 0.1311455,-0.32958 -0.1604652,-0.52711 -0.2916169,-0.19755 -0.9591076,0.0474 -1.3636108,0.28268 -0.3869849,0.22497 -0.8360388,0.48031 -1.3353339,0.48223 -0.4996418,0 -0.9489635,-0.25712 -1.3361738,-0.48223 -0.3033755,-0.17646 -0.7544001,-0.3586 -1.084232,-0.35506 z"
             id="path1689"
             inkscape:connector-curvature="0"
             sodipodi:nodetypes="ccccccccccccccccccccccc" />
        </g>
        <path
           style="opacity:1;vector-effect:none;fill:#ff0000;fill-opacity:1;stroke:none;stroke-width:0.77799457;stroke-linecap:butt;stroke-linejoin:miter;stroke-miterlimit:4;stroke-dasharray:none;stroke-dashoffset:0;stroke-opacity:1"
           d="m 65.336486,92.094261 v 0.02764 c -3.68925,0.138571 -26.95556,3.154927 -41.001763,10.258749 0,0 -14.857531,2.57586 -13.460651,41.05375 -1.649188,5.32964 -8.344594,17.5064 -3.809604,18.42093 5.841555,0.76195 20.318934,-7.8731 31.875088,-11.30188 8.69566,-2.23443 17.8388,-2.55269 26.78567,-2.55269 8.13704,0 19.006,0.45291 26.7874,2.55269 11.556124,3.42878 26.032224,12.06382 31.873804,11.30188 4.50593,-4.16472 -1.82306,-13.65753 -3.80962,-18.42093 0,0 2.16382,-33.15168 -13.46065,-41.05375 C 93.067606,95.275717 69.799286,92.260317 66.114386,92.1219 v -0.02764 c 0,0 -0.28185,0.01172 -0.38916,0.01172 -0.10686,0 -0.38874,-0.01172 -0.38874,-0.01172 z m 0.38874,48.616839 c 18.84638,0.0318 27.99063,2.30602 36.281214,5.02505 8.35103,2.73879 20.5863,10.97522 21.61893,9.13445 0,2.92083 -6.47755,-0.25443 -13.46195,-3.55608 -6.93774,-3.27965 -17.892714,-9.31285 -44.175584,-9.39317 v -0.0117 h -0.26261 -0.26218 v 0.0117 c -26.28263,0.0794 -37.238265,6.11352 -44.176005,9.39317 -6.984403,3.3018 -13.460231,6.47691 -13.460231,3.55608 1.032672,1.84077 13.268429,-6.39566 21.61937,-9.13445 8.290615,-2.71903 17.432656,-4.9923 36.279046,-5.02505 z"
           id="path1703"
           inkscape:connector-curvature="0"
           sodipodi:nodetypes="ccccccsccccccscccccccccccccc" />
        <g
           id="g1723"
           transform="matrix(0.56239737,0,0,0.56239737,156.67723,-128.41289)">
          <path
             style="fill:#ffffff;stroke-width:0.11224927"
             d="m -176.61352,437.90286 c -0.0689,0.005 -0.15637,0.0354 -0.28655,0.0859 -0.20602,0.0799 -0.85454,0.30208 -1.44104,0.49351 -0.5865,0.19141 -1.12951,0.39744 -1.20668,0.45776 -0.20028,0.15657 -0.20588,18.49283 -0.006,18.69301 0.0912,0.0912 0.61447,0.13483 1.61972,0.13483 1.87319,0 1.83528,0.0295 1.84444,-1.43929 l 0.007,-1.08632 1.32879,-1.20668 c 0.75412,-0.6848 1.42541,-1.20668 1.5522,-1.20668 0.13975,0 1.15741,0.91426 2.71766,2.44142 l 2.49448,2.44143 1.64318,0.0561 c 1.87449,0.064 2.00158,0.05 2.15597,-0.23853 0.15668,-0.29276 0.0362,-0.47461 -0.92298,-1.39062 -4.6358,-4.4271 -5.59493,-5.39007 -5.59493,-5.61838 0,-0.22487 0.73183,-1.00921 2.154,-2.30835 0.22779,-0.20807 1.32582,-1.23689 2.44011,-2.28642 2.68919,-2.53291 2.6895,-2.63786 0.007,-2.63786 h -1.58705 l -0.97407,0.92431 c -0.53568,0.50838 -1.52949,1.45928 -2.20859,2.11323 -4.55118,4.38251 -4.70315,4.50567 -5.08498,4.12383 -0.1014,-0.10138 -0.13462,-1.61107 -0.13462,-6.10508 0,-5.71257 -0.009,-5.98199 -0.21463,-6.23554 -0.12435,-0.15347 -0.18787,-0.21437 -0.30276,-0.20564 z"
             id="path1709"
             inkscape:connector-curvature="0" />
          <path
             style="fill:#ffffff;stroke-width:0.11224927"
             d="m -152.41153,438.23654 c -1.03768,0 -1.56981,0.043 -1.66137,0.13461 -0.19518,0.19517 -0.19518,19.17901 0,19.37418 0.0909,0.0909 0.60799,0.13483 1.59078,0.13483 1.19732,0 1.49258,-0.0331 1.66138,-0.18591 0.19577,-0.17718 0.2052,-0.6248 0.2052,-9.68699 0,-7.24027 -0.032,-9.53347 -0.13461,-9.63611 -0.0916,-0.0916 -0.62369,-0.13461 -1.66138,-0.13461 z"
             id="path1711"
             inkscape:connector-curvature="0" />
          <path
             style="fill:#ffffff;stroke-width:0.11224927"
             d="m -145.67657,438.23654 c -1.03768,0 -1.56982,0.043 -1.66138,0.13461 -0.19892,0.19891 -0.19443,18.96734 0.005,19.28605 0.12781,0.20464 0.26437,0.22296 1.66137,0.22296 1.03415,0 1.56525,-0.0433 1.65678,-0.13483 0.19517,-0.19517 0.19517,-19.17901 0,-19.37418 -0.0916,-0.0916 -0.6237,-0.13461 -1.66138,-0.13461 z"
             id="path1713"
             inkscape:connector-curvature="0" />
          <path
             style="fill:#ffffff;stroke-width:0.11224927"
             d="m -159.30039,438.34879 c -1.92844,0 -1.86658,-0.0583 -1.86658,1.75718 v 1.3858 h 1.79599 1.79599 v -1.43689 c 0,-0.96783 -0.0439,-1.48074 -0.13462,-1.57149 -0.0909,-0.0909 -0.60799,-0.1346 -1.59078,-0.1346 z"
             id="path1715"
             inkscape:connector-curvature="0" />
          <path
             style="fill:#ffffff;stroke-width:0.11224927"
             d="m -161.16697,443.06326 v 7.15896 c 0,6.29776 0.021,7.18899 0.17473,7.40845 0.16487,0.23539 0.25481,0.24949 1.59078,0.24949 1.16006,0 1.45308,-0.0337 1.62126,-0.18591 0.19479,-0.17631 0.20521,-0.55379 0.20521,-7.40845 v -7.22254 h -1.79599 z"
             id="path1717"
             inkscape:connector-curvature="0" />
          <path
             style="fill:#488fe9;fill-opacity:1;stroke-width:0.11224927"
             d="m -138.33674,443.13866 c -1.5564,0.0213 -1.95063,0.0653 -2.07968,0.15565 -0.23539,0.16487 -0.24949,0.25459 -0.24949,1.59056 0,1.16007 0.0335,1.45309 0.18569,1.62126 0.11096,0.1226 0.30854,0.17214 2.14348,0.19205 h 5.98846 c -0.0547,0.0488 -0.11595,0.10187 -0.16728,0.14843 l -6.79722,6.3366 c -0.49798,0.573 -1.34018,1.17831 -1.34018,1.91832 -0.0104,0.21682 -0.0129,0.51245 -0.0129,0.95215 0,1.16006 0.0335,1.45309 0.18569,1.62126 0.11096,0.1226 0.30854,0.17213 2.14348,0.19204 h 9.29279 c 1.83477,-0.0199 2.03231,-0.0695 2.14326,-0.19204 0.1522,-0.16817 0.18592,-0.4612 0.18592,-1.62126 0,-1.33597 -0.0141,-1.42569 -0.2495,-1.59057 -0.12905,-0.0904 -0.52328,-0.13432 -2.07968,-0.15565 h -6.2546 l 5.21016,-4.8572 c 1.01363,-1.02404 2.1691,-1.95312 3.1877,-2.94418 0.1522,-0.16817 0.18592,-0.46119 0.18592,-1.62126 0,-1.33597 -0.0141,-1.42569 -0.2495,-1.59056 -0.12905,-0.0904 -0.52328,-0.13433 -2.07968,-0.15565 z"
             id="path1719"
             inkscape:connector-curvature="0" />
          <path
             style="fill:#ffffff;stroke-width:0.11224927"
             d="m -188.8123,443.40327 c -2.97664,0.002 -5.79092,0.0523 -6.25395,0.11181 -1.06392,0.13669 -2.19359,0.67661 -2.55389,1.22071 -0.42673,0.64443 -0.50162,1.16818 -0.45097,3.15022 0.0409,1.602 0.0823,1.94302 0.3032,2.49185 0.33118,0.82273 0.70574,1.16894 1.65151,1.52654 0.76587,0.28958 0.79003,0.29126 5.05144,0.35516 4.07493,0.0611 4.29399,0.075 4.52965,0.28853 0.21105,0.19118 0.24041,0.31202 0.19841,0.81841 -0.0588,0.70965 -0.34924,1.14942 -0.88243,1.33624 -0.27368,0.0959 -1.8426,0.13577 -5.52016,0.14032 l -5.13782,0.006 -0.10041,0.25256 c -0.0553,0.13891 -0.18569,0.72264 -0.28983,1.29723 -0.17974,0.99152 -0.17945,1.05578 0.008,1.26281 0.19057,0.21058 0.39568,0.21803 5.93277,0.21769 4.67625,-2.9e-4 5.92202,-0.0326 6.7457,-0.17472 2.49056,-0.4299 3.06731,-1.29618 2.95181,-4.43429 -0.0728,-1.97776 -0.41518,-2.65785 -1.60767,-3.19385 -0.9087,-0.40844 -1.94589,-0.50296 -5.51885,-0.50381 -2.00216,-3.7e-4 -3.51747,-0.0483 -3.77284,-0.11925 -0.59989,-0.16659 -0.86315,-0.63406 -0.86358,-1.53401 -3.7e-4,-0.61483 0.0394,-0.74429 0.3271,-1.06637 l 0.32732,-0.36656 5.00277,-0.0324 c 4.58643,-0.0298 5.01141,-0.0485 5.10493,-0.2245 0.19678,-0.37044 0.46149,-2.39726 0.34223,-2.6201 -0.10739,-0.20067 -0.35058,-0.20991 -5.52433,-0.20652 z"
             id="path1721"
             inkscape:connector-curvature="0" />
        </g>
      </g>
    </g>
  </g>
</svg>
