<?xml version="1.0" encoding="UTF-8" standalone="no"?>
<!-- Created with Inkscape (http://www.inkscape.org/) -->

<svg
   xmlns:dc="http://purl.org/dc/elements/1.1/"
   xmlns:cc="http://creativecommons.org/ns#"
   xmlns:rdf="http://www.w3.org/1999/02/22-rdf-syntax-ns#"
   xmlns:svg="http://www.w3.org/2000/svg"
   xmlns="http://www.w3.org/2000/svg"
   xmlns:sodipodi="http://sodipodi.sourceforge.net/DTD/sodipodi-0.dtd"
   xmlns:inkscape="http://www.inkscape.org/namespaces/inkscape"
   width="800"
   height="800"
   viewBox="0 0 211.66666 211.66667"
   version="1.1"
   id="svg9155"
   sodipodi:docname="mikey-cash.svg"
   inkscape:version="0.92.4 (5da689c313, 2019-01-14)">
  <defs
     id="defs9149" />
  <sodipodi:namedview
     id="base"
     pagecolor="#1e1e1e"
     bordercolor="#666666"
     borderopacity="1.0"
     inkscape:pageopacity="0.0"
     inkscape:pageshadow="2"
     inkscape:zoom="0.49497475"
     inkscape:cx="-75.274761"
     inkscape:cy="282.89911"
     inkscape:document-units="mm"
     inkscape:current-layer="layer1"
     showgrid="false"
     inkscape:pagecheckerboard="true"
     borderlayer="true"
     inkscape:showpageshadow="false"
     units="px"
     showguides="true"
     inkscape:guide-bbox="true"
     inkscape:snap-global="false"
     inkscape:window-width="1920"
     inkscape:window-height="1028"
     inkscape:window-x="0"
     inkscape:window-y="0"
     inkscape:window-maximized="1" />
  <metadata
     id="metadata9152">
    <rdf:RDF>
      <cc:Work
         rdf:about="">
        <dc:format>image/svg+xml</dc:format>
        <dc:type
           rdf:resource="http://purl.org/dc/dcmitype/StillImage" />
        <dc:title></dc:title>
      </cc:Work>
    </rdf:RDF>
  </metadata>
  <g
     inkscape:label="Layer 1"
     inkscape:groupmode="layer"
     id="layer1"
     transform="translate(0,-85.333317)">
    <g
       transform="matrix(0.88405249,0,0,0.88405249,321.77132,-978.20779)"
       id="g2060">
      <path
         inkscape:connector-curvature="0"
         id="rect1602"
         transform="matrix(0.26458333,0,0,0.26458333,0,85.333317)"
         d="m -565.18359,4578.0195 -39.66016,7.168 c -0.25713,5.1996 -0.63176,10.36 -1.08398,15.4746 2.43988,0.3258 4.94988,0.887 7.5039,1.7988 7.20571,2.5726 14.38409,8.4255 18.50391,16.6231 14.43361,28.7198 1.96981,61.9135 -12.14063,85.6484 v 0.012 c -6.26263,10.5345 -12.93039,24.2199 -26.22265,33.2364 -6.64764,4.5093 -15.82894,7.3211 -25.14258,5.8183 -3.76741,-0.6076 -7.42943,-1.8044 -11.0293,-3.5215 -3.49734,5.1277 -6.44693,10.5209 -8.4668,16.3868 -1.00961,2.9322 -0.007,15.4521 1.94336,29.4687 1.95012,14.0161 4.85889,31.5285 -6.69531,46.9336 -31.34125,41.7881 -75.97353,62.4928 -112.28711,72.9551 -4.41787,1.2728 -8.71384,2.3906 -12.86523,3.3808 0.11709,0.507 0.23094,1.0069 0.36328,1.5411 1.08753,4.3894 2.75641,9.6157 4.95898,14.5761 4.35732,-4.1281 10.80845,-5.2506 16.33008,-2.7461 l 16.02539,7.2598 c 0.27475,0.1226 0.54571,0.2535 0.8125,0.3926 4.09206,-0.8058 8.47916,-0.9986 13.13282,-0.2227 18.50671,3.0849 29.42912,17.7606 36.1289,30.9727 6.69986,13.2117 10.49481,27.1027 13.21875,34.5937 1.08075,2.9718 2.00954,6.064 2.83008,9.1817 l 195.71289,-36.1973 z m -545.84961,100.2774 -242.0234,45.4453 71.8711,390.7324 261.9843,-48.4551 8.7617,-23.7539 c 0,0 1.7219,-25.9604 9.1934,-46.5078 2.72305,-7.488 6.51017,-21.3793 13.20704,-34.5918 6.69683,-13.2125 17.62376,-27.8878 36.13086,-30.9726 4.66291,-0.7782 9.05341,-0.5771 13.15234,0.2343 0.26279,-0.1428 0.52984,-0.2776 0.80078,-0.4043 l 16.03711,-7.2617 c 2.01693,-0.9155 4.21319,-1.3679 6.42774,-1.3242 v 0.012 c 3.71227,0.077 7.23782,1.5564 9.91211,4.1016 2.39107,-5.4561 4.01704,-11.0751 5.10546,-15.6621 -38.47278,-8.971 -89.81672,-29.542 -125.27734,-76.8223 -11.5541,-15.4051 -8.6435,-32.9175 -6.6934,-46.9336 1.9502,-14.0166 2.953,-26.5365 1.9434,-29.4687 -1.8685,-5.4262 -4.5312,-10.4488 -7.6875,-15.2305 -2.8536,1.1674 -5.7513,2.0045 -8.7129,2.4824 -9.3426,1.5077 -18.5425,-1.3179 -25.207,-5.8398 -13.3289,-9.0443 -19.992,-22.747 -26.2539,-33.2793 -4.7233,-7.9454 -9.2601,-16.9545 -12.6719,-26.5 z"
         style="opacity:1;vector-effect:none;fill:#ffffff;fill-opacity:1;fill-rule:evenodd;stroke:none;stroke-width:1.67941785;stroke-linecap:butt;stroke-linejoin:miter;stroke-miterlimit:4;stroke-dasharray:none;stroke-dashoffset:0;stroke-opacity:1" />
      <g
         id="g1619"
         transform="matrix(0.98098898,-0.18044361,0.18044361,0.98098898,-235.99542,876.79871)">
        <path
           style="fill:#4d4d4d;fill-opacity:1;stroke-width:0.11224927"
           d="m -176.61352,437.90286 c -0.0689,0.005 -0.15637,0.0354 -0.28655,0.0859 -0.20602,0.0799 -0.85454,0.30208 -1.44104,0.49351 -0.5865,0.19141 -1.12951,0.39744 -1.20668,0.45776 -0.20028,0.15657 -0.20588,18.49283 -0.006,18.69301 0.0912,0.0912 0.61447,0.13483 1.61972,0.13483 1.87319,0 1.83528,0.0295 1.84444,-1.43929 l 0.007,-1.08632 1.32879,-1.20668 c 0.75412,-0.6848 1.42541,-1.20668 1.5522,-1.20668 0.13975,0 1.15741,0.91426 2.71766,2.44142 l 2.49448,2.44143 1.64318,0.0561 c 1.87449,0.064 2.00158,0.05 2.15597,-0.23853 0.15668,-0.29276 0.0362,-0.47461 -0.92298,-1.39062 -4.6358,-4.4271 -5.59493,-5.39007 -5.59493,-5.61838 0,-0.22487 0.73183,-1.00921 2.154,-2.30835 0.22779,-0.20807 1.32582,-1.23689 2.44011,-2.28642 2.68919,-2.53291 2.6895,-2.63786 0.007,-2.63786 h -1.58705 l -0.97407,0.92431 c -0.53568,0.50838 -1.52949,1.45928 -2.20859,2.11323 -4.55118,4.38251 -4.70315,4.50567 -5.08498,4.12383 -0.1014,-0.10138 -0.13462,-1.61107 -0.13462,-6.10508 0,-5.71257 -0.009,-5.98199 -0.21463,-6.23554 -0.12435,-0.15347 -0.18787,-0.21437 -0.30276,-0.20564 z"
           id="path1604"
           inkscape:connector-curvature="0" />
        <path
           style="fill:#4d4d4d;fill-opacity:1;stroke-width:0.11224927"
           d="m -152.41153,438.23654 c -1.03768,0 -1.56981,0.043 -1.66137,0.13461 -0.19518,0.19517 -0.19518,19.17901 0,19.37418 0.0909,0.0909 0.60799,0.13483 1.59078,0.13483 1.19732,0 1.49258,-0.0331 1.66138,-0.18591 0.19577,-0.17718 0.2052,-0.6248 0.2052,-9.68699 0,-7.24027 -0.032,-9.53347 -0.13461,-9.63611 -0.0916,-0.0916 -0.62369,-0.13461 -1.66138,-0.13461 z"
           id="path1606"
           inkscape:connector-curvature="0" />
        <path
           style="fill:#4d4d4d;fill-opacity:1;stroke-width:0.11224927"
           d="m -145.67657,438.23654 c -1.03768,0 -1.56982,0.043 -1.66138,0.13461 -0.19892,0.19891 -0.19443,18.96734 0.005,19.28605 0.12781,0.20464 0.26437,0.22296 1.66137,0.22296 1.03415,0 1.56525,-0.0433 1.65678,-0.13483 0.19517,-0.19517 0.19517,-19.17901 0,-19.37418 -0.0916,-0.0916 -0.6237,-0.13461 -1.66138,-0.13461 z"
           id="path1608"
           inkscape:connector-curvature="0" />
        <path
           style="fill:#4d4d4d;fill-opacity:1;stroke-width:0.11224927"
           d="m -159.30039,438.34879 c -1.92844,0 -1.86658,-0.0583 -1.86658,1.75718 v 1.3858 h 1.79599 1.79599 v -1.43689 c 0,-0.96783 -0.0439,-1.48074 -0.13462,-1.57149 -0.0909,-0.0909 -0.60799,-0.1346 -1.59078,-0.1346 z"
           id="path1611"
           inkscape:connector-curvature="0" />
        <path
           style="fill:#4d4d4d;fill-opacity:1;stroke-width:0.11224927"
           d="m -161.16697,443.06326 v 7.15896 c 0,6.29776 0.021,7.18899 0.17473,7.40845 0.16487,0.23539 0.25481,0.24949 1.59078,0.24949 1.16006,0 1.45308,-0.0337 1.62126,-0.18591 0.19479,-0.17631 0.20521,-0.55379 0.20521,-7.40845 v -7.22254 h -1.79599 z"
           id="path1613"
           inkscape:connector-curvature="0" />
        <path
           inkscape:connector-curvature="0"
           id="path1615"
           transform="matrix(0.26088403,0.04798714,-0.04798714,0.26088403,376.24289,-737.59724)"
           d="m -1085.2598,4725.5273 -17.3828,3.1973 c -5.7561,1.1404 -7.1866,1.5712 -7.6035,1.9942 -0.7603,0.7718 -0.751,1.115 0.1602,6.0683 0.7911,4.3012 1.114,5.365 1.7929,5.8848 0.495,0.3789 1.2612,0.4276 8.0782,-0.75 l 22.2031,-4.084 c -0.1695,0.2182 -0.359,0.4564 -0.5176,0.6641 l -20.8809,28.1289 c -1.4555,2.4641 -4.1648,5.2836 -3.6601,8.0273 0.1093,0.811 0.3017,1.9088 0.6015,3.5391 0.7912,4.3011 1.1141,5.365 1.793,5.8847 0.495,0.3789 1.2612,0.4276 8.0781,-0.75 l 34.4551,-6.3379 c 6.7892,-1.325 7.4886,-1.6438 7.8164,-2.1738 0.4496,-0.7273 0.3732,-1.8375 -0.4179,-6.1387 -0.9112,-4.9533 -1.0246,-5.2757 -2.0098,-5.7265 -0.5401,-0.2472 -2.0312,-0.1406 -7.8164,0.8418 l -23.1895,4.2656 16.0039,-21.5625 c 1.0386,-1.5233 2.1532,-3.0124 3.2832,-4.4922 -2.776,-1.0441 -5.356,-2.3855 -7.6347,-3.9316 -5.3151,-3.6066 -9.5599,-7.9572 -13.1524,-12.5489 z"
           style="fill:#488fe9;fill-opacity:1;stroke-width:0.42316583" />
        <path
           style="fill:#4d4d4d;fill-opacity:1;stroke-width:0.11224927"
           d="m -188.8123,443.40327 c -2.97664,0.002 -5.79092,0.0523 -6.25395,0.11181 -1.06392,0.13669 -2.19359,0.67661 -2.55389,1.22071 -0.42673,0.64443 -0.50162,1.16818 -0.45097,3.15022 0.0409,1.602 0.0823,1.94302 0.3032,2.49185 0.33118,0.82273 0.70574,1.16894 1.65151,1.52654 0.76587,0.28958 0.79003,0.29126 5.05144,0.35516 4.07493,0.0611 4.29399,0.075 4.52965,0.28853 0.21105,0.19118 0.24041,0.31202 0.19841,0.81841 -0.0588,0.70965 -0.34924,1.14942 -0.88243,1.33624 -0.27368,0.0959 -1.8426,0.13577 -5.52016,0.14032 l -5.13782,0.006 -0.10041,0.25256 c -0.0553,0.13891 -0.18569,0.72264 -0.28983,1.29723 -0.17974,0.99152 -0.17945,1.05578 0.008,1.26281 0.19057,0.21058 0.39568,0.21803 5.93277,0.21769 4.67625,-2.9e-4 5.92202,-0.0326 6.7457,-0.17472 2.49056,-0.4299 3.06731,-1.29618 2.95181,-4.43429 -0.0728,-1.97776 -0.41518,-2.65785 -1.60767,-3.19385 -0.9087,-0.40844 -1.94589,-0.50296 -5.51885,-0.50381 -2.00216,-3.7e-4 -3.51747,-0.0483 -3.77284,-0.11925 -0.59989,-0.16659 -0.86315,-0.63406 -0.86358,-1.53401 -3.7e-4,-0.61483 0.0394,-0.74429 0.3271,-1.06637 l 0.32732,-0.36656 5.00277,-0.0324 c 4.58643,-0.0298 5.01141,-0.0485 5.10493,-0.2245 0.19678,-0.37044 0.46149,-2.39726 0.34223,-2.6201 -0.10739,-0.20067 -0.35058,-0.20991 -5.52433,-0.20652 z"
           id="path1617"
           inkscape:connector-curvature="0" />
      </g>
      <path
         inkscape:connector-curvature="0"
         id="path1621"
         transform="matrix(0.26458333,0,0,0.26458333,0,85.333317)"
         d="m -622.20703,4785.5117 -37.9082,6.9727 c 0.0948,0.7435 0.187,1.4899 0.27343,2.2461 l 38.04297,-6.9981 z m -383.11137,70.4688 -213.2421,39.2246 0.4082,2.2207 214.8769,-39.5235 c -0.6851,-0.6312 -1.3638,-1.277 -2.043,-1.9218 z"
         style="color:#000000;font-style:normal;font-variant:normal;font-weight:normal;font-stretch:normal;font-size:medium;line-height:normal;font-family:sans-serif;font-variant-ligatures:normal;font-variant-position:normal;font-variant-caps:normal;font-variant-numeric:normal;font-variant-alternates:normal;font-feature-settings:normal;text-indent:0;text-align:start;text-decoration:none;text-decoration-line:none;text-decoration-style:solid;text-decoration-color:#000000;letter-spacing:normal;word-spacing:normal;text-transform:none;writing-mode:lr-tb;direction:ltr;text-orientation:mixed;dominant-baseline:auto;baseline-shift:baseline;text-anchor:start;white-space:normal;shape-padding:0;clip-rule:nonzero;display:inline;overflow:visible;visibility:visible;opacity:1;isolation:auto;mix-blend-mode:normal;color-interpolation:sRGB;color-interpolation-filters:linearRGB;solid-color:#000000;solid-opacity:1;vector-effect:none;fill:#4d4d4d;fill-opacity:1;fill-rule:nonzero;stroke:none;stroke-width:2.25697732;stroke-linecap:butt;stroke-linejoin:miter;stroke-miterlimit:4;stroke-dasharray:none;stroke-dashoffset:0;stroke-opacity:1;color-rendering:auto;image-rendering:auto;shape-rendering:auto;text-rendering:auto;enable-background:accumulate" />
      <path
         inkscape:connector-curvature="0"
         id="path1624"
         transform="matrix(0.26458333,0,0,0.26458333,0,85.333317)"
         d="m -610.81641,4847.4355 -85.50586,15.7286 c -1.19758,1.0001 -2.40311,1.9825 -3.61523,2.9453 l 89.52734,-16.4668 z m -309.69726,56.9668 -286.65623,52.7286 0.4062,2.205 290.89847,-53.5078 c -1.53631,-0.4539 -3.08819,-0.9336 -4.64844,-1.4258 z"
         style="color:#000000;font-style:normal;font-variant:normal;font-weight:normal;font-stretch:normal;font-size:medium;line-height:normal;font-family:sans-serif;font-variant-ligatures:normal;font-variant-position:normal;font-variant-caps:normal;font-variant-numeric:normal;font-variant-alternates:normal;font-feature-settings:normal;text-indent:0;text-align:start;text-decoration:none;text-decoration-line:none;text-decoration-style:solid;text-decoration-color:#000000;letter-spacing:normal;word-spacing:normal;text-transform:none;writing-mode:lr-tb;direction:ltr;text-orientation:mixed;dominant-baseline:auto;baseline-shift:baseline;text-anchor:start;white-space:normal;shape-padding:0;clip-rule:nonzero;display:inline;overflow:visible;visibility:visible;opacity:1;isolation:auto;mix-blend-mode:normal;color-interpolation:sRGB;color-interpolation-filters:linearRGB;solid-color:#000000;solid-opacity:1;vector-effect:none;fill:#4d4d4d;fill-opacity:1;fill-rule:nonzero;stroke:none;stroke-width:2.25697732;stroke-linecap:butt;stroke-linejoin:miter;stroke-miterlimit:4;stroke-dasharray:none;stroke-dashoffset:0;stroke-opacity:1;color-rendering:auto;image-rendering:auto;shape-rendering:auto;text-rendering:auto;enable-background:accumulate" />
      <path
         style="opacity:1;vector-effect:none;fill:#666666;fill-opacity:1;stroke:none;stroke-width:0.51064861;stroke-linecap:butt;stroke-linejoin:miter;stroke-miterlimit:4;stroke-dasharray:none;stroke-dashoffset:0;stroke-opacity:1"
         id="path1626"
         d="m -171.84288,1373.6922 c -1.76675,0.2128 -3.60268,0.2965 -5.24753,1.049 -0.63238,0.289 -1.17914,0.6824 -1.7586,1.0617 -0.5707,0.5726 -1.21033,1.0724 -1.78584,1.6398 -0.26978,0.2666 -0.52357,0.5485 -0.77718,0.8302 -0.54692,0.6073 -0.77919,0.8192 -1.11006,1.534 -0.0694,0.1509 -0.0945,0.3176 -0.14177,0.4764 0.006,0.101 -3.5e-4,0.2032 0.0173,0.3028 0.0112,0.067 0.0511,0.1259 0.0692,0.1912 0.0721,0.2197 0.11235,0.4629 0.21255,0.672 0.0376,0.078 0.0931,0.1446 0.13973,0.2176 0.0468,0.069 0.0825,0.1483 0.14062,0.2091 0.13501,0.1408 0.29125,0.1791 0.44221,0.2985 0.21798,0.1724 0.43514,0.5098 0.60268,0.7203 0.55845,0.65 1.12993,1.2877 1.6922,1.9348 0.24281,0.2794 0.4972,0.5493 0.73129,0.8362 0.36245,0.4442 0.68907,0.9166 1.03644,1.3727 0.75552,0.9038 1.32521,1.9424 2.03447,2.8803 0.21265,0.2811 0.43922,0.5517 0.65885,0.8275 0.94755,1.0874 0.27637,0.3126 1.03061,1.1921 0.19356,0.2258 0.61226,0.5749 0.49987,0.9373 -0.0315,0.1016 -0.11333,0.1798 -0.16969,0.2702 -0.28061,0.2742 -0.54627,0.5937 -0.88292,0.8046 -0.1196,0.076 -0.25234,0.1273 -0.37967,0.1882 -0.50189,0.2416 -0.38087,0.1828 -0.9354,0.4061 -0.21871,0.058 -0.43317,0.1382 -0.65628,0.1744 -0.29762,0.05 -0.60159,0.056 -0.90321,0.065 -1.23747,0.034 -2.46698,-0.094 -3.6829,-0.3176 -0.30274,-0.056 -0.60123,-0.1334 -0.90185,-0.2001 -0.20731,-0.057 -0.42137,-0.092 -0.6219,-0.1692 -0.30853,-0.1185 -0.50654,-0.2941 -0.76278,-0.4881 -0.18791,-0.1423 -0.40734,-0.2979 -0.57023,-0.4679 -0.10913,-0.1144 -0.20075,-0.2425 -0.30111,-0.3638 -0.2792,-0.3344 -0.45945,-0.7221 -0.56768,-1.1412 -0.0196,-0.081 -0.0477,-0.163 -0.0462,-0.2462 0.004,-0.2615 0.098,-0.3856 0.20934,-0.6178 0.1753,-0.2117 0.24332,-0.4948 0.41387,-0.7085 0.30745,-0.3856 0.72669,-0.7222 1.15706,-0.9564 0.62989,-0.3425 1.29603,-0.5161 1.97454,-0.7335 1.05582,-0.3221 1.74508,-0.4853 2.74102,-0.9922 1.12613,-0.5633 2.23158,-1.4034 3.16779,-2.244 0.199,-0.179 0.38276,-0.374 0.57412,-0.561 0.075,-0.095 0.16736,-0.1768 0.22523,-0.2833 0.0275,-0.051 -0.0569,-0.4344 -0.0587,-0.4878 -0.008,-0.2197 0.0161,-0.3405 0.0429,-0.5602 0.006,-0.3052 0.0923,-0.6128 0.0215,-0.9168 -0.0473,-0.2032 -0.18682,-0.3938 -0.28505,-0.5739 -0.0873,-0.2153 -0.15295,-0.281 -0.38242,-0.2489 -0.33166,0.045 -0.0753,-6e-4 -0.38652,0.064 -0.42145,0.1221 -0.7383,0.5103 -1.01844,0.8197 -0.4513,0.4983 -0.3991,0.4586 -0.71797,0.966 -0.0389,0.1038 -0.0847,0.2051 -0.11713,0.3101 -0.0715,0.2341 -0.17934,0.8524 -0.0944,1.0772 0.0246,0.068 0.0869,0.1169 0.13023,0.1753 0.29702,0.1747 0.64049,0.231 0.96349,0.3385 0.1466,0.049 0.45699,0.1802 0.62356,0.2094 0.0943,0.017 0.19115,0.01 0.28723,0.016 0.50952,-0.016 0.9931,-0.1151 1.46644,-0.3026 0.11002,-0.041 0.2235,-0.081 0.32299,-0.1391 0.0735,-0.051 0.11663,-0.1359 0.17495,-0.2039 0.26641,-0.7266 0.24763,-1.1542 -0.14417,-1.8176 -0.0498,-0.05 -0.10046,-0.1008 -0.15011,-0.1498 -0.012,0 -0.0418,0.017 -0.0336,0.016 0.0385,0.02 0.0902,0 0.1256,0.027 0.0776,0.052 0.12944,0.1389 0.20349,0.1973 0.25209,0.1993 0.38362,0.2467 0.67158,0.3915 0.24958,0.077 0.75233,0.2352 0.97732,0.2752 0.24308,0.044 0.49033,0.056 0.73593,0.08 0.21857,0.02 0.44133,0.013 0.65732,0.054 0.46511,0.09 0.54054,0.1746 0.90703,0.3989 0.0649,0.077 0.14758,0.1429 0.19433,0.2321 0.25591,0.4882 -0.36359,1.0317 -0.69787,1.2504 -0.25591,0.1677 -0.54248,0.2827 -0.81309,0.4257 -0.99744,0.4117 -2.03874,0.6966 -3.07122,1.0029 -0.1736,0.043 -0.34198,0.1017 -0.51259,0.1535 -0.0567,0.021 -0.1339,0.1085 -0.17022,0.062 -0.0369,-0.049 0.0693,-0.099 0.1036,-0.1482 0.1481,-0.09 0.30027,-0.1725 0.44365,-0.2694 1.199,-0.8061 0.7883,-0.6458 2.31144,-1.5106 0.67391,-0.3828 1.36797,-0.729 2.05423,-1.0892 0.85592,-0.4486 1.70084,-0.9198 2.57206,-1.3381 0.94252,-0.452 1.9111,-0.8475 2.86613,-1.2727 2.57124,-0.85 3.09523,-1.1578 5.73445,-1.5235 0.73853,-0.102 1.48666,-0.117 2.23159,-0.1458 0.44868,-0.018 0.8993,-0.022 1.34755,0.01 0.62253,0.04 0.56583,0 0.39701,0.3024 -0.55705,0.1487 -0.28165,0.083 -0.82606,0.1977 0,0 -0.024,-0.1133 -0.024,-0.1133 v 0 c 0.52601,-0.1101 0.26413,-0.054 0.78377,-0.1805 0.0491,0.01 0.19388,0.031 0.1462,0.018 -0.15762,-0.042 -0.31509,-0.098 -0.47814,-0.108 -0.44562,-0.028 -0.89328,-0.024 -1.33942,-0.01 -0.73989,0.028 -1.48316,0.042 -2.21653,0.144 -2.62761,0.3636 -3.14848,0.6701 -5.70973,1.5157 -0.953,0.4238 -1.91928,0.8186 -2.85963,1.2694 -0.20297,0.098 -4.15865,2.1618 -4.61856,2.423 -1.61685,0.9176 -1.04801,0.6685 -2.31301,1.5114 -0.15295,0.1026 -0.31636,0.1878 -0.47427,0.2824 -0.0576,-0.026 -0.17354,-0.013 -0.17156,-0.075 0.002,-0.062 0.11702,-0.042 0.17526,-0.064 0.16774,-0.061 0.3419,-0.1027 0.51308,-0.1536 1.02488,-0.3053 2.05916,-0.5878 3.05013,-0.9954 0.26348,-0.1362 0.54121,-0.2483 0.79024,-0.4098 0.25446,-0.1652 0.88932,-0.6715 0.6844,-1.0886 -0.04,-0.08 -0.11048,-0.1383 -0.16546,-0.2068 -0.34065,-0.2123 -0.4194,-0.2982 -0.85539,-0.3818 -0.21693,-0.042 -0.44051,-0.034 -0.66032,-0.055 -0.25174,-0.026 -0.5045,-0.039 -0.7532,-0.083 -0.24405,-0.042 -0.73806,-0.2024 -1,-0.2835 -0.26091,-0.1323 -0.76193,-0.3623 -0.91939,-0.6282 -0.0444,-0.076 -0.099,-0.315 0.0858,-0.1943 0.067,0.044 0.1119,0.1152 0.16753,0.1726 0.4235,0.7226 0.4359,1.1731 0.13055,1.9545 -0.0722,0.077 -0.12865,0.1724 -0.21586,0.232 -0.0985,0.068 -0.21784,0.099 -0.32912,0.1432 -0.48741,0.1951 -0.98745,0.2955 -1.51322,0.3093 -0.10478,-0.01 -0.21048,0 -0.31329,-0.02 -0.17147,-0.029 -0.46816,-0.1577 -0.62374,-0.2095 -0.34743,-0.1156 -0.71832,-0.1708 -1.02583,-0.3838 -0.0498,-0.076 -0.11947,-0.1423 -0.15026,-0.2284 -0.0876,-0.242 0.0237,-0.8831 0.10134,-1.1322 0.0354,-0.1122 0.0849,-0.2206 0.12739,-0.3308 0.0939,-0.1484 0.17647,-0.3047 0.28139,-0.4456 0.35643,-0.4789 0.78294,-0.9544 1.27521,-1.2978 0.0529,-0.037 0.20533,-0.075 0.25638,-0.092 0.37586,-0.075 0.72106,-0.1954 0.89472,0.2451 0.10713,0.1961 0.24898,0.3962 0.29866,0.6173 0.0704,0.3136 -0.0128,0.6293 -0.0216,0.9437 -0.0252,0.2033 -0.0493,0.3298 -0.0427,0.5329 0.005,0.1633 0.11872,0.4155 0.034,0.5735 -0.0598,0.1093 -0.15681,0.1956 -0.2349,0.2942 -0.19364,0.1883 -0.3791,0.386 -0.58034,0.5665 -0.94609,0.8491 -2.06079,1.6934 -3.19864,2.2627 -1.00291,0.5019 -1.69321,0.6654 -2.75003,0.9955 -0.66033,0.2106 -1.32973,0.3856 -1.94284,0.722 -0.40442,0.2196 -0.83082,0.5535 -1.12167,0.9178 -0.16922,0.2114 -0.23701,0.4919 -0.41027,0.702 -0.0899,0.1808 -0.19458,0.3354 -0.19967,0.5449 -0.002,0.079 0.0241,0.1563 0.0441,0.2338 0.10336,0.4048 0.27616,0.7784 0.54597,1.1009 0.0962,0.1171 0.18373,0.2412 0.28821,0.3504 0.16221,0.1699 0.37697,0.3208 0.56368,0.4627 0.2357,0.1789 0.43996,0.3596 0.72289,0.4684 0.19873,0.076 0.411,0.1119 0.61653,0.1679 0.29834,0.067 0.59422,0.1432 0.89466,0.1986 1.20775,0.2227 2.4275,0.3485 3.65657,0.3166 0.29458,-0.01 0.59044,-0.016 0.8816,-0.061 0.22015,-0.027 0.42802,-0.113 0.64182,-0.171 0.58172,-0.2349 0.40333,-0.1464 0.92761,-0.4032 0.11845,-0.061 0.24462,-0.1077 0.35856,-0.1749 0.32675,-0.2045 0.58424,-0.5139 0.85851,-0.7779 0.0501,-0.069 0.11894,-0.1275 0.14985,-0.2081 0.12382,-0.3139 -0.31413,-0.675 -0.47192,-0.859 -0.75711,-0.883 -0.0776,-0.1 -1.03321,-1.1953 -0.22094,-0.2776 -0.44879,-0.5497 -0.66275,-0.8327 -0.70836,-0.937 -1.27758,-1.9741 -2.03211,-2.8772 -0.34576,-0.454 -0.67064,-0.9244 -1.03151,-1.3666 -0.23428,-0.287 -0.48869,-0.557 -0.73168,-0.8366 -0.56333,-0.6483 -1.13601,-1.2872 -1.69526,-1.9386 -0.13353,-0.1678 -0.3907,-0.5501 -0.5728,-0.6936 -0.22126,-0.1743 -0.27898,-0.1247 -0.47758,-0.3325 -0.0585,-0.062 -0.0951,-0.142 -0.14238,-0.212 -0.0507,-0.081 -0.11066,-0.1564 -0.15172,-0.2424 -0.0997,-0.208 -0.14253,-0.4512 -0.21203,-0.6708 -0.0219,-0.076 -0.0641,-0.1456 -0.0756,-0.2246 -0.0179,-0.1118 -0.008,-0.2279 -0.0125,-0.3418 0.0508,-0.1665 0.0786,-0.3426 0.15225,-0.5007 0.33716,-0.7237 0.57428,-0.9433 1.12616,-1.5558 0.2557,-0.2839 0.51159,-0.5681 0.78361,-0.8364 0.57995,-0.5718 1.22456,-1.0755 1.80065,-1.6517 0.59264,-0.3871 1.13541,-0.7781 1.78129,-1.0728 1.65701,-0.7555 3.50431,-0.8433 5.28358,-1.0567 0,0 0.005,0.1164 0.005,0.1164 z"
         inkscape:connector-curvature="0" />
      <g
         transform="matrix(1.4463426,0,0,1.4463426,-1005.3925,-642.14162)"
         id="g1642">
        <path
           inkscape:connector-curvature="0"
           id="rect1630"
           transform="matrix(0.18293268,0,0,0.18293268,695.12749,502.97553)"
           d="m -683.96289,5036.5156 c 0.36019,4.6672 0.45703,7.7676 0.45703,7.7676 a 14.842335,14.842335 0 0 1 -4.60742,11.416 c 1.43863,2.6355 2.76139,5.4326 3.92578,8.4238 a 11.435559,11.435559 0 0 1 -1.31641,10.7208 h 90.74805 v -38.3282 z"
           style="opacity:1;vector-effect:none;fill:#5aa02c;fill-opacity:1;fill-rule:evenodd;stroke:none;stroke-width:1.58230388;stroke-linecap:butt;stroke-linejoin:miter;stroke-miterlimit:4;stroke-dasharray:none;stroke-dashoffset:0;stroke-opacity:1" />
        <path
           inkscape:connector-curvature="0"
           id="rect1632"
           transform="matrix(0.18293268,0,0,0.18293268,695.12749,502.97553)"
           d="m -692.83789,5082 c -2.36754,2.0826 -5.30346,4.5484 -8.63086,7.0938 a 11.435559,11.435559 0 0 1 -0.5332,1.6699 c 0,0 -3.71334,8.929 -8.76367,18.2734 -2.05368,3.7999 -4.31621,7.6836 -6.85157,11.291 h 114.1836 V 5082 Z"
           style="opacity:1;vector-effect:none;fill:#5aa02c;fill-opacity:1;fill-rule:evenodd;stroke:none;stroke-width:1.58230388;stroke-linecap:butt;stroke-linejoin:miter;stroke-miterlimit:4;stroke-dasharray:none;stroke-dashoffset:0;stroke-opacity:1" />
        <path
           inkscape:connector-curvature="0"
           id="rect1634"
           transform="matrix(0.18293268,0,0,0.18293268,695.12749,502.97553)"
           d="m -693.43359,4991.1602 c 0.56081,1.692 1.09491,3.2805 1.57812,4.6093 4.07183,11.1964 6.16162,24.0443 7.23633,33.7188 h 71.0625 v -38.3281 z"
           style="opacity:1;vector-effect:none;fill:#5aa02c;fill-opacity:1;fill-rule:evenodd;stroke:none;stroke-width:1.58230388;stroke-linecap:butt;stroke-linejoin:miter;stroke-miterlimit:4;stroke-dasharray:none;stroke-dashoffset:0;stroke-opacity:1" />
        <rect
           y="1415.8098"
           x="570.51031"
           height="7.3091145"
           width="3.141927"
           id="rect1636"
           style="opacity:1;vector-effect:none;fill:#ff9955;fill-opacity:1;fill-rule:evenodd;stroke:none;stroke-width:0.28751025;stroke-linecap:butt;stroke-linejoin:miter;stroke-miterlimit:4;stroke-dasharray:none;stroke-dashoffset:0;stroke-opacity:1" />
        <rect
           style="opacity:1;vector-effect:none;fill:#ff9955;fill-opacity:1;fill-rule:evenodd;stroke:none;stroke-width:0.28751025;stroke-linecap:butt;stroke-linejoin:miter;stroke-miterlimit:4;stroke-dasharray:none;stroke-dashoffset:0;stroke-opacity:1"
           id="rect1638"
           width="3.141927"
           height="7.3091145"
           x="574.18958"
           y="1424.1205" />
        <rect
           y="1432.5071"
           x="570.55157"
           height="7.3091145"
           width="3.141927"
           id="rect1640"
           style="opacity:1;vector-effect:none;fill:#ff9955;fill-opacity:1;fill-rule:evenodd;stroke:none;stroke-width:0.28751025;stroke-linecap:butt;stroke-linejoin:miter;stroke-miterlimit:4;stroke-dasharray:none;stroke-dashoffset:0;stroke-opacity:1" />
      </g>
      <g
         id="g1653"
         transform="matrix(-1.4463426,0,0,1.4463426,556.9219,-642.14162)">
        <path
           inkscape:connector-curvature="0"
           id="rect1645"
           transform="matrix(-0.18293268,0,0,0.18293268,385.05531,502.97553)"
           d="m -1069.0586,5036.5156 v 38.3282 h 60.6055 a 11.435559,11.435559 0 0 1 -1.3067,-10.7188 c 4.7519,-12.2072 11.93565,-21.1749 20.07816,-27.6094 z"
           style="opacity:1;vector-effect:none;fill:#5aa02c;fill-opacity:1;fill-rule:evenodd;stroke:none;stroke-width:1.58230388;stroke-linecap:butt;stroke-linejoin:miter;stroke-miterlimit:4;stroke-dasharray:none;stroke-dashoffset:0;stroke-opacity:1" />
        <path
           inkscape:connector-curvature="0"
           id="rect1647"
           transform="matrix(-0.18293268,0,0,0.18293268,385.05531,502.97553)"
           d="m -1091.5742,5082 v 38.3281 h 115.24412 c -2.53606,-3.6073 -4.80183,-7.4912 -6.85547,-11.291 -5.05048,-9.3444 -8.76367,-18.2734 -8.76367,-18.2734 a 11.435559,11.435559 0 0 1 -0.54101,-1.6797 c -3.3223,-2.5422 -6.25382,-5.0038 -8.61917,-7.084 z"
           style="opacity:1;vector-effect:none;fill:#5aa02c;fill-opacity:1;fill-rule:evenodd;stroke:none;stroke-width:1.58230388;stroke-linecap:butt;stroke-linejoin:miter;stroke-miterlimit:4;stroke-dasharray:none;stroke-dashoffset:0;stroke-opacity:1" />
        <path
           inkscape:connector-curvature="0"
           id="rect1649"
           transform="matrix(-0.18293268,0,0,0.18293268,385.05531,502.97553)"
           d="m -1019.8828,5035.4316 v 39.9551 h 11.8457 a 11.435559,11.435559 0 0 1 -1.7227,-11.2617 c 1.9671,-5.0534 4.355,-9.5474 7.0508,-13.541 v -15.1524 z"
           style="opacity:1;vector-effect:none;fill:#ff9955;fill-opacity:1;fill-rule:evenodd;stroke:none;stroke-width:1.57167232;stroke-linecap:butt;stroke-linejoin:miter;stroke-miterlimit:4;stroke-dasharray:none;stroke-dashoffset:0;stroke-opacity:1" />
        <rect
           style="opacity:1;vector-effect:none;fill:#ff9955;fill-opacity:1;fill-rule:evenodd;stroke:none;stroke-width:0.28751025;stroke-linecap:butt;stroke-linejoin:miter;stroke-miterlimit:4;stroke-dasharray:none;stroke-dashoffset:0;stroke-opacity:1"
           id="rect1651"
           width="3.141927"
           height="7.3091145"
           x="570.55157"
           y="1432.5071" />
      </g>
      <path
         inkscape:connector-curvature="0"
         id="path1663"
         transform="matrix(0.26458333,0,0,0.26458333,0,85.333317)"
         d="m -607.36328,4614.498 c -0.75457,6.2917 -1.61862,12.4792 -2.56641,18.5118 0.48549,4.9568 0.26529,9.5885 -0.40039,14.6855 4.35554,8.3196 3.30078,22.2227 3.30078,22.2227 -0.95347,-6.2573 -2.46193,-11.1811 -4.5039,-14.6914 -1.44848,7.9688 -3.55687,17.5663 -5.70313,31.0566 -2.6882,16.8964 -13.94942,26.4266 -23.26367,36.7813 -1.74922,1.9445 -3.46172,3.9014 -5.14453,5.871 19.79744,7.1398 31.26195,-13.8332 41.64258,-31.2929 12.77442,-21.4855 22.26376,-51.2682 11.67968,-72.3281 -3.50408,-6.9724 -9.11122,-9.9426 -15.04101,-10.8165 z"
         style="opacity:1;vector-effect:none;fill:#fcd1ae;fill-opacity:1;stroke:none;stroke-width:4.82824945;stroke-linecap:butt;stroke-linejoin:miter;stroke-miterlimit:4;stroke-dasharray:none;stroke-dashoffset:0;stroke-opacity:1" />
      <path
         inkscape:connector-curvature="0"
         id="path1665"
         transform="matrix(0.26458333,0,0,0.26458333,0,85.333317)"
         d="m -1085.7852,4615.0781 c -4.8559,1.3417 -9.2828,4.379 -12.2265,10.2364 -10.5841,21.0599 -1.0949,50.8426 11.6777,72.3281 9.9447,16.7264 20.8875,36.6722 39.1953,32.041 -1.8823,-2.2247 -3.8126,-4.4285 -5.7832,-6.6191 -9.3142,-10.3547 -20.5755,-19.8849 -23.2636,-36.7813 -1.7784,-11.1777 -3.3725,-19.6081 -4.5879,-26.7246 -1.0652,2.8995 -1.9205,6.3383 -2.5332,10.3594 0,0 -0.7066,-9.34 1.4336,-17.291 -0.8704,-6.0353 -1.3202,-11.2392 -1.0821,-16.6094 a 15.52407,15.52407 0 0 1 0,-0.021 c -0.011,-0.039 -0.065,-0.2252 -0.064,-0.2246 0,-0.013 -0.031,-0.1289 -0.031,-0.1289 a 15.52407,15.52407 0 0 1 -0.2695,-2.752 c -0.9085,-5.8119 -1.7373,-11.7632 -2.4649,-17.8125 z"
         style="opacity:1;vector-effect:none;fill:#fcd1ae;fill-opacity:1;stroke:none;stroke-width:4.82824945;stroke-linecap:butt;stroke-linejoin:miter;stroke-miterlimit:4;stroke-dasharray:none;stroke-dashoffset:0;stroke-opacity:1" />
      <path
         inkscape:connector-curvature="0"
         transform="matrix(0.26458333,0,0,0.26458333,0,85.333317)"
         id="path1961"
         d="m -844.39648,4504.7363 c -9.98776,0 -19.96898,0.095 -29.9004,0.3848 -9.93139,0.2894 -19.81351,0.7737 -29.5996,1.5527 -4.89305,0.3895 -9.76153,0.8529 -14.60157,1.4024 -4.84004,0.5494 -9.64987,1.1855 -14.42578,1.9199 -4.77591,0.7344 -9.51809,1.5674 -14.21875,2.5117 -4.70066,0.9443 -9.36032,1.9984 -13.97461,3.1777 -6.06838,1.8084 -12.43217,3.9981 -18.97656,6.4415 -6.54439,2.4433 -13.2698,5.1414 -20.06245,7.9687 -13.5857,5.6545 -27.4406,11.8264 -40.6543,17.5098 -6.6291,2.8512 -13.1021,5.5798 -19.3731,8.0625 -4.2788,1.6939 -8.3162,3.0672 -12.3926,4.4922 -0.766,29.1561 2.5424,58.7706 7.3047,84.7832 21.9516,49.1304 42.1535,77.3221 55.1328,100.9453 14.22988,23.17 23.22398,93.4062 70.53909,125.2812 68.80626,44.0765 132.71685,34.6046 185.94141,0 47.31477,-31.875 41.48139,-61.7249 55.71093,-84.8945 12.97951,-23.6236 8.26727,-43.796 69.97071,-141.332 4.84993,-26.4912 8.26552,-56.7327 7.28125,-86.4063 -2.6516,-0.9778 -5.18013,-1.7875 -7.91211,-2.8691 -6.2704,-2.4827 -12.74251,-5.2113 -19.3711,-8.0625 -13.2213,-5.687 -27.0858,-11.8639 -40.67968,-17.5215 -6.79695,-2.8288 -13.52635,-5.5267 -20.07422,-7.9707 -6.54787,-2.444 -12.91372,-4.6338 -18.98438,-6.4414 -4.00741,-1.0765 -8.27149,-2.0537 -12.73632,-2.9414 -4.46486,-0.8877 -9.12973,-1.686 -13.93946,-2.4004 -4.80973,-0.7144 -9.76459,-1.3457 -14.80664,-1.9024 -5.04204,-0.5566 -10.17219,-1.0388 -15.33398,-1.4531 -10.3236,-0.8287 -20.77511,-1.3878 -30.90235,-1.7402 -10.12723,-0.3524 -19.93055,-0.4981 -28.96093,-0.4981 z m -126.94532,67.9453 a 71.026844,48.976924 88.083386 0 1 4.89844,0.3457 71.026844,48.976924 88.083386 0 1 4.86133,1.0528 71.026844,48.976924 88.083386 0 1 4.77734,1.7461 71.026844,48.976924 88.083386 0 1 4.64453,2.4258 71.026844,48.976924 88.083386 0 1 4.4668,3.0781 71.026844,48.976924 88.083386 0 1 4.24219,3.7011 71.026844,48.976924 88.083386 0 1 3.97851,4.2891 71.026844,48.976924 88.083386 0 1 3.67188,4.8301 71.026844,48.976924 88.083386 0 1 3.33008,5.3262 71.026844,48.976924 88.083386 0 1 2.95508,5.7675 71.026844,48.976924 88.083386 0 1 2.55078,6.1524 71.026844,48.976924 88.083386 0 1 2.11914,6.4746 71.026844,48.976924 88.083386 0 1 1.66797,6.7324 71.026844,48.976924 88.083386 0 1 1.20117,6.9238 71.026844,48.976924 88.083386 0 1 0.7207,7.045 71.026844,48.976924 88.083386 0 1 0.21484,5.0215 71.026844,48.976924 88.083386 0 1 -0.11328,7.0898 71.026844,48.976924 88.083386 0 1 -0.60351,7.0195 71.026844,48.976924 88.083386 0 1 -1.08399,6.8789 71.026844,48.976924 88.083386 0 1 -1.55664,6.6719 71.026844,48.976924 88.083386 0 1 -2.01172,6.3945 71.026844,48.976924 88.083386 0 1 -2.44726,6.0547 71.026844,48.976924 88.083386 0 1 -2.85938,5.6563 71.026844,48.976924 88.083386 0 1 -3.24218,5.2011 71.026844,48.976924 88.083386 0 1 -3.5918,4.6915 71.026844,48.976924 88.083386 0 1 -3.9082,4.1347 71.026844,48.976924 88.083386 0 1 -4.18164,3.541 71.026844,48.976924 88.083386 0 1 -4.41602,2.9063 71.026844,48.976924 88.083386 0 1 -4.60742,2.248 71.026844,48.976924 88.083386 0 1 -4.74805,1.5625 71.026844,48.976924 88.083386 0 1 -4.8457,0.8653 71.026844,48.976924 88.083386 0 1 -3.46289,0.1855 71.026844,48.976924 88.083386 0 1 -4.89649,-0.3457 71.026844,48.976924 88.083386 0 1 -4.86133,-1.0527 71.026844,48.976924 88.083386 0 1 -4.77734,-1.7461 71.026844,48.976924 88.083386 0 1 -4.64453,-2.4258 71.026844,48.976924 88.083386 0 1 -4.4668,-3.0781 71.026844,48.976924 88.083386 0 1 -4.24414,-3.7012 71.026844,48.976924 88.083386 0 1 -3.97657,-4.2891 71.026844,48.976924 88.083386 0 1 -3.6719,-4.83 71.026844,48.976924 88.083386 0 1 -3.332,-5.3262 71.026844,48.976924 88.083386 0 1 -2.9551,-5.7676 71.026844,48.976924 88.083386 0 1 -2.5488,-6.1523 71.026844,48.976924 88.083386 0 1 -2.1211,-6.4746 71.026844,48.976924 88.083386 0 1 -1.668,-6.7325 71.026844,48.976924 88.083386 0 1 -1.1992,-6.9238 71.026844,48.976924 88.083386 0 1 -0.7207,-7.0449 71.026844,48.976924 88.083386 0 1 -0.2148,-5.0215 71.026844,48.976924 88.083386 0 1 0.1133,-7.0898 71.026844,48.976924 88.083386 0 1 0.6015,-7.0196 71.026844,48.976924 88.083386 0 1 1.0859,-6.8789 71.026844,48.976924 88.083386 0 1 1.5547,-6.6719 71.026844,48.976924 88.083386 0 1 2.0137,-6.3945 71.026844,48.976924 88.083386 0 1 2.4473,-6.0547 71.026844,48.976924 88.083386 0 1 2.8593,-5.6562 71.026844,48.976924 88.083386 0 1 3.2422,-5.2012 71.026844,48.976924 88.083386 0 1 3.5918,-4.6914 71.026844,48.976924 88.083386 0 1 3.90824,-4.1348 71.026844,48.976924 88.083386 0 1 4.18164,-3.541 71.026844,48.976924 88.083386 0 1 4.41601,-2.9062 71.026844,48.976924 88.083386 0 1 4.60547,-2.2481 71.026844,48.976924 88.083386 0 1 4.75,-1.5625 71.026844,48.976924 88.083386 0 1 4.84571,-0.8652 71.026844,48.976924 88.083386 0 1 3.46093,-0.1856 z m 245.84766,0 a 48.976925,71.026845 1.9166138 0 1 3.46289,0.1856 48.976925,71.026845 1.9166138 0 1 4.8457,0.8633 48.976925,71.026845 1.9166138 0 1 4.74805,1.5644 48.976925,71.026845 1.9166138 0 1 4.60547,2.2461 48.976925,71.026845 1.9166138 0 1 4.41797,2.9082 48.976925,71.026845 1.9166138 0 1 4.18164,3.541 48.976925,71.026845 1.9166138 0 1 3.90625,4.1348 48.976925,71.026845 1.9166138 0 1 3.59375,4.6914 48.976925,71.026845 1.9166138 0 1 3.24219,5.2012 48.976925,71.026845 1.9166138 0 1 2.85937,5.6543 48.976925,71.026845 1.9166138 0 1 2.44727,6.0566 48.976925,71.026845 1.9166138 0 1 2.01171,6.3945 48.976925,71.026845 1.9166138 0 1 1.55665,6.6719 48.976925,71.026845 1.9166138 0 1 1.08398,6.8789 48.976925,71.026845 1.9166138 0 1 0.60352,7.0196 48.976925,71.026845 1.9166138 0 1 0.11328,7.0878 48.976925,71.026845 1.9166138 0 1 -0.21485,5.0235 48.976925,71.026845 1.9166138 0 1 -0.7207,7.0449 48.976925,71.026845 1.9166138 0 1 -1.20117,6.9238 48.976925,71.026845 1.9166138 0 1 -1.66797,6.7325 48.976925,71.026845 1.9166138 0 1 -2.11914,6.4746 48.976925,71.026845 1.9166138 0 1 -2.55078,6.1504 48.976925,71.026845 1.9166138 0 1 -2.95508,5.7695 48.976925,71.026845 1.9166138 0 1 -3.33008,5.3262 48.976925,71.026845 1.9166138 0 1 -3.67187,4.83 48.976925,71.026845 1.9166138 0 1 -3.97852,4.2891 48.976925,71.026845 1.9166138 0 1 -4.24219,3.7012 48.976925,71.026845 1.9166138 0 1 -4.46679,3.0781 48.976925,71.026845 1.9166138 0 1 -4.64453,2.4258 48.976925,71.026845 1.9166138 0 1 -4.77735,1.7461 48.976925,71.026845 1.9166138 0 1 -4.86133,1.0527 48.976925,71.026845 1.9166138 0 1 -4.89843,0.3438 48.976925,71.026845 1.9166138 0 1 -3.46094,-0.1836 48.976925,71.026845 1.9166138 0 1 -4.84571,-0.8653 48.976925,71.026845 1.9166138 0 1 -4.75,-1.5625 48.976925,71.026845 1.9166138 0 1 -4.60546,-2.248 48.976925,71.026845 1.9166138 0 1 -4.41602,-2.9082 48.976925,71.026845 1.9166138 0 1 -4.18359,-3.5391 48.976925,71.026845 1.9166138 0 1 -3.90625,-4.1367 48.976925,71.026845 1.9166138 0 1 -3.5918,-4.6914 48.976925,71.026845 1.9166138 0 1 -3.24219,-5.1992 48.976925,71.026845 1.9166138 0 1 -2.85937,-5.6563 48.976925,71.026845 1.9166138 0 1 -2.44922,-6.0547 48.976925,71.026845 1.9166138 0 1 -2.01172,-6.3964 48.976925,71.026845 1.9166138 0 1 -1.55469,-6.67 48.976925,71.026845 1.9166138 0 1 -1.08593,-6.8789 48.976925,71.026845 1.9166138 0 1 -0.60157,-7.0195 48.976925,71.026845 1.9166138 0 1 -0.11523,-7.0898 48.976925,71.026845 1.9166138 0 1 0.2168,-5.0215 48.976925,71.026845 1.9166138 0 1 0.71874,-7.045 48.976925,71.026845 1.9166138 0 1 1.20118,-6.9238 48.976925,71.026845 1.9166138 0 1 1.66797,-6.7324 48.976925,71.026845 1.9166138 0 1 2.12109,-6.4746 48.976925,71.026845 1.9166138 0 1 2.54883,-6.1524 48.976925,71.026845 1.9166138 0 1 2.95508,-5.7675 48.976925,71.026845 1.9166138 0 1 3.33007,-5.3262 48.976925,71.026845 1.9166138 0 1 3.67383,-4.8301 48.976925,71.026845 1.9166138 0 1 3.97656,-4.2891 48.976925,71.026845 1.9166138 0 1 4.24415,-3.7011 48.976925,71.026845 1.9166138 0 1 4.46484,-3.0801 48.976925,71.026845 1.9166138 0 1 4.64648,-2.4238 48.976925,71.026845 1.9166138 0 1 4.77735,-1.7481 48.976925,71.026845 1.9166138 0 1 4.86133,-1.0508 48.976925,71.026845 1.9166138 0 1 4.89648,-0.3457 z m -183.77539,203.0664 c 0,0 0.68845,1.9061 2.17187,4.7637 0.74172,1.4288 1.68238,3.0949 2.83594,4.8809 1.15356,1.786 2.5186,3.6906 4.11133,5.5957 1.59273,1.905 3.41343,3.8117 5.47266,5.5976 2.05923,1.786 4.3571,3.4521 6.91015,4.8809 1.27653,0.7144 2.61638,1.3688 4.02149,1.9492 1.4051,0.5805 2.87696,1.0872 4.41406,1.5039 1.5371,0.4168 3.13998,0.7436 4.8125,0.9668 1.67251,0.2233 3.41327,0.3418 5.22461,0.3418 3.62268,0 7.79196,-0.3265 12.31445,-0.9004 4.52249,-0.5738 9.39777,-1.3951 14.43359,-2.3789 5.03584,-0.9837 10.23183,-2.1297 15.39454,-3.3594 5.1627,-1.2297 10.2922,-2.5418 15.19531,-3.8535 9.80621,-2.6233 18.70726,-5.2473 25.15625,-7.2148 6.44899,-1.9675 10.44726,-3.2793 10.44726,-3.2793 0,0 -2.96812,2.0918 -8.08203,5.1992 -2.55695,1.5537 -5.64972,3.3626 -9.17773,5.2891 -3.52801,1.9265 -7.49104,3.9719 -11.78516,6.0019 -4.29412,2.03 -8.9201,4.0442 -13.77539,5.9082 -4.85528,1.8641 -9.93888,3.5771 -15.15039,5.0059 -2.60575,0.7144 -5.24401,1.359 -7.90039,1.914 -2.65638,0.5551 -5.33228,1.0208 -8.01367,1.3829 -2.68139,0.3621 -5.36805,0.6204 -8.04883,0.7558 -2.68078,0.1355 -5.35521,0.1483 -8.00977,0.024 -2.65454,-0.125 -5.1437,-0.3938 -7.48046,-0.7891 -2.33677,-0.3953 -4.52133,-0.9164 -6.56055,-1.5449 -2.03922,-0.6286 -3.93338,-1.3648 -5.69531,-2.1895 -1.76194,-0.8247 -3.39159,-1.7389 -4.89649,-2.7226 -1.50489,-0.9838 -2.88619,-2.0369 -4.15429,-3.1426 -1.26811,-1.1058 -2.42304,-2.2644 -3.47461,-3.4551 -1.05158,-1.1906 -2.00019,-2.4139 -2.85547,-3.6523 -0.85529,-1.2385 -1.61567,-2.4911 -2.29492,-3.7403 -1.35851,-2.4984 -2.38625,-4.9819 -3.16211,-7.3008 -0.77587,-2.3188 -1.30102,-4.4738 -1.65625,-6.3164 -0.71048,-3.6851 -0.74219,-6.1211 -0.74219,-6.1211 z m 44.08789,44.7227 c 0,0 0.17833,0.3067 0.56055,0.7676 0.38221,0.4609 0.9683,1.0749 1.78906,1.6894 0.82076,0.6146 1.87579,1.2286 3.19141,1.6895 1.31561,0.4609 2.89296,0.7695 4.75976,0.7695 3.73364,0 9.72016,-0.6188 14.77344,-1.2363 5.05327,-0.6175 9.17187,-1.2344 9.17187,-1.2344 0,0 -0.7644,0.5393 -2.08203,1.3399 -1.31763,0.8005 -3.18757,1.8622 -5.40039,2.9082 -2.21282,1.0459 -4.76757,2.0762 -7.45312,2.8125 -1.34278,0.3681 -2.71786,0.6629 -4.09961,0.8496 -1.38176,0.1866 -2.77075,0.2654 -4.13868,0.2011 -1.36791,-0.064 -2.56635,-0.2777 -3.61718,-0.6015 -1.05083,-0.3238 -1.95303,-0.7587 -2.72852,-1.2656 -0.77549,-0.507 -1.4249,-1.0857 -1.9668,-1.6993 -0.54189,-0.6135 -0.97613,-1.2625 -1.32617,-1.9062 -0.70006,-1.2875 -1.05911,-2.5583 -1.24218,-3.5078 -0.18308,-0.9496 -0.19141,-1.5762 -0.19141,-1.5762 z"
         style="opacity:1;vector-effect:none;fill:#fcd1ae;fill-opacity:1;stroke:none;stroke-width:5.33157015;stroke-linecap:butt;stroke-linejoin:miter;stroke-miterlimit:4;stroke-dasharray:none;stroke-dashoffset:0;stroke-opacity:1" />
      <path
         inkscape:connector-curvature="0"
         transform="matrix(0.26458333,0,0,0.26458333,0,85.333317)"
         id="path1673"
         d="m -915.79883,4936.2793 -16.03906,7.2578 c 0,0 11.66973,7.2533 15.29883,27.4727 0,0 -9.59443,-30.0661 -32.92383,-26.1778 -23.32921,3.8884 -31.61867,38.8861 -37.83984,55.9942 -5.89318,16.2069 -7.93837,38.635 -8.15625,41.0976 0.75296,-0.7686 1.44301,-1.6611 2.2207,-2.3769 2.22138,-2.0446 4.53637,-3.8765 6.91406,-5.5117 2.37769,-1.6352 4.81645,-3.0741 7.2832,-4.3321 2.46675,-1.2579 4.96262,-2.3352 7.45118,-3.248 2.48855,-0.9128 4.97095,-1.662 7.41406,-2.2617 2.4431,-0.5998 4.84733,-1.0503 7.17773,-1.3692 2.3304,-0.3188 4.61292,-0.5286 6.82617,-0.6523 2.21326,-0.1237 4.35601,-0.1619 6.40235,-0.1348 4.09268,0.054 7.80122,0.3667 10.92773,0.7578 1.54274,0.193 2.43285,0.3989 3.66797,0.6094 1.22854,-2.169 2.42849,-4.699 3.29883,-8.0625 0,0 1.08689,3.9379 2.21875,9.1016 0.24641,0.063 0.99023,0.2343 0.99023,0.2343 a 11.435559,11.435559 0 0 1 0.98829,0.3184 11.435559,11.435559 0 0 1 1.05078,0.4531 11.435559,11.435559 0 0 1 0.99804,0.5567 11.435559,11.435559 0 0 1 0.93946,0.6523 11.435559,11.435559 0 0 1 0.86718,0.7441 11.435559,11.435559 0 0 1 0.79102,0.8262 11.435559,11.435559 0 0 1 0.70313,0.9004 11.435559,11.435559 0 0 1 0.60937,0.9668 11.435559,11.435559 0 0 1 0.51172,1.0215 c 0.89181,2.0345 1.52113,4.028 1.94726,5.9531 0.42614,1.9251 0.64893,3.7823 0.72266,5.5488 0.0737,1.7666 -6e-4,3.4412 -0.16601,5 -0.16542,1.5589 -0.4216,3.0028 -0.7129,4.3047 1.9611,0.6251 4.05664,1.3242 4.05664,1.3242 a 11.435559,11.435559 0 0 1 0.14649,0.057 11.435559,11.435559 0 0 1 1.04492,0.4629 c -0.82463,-0.4454 -1.17613,-0.5379 -1.07617,-0.5547 0.1,-0.017 0.65053,0.042 1.63476,-0.098 2.58476,-0.367 6.75728,-1.33 11.66211,-2.7402 4.90477,-1.4101 10.58719,-3.253 16.67774,-5.3477 6.09055,-2.0946 12.58832,-4.4407 19.12109,-6.8554 13.06568,-4.8295 26.31072,-9.9343 37.20703,-13.9551 5.44823,-2.0104 10.2995,-3.7499 14.36719,-5.0762 2.03385,-0.6631 3.7118,-1.2403 5.38281,-1.6992 1.67102,-0.4589 3.33637,-0.7997 5.3418,-0.9902 a 11.435559,11.435559 0 0 1 0.68555,-0.041 v 0 a 11.435559,11.435559 0 0 0 0.002,0 11.435559,11.435559 0 0 1 1.14258,0.018 11.435559,11.435559 0 0 1 1.13476,0.1328 c 4.55352,0.7606 8.49021,1.6962 11.85743,2.6934 3.36721,0.9971 6.165,2.0554 8.43945,3.0605 1.68904,0.7465 2.92186,1.4851 4.14258,2.1934 0.0911,-0.024 0.84029,-0.1614 1.01562,-0.2051 1.12135,-5.0855 2.18946,-8.959 2.18946,-8.959 0.62621,3.084 1.86795,5.627 3.1875,7.8711 0.009,0 0.007,0 0.0156,0 1.77397,-0.2814 3.86457,-0.5571 6.21289,-0.7715 2.34833,-0.2144 4.95549,-0.3684 7.76563,-0.4023 2.51555,-0.031 5.19224,0.032 7.98632,0.2382 2.79409,0.2061 5.70547,0.5566 8.6875,1.1016 2.98204,0.545 6.03583,1.2852 9.11524,2.2715 3.07941,0.9863 6.18332,2.218 9.26953,3.748 3.08621,1.5301 6.13396,3.3832 9.07422,5.5723 1.47013,1.0945 2.91413,2.2726 4.32226,3.5371 1.01121,0.908 1.97947,1.913 2.95118,2.9102 -0.29235,-5.0035 -1.63444,-25.4152 -7.15235,-40.5879 -6.22118,-17.1081 -14.51844,-52.1058 -37.84765,-55.9942 -23.3294,-3.8883 -32.91602,26.1778 -32.91602,26.1778 3.62903,-20.2194 15.29102,-27.4727 15.29102,-27.4727 l -16.0293,-7.2578 c -28.37601,30.4498 -62.00903,36.2265 -69.25,37.1465 -7.24108,-0.9196 -40.86625,-6.6967 -69.24219,-37.1465 z"
         style="opacity:1;vector-effect:none;fill:#00ccff;fill-opacity:1;stroke:none;stroke-width:1.58805811;stroke-linecap:butt;stroke-linejoin:miter;stroke-miterlimit:4;stroke-dasharray:none;stroke-dashoffset:0;stroke-opacity:1" />
      <path
         sodipodi:nodetypes="ccccccccc"
         inkscape:connector-curvature="0"
         id="path1675"
         d="m -233.72727,1382.335 c 0,0 -0.55923,5.5338 -3.27221,10.0315 0,0 4.96187,4.7167 12.99348,6.0732 8.03164,-1.3565 13.05428,-6.0732 13.05428,-6.0732 -2.71291,-4.4977 -3.28432,-10.0315 -3.28432,-10.0315 -4.92308,1.9617 -9.77421,1.8208 -9.7801,1.8206 h -0.001 c -0.0101,2e-4 -4.78406,0.1418 -9.70712,-1.8206 z"
         style="opacity:1;vector-effect:none;fill:#fcd1ae;fill-opacity:1;stroke:none;stroke-width:1.23709655;stroke-linecap:butt;stroke-linejoin:miter;stroke-miterlimit:4;stroke-dasharray:none;stroke-dashoffset:0;stroke-opacity:1" />
      <path
         inkscape:connector-curvature="0"
         id="path1677"
         d="m -282.52564,1311.0416 c -0.39681,2.7537 0.57748,5.6203 1.84069,13.5603 0.79175,4.9764 8.97452,9.3888 11.91536,17.9293 1.75567,5.0985 -2.85312,14.4054 0.65829,19.0872 15.10605,20.1412 43.72594,20.5293 43.9982,20.5325 h 0.0234 0.0234 c 5.7e-4,0 0.0373,0 0.0419,0 h 0.001 c 0.004,3e-4 0.0373,0 0.0373,0 h 0.0234 0.0234 c 0.27217,0 28.89215,-0.3913 43.9982,-20.5325 3.51142,-4.6818 -1.09738,-13.9887 0.65831,-19.0872 2.94083,-8.5405 11.12359,-12.9529 11.91534,-17.9293 1.26322,-7.94 2.23755,-10.8066 1.84073,-13.5603 -0.49731,2.3549 -1.39778,4.8951 -8.8971,12.7208 -5.35705,4.9105 -10.42718,17.2266 -11.46879,26.4525 0,0 -0.81906,-2.903 -0.14939,-5.8791 -12.62032,-2.9231 -25.32589,-4.5172 -37.98394,-4.5908 h -0.004 c -12.65803,0.074 -25.3636,1.6677 -37.98393,4.5908 0.6695,2.9761 -0.14938,5.8791 -0.14938,5.8791 -1.04163,-9.2259 -6.11174,-21.542 -11.46879,-26.4525 -7.49931,-7.8257 -8.39975,-10.3659 -8.89707,-12.7208 z m 50.24402,33.9913 c 0.78119,0 1.53854,0 2.25561,0.023 1.90353,0 3.9696,0.1722 5.99975,0.3015 0.001,2e-4 0.003,-1e-4 0.004,0 2.03014,-0.1287 4.09621,-0.3015 5.99974,-0.3015 5.73653,-0.1467 13.99629,0.3206 17.25139,3.8551 5.20823,5.6544 -2.23217,8.99 -6.10104,13.4541 -3.86191,4.4561 -8.02068,8.0194 -17.06325,8.0336 h -0.0482 c -0.0145,0 -0.0234,0 -0.0373,0 -0.001,-10e-5 -0.001,0 -0.001,0 -0.0145,3e-4 -0.0234,0 -0.0419,0 h -0.048 c -9.04258,-0.014 -13.20136,-3.5775 -17.06321,-8.0336 -3.86891,-4.4641 -11.30932,-7.7997 -6.1011,-13.4541 2.84823,-3.0925 9.52725,-3.8372 14.99577,-3.877 z"
         style="opacity:1;vector-effect:none;fill:#a05a2c;fill-opacity:1;stroke:none;stroke-width:0.91164619;stroke-linecap:butt;stroke-linejoin:miter;stroke-miterlimit:4;stroke-dasharray:none;stroke-dashoffset:0;stroke-opacity:1"
         sodipodi:nodetypes="ccccccssccccccccccccccccccccccccccsccsccccc" />
      <path
         sodipodi:nodetypes="cccccccccc"
         inkscape:connector-curvature="0"
         id="path1679"
         d="m -256.23213,1285.5658 c -5.1874,-0.3533 -12.83615,0.8545 -14.6725,9.9225 4.44733,-5.8778 12.51492,-8.1704 18.81228,-4.9238 -3.68026,-0.6065 -7.04537,-0.7373 -10.3904,0.7887 5.22581,-0.2315 10.1975,1.9958 15.26356,2.8638 2.79454,0.4342 12.20177,1.6449 14.85339,4.4365 0,0 2.77209,-5.0023 1.18212,-7.4907 -4.4566,-5.7908 -13.39638,-3.1586 -20.98828,-4.9552 -0.87541,-0.2316 -2.33101,-0.5237 -4.06017,-0.6416 z"
         style="opacity:1;vector-effect:none;fill:#a05a2c;fill-opacity:1;stroke:none;stroke-width:0.41623312;stroke-linecap:butt;stroke-linejoin:miter;stroke-miterlimit:4;stroke-dasharray:none;stroke-dashoffset:0;stroke-opacity:1" />
      <path
         style="opacity:1;vector-effect:none;fill:#a05a2c;fill-opacity:1;stroke:none;stroke-width:0.41623312;stroke-linecap:butt;stroke-linejoin:miter;stroke-miterlimit:4;stroke-dasharray:none;stroke-dashoffset:0;stroke-opacity:1"
         d="m -191.78857,1285.5658 c 5.18745,-0.3533 12.8362,0.8545 14.67251,9.9225 -4.44729,-5.8778 -12.51487,-8.1704 -18.81228,-4.9238 3.68026,-0.6065 7.04541,-0.7373 10.39043,0.7887 -5.22581,-0.2315 -10.19753,1.9958 -15.26355,2.8638 -2.79453,0.4342 -12.20181,1.6449 -14.85344,4.4365 0,0 -2.77203,-5.0023 -1.18208,-7.4907 4.45661,-5.7908 13.3964,-3.1586 20.98829,-4.9552 0.87536,-0.2316 2.33096,-0.5237 4.06012,-0.6416 z"
         id="path1681"
         inkscape:connector-curvature="0"
         sodipodi:nodetypes="cccccccccc" />
      <path
         inkscape:connector-curvature="0"
         id="path1685"
         d="m -203.27149,1417.5624 c 0,0 14.52811,-3.9699 19.42714,8.6154 0,0 -4.20826,4.2484 -8.26965,5.9805 0,0 2.50854,-0.7764 3.58359,-1.1947 0,0 -3.76276,9.0188 -6.21155,9.4368 -2.44875,0.4183 -7.28663,-0.5972 -11.94529,0.1201 -4.65861,0.7168 -13.67734,0.4779 -19.47078,-4.8975 0,0 14.93158,-7.2865 19.59025,-10.5716 0,0 7.82418,-2.807 14.03567,0.1792 0,0 -4.6586,-4.5988 -10.69102,-2.8668 0,0 -1.11215,-2.3746 -0.0486,-4.8008 z"
         style="opacity:1;vector-effect:none;fill:#fcd1ae;fill-opacity:1;stroke:none;stroke-width:1.04545379;stroke-linecap:butt;stroke-linejoin:miter;stroke-miterlimit:4;stroke-dasharray:none;stroke-dashoffset:0;stroke-opacity:1" />
      <path
         sodipodi:nodetypes="cccccccscccccc"
         style="opacity:1;vector-effect:none;fill:#fcd1ae;fill-opacity:1;stroke:none;stroke-width:1.04545379;stroke-linecap:butt;stroke-linejoin:miter;stroke-miterlimit:4;stroke-dasharray:none;stroke-dashoffset:0;stroke-opacity:1"
         d="m -244.91942,1417.5624 c 0,0 -14.52809,-3.9699 -19.42713,8.6154 0,0 4.20827,4.2484 8.26964,5.9805 0,0 -2.50849,-0.7764 -3.58357,-1.1947 0,0 3.7628,9.0188 6.21153,9.4368 2.4488,0.4183 6.84691,1.6691 11.94529,0.1201 8.79749,-2.9997 28.88292,-12.9471 36.28125,-18.0692 0,0 -0.48573,-2.5078 0.44211,-4.9037 0,0 -1.68463,-1.3419 -6.0316,-2.0679 -3.3614,0.3193 -28.28797,11.351 -30.81123,9.5717 0,0 -7.82414,-2.807 -14.03567,0.1792 0,0 4.65865,-4.5988 10.69103,-2.8668 0,0 1.11215,-2.3746 0.0486,-4.8008 z"
         id="path1687"
         inkscape:connector-curvature="0" />
      <g
         style="fill:#d38d5f;fill-opacity:1"
         transform="matrix(5.4991333,0,0,5.4991333,-249.66906,-562.91553)"
         id="g1691">
        <path
           sodipodi:nodetypes="ccccccccccccccccccccccc"
           inkscape:connector-curvature="0"
           id="path1689"
           d="m 1.9285154,342.74357 c -0.6114549,0.66788 -1.64655144,1.90897 -1.30790258,2.66154 0.33865455,0.75254 1.43012778,0.91293 1.43012778,0.91293 0,0 -0.6395645,-0.60199 -1.05347012,-1.26048 -0.41390755,-0.65849 0.93124492,-2.31399 0.93124492,-2.31399 z m 5.4735547,0 c 0,0 1.3459847,1.6555 0.9320753,2.31399 -0.4139076,0.65849 -1.0543022,1.26048 -1.0543022,1.26048 0,0 1.091475,-0.16045 1.4301278,-0.91293 0.3386507,-0.75257 -0.6964477,-1.99366 -1.3079009,-2.66154 z m -5.156766,2.34474 c -0.1099363,0 -0.2064704,0.0229 -0.2793732,0.0724 -0.291613,0.19753 -0.1596367,0.52711 -0.1596367,0.52711 0.6114549,-0.73371 2.0034968,0.29132 2.2857056,0.46067 0.2388118,0.14316 0.4861169,0.15295 0.5737159,0.15295 0.088343,3e-5 0.3345996,-0.009 0.5728798,-0.15295 0.2822086,-0.16933 1.6750865,-1.19438 2.2865358,-0.46067 0,0 0.1311455,-0.32958 -0.1604652,-0.52711 -0.2916169,-0.19755 -0.9591076,0.0474 -1.3636108,0.28268 -0.3869849,0.22497 -0.8360388,0.48031 -1.3353339,0.48223 -0.4996418,0 -0.9489635,-0.25712 -1.3361738,-0.48223 -0.3033755,-0.17646 -0.7544001,-0.3586 -1.084232,-0.35506 z"
           style="opacity:1;vector-effect:none;fill:#a05a2c;fill-opacity:1;stroke:none;stroke-width:0.46573013;stroke-linecap:butt;stroke-linejoin:miter;stroke-miterlimit:4;stroke-dasharray:none;stroke-dashoffset:0;stroke-opacity:1" />
      </g>
      <path
         sodipodi:nodetypes="ccccccsccccccscccccccccccccc"
         inkscape:connector-curvature="0"
         id="path1703"
         transform="matrix(0.26458333,0,0,0.26458333,0,85.333317)"
         d="m -846.1543,4228.8333 v 0.125 c -16.6823,0.6266 -121.8893,14.2661 -185.4043,46.3886 0,0 -67.1837,11.6477 -60.8672,185.6394 -7.4574,24.0999 -37.7331,79.1615 -17.2265,83.2969 26.4147,3.4454 91.8794,-35.6011 144.13472,-51.1055 39.32058,-10.1038 80.66462,-11.5429 121.1211,-11.5429 36.79457,0 85.94248,2.048 121.1289,11.5429 52.25518,15.5044 117.71409,54.5509 144.12891,51.1055 20.37517,-18.8323 -8.24362,-61.7574 -17.22656,-83.2969 0,0 9.7845,-149.9073 -60.86719,-185.6394 -63.52558,-32.1275 -168.74176,-45.7627 -185.4043,-46.3886 v -0.125 c 0,0 -1.27451,0.053 -1.75976,0.053 -0.48322,0 -1.75782,-0.053 -1.75782,-0.053 z m 1.75782,219.8386 c 85.22075,0.1436 126.56972,10.4275 164.05859,22.7226 37.7622,12.3844 93.08843,49.6284 97.75781,41.3047 0,13.2076 -29.29056,-1.1505 -60.87304,-16.0801 -31.37152,-14.8301 -80.90839,-42.1114 -199.75586,-42.4746 v -0.053 h -1.1875 -1.18555 v 0.053 c -118.84641,0.3591 -168.38627,27.6445 -199.75777,42.4746 -31.5825,14.9303 -60.8653,29.2877 -60.8653,16.0801 4.6696,8.3237 59.998,-28.9203 97.7598,-41.3047 37.48901,-12.2951 78.82807,-22.5745 164.04882,-22.7226 z"
         style="opacity:1;vector-effect:none;fill:#4d4d4d;fill-opacity:1;stroke:none;stroke-width:3.51798368;stroke-linecap:butt;stroke-linejoin:miter;stroke-miterlimit:4;stroke-dasharray:none;stroke-dashoffset:0;stroke-opacity:1" />
      <g
         transform="matrix(0.67285737,0,0,0.67285737,-114.59743,940.39533)"
         id="g1723">
        <path
           inkscape:connector-curvature="0"
           id="path1709"
           d="m -176.61352,437.90286 c -0.0689,0.005 -0.15637,0.0354 -0.28655,0.0859 -0.20602,0.0799 -0.85454,0.30208 -1.44104,0.49351 -0.5865,0.19141 -1.12951,0.39744 -1.20668,0.45776 -0.20028,0.15657 -0.20588,18.49283 -0.006,18.69301 0.0912,0.0912 0.61447,0.13483 1.61972,0.13483 1.87319,0 1.83528,0.0295 1.84444,-1.43929 l 0.007,-1.08632 1.32879,-1.20668 c 0.75412,-0.6848 1.42541,-1.20668 1.5522,-1.20668 0.13975,0 1.15741,0.91426 2.71766,2.44142 l 2.49448,2.44143 1.64318,0.0561 c 1.87449,0.064 2.00158,0.05 2.15597,-0.23853 0.15668,-0.29276 0.0362,-0.47461 -0.92298,-1.39062 -4.6358,-4.4271 -5.59493,-5.39007 -5.59493,-5.61838 0,-0.22487 0.73183,-1.00921 2.154,-2.30835 0.22779,-0.20807 1.32582,-1.23689 2.44011,-2.28642 2.68919,-2.53291 2.6895,-2.63786 0.007,-2.63786 h -1.58705 l -0.97407,0.92431 c -0.53568,0.50838 -1.52949,1.45928 -2.20859,2.11323 -4.55118,4.38251 -4.70315,4.50567 -5.08498,4.12383 -0.1014,-0.10138 -0.13462,-1.61107 -0.13462,-6.10508 0,-5.71257 -0.009,-5.98199 -0.21463,-6.23554 -0.12435,-0.15347 -0.18787,-0.21437 -0.30276,-0.20564 z"
           style="fill:#ffffff;stroke-width:0.11224927" />
        <path
           inkscape:connector-curvature="0"
           id="path1711"
           d="m -152.41153,438.23654 c -1.03768,0 -1.56981,0.043 -1.66137,0.13461 -0.19518,0.19517 -0.19518,19.17901 0,19.37418 0.0909,0.0909 0.60799,0.13483 1.59078,0.13483 1.19732,0 1.49258,-0.0331 1.66138,-0.18591 0.19577,-0.17718 0.2052,-0.6248 0.2052,-9.68699 0,-7.24027 -0.032,-9.53347 -0.13461,-9.63611 -0.0916,-0.0916 -0.62369,-0.13461 -1.66138,-0.13461 z"
           style="fill:#ffffff;stroke-width:0.11224927" />
        <path
           inkscape:connector-curvature="0"
           id="path1713"
           d="m -145.67657,438.23654 c -1.03768,0 -1.56982,0.043 -1.66138,0.13461 -0.19892,0.19891 -0.19443,18.96734 0.005,19.28605 0.12781,0.20464 0.26437,0.22296 1.66137,0.22296 1.03415,0 1.56525,-0.0433 1.65678,-0.13483 0.19517,-0.19517 0.19517,-19.17901 0,-19.37418 -0.0916,-0.0916 -0.6237,-0.13461 -1.66138,-0.13461 z"
           style="fill:#ffffff;stroke-width:0.11224927" />
        <path
           inkscape:connector-curvature="0"
           id="path1715"
           d="m -159.30039,438.34879 c -1.92844,0 -1.86658,-0.0583 -1.86658,1.75718 v 1.3858 h 1.79599 1.79599 v -1.43689 c 0,-0.96783 -0.0439,-1.48074 -0.13462,-1.57149 -0.0909,-0.0909 -0.60799,-0.1346 -1.59078,-0.1346 z"
           style="fill:#ffffff;stroke-width:0.11224927" />
        <path
           inkscape:connector-curvature="0"
           id="path1717"
           d="m -161.16697,443.06326 v 7.15896 c 0,6.29776 0.021,7.18899 0.17473,7.40845 0.16487,0.23539 0.25481,0.24949 1.59078,0.24949 1.16006,0 1.45308,-0.0337 1.62126,-0.18591 0.19479,-0.17631 0.20521,-0.55379 0.20521,-7.40845 v -7.22254 h -1.79599 z"
           style="fill:#ffffff;stroke-width:0.11224927" />
        <path
           inkscape:connector-curvature="0"
           id="path1719"
           d="m -138.33674,443.13866 c -1.5564,0.0213 -1.95063,0.0653 -2.07968,0.15565 -0.23539,0.16487 -0.24949,0.25459 -0.24949,1.59056 0,1.16007 0.0335,1.45309 0.18569,1.62126 0.11096,0.1226 0.30854,0.17214 2.14348,0.19205 h 5.98846 c -0.0547,0.0488 -0.11595,0.10187 -0.16728,0.14843 l -6.79722,6.3366 c -0.49798,0.573 -1.34018,1.17831 -1.34018,1.91832 -0.0104,0.21682 -0.0129,0.51245 -0.0129,0.95215 0,1.16006 0.0335,1.45309 0.18569,1.62126 0.11096,0.1226 0.30854,0.17213 2.14348,0.19204 h 9.29279 c 1.83477,-0.0199 2.03231,-0.0695 2.14326,-0.19204 0.1522,-0.16817 0.18592,-0.4612 0.18592,-1.62126 0,-1.33597 -0.0141,-1.42569 -0.2495,-1.59057 -0.12905,-0.0904 -0.52328,-0.13432 -2.07968,-0.15565 h -6.2546 l 5.21016,-4.8572 c 1.01363,-1.02404 2.1691,-1.95312 3.1877,-2.94418 0.1522,-0.16817 0.18592,-0.46119 0.18592,-1.62126 0,-1.33597 -0.0141,-1.42569 -0.2495,-1.59056 -0.12905,-0.0904 -0.52328,-0.13433 -2.07968,-0.15565 z"
           style="fill:#488fe9;fill-opacity:1;stroke-width:0.11224927" />
        <path
           inkscape:connector-curvature="0"
           id="path1721"
           d="m -188.8123,443.40327 c -2.97664,0.002 -5.79092,0.0523 -6.25395,0.11181 -1.06392,0.13669 -2.19359,0.67661 -2.55389,1.22071 -0.42673,0.64443 -0.50162,1.16818 -0.45097,3.15022 0.0409,1.602 0.0823,1.94302 0.3032,2.49185 0.33118,0.82273 0.70574,1.16894 1.65151,1.52654 0.76587,0.28958 0.79003,0.29126 5.05144,0.35516 4.07493,0.0611 4.29399,0.075 4.52965,0.28853 0.21105,0.19118 0.24041,0.31202 0.19841,0.81841 -0.0588,0.70965 -0.34924,1.14942 -0.88243,1.33624 -0.27368,0.0959 -1.8426,0.13577 -5.52016,0.14032 l -5.13782,0.006 -0.10041,0.25256 c -0.0553,0.13891 -0.18569,0.72264 -0.28983,1.29723 -0.17974,0.99152 -0.17945,1.05578 0.008,1.26281 0.19057,0.21058 0.39568,0.21803 5.93277,0.21769 4.67625,-2.9e-4 5.92202,-0.0326 6.7457,-0.17472 2.49056,-0.4299 3.06731,-1.29618 2.95181,-4.43429 -0.0728,-1.97776 -0.41518,-2.65785 -1.60767,-3.19385 -0.9087,-0.40844 -1.94589,-0.50296 -5.51885,-0.50381 -2.00216,-3.7e-4 -3.51747,-0.0483 -3.77284,-0.11925 -0.59989,-0.16659 -0.86315,-0.63406 -0.86358,-1.53401 -3.7e-4,-0.61483 0.0394,-0.74429 0.3271,-1.06637 l 0.32732,-0.36656 5.00277,-0.0324 c 4.58643,-0.0298 5.01141,-0.0485 5.10493,-0.2245 0.19678,-0.37044 0.46149,-2.39726 0.34223,-2.6201 -0.10739,-0.20067 -0.35058,-0.20991 -5.52433,-0.20652 z"
           style="fill:#ffffff;stroke-width:0.11224927" />
      </g>
      <g
         id="text1731"
         style="font-style:normal;font-variant:normal;font-weight:normal;font-stretch:normal;font-size:24.85676003px;line-height:1.25;font-family:sans-serif;font-variant-ligatures:normal;font-variant-position:normal;font-variant-caps:normal;font-variant-numeric:normal;font-variant-alternates:normal;font-feature-settings:normal;text-indent:0;text-align:start;text-decoration:none;text-decoration-line:none;text-decoration-style:solid;text-decoration-color:#000000;letter-spacing:0px;word-spacing:0px;text-transform:none;writing-mode:lr-tb;direction:ltr;text-orientation:mixed;dominant-baseline:auto;baseline-shift:baseline;text-anchor:start;white-space:normal;shape-padding:0;opacity:1;vector-effect:none;fill:#5aa02c;fill-opacity:1;stroke:none;stroke-width:0.62141895;stroke-linecap:butt;stroke-linejoin:miter;stroke-miterlimit:4;stroke-dasharray:none;stroke-dashoffset:0;stroke-opacity:1"
         aria-label="$">
        <path
           inkscape:connector-curvature="0"
           id="path2002"
           style="font-style:normal;font-variant:normal;font-weight:normal;font-stretch:normal;font-family:Aldrich;-inkscape-font-specification:Aldrich;fill:#5aa02c;fill-opacity:1;stroke-width:0.62141895"
           d="m -262.83102,1317.7317 h 2.41528 v 2.2332 h 3.4348 v -4.9641 h -3.10709 q -0.50976,0 -0.97097,-0.1942 -0.44907,-0.2063 -0.78891,-0.534 -0.33984,-0.3398 -0.53403,-0.7889 -0.1942,-0.4612 -0.1942,-0.971 v -4.9762 q 0,-0.5097 0.1942,-0.9588 0.19419,-0.4612 0.53403,-0.7889 0.33984,-0.3399 0.78891,-0.5341 0.46121,-0.2063 0.97097,-0.2063 h 3.10709 v -2.476 h 2.23323 v 2.476 h 3.10709 q 0.50976,0 0.95883,0.2063 0.46121,0.1942 0.80105,0.5341 0.33984,0.3277 0.53403,0.7889 0.19419,0.4491 0.19419,0.9588 v 2.2454 h -2.41528 v -2.2454 h -3.17991 v 4.9762 h 3.10709 q 0.50976,0 0.95883,0.1942 0.46121,0.1942 0.80105,0.5341 0.33984,0.3398 0.53403,0.801 0.19419,0.4491 0.19419,0.9588 v 4.9641 q 0,0.5098 -0.19419,0.971 -0.19419,0.449 -0.53403,0.7889 -0.33984,0.3398 -0.80105,0.534 -0.44907,0.1942 -0.95883,0.1942 h -3.10709 v 2.4881 h -2.23323 v -2.4881 h -3.36197 q -0.50976,0 -0.97097,-0.1942 -0.44907,-0.1942 -0.78891,-0.534 -0.3277,-0.3399 -0.53403,-0.7889 -0.1942,-0.4612 -0.1942,-0.971 z m 2.65803,-5.219 h 3.19205 v -4.9762 h -3.19205 z m 5.42528,2.4881 v 4.9641 h 3.17991 v -4.9641 z" />
      </g>
      <g
         id="text1735"
         style="font-style:normal;font-variant:normal;font-weight:normal;font-stretch:normal;font-size:24.85676003px;line-height:1.25;font-family:sans-serif;font-variant-ligatures:normal;font-variant-position:normal;font-variant-caps:normal;font-variant-numeric:normal;font-variant-alternates:normal;font-feature-settings:normal;text-indent:0;text-align:start;text-decoration:none;text-decoration-line:none;text-decoration-style:solid;text-decoration-color:#000000;letter-spacing:0px;word-spacing:0px;text-transform:none;writing-mode:lr-tb;direction:ltr;text-orientation:mixed;dominant-baseline:auto;baseline-shift:baseline;text-anchor:start;white-space:normal;shape-padding:0;opacity:1;vector-effect:none;fill:#5aa02c;fill-opacity:1;stroke:none;stroke-width:0.62141895;stroke-linecap:butt;stroke-linejoin:miter;stroke-miterlimit:4;stroke-dasharray:none;stroke-dashoffset:0;stroke-opacity:1"
         aria-label="$">
        <path
           inkscape:connector-curvature="0"
           id="path1999"
           style="font-style:normal;font-variant:normal;font-weight:normal;font-stretch:normal;font-family:Aldrich;-inkscape-font-specification:Aldrich;fill:#5aa02c;fill-opacity:1;stroke-width:0.62141895"
           d="m -198.42959,1317.7317 h 2.41528 v 2.2332 h 3.4348 v -4.9641 h -3.1071 q -0.50975,0 -0.97096,-0.1942 -0.44908,-0.2063 -0.78891,-0.534 -0.33984,-0.3398 -0.53404,-0.7889 -0.19419,-0.4612 -0.19419,-0.971 v -4.9762 q 0,-0.5097 0.19419,-0.9588 0.1942,-0.4612 0.53404,-0.7889 0.33983,-0.3399 0.78891,-0.5341 0.46121,-0.2063 0.97096,-0.2063 h 3.1071 v -2.476 h 2.23322 v 2.476 h 3.1071 q 0.50976,0 0.95883,0.2063 0.46121,0.1942 0.80105,0.5341 0.33984,0.3277 0.53403,0.7889 0.19419,0.4491 0.19419,0.9588 v 2.2454 h -2.41528 v -2.2454 h -3.17992 v 4.9762 h 3.1071 q 0.50976,0 0.95883,0.1942 0.46121,0.1942 0.80105,0.5341 0.33984,0.3398 0.53403,0.801 0.19419,0.4491 0.19419,0.9588 v 4.9641 q 0,0.5098 -0.19419,0.971 -0.19419,0.449 -0.53403,0.7889 -0.33984,0.3398 -0.80105,0.534 -0.44907,0.1942 -0.95883,0.1942 h -3.1071 v 2.4881 h -2.23322 v -2.4881 h -3.36197 q -0.50976,0 -0.97097,-0.1942 -0.44907,-0.1942 -0.78891,-0.534 -0.3277,-0.3399 -0.53403,-0.7889 -0.1942,-0.4612 -0.1942,-0.971 z m 2.65802,-5.219 h 3.19206 v -4.9762 h -3.19206 z m 5.42528,2.4881 v 4.9641 h 3.17992 v -4.9641 z" />
      </g>
    </g>
  </g>
</svg>
