<?xml version="1.0" encoding="UTF-8" standalone="no"?>
<!-- Created with Inkscape (http://www.inkscape.org/) -->

<svg
   xmlns:dc="http://purl.org/dc/elements/1.1/"
   xmlns:cc="http://creativecommons.org/ns#"
   xmlns:rdf="http://www.w3.org/1999/02/22-rdf-syntax-ns#"
   xmlns:svg="http://www.w3.org/2000/svg"
   xmlns="http://www.w3.org/2000/svg"
   xmlns:sodipodi="http://sodipodi.sourceforge.net/DTD/sodipodi-0.dtd"
   xmlns:inkscape="http://www.inkscape.org/namespaces/inkscape"
   width="800"
   height="800"
   viewBox="0 0 211.66666 211.66667"
   version="1.1"
   id="svg8727"
   inkscape:version="0.92.4 (5da689c313, 2019-01-14)"
   sodipodi:docname="pile-of-codes.svg">
  <defs
     id="defs8721" />
  <sodipodi:namedview
     id="base"
     pagecolor="#1e1e1e"
     bordercolor="#666666"
     borderopacity="1.0"
     inkscape:pageopacity="0.0"
     inkscape:pageshadow="2"
     inkscape:zoom="0.35"
     inkscape:cx="508.71226"
     inkscape:cy="587.37696"
     inkscape:document-units="mm"
     inkscape:current-layer="layer1"
     showgrid="false"
     units="px"
     inkscape:pagecheckerboard="true"
     borderlayer="true"
     inkscape:showpageshadow="false"
     inkscape:snap-global="false"
     inkscape:window-width="1920"
     inkscape:window-height="1028"
     inkscape:window-x="0"
     inkscape:window-y="0"
     inkscape:window-maximized="1" />
  <metadata
     id="metadata8724">
    <rdf:RDF>
      <cc:Work
         rdf:about="">
        <dc:format>image/svg+xml</dc:format>
        <dc:type
           rdf:resource="http://purl.org/dc/dcmitype/StillImage" />
        <dc:title></dc:title>
      </cc:Work>
    </rdf:RDF>
  </metadata>
  <g
     inkscape:label="Layer 1"
     inkscape:groupmode="layer"
     id="layer1"
     transform="translate(0,-85.333317)">
    <g
       id="g9147">
      <g
         transform="matrix(1.0768042,0,0,1.0768042,341.89189,19.636194)"
         id="g1586">
        <path
           style="fill:#c87137;stroke-width:0.10362897"
           d="m -190.38061,208.94483 c -13.68976,-10.37271 -27.57162,-24.71644 -33.94594,-38.04232 -20.38037,13.8831 -41.99541,46.23454 -34.35168,60.94934 15.71375,8.20728 52.36571,-6.3946 68.29762,-22.90702 z"
           id="path1582"
           inkscape:connector-curvature="0"
           sodipodi:nodetypes="cccc" />
        <path
           style="fill:#c87137;stroke-width:0.08466666"
           d="m -148.77613,83.148991 c -0.91282,-0.08771 -1.46012,0.264936 -2.60294,1.6769 -2.39559,2.959781 -4.53896,6.429283 -6.03942,9.775114 -0.91048,2.030257 -1.01899,2.549457 -1.34979,6.478155 -0.30121,3.5774 -0.4064,4.27408 -0.84905,5.60534 -0.26976,0.81134 -0.80742,1.93202 -1.21026,2.52285 -0.24148,0.35418 -5.78922,7.64745 -7.11636,9.3555 -5.65036,7.27202 -24.06391,30.03693 -30.9547,38.26949 -3.02372,3.61251 -4.28181,5.25854 -6.15776,8.0574 -1.98612,2.96324 -5.3042,11.9016 -6.53427,17.82678 0,0 3.21611,5.12749 8.57089,8.73793 2.32991,-10.70138 9.09143,-20.68039 9.09143,-20.68039 4.00102,-5.47175 6.48329,-8.68921 18.69188,-24.22901 9.68196,-12.32378 11.24915,-14.34464 15.52774,-20.02358 5.2097,-6.91482 5.57911,-7.3837 6.82542,-8.66511 1.7434,-1.79249 3.33798,-2.9866 5.25808,-3.93774 1.12974,-0.55964 2.01836,-0.9111 4.12326,-1.62988 1.89123,-0.64582 2.70808,-0.97491 3.88452,-1.56528 1.75989,-0.88315 3.21787,-1.89408 4.52013,-3.13469 3.49415,-3.32869 6.71298,-7.34379 7.968,-9.938928 0.69406,-1.43523 0.58299,-2.02369 -0.59584,-3.150709 -0.78467,-0.750174 -1.49136,-1.292595 -3.05045,-2.341976 -3.12062,-2.100388 -6.63419,-4.102126 -10.50841,-5.987232 -2.72848,-1.327615 -6.75103,-2.949804 -7.49205,-3.021004 z m 0.60772,9.041826 c 0.032,-7.83e-4 0.48921,0.343691 1.01596,0.765844 2.67085,2.140497 6.38065,4.322591 9.33999,5.493721 0.51224,0.20271 0.95773,0.3912 0.99013,0.4191 0.0324,0.0279 -0.13004,0.33295 -0.36071,0.67747 -1.406,2.099938 -2.59721,3.057908 -5.28649,4.251938 -1.47459,0.65471 -2.96847,1.18507 -4.74752,1.68517 -1.62152,0.45581 -3.08181,1.05389 -4.36046,1.78645 -0.55885,0.32017 -26.85031,34.21435 -26.87591,34.21435 -0.0256,0 25.78445,-35.14661 25.80645,-36.99764 0.0437,-3.71571 0.0799,-4.04811 0.61237,-5.677688 0.16266,-0.49785 0.47622,-1.23509 0.69711,-1.63814 0.49303,-0.89954 3.08872,-4.978575 3.16932,-4.980575 z"
           id="path1577"
           inkscape:connector-curvature="0"
           sodipodi:nodetypes="ccscccccccccscccccccccscccscsccccsccccc" />
      </g>
      <path
         sodipodi:nodetypes="ccccc"
         inkscape:connector-curvature="0"
         id="path2930"
         d="m 169.1345,251.66017 c 0,0 2.46774,-21.67661 -36.6839,-32.57259 l 28.83228,-28.68866 c 0,0 24.57889,13.45364 39.04954,35.58417 0,0 -8.69325,21.13426 -31.19792,25.67708 z"
         style="opacity:1;vector-effect:none;fill:#cccccc;fill-opacity:1;stroke:none;stroke-width:0.14524925;stroke-linecap:butt;stroke-linejoin:miter;stroke-miterlimit:4;stroke-dasharray:none;stroke-dashoffset:0;stroke-opacity:1" />
      <path
         inkscape:connector-curvature="0"
         id="path1745"
         d="m 80.247062,197.44158 -6.039456,2.50805 c 14.765759,20.02717 32.815074,67.00793 32.815074,67.00793 27.53177,0.39451 58.72019,-18.12118 58.72019,-18.12118 -5.56499,-37.65825 -34.40531,-72.61091 -34.40531,-72.61091 l -17.72186,7.3594 c -5.4e-4,0.035 10e-4,0.0691 7.2e-4,0.10412 -0.0117,0.60921 -0.0387,1.22264 -0.0782,1.83669 -0.079,1.22811 -0.20811,2.45865 -0.36495,3.66287 -0.15685,1.20423 -0.34128,2.3821 -0.53148,3.50475 -0.18556,1.09526 -0.38039,2.1278 -0.569,3.06338 -0.1886,0.93559 -0.37129,1.77426 -0.53183,2.48106 -0.32108,1.41364 -0.5549,2.30048 -0.57705,2.3843 -0.002,0.0115 -0.008,0.0422 -0.0102,0.0568 1.04329,0.86252 2.02021,1.70486 2.91858,2.50454 0.89838,0.7997 1.71851,1.55664 2.44776,2.24864 1.4585,1.38398 2.55425,2.50785 3.19099,3.19168 0.25529,0.27418 0.48481,0.55412 0.69029,0.83789 0.20548,0.28377 0.38707,0.57122 0.54726,0.86103 0.16018,0.2898 0.29884,0.58172 0.41824,0.87399 0.1194,0.2923 0.21942,0.58491 0.30255,0.87611 0.16626,0.58238 0.26445,1.15913 0.31272,1.71575 0.0483,0.5566 0.0466,1.09315 0.013,1.5955 -0.0336,0.50232 -0.0991,0.9705 -0.17845,1.39004 -0.0794,0.41952 -0.1725,0.79051 -0.26153,1.09872 -0.17807,0.61642 -0.33937,0.98162 -0.33937,0.98162 a 2.738559,2.738559 0 0 1 -0.0841,0.18162 2.738559,2.738559 0 0 1 -0.13637,0.23733 2.738559,2.738559 0 0 1 -0.15917,0.22263 2.738559,2.738559 0 0 1 -0.18055,0.20577 2.738559,2.738559 0 0 1 -0.20018,0.18652 2.738559,2.738559 0 0 1 -0.21806,0.16582 2.738559,2.738559 0 0 1 -0.23313,0.14304 2.738559,2.738559 0 0 1 -0.24646,0.11921 2.738559,2.738559 0 0 1 -0.25733,0.0939 2.738559,2.738559 0 0 1 -0.26504,0.0677 2.738559,2.738559 0 0 1 -0.27065,0.041 2.738559,2.738559 0 0 1 -0.27345,0.0136 2.738559,2.738559 0 0 1 -0.27345,-0.0136 2.738559,2.738559 0 0 1 -0.27065,-0.0407 2.738559,2.738559 0 0 1 -0.26539,-0.0677 2.738559,2.738559 0 0 1 -0.25698,-0.094 2.738559,2.738559 0 0 1 -0.24646,-0.11919 2.738559,2.738559 0 0 1 -0.23348,-0.14304 2.738559,2.738559 0 0 1 -0.21806,-0.16548 2.738559,2.738559 0 0 1 -0.20019,-0.18652 2.738559,2.738559 0 0 1 -0.18089,-0.20577 c -0.66919,-0.84351 -1.34918,-1.65829 -2.03933,-2.44565 -0.69016,-0.78737 -1.3902,-1.54716 -2.09963,-2.2802 -0.70943,-0.73301 -1.42837,-1.43947 -2.15537,-2.11995 -0.72701,-0.68047 -1.46228,-1.33492 -2.20516,-1.96465 -0.74288,-0.62975 -1.49332,-1.23486 -2.25038,-1.81567 -0.75705,-0.5808 -1.52081,-1.13755 -2.29034,-1.67121 -0.76954,-0.53369 -1.54474,-1.04405 -2.32505,-1.53239 -0.78032,-0.48834 -1.565464,-0.95437 -2.354854,-1.39917 -0.789392,-0.44481 -1.582974,-0.86848 -2.379745,-1.27155 -0.796769,-0.40308 -1.596923,-0.7857 -2.399374,-1.14886 -0.80245,-0.36316 -1.607318,-0.70674 -2.41375,-1.03177 -0.806432,-0.32503 -1.6145,-0.63156 -2.423215,-0.92026 -0.808715,-0.28873 -1.618124,-0.55986 -2.427422,-0.81406 -0.809297,-0.25419 -1.618189,-0.49161 -2.426369,-0.71307 -1.307858,-0.3584 -2.609517,-0.64768 -3.908628,-0.92659 z"
         style="opacity:1;vector-effect:none;fill:#ffffff;fill-opacity:1;stroke:none;stroke-width:0.2209079;stroke-linecap:butt;stroke-linejoin:miter;stroke-miterlimit:4;stroke-dasharray:none;stroke-dashoffset:0;stroke-opacity:1" />
      <path
         inkscape:connector-curvature="0"
         id="path1754"
         d="M 31.997668,195.587 C 13.962255,208.29127 1.7646343,226.97241 1.7646343,226.97241 l 27.4192707,32.71304 c 10.135711,-13.85792 37.338618,-35.44478 37.338618,-35.44478 -3.274381,-10.98621 -11.321858,-21.35805 -17.217729,-27.91184 -0.948213,0.0992 -2.024912,0.18549 -2.881073,0.28748 -0.829307,0.0988 -1.624647,0.17677 -2.387456,0.23525 -0.762808,0.0585 -1.493337,0.0973 -2.192884,0.11814 -0.699544,0.0209 -1.368256,0.0238 -2.007775,0.01 -0.639519,-0.014 -1.249758,-0.0444 -1.832487,-0.0905 -0.58273,-0.046 -1.137836,-0.10763 -1.667012,-0.183 -0.529175,-0.0754 -1.032497,-0.16483 -1.511354,-0.26679 -0.478858,-0.10195 -0.933385,-0.21636 -1.365162,-0.34217 -0.431778,-0.1258 -0.840853,-0.26293 -1.228786,-0.40983 -0.08239,-0.0312 -0.152745,-0.0681 -0.233137,-0.10027 z"
         style="opacity:1;vector-effect:none;fill:#ffffff;fill-opacity:1;stroke:none;stroke-width:0.15243001;stroke-linecap:butt;stroke-linejoin:miter;stroke-miterlimit:4;stroke-dasharray:none;stroke-dashoffset:0;stroke-opacity:1" />
      <path
         inkscape:connector-curvature="0"
         id="path1739"
         d="m 27.503217,182.7617 c -0.186444,-0.0415 -0.928325,-0.23068 -0.928325,-0.23068 0,0 -12.901035,9.75364 -13.305246,24.39903 13.417055,-3.75309 30.363452,14.20027 30.363452,14.20027 9.744805,-7.61966 15.440633,-22.88662 15.440633,-22.88662 -0.945223,-0.87375 -1.941692,-1.69122 -2.958902,-2.4814 -1.019166,0.0545 -2.03442,0.11148 -2.993961,0.18545 -2.456605,0.18937 -4.706964,0.43148 -6.697147,0.66856 -0.829307,0.0988 -1.624647,0.17677 -2.387456,0.23525 -0.762808,0.0585 -1.493337,0.0973 -2.192884,0.11814 -0.699544,0.0209 -1.368256,0.0238 -2.007775,0.01 -0.639519,-0.014 -1.249758,-0.0444 -1.832487,-0.0905 -0.58273,-0.046 -1.137836,-0.10763 -1.667012,-0.183 -0.529175,-0.0754 -1.032497,-0.16483 -1.511354,-0.26679 -0.478858,-0.10195 -0.933385,-0.21636 -1.365162,-0.34217 -0.431778,-0.1258 -0.840853,-0.26293 -1.228786,-0.40983 -0.387933,-0.14688 -0.753338,-0.30511 -1.09767,-0.47222 -0.34433,-0.16713 -0.66752,-0.34302 -0.970054,-0.52554 -0.302543,-0.18249 -0.584461,-0.37138 -0.847012,-0.56443 -0.262551,-0.19305 -0.505519,-0.39024 -0.729909,-0.58896 -0.448743,-0.39746 -0.823013,-0.80157 -1.129918,-1.19269 -0.306904,-0.39111 -0.546498,-0.76922 -0.726049,-1.1152 a 2.738559,2.738559 0 0 1 -0.09431,-0.20123 2.738559,2.738559 0 0 1 -0.09325,-0.25733 2.738559,2.738559 0 0 1 -0.06697,-0.26538 2.738559,2.738559 0 0 1 -0.04031,-0.27065 2.738559,2.738559 0 0 1 -0.01292,-0.27346 c 0.0018,-0.71983 0.04148,-1.46047 0.118145,-2.21847 0.07668,-0.758 0.190196,-1.53355 0.338676,-2.3233 0.148462,-0.78975 0.33189,-1.59377 0.549011,-2.40884 0.02174,-0.0816 0.05261,-0.16603 0.07501,-0.24786 z"
         style="opacity:1;vector-effect:none;fill:#ececec;fill-opacity:1;stroke:none;stroke-width:0.09924469;stroke-linecap:butt;stroke-linejoin:miter;stroke-miterlimit:4;stroke-dasharray:none;stroke-dashoffset:0;stroke-opacity:1" />
      <path
         inkscape:connector-curvature="0"
         id="path1742"
         d="M 61.624908,195.60208 C 39.430127,207.77859 23.248572,224.9727 23.248572,224.9727 l 27.357229,47.70074 c 15.99508,-15.27665 55.386519,-36.48601 55.386519,-36.48601 -1.4067,-12.41943 -7.265341,-25.10252 -12.665786,-34.56237 -0.630388,-0.27837 -1.261111,-0.55447 -1.893837,-0.8095 -0.806432,-0.32503 -1.614501,-0.63156 -2.423216,-0.92026 -0.808714,-0.28873 -1.618124,-0.55986 -2.427422,-0.81406 -0.809296,-0.25419 -1.618189,-0.49161 -2.426369,-0.71307 -1.616363,-0.44295 -3.22895,-0.82212 -4.830654,-1.145 -1.601705,-0.3229 -3.192695,-0.58943 -4.766148,-0.8067 -1.573453,-0.21724 -3.129363,-0.38511 -4.660971,-0.51113 -1.531611,-0.12605 -3.038962,-0.21021 -4.515132,-0.25943 -1.281637,-0.0428 -2.5276,-0.0488 -3.757877,-0.0438 z"
         style="opacity:1;vector-effect:none;fill:#b3b3b3;fill-opacity:1;stroke:none;stroke-width:0.19637078;stroke-linecap:butt;stroke-linejoin:miter;stroke-miterlimit:4;stroke-dasharray:none;stroke-dashoffset:0;stroke-opacity:1" />
      <g
         aria-label="CODE"
         transform="matrix(-0.40625649,-0.543326,-0.543326,0.40625649,117.61914,-73.376585)"
         style="font-style:normal;font-variant:normal;font-weight:normal;font-stretch:normal;font-size:15.55919743px;line-height:1.25;font-family:sans-serif;font-variant-ligatures:normal;font-variant-position:normal;font-variant-caps:normal;font-variant-numeric:normal;font-variant-alternates:normal;font-feature-settings:normal;text-indent:0;text-align:start;text-decoration:none;text-decoration-line:none;text-decoration-style:solid;text-decoration-color:#000000;letter-spacing:0px;word-spacing:0px;text-transform:none;writing-mode:lr-tb;direction:ltr;text-orientation:mixed;dominant-baseline:auto;baseline-shift:baseline;text-anchor:start;white-space:normal;shape-padding:0;opacity:1;vector-effect:none;fill:#ffffff;fill-opacity:1;stroke:none;stroke-width:0.38897994;stroke-linecap:butt;stroke-linejoin:miter;stroke-miterlimit:4;stroke-dasharray:none;stroke-dashoffset:0;stroke-opacity:1"
         id="g9010">
        <path
           d="m -322.45681,331.70114 q 0,-0.31909 0.12156,-0.60018 0.12155,-0.2887 0.33428,-0.49383 0.21272,-0.21272 0.49382,-0.33428 0.28869,-0.12915 0.60778,-0.12915 h 5.91067 q 0.31909,0 0.60019,0.12915 0.28869,0.12156 0.50142,0.33428 0.21272,0.20513 0.33427,0.49383 0.12156,0.28109 0.12156,0.60018 v 1.40549 h -1.55744 v -1.40549 h -5.91067 v 7.7796 h 5.91067 v -1.3979 h 1.55744 v 1.3979 q 0,0.31908 -0.12156,0.60778 -0.12155,0.2811 -0.33427,0.49382 -0.21273,0.21273 -0.50142,0.33428 -0.2811,0.12156 -0.60019,0.12156 h -5.91067 q -0.31909,0 -0.60778,-0.12156 -0.2811,-0.12155 -0.49382,-0.33428 -0.21273,-0.21272 -0.33428,-0.49382 -0.12156,-0.2887 -0.12156,-0.60778 z"
           style="font-style:normal;font-variant:normal;font-weight:normal;font-stretch:normal;font-family:Aldrich;-inkscape-font-specification:Aldrich;fill:#ffffff;stroke-width:0.38897994"
           id="path9002"
           inkscape:connector-curvature="0" />
        <path
           d="m -301.60232,339.48074 q 0,0.31908 -0.12155,0.60778 -0.12156,0.2811 -0.33428,0.49382 -0.21273,0.21273 -0.50142,0.33428 -0.2811,0.12156 -0.60019,0.12156 h -6.22216 q -0.31908,0 -0.60778,-0.12156 -0.2811,-0.12155 -0.49382,-0.33428 -0.21272,-0.21272 -0.33428,-0.49382 -0.12156,-0.2887 -0.12156,-0.60778 v -7.7796 q 0,-0.31909 0.12156,-0.60018 0.12156,-0.2887 0.33428,-0.49383 0.21272,-0.21272 0.49382,-0.33428 0.2887,-0.12915 0.60778,-0.12915 h 6.22216 q 0.31909,0 0.60019,0.12915 0.28869,0.12156 0.50142,0.33428 0.21272,0.20513 0.33428,0.49383 0.12155,0.28109 0.12155,0.60018 z m -7.7796,-7.7796 v 7.7796 h 6.22216 v -7.7796 z"
           style="font-style:normal;font-variant:normal;font-weight:normal;font-stretch:normal;font-family:Aldrich;-inkscape-font-specification:Aldrich;fill:#ffffff;stroke-width:0.38897994"
           id="path9004"
           inkscape:connector-curvature="0" />
        <path
           d="m -293.27572,339.48074 q 1.08641,0 1.6714,-0.58499 0.58499,-0.58499 0.58499,-1.6714 v -3.26682 q 0,-0.53181 -0.15194,-0.94966 -0.15195,-0.41785 -0.44824,-0.70655 -0.2887,-0.29629 -0.70655,-0.44824 -0.41785,-0.15194 -0.94966,-0.15194 h -3.98096 v 7.7796 z m -5.5384,1.55744 V 330.1437 h 5.5384 q 0.87369,0 1.57264,0.2735 0.70654,0.26591 1.20036,0.76733 0.50142,0.49382 0.76733,1.20036 0.2735,0.70655 0.2735,1.57264 v 3.26682 q 0,0.86609 -0.2735,1.57263 -0.26591,0.70655 -0.76733,1.20797 -0.49382,0.49382 -1.20036,0.76732 -0.69895,0.26591 -1.57264,0.26591 z"
           style="font-style:normal;font-variant:normal;font-weight:normal;font-stretch:normal;font-family:Aldrich;-inkscape-font-specification:Aldrich;fill:#ffffff;stroke-width:0.38897994"
           id="path9006"
           inkscape:connector-curvature="0" />
        <path
           d="m -286.96239,330.1437 h 7.93914 v 1.55744 h -6.3817 v 3.11488 h 5.44724 v 1.55744 h -5.44724 v 3.10728 h 6.3817 v 1.55744 h -7.93914 z"
           style="font-style:normal;font-variant:normal;font-weight:normal;font-stretch:normal;font-family:Aldrich;-inkscape-font-specification:Aldrich;fill:#ffffff;stroke-width:0.38897994"
           id="path9008"
           inkscape:connector-curvature="0" />
      </g>
      <path
         sodipodi:nodetypes="ccccc"
         inkscape:connector-curvature="0"
         id="path2922"
         d="m 109.95397,271.34741 c 0,0 -18.016263,-23.46202 -60.831078,-23.46241 l 23.832293,-49.55608 c 0,0 39.817505,6.09887 65.804405,27.77271 0,0 -10.31744,29.20605 -28.80562,45.24578 z"
         style="opacity:1;vector-effect:none;fill:#ffffff;fill-opacity:1;stroke:none;stroke-width:0.1963708;stroke-linecap:butt;stroke-linejoin:miter;stroke-miterlimit:4;stroke-dasharray:none;stroke-dashoffset:0;stroke-opacity:1" />
      <path
         style="opacity:1;vector-effect:none;fill:#ececec;fill-opacity:1;stroke:none;stroke-width:0.15474418;stroke-linecap:butt;stroke-linejoin:miter;stroke-miterlimit:4;stroke-dasharray:none;stroke-dashoffset:0;stroke-opacity:1"
         d="m 130.44844,250.57864 c 0,0 -12.64346,-32.90965 -22.98675,-46.93852 l 40.01897,-16.61863 c 0,0 20.20248,24.48415 24.10071,50.86345 0,0 -21.84714,12.97005 -41.13293,12.6937 z"
         id="path2924"
         inkscape:connector-curvature="0" />
      <path
         inkscape:connector-curvature="0"
         id="path2920"
         d="m 102.77905,273.17108 c 0,0 -12.643463,-32.90964 -22.986754,-46.93851 l 40.018964,-16.61864 c 0,0 20.20248,24.48415 24.10071,50.86345 0,0 -21.84714,12.97006 -41.13292,12.6937 z"
         style="opacity:1;vector-effect:none;fill:#cccccc;fill-opacity:1;stroke:none;stroke-width:0.15474418;stroke-linecap:butt;stroke-linejoin:miter;stroke-miterlimit:4;stroke-dasharray:none;stroke-dashoffset:0;stroke-opacity:1" />
      <path
         sodipodi:nodetypes="ccccc"
         style="opacity:1;vector-effect:none;fill:#ececec;fill-opacity:1;stroke:none;stroke-width:0.08272269;stroke-linecap:butt;stroke-linejoin:miter;stroke-miterlimit:4;stroke-dasharray:none;stroke-dashoffset:0;stroke-opacity:1"
         d="m 190.39326,208.71177 c 0,0 8.12894,22.72997 19.50878,20.0007 -7.72331,12.45768 -17.54958,15.11974 -17.54958,15.11974 0,0 -14.34671,-9.06204 -20.72966,-21.80803 0,0 8.93007,-10.23356 18.77046,-13.31241 z"
         id="path2934"
         inkscape:connector-curvature="0" />
      <path
         sodipodi:nodetypes="ccccc"
         inkscape:connector-curvature="0"
         id="path2936"
         d="m 11.789868,257.85853 c 0,0 13.993654,-7.50364 7.373806,-34.49128 l 28.164361,7.86776 c 0,0 0.511241,21.41547 -8.419216,37.03844 0,0 -18.26985,0.94611 -27.118951,-10.41492 z"
         style="opacity:1;vector-effect:none;fill:#cccccc;fill-opacity:1;stroke:none;stroke-width:0.10442839;stroke-linecap:butt;stroke-linejoin:miter;stroke-miterlimit:4;stroke-dasharray:none;stroke-dashoffset:0;stroke-opacity:1" />
      <g
         style="fill:#37c736;fill-opacity:1"
         transform="matrix(1.9297742,-0.11459069,0.11459069,1.9297742,-548.42138,-605.11825)"
         id="g1602">
        <path
           style="opacity:1;vector-effect:none;fill:#fe0000;fill-opacity:1;stroke:none;stroke-width:1.21368933;stroke-linecap:butt;stroke-linejoin:miter;stroke-miterlimit:4;stroke-dasharray:none;stroke-dashoffset:0;stroke-opacity:1"
           d="m 1112.6925,2820.4499 c -59.682,1.423 -114.46195,37.039 -131.74914,73.3118 0.27964,7.6958 6.1976,27.5072 55.60744,44.0899 62.7933,21.0743 192.105,71.9724 225.2461,214.6074 0,0 14.1926,-12.7293 9.1347,-28.6621 -2.41,-7.5918 -9.1908,-27.0967 -20.1777,-49.4258 2.518,-2.3535 4.4492,-5.2402 4.4492,-5.2402 0,0 32.705,-35.1226 40.376,-64.6537 7.671,-29.5311 -5.5067,-82.6358 -55.1796,-126.5097 -40.0113,-30.2038 -81.02,-57.3323 -127.707,-57.5176 z"
           transform="matrix(0.11756648,-0.04737454,0.04737454,0.11756648,21.452858,134.53462)"
           id="path1600"
           inkscape:connector-curvature="0"
           sodipodi:nodetypes="cccccccscc" />
      </g>
      <g
         transform="matrix(0.40014019,0.09367266,-0.13313895,0.42361855,205.27637,10.098225)"
         id="g1619">
        <path
           inkscape:connector-curvature="0"
           id="path1604"
           d="m -176.61352,437.90286 c -0.0689,0.005 -0.15637,0.0354 -0.28655,0.0859 -0.20602,0.0799 -0.85454,0.30208 -1.44104,0.49351 -0.5865,0.19141 -1.12951,0.39744 -1.20668,0.45776 -0.20028,0.15657 -0.20588,18.49283 -0.006,18.69301 0.0912,0.0912 0.61447,0.13483 1.61972,0.13483 1.87319,0 1.83528,0.0295 1.84444,-1.43929 l 0.007,-1.08632 1.32879,-1.20668 c 0.75412,-0.6848 1.42541,-1.20668 1.5522,-1.20668 0.13975,0 1.15741,0.91426 2.71766,2.44142 l 2.49448,2.44143 1.64318,0.0561 c 1.87449,0.064 2.00158,0.05 2.15597,-0.23853 0.15668,-0.29276 0.0362,-0.47461 -0.92298,-1.39062 -4.6358,-4.4271 -5.59493,-5.39007 -5.59493,-5.61838 0,-0.22487 0.73183,-1.00921 2.154,-2.30835 0.22779,-0.20807 1.32582,-1.23689 2.44011,-2.28642 2.68919,-2.53291 2.6895,-2.63786 0.007,-2.63786 h -1.58705 l -0.97407,0.92431 c -0.53568,0.50838 -1.52949,1.45928 -2.20859,2.11323 -4.55118,4.38251 -4.70315,4.50567 -5.08498,4.12383 -0.1014,-0.10138 -0.13462,-1.61107 -0.13462,-6.10508 0,-5.71257 -0.009,-5.98199 -0.21463,-6.23554 -0.12435,-0.15347 -0.18787,-0.21437 -0.30276,-0.20564 z"
           style="fill:#ffffff;stroke-width:0.11224927" />
        <path
           inkscape:connector-curvature="0"
           id="path1606"
           d="m -152.41153,438.23654 c -1.03768,0 -1.56981,0.043 -1.66137,0.13461 -0.19518,0.19517 -0.19518,19.17901 0,19.37418 0.0909,0.0909 0.60799,0.13483 1.59078,0.13483 1.19732,0 1.49258,-0.0331 1.66138,-0.18591 0.19577,-0.17718 0.2052,-0.6248 0.2052,-9.68699 0,-7.24027 -0.032,-9.53347 -0.13461,-9.63611 -0.0916,-0.0916 -0.62369,-0.13461 -1.66138,-0.13461 z"
           style="fill:#ffffff;stroke-width:0.11224927" />
        <path
           inkscape:connector-curvature="0"
           id="path1608"
           d="m -145.67657,438.23654 c -1.03768,0 -1.56982,0.043 -1.66138,0.13461 -0.19892,0.19891 -0.19443,18.96734 0.005,19.28605 0.12781,0.20464 0.26437,0.22296 1.66137,0.22296 1.03415,0 1.56525,-0.0433 1.65678,-0.13483 0.19517,-0.19517 0.19517,-19.17901 0,-19.37418 -0.0916,-0.0916 -0.6237,-0.13461 -1.66138,-0.13461 z"
           style="fill:#ffffff;stroke-width:0.11224927" />
        <path
           inkscape:connector-curvature="0"
           id="path1610"
           d="m -159.30039,438.34879 c -1.92844,0 -1.86658,-0.0583 -1.86658,1.75718 v 1.3858 h 1.79599 1.79599 v -1.43689 c 0,-0.96783 -0.0439,-1.48074 -0.13462,-1.57149 -0.0909,-0.0909 -0.60799,-0.1346 -1.59078,-0.1346 z"
           style="fill:#ffffff;stroke-width:0.11224927" />
        <path
           inkscape:connector-curvature="0"
           id="path1612"
           d="m -161.16697,443.06326 v 7.15896 c 0,6.29776 0.021,7.18899 0.17473,7.40845 0.16487,0.23539 0.25481,0.24949 1.59078,0.24949 1.16006,0 1.45308,-0.0337 1.62126,-0.18591 0.19479,-0.17631 0.20521,-0.55379 0.20521,-7.40845 v -7.22254 h -1.79599 z"
           style="fill:#ffffff;stroke-width:0.11224927" />
        <path
           inkscape:connector-curvature="0"
           id="path1614"
           d="m -138.33674,443.13866 c -1.5564,0.0213 -1.95063,0.0653 -2.07968,0.15565 -0.23539,0.16487 -0.24949,0.25459 -0.24949,1.59056 0,1.16007 0.0335,1.45309 0.18569,1.62126 0.11096,0.1226 0.30854,0.17214 2.14348,0.19205 h 5.98846 c -0.0547,0.0488 -0.11595,0.10187 -0.16728,0.14843 l -6.79722,6.3366 c -0.49798,0.573 -1.34018,1.17831 -1.34018,1.91832 -0.0104,0.21682 -0.0129,0.51245 -0.0129,0.95215 0,1.16006 0.0335,1.45309 0.18569,1.62126 0.11096,0.1226 0.30854,0.17213 2.14348,0.19204 h 9.29279 c 1.83477,-0.0199 2.03231,-0.0695 2.14326,-0.19204 0.1522,-0.16817 0.18592,-0.4612 0.18592,-1.62126 0,-1.33597 -0.0141,-1.42569 -0.2495,-1.59057 -0.12905,-0.0904 -0.52328,-0.13432 -2.07968,-0.15565 h -6.2546 l 5.21016,-4.8572 c 1.01363,-1.02404 2.1691,-1.95312 3.1877,-2.94418 0.1522,-0.16817 0.18592,-0.46119 0.18592,-1.62126 0,-1.33597 -0.0141,-1.42569 -0.2495,-1.59056 -0.12905,-0.0904 -0.52328,-0.13433 -2.07968,-0.15565 z"
           style="fill:#ffffff;fill-opacity:1;stroke-width:0.11224927" />
        <path
           inkscape:connector-curvature="0"
           id="path1617"
           d="m -188.8123,443.40327 c -2.97664,0.002 -5.79092,0.0523 -6.25395,0.11181 -1.06392,0.13669 -2.19359,0.67661 -2.55389,1.22071 -0.42673,0.64443 -0.50162,1.16818 -0.45097,3.15022 0.0409,1.602 0.0823,1.94302 0.3032,2.49185 0.33118,0.82273 0.70574,1.16894 1.65151,1.52654 0.76587,0.28958 0.79003,0.29126 5.05144,0.35516 4.07493,0.0611 4.29399,0.075 4.52965,0.28853 0.21105,0.19118 0.24041,0.31202 0.19841,0.81841 -0.0588,0.70965 -0.34924,1.14942 -0.88243,1.33624 -0.27368,0.0959 -1.8426,0.13577 -5.52016,0.14032 l -5.13782,0.006 -0.10041,0.25256 c -0.0553,0.13891 -0.18569,0.72264 -0.28983,1.29723 -0.17974,0.99152 -0.17945,1.05578 0.008,1.26281 0.19057,0.21058 0.39568,0.21803 5.93277,0.21769 4.67625,-2.9e-4 5.92202,-0.0326 6.7457,-0.17472 2.49056,-0.4299 3.06731,-1.29618 2.95181,-4.43429 -0.0728,-1.97776 -0.41518,-2.65785 -1.60767,-3.19385 -0.9087,-0.40844 -1.94589,-0.50296 -5.51885,-0.50381 -2.00216,-3.7e-4 -3.51747,-0.0483 -3.77284,-0.11925 -0.59989,-0.16659 -0.86315,-0.63406 -0.86358,-1.53401 -3.7e-4,-0.61483 0.0394,-0.74429 0.3271,-1.06637 l 0.32732,-0.36656 5.00277,-0.0324 c 4.58643,-0.0298 5.01141,-0.0485 5.10493,-0.2245 0.19678,-0.37044 0.46149,-2.39726 0.34223,-2.6201 -0.10739,-0.20067 -0.35058,-0.20991 -5.52433,-0.20652 z"
           style="fill:#ffffff;stroke-width:0.11224927" />
      </g>
      <g
         id="text1625"
         style="font-style:normal;font-variant:normal;font-weight:normal;font-stretch:normal;font-size:15.55919743px;line-height:1.25;font-family:sans-serif;font-variant-ligatures:normal;font-variant-position:normal;font-variant-caps:normal;font-variant-numeric:normal;font-variant-alternates:normal;font-feature-settings:normal;text-indent:0;text-align:start;text-decoration:none;text-decoration-line:none;text-decoration-style:solid;text-decoration-color:#000000;letter-spacing:0px;word-spacing:0px;text-transform:none;writing-mode:lr-tb;direction:ltr;text-orientation:mixed;dominant-baseline:auto;baseline-shift:baseline;text-anchor:start;white-space:normal;shape-padding:0;opacity:1;vector-effect:none;fill:#999999;fill-opacity:1;stroke:none;stroke-width:0.38897994;stroke-linecap:butt;stroke-linejoin:miter;stroke-miterlimit:4;stroke-dasharray:none;stroke-dashoffset:0;stroke-opacity:1"
         transform="matrix(0.61941301,-0.27672189,0.27672189,0.61941301,209.83017,-46.186558)"
         aria-label="CODE">
        <path
           inkscape:connector-curvature="0"
           id="path1640"
           style="font-style:normal;font-variant:normal;font-weight:normal;font-stretch:normal;font-family:Aldrich;-inkscape-font-specification:Aldrich;fill:#999999;stroke-width:0.38897994"
           d="m -322.45681,331.70114 q 0,-0.31909 0.12156,-0.60018 0.12155,-0.2887 0.33428,-0.49383 0.21272,-0.21272 0.49382,-0.33428 0.28869,-0.12915 0.60778,-0.12915 h 5.91067 q 0.31909,0 0.60019,0.12915 0.28869,0.12156 0.50142,0.33428 0.21272,0.20513 0.33427,0.49383 0.12156,0.28109 0.12156,0.60018 v 1.40549 h -1.55744 v -1.40549 h -5.91067 v 7.7796 h 5.91067 v -1.3979 h 1.55744 v 1.3979 q 0,0.31908 -0.12156,0.60778 -0.12155,0.2811 -0.33427,0.49382 -0.21273,0.21273 -0.50142,0.33428 -0.2811,0.12156 -0.60019,0.12156 h -5.91067 q -0.31909,0 -0.60778,-0.12156 -0.2811,-0.12155 -0.49382,-0.33428 -0.21273,-0.21272 -0.33428,-0.49382 -0.12156,-0.2887 -0.12156,-0.60778 z" />
        <path
           inkscape:connector-curvature="0"
           id="path1642"
           style="font-style:normal;font-variant:normal;font-weight:normal;font-stretch:normal;font-family:Aldrich;-inkscape-font-specification:Aldrich;fill:#999999;stroke-width:0.38897994"
           d="m -301.60232,339.48074 q 0,0.31908 -0.12155,0.60778 -0.12156,0.2811 -0.33428,0.49382 -0.21273,0.21273 -0.50142,0.33428 -0.2811,0.12156 -0.60019,0.12156 h -6.22216 q -0.31908,0 -0.60778,-0.12156 -0.2811,-0.12155 -0.49382,-0.33428 -0.21272,-0.21272 -0.33428,-0.49382 -0.12156,-0.2887 -0.12156,-0.60778 v -7.7796 q 0,-0.31909 0.12156,-0.60018 0.12156,-0.2887 0.33428,-0.49383 0.21272,-0.21272 0.49382,-0.33428 0.2887,-0.12915 0.60778,-0.12915 h 6.22216 q 0.31909,0 0.60019,0.12915 0.28869,0.12156 0.50142,0.33428 0.21272,0.20513 0.33428,0.49383 0.12155,0.28109 0.12155,0.60018 z m -7.7796,-7.7796 v 7.7796 h 6.22216 v -7.7796 z" />
        <path
           inkscape:connector-curvature="0"
           id="path1644"
           style="font-style:normal;font-variant:normal;font-weight:normal;font-stretch:normal;font-family:Aldrich;-inkscape-font-specification:Aldrich;fill:#999999;stroke-width:0.38897994"
           d="m -293.27572,339.48074 q 1.08641,0 1.6714,-0.58499 0.58499,-0.58499 0.58499,-1.6714 v -3.26682 q 0,-0.53181 -0.15194,-0.94966 -0.15195,-0.41785 -0.44824,-0.70655 -0.2887,-0.29629 -0.70655,-0.44824 -0.41785,-0.15194 -0.94966,-0.15194 h -3.98096 v 7.7796 z m -5.5384,1.55744 V 330.1437 h 5.5384 q 0.87369,0 1.57264,0.2735 0.70654,0.26591 1.20036,0.76733 0.50142,0.49382 0.76733,1.20036 0.2735,0.70655 0.2735,1.57264 v 3.26682 q 0,0.86609 -0.2735,1.57263 -0.26591,0.70655 -0.76733,1.20797 -0.49382,0.49382 -1.20036,0.76732 -0.69895,0.26591 -1.57264,0.26591 z" />
        <path
           inkscape:connector-curvature="0"
           id="path1646"
           style="font-style:normal;font-variant:normal;font-weight:normal;font-stretch:normal;font-family:Aldrich;-inkscape-font-specification:Aldrich;fill:#999999;stroke-width:0.38897994"
           d="m -286.96239,330.1437 h 7.93914 v 1.55744 h -6.3817 v 3.11488 h 5.44724 v 1.55744 h -5.44724 v 3.10728 h 6.3817 v 1.55744 h -7.93914 z" />
      </g>
      <g
         id="text1629"
         style="font-style:normal;font-variant:normal;font-weight:normal;font-stretch:normal;font-size:15.55919743px;line-height:1.25;font-family:sans-serif;font-variant-ligatures:normal;font-variant-position:normal;font-variant-caps:normal;font-variant-numeric:normal;font-variant-alternates:normal;font-feature-settings:normal;text-indent:0;text-align:start;text-decoration:none;text-decoration-line:none;text-decoration-style:solid;text-decoration-color:#000000;letter-spacing:0px;word-spacing:0px;text-transform:none;writing-mode:lr-tb;direction:ltr;text-orientation:mixed;dominant-baseline:auto;baseline-shift:baseline;text-anchor:start;white-space:normal;shape-padding:0;opacity:1;vector-effect:none;fill:#999999;fill-opacity:1;stroke:none;stroke-width:0.38897994;stroke-linecap:butt;stroke-linejoin:miter;stroke-miterlimit:4;stroke-dasharray:none;stroke-dashoffset:0;stroke-opacity:1"
         transform="matrix(0.61941301,-0.27672189,0.27672189,0.61941301,209.83017,-46.186558)"
         aria-label="CODE">
        <path
           inkscape:connector-curvature="0"
           id="path1631"
           style="font-style:normal;font-variant:normal;font-weight:normal;font-stretch:normal;font-family:Aldrich;-inkscape-font-specification:Aldrich;fill:#999999;stroke-width:0.38897994"
           d="m -266.21645,310.89532 q 0,-0.31908 0.12155,-0.60018 0.12156,-0.2887 0.33428,-0.49382 0.21273,-0.21273 0.49383,-0.33428 0.28869,-0.12916 0.60778,-0.12916 h 5.91067 q 0.31908,0 0.60018,0.12916 0.2887,0.12155 0.50142,0.33428 0.21272,0.20512 0.33428,0.49382 0.12156,0.2811 0.12156,0.60018 v 1.4055 h -1.55744 v -1.4055 h -5.91067 v 7.7796 h 5.91067 v -1.39789 h 1.55744 v 1.39789 q 0,0.31909 -0.12156,0.60778 -0.12156,0.2811 -0.33428,0.49382 -0.21272,0.21273 -0.50142,0.33428 -0.2811,0.12156 -0.60018,0.12156 h -5.91067 q -0.31909,0 -0.60778,-0.12156 -0.2811,-0.12155 -0.49383,-0.33428 -0.21272,-0.21272 -0.33428,-0.49382 -0.12155,-0.28869 -0.12155,-0.60778 z" />
        <path
           inkscape:connector-curvature="0"
           id="path1633"
           style="font-style:normal;font-variant:normal;font-weight:normal;font-stretch:normal;font-family:Aldrich;-inkscape-font-specification:Aldrich;fill:#999999;stroke-width:0.38897994"
           d="m -245.36196,318.67492 q 0,0.31909 -0.12156,0.60778 -0.12155,0.2811 -0.33428,0.49382 -0.21272,0.21273 -0.50142,0.33428 -0.2811,0.12156 -0.60018,0.12156 h -6.22216 q -0.31909,0 -0.60778,-0.12156 -0.2811,-0.12155 -0.49382,-0.33428 -0.21273,-0.21272 -0.33428,-0.49382 -0.12156,-0.28869 -0.12156,-0.60778 v -7.7796 q 0,-0.31908 0.12156,-0.60018 0.12155,-0.2887 0.33428,-0.49382 0.21272,-0.21273 0.49382,-0.33428 0.28869,-0.12916 0.60778,-0.12916 h 6.22216 q 0.31908,0 0.60018,0.12916 0.2887,0.12155 0.50142,0.33428 0.21273,0.20512 0.33428,0.49382 0.12156,0.2811 0.12156,0.60018 z m -7.7796,-7.7796 v 7.7796 h 6.22216 v -7.7796 z" />
        <path
           inkscape:connector-curvature="0"
           id="path1635"
           style="font-style:normal;font-variant:normal;font-weight:normal;font-stretch:normal;font-family:Aldrich;-inkscape-font-specification:Aldrich;fill:#999999;stroke-width:0.38897994"
           d="m -237.03536,318.67492 q 1.08641,0 1.6714,-0.58499 0.58499,-0.58499 0.58499,-1.6714 v -3.26682 q 0,-0.53181 -0.15195,-0.94966 -0.15194,-0.41785 -0.44824,-0.70654 -0.28869,-0.2963 -0.70654,-0.44824 -0.41785,-0.15195 -0.94966,-0.15195 h -3.98097 v 7.7796 z m -5.53841,1.55744 v -10.89448 h 5.53841 q 0.87369,0 1.57263,0.27351 0.70655,0.2659 1.20037,0.76732 0.50142,0.49382 0.76733,1.20037 0.2735,0.70654 0.2735,1.57263 v 3.26682 q 0,0.86609 -0.2735,1.57264 -0.26591,0.70654 -0.76733,1.20796 -0.49382,0.49383 -1.20037,0.76733 -0.69894,0.2659 -1.57263,0.2659 z" />
        <path
           inkscape:connector-curvature="0"
           id="path1637"
           style="font-style:normal;font-variant:normal;font-weight:normal;font-stretch:normal;font-family:Aldrich;-inkscape-font-specification:Aldrich;fill:#999999;stroke-width:0.38897994"
           d="m -230.72203,309.33788 h 7.93914 v 1.55744 h -6.3817 v 3.11488 h 5.44723 v 1.55744 h -5.44723 v 3.10728 h 6.3817 v 1.55744 h -7.93914 z" />
      </g>
      <path
         inkscape:connector-curvature="0"
         id="path2932"
         d="m 157.7527,227.73387 c 0,0 -8.19994,-21.34359 -14.9081,-30.44204 l 25.95436,-10.77804 c 0,0 13.10235,15.87924 15.63056,32.98757 0,0 -14.169,8.41175 -26.67682,8.23251 z"
         style="opacity:1;vector-effect:none;fill:#f9f9f9;fill-opacity:1;stroke:none;stroke-width:0.10035956;stroke-linecap:butt;stroke-linejoin:miter;stroke-miterlimit:4;stroke-dasharray:none;stroke-dashoffset:0;stroke-opacity:1" />
      <path
         style="opacity:1;vector-effect:none;fill:#cccccc;fill-opacity:1;stroke:none;stroke-width:0.10314266;stroke-linecap:butt;stroke-linejoin:miter;stroke-miterlimit:4;stroke-dasharray:none;stroke-dashoffset:0;stroke-opacity:1"
         d="m 102.76966,195.17568 c 0,0 -8.427335,-21.93548 -15.321517,-31.28623 l 26.674107,-11.07693 c 0,0 13.4657,16.31958 16.06401,33.90235 0,0 -14.56192,8.64502 -27.4166,8.46081 z"
         id="path9052"
         inkscape:connector-curvature="0" />
      <path
         inkscape:connector-curvature="0"
         id="path9054"
         d="m 85.187296,120.47023 c 0,0 8.12894,22.72997 19.508784,20.0007 -7.723314,12.45768 -17.549584,15.11974 -17.549584,15.11974 0,0 -14.34671,-9.06204 -20.72966,-21.80803 0,0 8.93007,-10.23356 18.77046,-13.31241 z"
         style="opacity:1;vector-effect:none;fill:#ececec;fill-opacity:1;stroke:none;stroke-width:0.08272269;stroke-linecap:butt;stroke-linejoin:miter;stroke-miterlimit:4;stroke-dasharray:none;stroke-dashoffset:0;stroke-opacity:1"
         sodipodi:nodetypes="ccccc" />
      <path
         style="opacity:1;vector-effect:none;fill:#cccccc;fill-opacity:1;stroke:none;stroke-width:0.06752727;stroke-linecap:butt;stroke-linejoin:miter;stroke-miterlimit:4;stroke-dasharray:none;stroke-dashoffset:0;stroke-opacity:1"
         d="m 38.480471,157.98011 c 0,0 9.048816,-4.85213 4.768177,-22.30334 l 18.21212,5.08759 c 0,0 0.330588,13.84803 -5.444177,23.95042 0,0 -11.813963,0.61179 -17.53612,-6.73467 z"
         id="path9058"
         inkscape:connector-curvature="0"
         sodipodi:nodetypes="ccccc" />
    </g>
  </g>
</svg>
