<?xml version="1.0" encoding="UTF-8" standalone="no"?>
<!-- Created with Inkscape (http://www.inkscape.org/) -->

<svg
   xmlns:dc="http://purl.org/dc/elements/1.1/"
   xmlns:cc="http://creativecommons.org/ns#"
   xmlns:rdf="http://www.w3.org/1999/02/22-rdf-syntax-ns#"
   xmlns:svg="http://www.w3.org/2000/svg"
   xmlns="http://www.w3.org/2000/svg"
   xmlns:sodipodi="http://sodipodi.sourceforge.net/DTD/sodipodi-0.dtd"
   xmlns:inkscape="http://www.inkscape.org/namespaces/inkscape"
   width="400"
   height="400"
   viewBox="0 0 105.83333 105.83334"
   version="1.1"
   id="svg15453"
   inkscape:export-filename="/home/probe/Work/Qtox/Mikeyslice/skillz-strategy-page.png"
   inkscape:export-xdpi="96"
   inkscape:export-ydpi="96"
   sodipodi:docname="skillz-match-codes.svg"
   inkscape:version="0.92.4 (5da689c313, 2019-01-14)">
  <defs
     id="defs15447" />
  <sodipodi:namedview
     id="base"
     pagecolor="#1e1e1e"
     bordercolor="#666666"
     borderopacity="1.0"
     inkscape:pageopacity="0.0"
     inkscape:pageshadow="2"
     inkscape:zoom="0.98994949"
     inkscape:cx="222.08204"
     inkscape:cy="250.80908"
     inkscape:document-units="mm"
     inkscape:current-layer="layer1"
     showgrid="false"
     units="px"
     inkscape:pagecheckerboard="true"
     borderlayer="true"
     inkscape:showpageshadow="false"
     inkscape:window-width="1920"
     inkscape:window-height="1028"
     inkscape:window-x="0"
     inkscape:window-y="0"
     inkscape:window-maximized="1" />
  <metadata
     id="metadata15450">
    <rdf:RDF>
      <cc:Work
         rdf:about="">
        <dc:format>image/svg+xml</dc:format>
        <dc:type
           rdf:resource="http://purl.org/dc/dcmitype/StillImage" />
        <dc:title></dc:title>
      </cc:Work>
    </rdf:RDF>
  </metadata>
  <g
     inkscape:label="Layer 1"
     inkscape:groupmode="layer"
     id="layer1"
     transform="translate(0,-191.16665)">
    <g
       id="g14576"
       transform="matrix(0.76661902,0,0,0.76661902,-834.55239,199.75544)">
      <g
         transform="translate(-592.66667)"
         id="g13831">
        <path
           sodipodi:nodetypes="ccscscsccc"
           style="opacity:1;vector-effect:none;fill:#000000;fill-opacity:1;fill-rule:evenodd;stroke:none;stroke-width:0.60543102;stroke-linecap:butt;stroke-linejoin:miter;stroke-miterlimit:4;stroke-dasharray:none;stroke-dashoffset:0;stroke-opacity:1"
           d="m 1721.6165,18.400635 c -0.7925,0.211184 -1.5577,0.58171 -2.2487,1.117338 l -32.7975,25.422909 c -2.7641,2.142588 -3.2644,6.092585 -1.1218,8.856688 l 46.0898,59.45944 c 2.1425,2.7641 6.0925,3.26437 8.8566,1.1218 l 32.7975,-25.422905 c 2.7641,-2.142588 3.2648,-6.092665 1.1222,-8.856796 l -46.0902,-59.459338 c -1.6069,-2.073074 -4.2304,-2.872748 -6.6079,-2.239136 z"
           id="path13774"
           inkscape:connector-curvature="0" />
        <g
           id="g5809"
           transform="rotate(-14.711115,356.03681,-1328.5749)">
          <g
             id="g5795"
             transform="matrix(0.29098464,-0.12393496,0.12393496,0.29098464,1215.4303,-0.47564858)">
            <path
               inkscape:connector-curvature="0"
               transform="matrix(0.64696436,0.27555233,-0.27555233,0.64696436,-3099.7534,-858.6321)"
               id="path5779"
               d="m 5070.8926,833.8125 c -3.8061,0.014 -7.6772,0.77531 -11.4102,2.36523 l -177.1738,75.46094 c -14.9318,6.35971 -21.8324,23.4998 -15.4727,38.43164 l 136.8047,321.20309 c 6.3597,14.9319 23.4998,21.8324 38.4317,15.4727 l 177.1738,-75.4609 c 14.9318,-6.3597 21.8343,-23.4998 15.4746,-38.4317 L 5097.9141,851.65039 c -4.7698,-11.19888 -15.6032,-17.88005 -27.0215,-17.83789 z m -3.3379,13.92773 c 1.7944,-0.007 3.5726,0.16405 5.3125,0.5 1.7399,0.33596 3.4406,0.83878 5.0781,1.49805 1.6375,0.65928 3.2119,1.47417 4.6992,2.4375 1.4873,0.96333 2.8885,2.07414 4.1778,3.32227 1.2892,1.24812 2.4664,2.63478 3.5097,4.14843 1.0434,1.51366 1.9536,3.15415 2.7032,4.91407 l 128.9941,302.86525 c 0.7496,1.7599 1.3034,3.5524 1.6719,5.3535 0.3684,1.8011 0.5519,3.6118 0.5586,5.4062 0.01,1.7945 -0.1641,3.5727 -0.5,5.3125 -0.336,1.7399 -0.8369,3.4407 -1.4961,5.0782 -0.6593,1.6375 -1.4761,3.2119 -2.4395,4.6992 -0.9633,1.4873 -2.0741,2.8885 -3.3222,4.1777 -1.2482,1.2893 -2.6329,2.4665 -4.1465,3.5098 -1.5137,1.0433 -3.1561,1.9516 -4.916,2.7012 l -162.6797,69.289 c -1.76,0.7496 -3.5525,1.3034 -5.3536,1.6719 -1.801,0.3685 -3.6118,0.552 -5.4062,0.5586 -1.7944,0.01 -3.5726,-0.164 -5.3125,-0.5 -1.7399,-0.336 -3.4406,-0.8388 -5.0781,-1.4981 -1.6375,-0.6592 -3.2119,-1.4741 -4.6992,-2.4375 -1.4873,-0.9633 -2.8885,-2.0741 -4.1778,-3.3222 -1.2892,-1.2481 -2.4664,-2.6348 -3.5097,-4.1485 -1.0434,-1.5136 -1.9516,-3.1541 -2.7012,-4.914 L 4879.5254,955.49805 c -0.7496,-1.75992 -1.3034,-3.55243 -1.6719,-5.35352 -0.3685,-1.80108 -0.55,-3.61184 -0.5566,-5.40625 -0.01,-1.79441 0.1621,-3.57261 0.498,-5.3125 0.336,-1.73988 0.8388,-3.44061 1.4981,-5.07812 0.6592,-1.63752 1.4741,-3.21192 2.4375,-4.69922 0.9633,-1.4873 2.0741,-2.8885 3.3222,-4.17774 1.2482,-1.28924 2.6348,-2.46643 4.1485,-3.50976 1.5136,-1.04334 3.1541,-1.9516 4.914,-2.70117 l 162.6817,-69.28907 c 1.7599,-0.74958 3.5524,-1.3034 5.3535,-1.67187 1.8011,-0.36847 3.6099,-0.55197 5.4043,-0.5586 z"
               style="opacity:1;vector-effect:none;fill:#fe0000;fill-opacity:1;fill-rule:evenodd;stroke:none;stroke-width:2.80961537;stroke-linecap:butt;stroke-linejoin:miter;stroke-miterlimit:4;stroke-dasharray:none;stroke-dashoffset:0;stroke-opacity:1" />
            <g
               style="fill:#fe0000;fill-opacity:1"
               transform="matrix(3.3383586,0,0,3.3383586,-354.9465,309.88832)"
               id="g5791">
              <circle
                 style="opacity:1;vector-effect:none;fill:#fe0000;fill-opacity:1;fill-rule:evenodd;stroke:none;stroke-width:0.39299998;stroke-linecap:butt;stroke-linejoin:miter;stroke-miterlimit:4;stroke-dasharray:none;stroke-dashoffset:0;stroke-opacity:1"
                 id="circle5781"
                 cx="49.828571"
                 cy="235.18507"
                 r="0.55987155" />
              <circle
                 r="0.55987155"
                 cy="235.18507"
                 cx="51.190075"
                 id="circle5783"
                 style="opacity:1;vector-effect:none;fill:#fe0000;fill-opacity:1;fill-rule:evenodd;stroke:none;stroke-width:0.39299998;stroke-linecap:butt;stroke-linejoin:miter;stroke-miterlimit:4;stroke-dasharray:none;stroke-dashoffset:0;stroke-opacity:1" />
              <circle
                 style="opacity:1;vector-effect:none;fill:#fe0000;fill-opacity:1;fill-rule:evenodd;stroke:none;stroke-width:0.39299998;stroke-linecap:butt;stroke-linejoin:miter;stroke-miterlimit:4;stroke-dasharray:none;stroke-dashoffset:0;stroke-opacity:1"
                 id="circle5785"
                 cx="52.551579"
                 cy="235.18507"
                 r="0.55987155" />
              <circle
                 r="0.55987155"
                 cy="235.18507"
                 cx="53.913082"
                 id="circle5787"
                 style="opacity:1;vector-effect:none;fill:#fe0000;fill-opacity:1;fill-rule:evenodd;stroke:none;stroke-width:0.39299998;stroke-linecap:butt;stroke-linejoin:miter;stroke-miterlimit:4;stroke-dasharray:none;stroke-dashoffset:0;stroke-opacity:1" />
              <circle
                 style="opacity:1;vector-effect:none;fill:#fe0000;fill-opacity:1;fill-rule:evenodd;stroke:none;stroke-width:0.39299998;stroke-linecap:butt;stroke-linejoin:miter;stroke-miterlimit:4;stroke-dasharray:none;stroke-dashoffset:0;stroke-opacity:1"
                 id="circle5789"
                 cx="55.274586"
                 cy="235.18507"
                 r="0.55987155" />
            </g>
            <rect
               ry="2.0285742"
               y="1097.3685"
               x="-140.54352"
               height="4.0571485"
               width="31.950043"
               id="rect5793"
               style="opacity:1;vector-effect:none;fill:#fe0000;fill-opacity:1;fill-rule:evenodd;stroke:none;stroke-width:1.99224579;stroke-linecap:butt;stroke-linejoin:miter;stroke-miterlimit:4;stroke-dasharray:none;stroke-dashoffset:0;stroke-opacity:1" />
          </g>
          <g
             transform="matrix(0.3222256,-0.13724097,0.13724097,0.3222256,1167.1056,79.1807)"
             id="g5797" />
          <g
             transform="matrix(0.3207509,-0.13661288,0.13661288,0.3207509,1136.1868,101.27167)"
             id="g5799" />
          <g
             transform="matrix(0.05442896,0.30407118,-0.30407118,0.05442896,1388.1005,326.11672)"
             id="g5807">
            <g
               transform="matrix(4.4789831,0,0,4.4789831,-105.64828,-1408.2339)"
               id="g5805"
               style="fill:#fe0000;fill-opacity:1">
              <g
                 id="g5801"
                 style="fill:#fe0000;fill-opacity:1" />
              <g
                 id="g5803"
                 transform="rotate(90,30.948557,377.2961)"
                 style="fill:#fe0000;fill-opacity:1" />
            </g>
          </g>
        </g>
        <g
           id="g5817"
           transform="matrix(-0.24747513,0.72367775,-0.72367775,-0.24747513,2624.5006,56.290769)">
          <path
             inkscape:connector-curvature="0"
             id="path5811"
             d="m 429.28673,1085.1181 c 0,0 11.33795,0.3652 19.5338,5.6216 0,0 2.06683,-6.0044 -0.0525,-9.0046 -2.11902,-3 -18.14729,-9.4106 -19.48125,3.383 z"
             style="opacity:1;vector-effect:none;fill:#fcd1ae;fill-opacity:1;stroke:none;stroke-width:2.51587796;stroke-linecap:butt;stroke-linejoin:miter;stroke-miterlimit:4;stroke-dasharray:none;stroke-dashoffset:0;stroke-opacity:1" />
          <path
             style="opacity:1;vector-effect:none;fill:#fcd1ae;fill-opacity:1;stroke:none;stroke-width:3.14392972;stroke-linecap:butt;stroke-linejoin:miter;stroke-miterlimit:4;stroke-dasharray:none;stroke-dashoffset:0;stroke-opacity:1"
             d="m 424.76303,1098.2947 c 0,0 14.02951,2.0304 23.4765,9.6984 0,0 3.40179,-7.1693 1.18709,-11.1898 -2.21433,-4.0204 -21.22775,-14.2108 -24.66374,1.4917 z"
             id="path5813"
             inkscape:connector-curvature="0" />
          <path
             sodipodi:nodetypes="ccccc"
             inkscape:connector-curvature="0"
             id="path5815"
             d="m 418.96794,1113.6541 c 0,0 7.3708,10.5418 23.47651,9.6984 0,0 3.40178,-7.1693 1.18709,-11.1899 -2.21434,-4.0203 -21.22776,-14.2108 -24.66374,1.4918 z"
             style="opacity:1;vector-effect:none;fill:#fcd1ae;fill-opacity:1;stroke:none;stroke-width:3.14392972;stroke-linecap:butt;stroke-linejoin:miter;stroke-miterlimit:4;stroke-dasharray:none;stroke-dashoffset:0;stroke-opacity:1" />
        </g>
        <g
           transform="matrix(0.72608815,-0.51217638,0.51217638,0.72608815,631.59852,844.72441)"
           id="g13096">
          <g
             id="g13086">
            <g
               transform="translate(75.028274,-6.2366071)"
               id="g13080">
              <path
                 style="opacity:1;vector-effect:none;fill:#ffcc00;fill-opacity:1;stroke:none;stroke-width:1.09400344;stroke-linecap:butt;stroke-linejoin:miter;stroke-miterlimit:4;stroke-dasharray:none;stroke-dashoffset:0;stroke-opacity:1"
                 d="m 5391.8164,-45.658206 c 0,0 -9.7242,27.715673 1.8926,40.8476561 11.6167,13.1319833 16.6689,30.3051409 17.1738,46.9726559 0.505,16.66752 28.2832,17.635045 28.2832,17.635045 0,0 27.7802,-0.967525 28.2852,-17.635045 0.5049,-16.667515 5.5551,-33.8406726 17.1718,-46.9726559 11.6168,-13.1319831 1.8946,-40.8476561 1.8946,-40.8476561 z"
                 transform="scale(0.26458333)"
                 id="path13072"
                 inkscape:connector-curvature="0"
                 sodipodi:nodetypes="cccccccc" />
              <path
                 style="opacity:1;vector-effect:none;fill:#ffcc00;fill-opacity:1;stroke:none;stroke-width:0.61227858;stroke-linecap:butt;stroke-linejoin:miter;stroke-miterlimit:4;stroke-dasharray:none;stroke-dashoffset:0;stroke-opacity:1"
                 d="m 1434.9942,16.117785 c 0,3.997628 4.1975,4.497019 4.1975,4.497019 0,0 4.1975,-0.499391 4.1975,-4.497019 0,0 -2.7818,0.646928 -4.1975,0.646928 -1.4157,0 -4.1975,-0.646928 -4.1975,-0.646928 z"
                 id="path13074"
                 inkscape:connector-curvature="0"
                 sodipodi:nodetypes="cccsc" />
              <path
                 sodipodi:nodetypes="cccsc"
                 inkscape:connector-curvature="0"
                 id="path13076"
                 d="m 1437.1324,21.105148 c 0,1.961284 2.0593,2.206291 2.0593,2.206291 0,0 2.0593,-0.245007 2.0593,-2.206291 0,0 -1.3647,0.31739 -2.0593,0.31739 -0.6946,0 -2.0593,-0.31739 -2.0593,-0.31739 z"
                 style="opacity:1;vector-effect:none;fill:#ffcc00;fill-opacity:1;stroke:none;stroke-width:0.3003912;stroke-linecap:butt;stroke-linejoin:miter;stroke-miterlimit:4;stroke-dasharray:none;stroke-dashoffset:0;stroke-opacity:1" />
              <rect
                 style="opacity:1;vector-effect:none;fill:#ffcc00;fill-opacity:1;fill-rule:evenodd;stroke:none;stroke-width:0.28945509;stroke-linecap:butt;stroke-linejoin:miter;stroke-miterlimit:4;stroke-dasharray:none;stroke-dashoffset:0;stroke-opacity:1"
                 id="rect13078"
                 width="13.029389"
                 height="4.2094951"
                 x="1432.7529"
                 y="24.06245" />
            </g>
            <path
               sodipodi:nodetypes="ccccccccccccccscc"
               inkscape:connector-curvature="0"
               id="path13082"
               d="m 1490.5781,-18.316406 -0.051,1.105468 c 0,0 -0.2205,4.41496 1.3868,8.9062505 0.8036,2.2456454 2.077,4.545902 4.1269,6.3046875 2.05,1.75878546 5.547,2.92382812 9.2034,2.92382812 L 1504.576,-1.390625 c -3.1786,0 -5.3786,-0.9506677 -7.0274,-2.3652344 -1.6487,-1.4145667 -2.7445,-3.3445873 -3.455,-5.3300781 -1.1096,-3.1005055 -1.2045,-5.6831385 -1.2129,-6.9140625 h 2.8671 c 0.2059,1.836828 0.7343,3.190416 1.4981,3.894531 0.9338,0.860791 2.1331,0.929874 2.1331,0.929874 l -0.047,-2.34003 c 0,0 -0.1494,0.04642 -0.5175,-0.292969 -0.3682,-0.339387 -0.9278,-1.158572 -0.9278,-3.349609 v -1.158203 z"
               style="color:#000000;font-style:normal;font-variant:normal;font-weight:normal;font-stretch:normal;font-size:medium;line-height:normal;font-family:sans-serif;font-variant-ligatures:normal;font-variant-position:normal;font-variant-caps:normal;font-variant-numeric:normal;font-variant-alternates:normal;font-feature-settings:normal;text-indent:0;text-align:start;text-decoration:none;text-decoration-line:none;text-decoration-style:solid;text-decoration-color:#000000;letter-spacing:normal;word-spacing:normal;text-transform:none;writing-mode:lr-tb;direction:ltr;text-orientation:mixed;dominant-baseline:auto;baseline-shift:baseline;text-anchor:start;white-space:normal;shape-padding:0;clip-rule:nonzero;display:inline;overflow:visible;visibility:visible;opacity:1;isolation:auto;mix-blend-mode:normal;color-interpolation:sRGB;color-interpolation-filters:linearRGB;solid-color:#000000;solid-opacity:1;vector-effect:none;fill:#ffcc00;fill-opacity:1;fill-rule:nonzero;stroke:none;stroke-width:2.31547451;stroke-linecap:butt;stroke-linejoin:miter;stroke-miterlimit:4;stroke-dasharray:none;stroke-dashoffset:0;stroke-opacity:1;color-rendering:auto;image-rendering:auto;shape-rendering:auto;text-rendering:auto;enable-background:accumulate" />
            <path
               style="color:#000000;font-style:normal;font-variant:normal;font-weight:normal;font-stretch:normal;font-size:medium;line-height:normal;font-family:sans-serif;font-variant-ligatures:normal;font-variant-position:normal;font-variant-caps:normal;font-variant-numeric:normal;font-variant-alternates:normal;font-feature-settings:normal;text-indent:0;text-align:start;text-decoration:none;text-decoration-line:none;text-decoration-style:solid;text-decoration-color:#000000;letter-spacing:normal;word-spacing:normal;text-transform:none;writing-mode:lr-tb;direction:ltr;text-orientation:mixed;dominant-baseline:auto;baseline-shift:baseline;text-anchor:start;white-space:normal;shape-padding:0;clip-rule:nonzero;display:inline;overflow:visible;visibility:visible;opacity:1;isolation:auto;mix-blend-mode:normal;color-interpolation:sRGB;color-interpolation-filters:linearRGB;solid-color:#000000;solid-opacity:1;vector-effect:none;fill:#ffcc00;fill-opacity:1;fill-rule:nonzero;stroke:none;stroke-width:2.31547451;stroke-linecap:butt;stroke-linejoin:miter;stroke-miterlimit:4;stroke-dasharray:none;stroke-dashoffset:0;stroke-opacity:1;color-rendering:auto;image-rendering:auto;shape-rendering:auto;text-rendering:auto;enable-background:accumulate"
               d="m 1537.7899,-18.316406 0.051,1.105468 c 0,0 0.2205,4.41496 -1.3868,8.9062505 -0.8036,2.2456454 -2.077,4.545902 -4.1269,6.3046875 -2.05,1.75878546 -5.547,2.92382812 -9.2034,2.92382812 l 0.6682,-2.31445312 c 3.1786,0 5.3786,-0.9506677 7.0274,-2.3652344 1.6487,-1.4145667 2.7445,-3.3445873 3.455,-5.3300781 1.1096,-3.1005055 1.2045,-5.6831385 1.2129,-6.9140625 h -2.8671 c -0.2059,1.836828 -0.7343,3.190416 -1.4981,3.894531 -0.9338,0.860791 -2.1331,0.929874 -2.1331,0.929874 l 0.047,-2.34003 c 0,0 0.1494,0.04642 0.5175,-0.292969 0.3682,-0.339387 0.9278,-1.158572 0.9278,-3.349609 v -1.158203 z"
               id="path13084"
               inkscape:connector-curvature="0"
               sodipodi:nodetypes="ccccccccccccccscc" />
          </g>
          <g
             aria-label="1st"
             style="font-style:normal;font-variant:normal;font-weight:normal;font-stretch:normal;font-size:10.58333302px;line-height:1.25;font-family:sans-serif;font-variant-ligatures:normal;font-variant-position:normal;font-variant-caps:normal;font-variant-numeric:normal;font-variant-alternates:normal;font-feature-settings:normal;text-indent:0;text-align:start;text-decoration:none;text-decoration-line:none;text-decoration-style:solid;text-decoration-color:#000000;letter-spacing:0px;word-spacing:0px;text-transform:none;writing-mode:lr-tb;direction:ltr;text-orientation:mixed;dominant-baseline:auto;baseline-shift:baseline;text-anchor:start;white-space:normal;shape-padding:0;opacity:1;vector-effect:none;fill:#000000;fill-opacity:1;stroke:none;stroke-width:0.26458332;stroke-linecap:butt;stroke-linejoin:miter;stroke-miterlimit:4;stroke-dasharray:none;stroke-dashoffset:0;stroke-opacity:1"
             id="g13094"
             transform="matrix(1.2408402,0,0,1.2408402,-277.83119,-19.1813)">
            <path
               d="M 1440.4658,11.438979 V 5.395896 q 0,-0.6561666 -0.5927,-0.6561666 h -0.3916 V 3.903646 h 1.45 q 1.3546,0 1.3546,1.651 v 5.884333 z"
               style="font-style:normal;font-variant:normal;font-weight:normal;font-stretch:normal;font-family:Carbon;-inkscape-font-specification:Carbon;fill:#000000;fill-opacity:1;stroke-width:0.26458332"
               id="path13088"
               inkscape:connector-curvature="0" />
            <path
               d="m 1442.9168,11.516173 z m 2.9572,-0.813571 q 0,0.537664 -0.382,0.756974 -0.3821,0.212236 -1.1107,0.212236 -0.3255,0 -0.5943,-0.0566 -0.2689,-0.04952 -0.4669,-0.169789 -0.1911,-0.127342 -0.2971,-0.325428 -0.1062,-0.205162 -0.1062,-0.509367 V 9.7829128 h 1.1107 v 0.9338382 q 0,0.318354 0.3538,0.318354 0.1768,0 0.2617,-0.08489 0.092,-0.09197 0.092,-0.304206 v -0.43862 q 0,-0.141491 -0.063,-0.2971307 -0.057,-0.1556397 -0.2051,-0.2759066 l -1.0046,-0.8206456 q -0.2688,-0.2122359 -0.3821,-0.4173972 -0.1131,-0.212236 -0.1131,-0.5305898 V 7.370498 q 0,-0.587186 0.3678,-0.813571 0.3679,-0.226385 1.1036,-0.226385 0.3255,0 0.5943,0.056596 0.2689,0.049521 0.4599,0.1768632 0.1981,0.1202671 0.3042,0.3254285 0.1061,0.1980868 0.1061,0.5022916 v 0.6579313 h -1.1107 V 7.2856038 q 0,-0.3183539 -0.3538,-0.3183539 -0.3536,0 -0.3536,0.346652 v 0.346652 q 0,0.106118 0.01,0.1839378 0.014,0.07782 0.042,0.1414906 0.028,0.063671 0.078,0.120267 0.05,0.049522 0.1274,0.1131925 l 1.0682,0.8560182 q 0.2335,0.1839377 0.3466,0.4244717 0.1204,0.2405341 0.1204,0.5801113 z"
               style="font-style:normal;font-variant:normal;font-weight:normal;font-stretch:normal;font-family:Carbon;-inkscape-font-specification:Carbon;fill:#000000;fill-opacity:1;stroke-width:0.17686325"
               id="path13090"
               inkscape:connector-curvature="0" />
            <path
               d="m 1446.0699,11.516173 z m 0.9693,0 V 7.1228894 h -0.9693 V 6.4791071 h 3.1341 v 0.6437823 h -0.9622 v 4.3932836 z"
               style="font-style:normal;font-variant:normal;font-weight:normal;font-stretch:normal;font-family:Carbon;-inkscape-font-specification:Carbon;fill:#000000;fill-opacity:1;stroke-width:0.17686325"
               id="path13092"
               inkscape:connector-curvature="0" />
          </g>
        </g>
        <g
           id="g13134"
           transform="translate(22.664606)">
          <path
             sodipodi:nodetypes="cccccccccc"
             style="opacity:1;vector-effect:none;fill:#fcd1ae;fill-opacity:1;stroke:none;stroke-width:0.41651013;stroke-linecap:butt;stroke-linejoin:miter;stroke-miterlimit:4;stroke-dasharray:none;stroke-dashoffset:0;stroke-opacity:1"
             d="m 1764.5219,55.525526 c 1.0594,0.681517 3.1351,0.732611 4.4896,0.151349 1.9815,-0.850335 4.155,-2.446169 4.4856,-4.452372 0.1172,-0.711393 -0.1737,-1.218285 -0.5878,-1.586216 -0.041,0.04423 -0.081,0.09299 -0.1222,0.136884 -0.4216,0.449924 -0.8455,0.882324 -1.2655,1.296143 -0.1228,0.175393 -0.266,0.340341 -0.4155,0.507197 0.081,0.851385 -0.8988,2.010991 -0.8988,2.010991 0.321,-0.619936 0.4581,-1.127141 0.4257,-1.520917 -1.6538,1.781763 -3.239,3.391633 -6.1111,3.456941 z"
             id="path5197"
             inkscape:connector-curvature="0" />
          <path
             sodipodi:nodetypes="ccccccccccc"
             style="opacity:1;vector-effect:none;fill:#fcd1ae;fill-opacity:1;stroke:none;stroke-width:0.41651013;stroke-linecap:butt;stroke-linejoin:miter;stroke-miterlimit:4;stroke-dasharray:none;stroke-dashoffset:0;stroke-opacity:1"
             d="m 1739.7032,25.531495 c -0.434,-0.196115 -0.9291,-0.257227 -1.4803,0.02711 -1.8072,0.931895 -2.6567,3.490889 -2.8563,5.637798 -0.1256,1.35246 0.4627,3.033528 1.1968,3.890522 -0.3944,-2.246141 0.3856,-4.33612 1.3678,-6.40213 -0.2912,0.150496 -0.6057,0.387453 -0.9462,0.7315 0,0 0.567,-0.908579 1.2427,-1.311699 0.048,-0.0907 0.097,-0.197838 0.1449,-0.282341 0.1394,-0.244 0.284,-0.464349 0.4502,-0.673989 0.2685,-0.530834 0.5773,-1.074993 0.8804,-1.616787 z"
             id="path5199"
             inkscape:connector-curvature="0" />
          <path
             inkscape:connector-curvature="0"
             style="opacity:1;vector-effect:none;fill:#fcd1ae;fill-opacity:1;stroke:none;stroke-width:0.45992923;stroke-linecap:butt;stroke-linejoin:miter;stroke-miterlimit:4;stroke-dasharray:none;stroke-dashoffset:0;stroke-opacity:1"
             d="m 1745.1718,20.15614 c -2.4027,2.406967 -4.2964,5.593112 -5.6612,8.433235 -1.3659,5.611951 -1.4953,7.36329 -1.789,9.669934 -0.1834,2.338391 -1.7587,6.401977 -0.076,11.026939 2.5624,6.566701 7.5014,9.149696 12.9703,9.437376 4.9183,0.177904 4.8588,-0.314723 7.0274,-1.208713 2.1043,-0.989064 2.5728,-3.127122 12.3706,-6.730868 1.5655,-1.489939 3.1995,-3.275636 4.5788,-5.222703 -7.8851,-19.066877 -20.47,-16.425683 -29.4208,-25.4052 z m 1.1595,7.348533 a 3.7131192,5.3848031 9.7927233 0 1 0.3763,-0.09607 3.7131192,5.3848031 9.7927233 0 1 0.3767,-0.04304 3.7131192,5.3848031 9.7927233 0 1 0.3729,0.01037 3.7131192,5.3848031 9.7927233 0 1 0.26,0.03958 3.7131192,5.3848031 9.7927233 0 1 0.3583,0.101116 3.7131192,5.3848031 9.7927233 0 1 0.3446,0.152712 3.7131192,5.3848031 9.7927233 0 1 0.3277,0.203219 3.7131192,5.3848031 9.7927233 0 1 0.3077,0.251566 3.7131192,5.3848031 9.7927233 0 1 0.2841,0.297195 3.7131192,5.3848031 9.7927233 0 1 0.258,0.340165 3.7131192,5.3848031 9.7927233 0 1 0.2293,0.379515 3.7131192,5.3848031 9.7927233 0 1 0.1983,0.415062 3.7131192,5.3848031 9.7927233 0 1 0.1653,0.446604 3.7131192,5.3848031 9.7927233 0 1 0.1308,0.4737 3.7131192,5.3848031 9.7927233 0 1 0.095,0.495966 3.7131192,5.3848031 9.7927233 0 1 0.058,0.513121 3.7131192,5.3848031 9.7927233 0 1 0.02,0.525621 3.7131192,5.3848031 9.7927233 0 1 -0.017,0.532365 3.7131192,5.3848031 9.7927233 0 1 -0.055,0.534129 3.7131192,5.3848031 9.7927233 0 1 -0.061,0.376012 3.7131192,5.3848031 9.7927233 0 1 -0.1176,0.524624 3.7131192,5.3848031 9.7927233 0 1 -0.1528,0.511761 3.7131192,5.3848031 9.7927233 0 1 -0.1863,0.494136 3.7131192,5.3848031 9.7927233 0 1 -0.2181,0.471248 3.7131192,5.3848031 9.7927233 0 1 -0.2477,0.443725 3.7131192,5.3848031 9.7927233 0 1 -0.275,0.411785 3.7131192,5.3848031 9.7927233 0 1 -0.2992,0.375854 3.7131192,5.3848031 9.7927233 0 1 -0.3207,0.336126 3.7131192,5.3848031 9.7927233 0 1 -0.339,0.293188 3.7131192,5.3848031 9.7927233 0 1 -0.3537,0.246873 3.7131192,5.3848031 9.7927233 0 1 -0.365,0.198387 3.7131192,5.3848031 9.7927233 0 1 -0.3725,0.147963 3.7131192,5.3848031 9.7927233 0 1 -0.3763,0.09608 3.7131192,5.3848031 9.7927233 0 1 -0.3768,0.04279 3.7131192,5.3848031 9.7927233 0 1 -0.3729,-0.01032 3.7131192,5.3848031 9.7927233 0 1 -0.2599,-0.03942 3.7131192,5.3848031 9.7927233 0 1 -0.3583,-0.101077 3.7131192,5.3848031 9.7927233 0 1 -0.3447,-0.152909 3.7131192,5.3848031 9.7927233 0 1 -0.3278,-0.203016 3.7131192,5.3848031 9.7927233 0 1 -0.3075,-0.251583 3.7131192,5.3848031 9.7927233 0 1 -0.2841,-0.297195 3.7131192,5.3848031 9.7927233 0 1 -0.258,-0.340154 3.7131192,5.3848031 9.7927233 0 1 -0.2293,-0.379526 3.7131192,5.3848031 9.7927233 0 1 -0.1984,-0.415051 3.7131192,5.3848031 9.7927233 0 1 -0.1653,-0.446802 3.7131192,5.3848031 9.7927233 0 1 -0.1307,-0.473502 3.7131192,5.3848031 9.7927233 0 1 -0.095,-0.495949 3.7131192,5.3848031 9.7927233 0 1 -0.058,-0.513375 3.7131192,5.3848031 9.7927233 0 1 -0.02,-0.525327 3.7131192,5.3848031 9.7927233 0 1 0.017,-0.532462 3.7131192,5.3848031 9.7927233 0 1 0.055,-0.534033 3.7131192,5.3848031 9.7927233 0 1 0.061,-0.376107 3.7131192,5.3848031 9.7927233 0 1 0.1175,-0.524624 3.7131192,5.3848031 9.7927233 0 1 0.1528,-0.511919 3.7131192,5.3848031 9.7927233 0 1 0.1864,-0.493979 3.7131192,5.3848031 9.7927233 0 1 0.218,-0.471208 3.7131192,5.3848031 9.7927233 0 1 0.2478,-0.443736 3.7131192,5.3848031 9.7927233 0 1 0.275,-0.411982 3.7131192,5.3848031 9.7927233 0 1 0.2991,-0.375894 3.7131192,5.3848031 9.7927233 0 1 0.3207,-0.336076 3.7131192,5.3848031 9.7927233 0 1 0.3389,-0.292933 3.7131192,5.3848031 9.7927233 0 1 0.3537,-0.246874 3.7131192,5.3848031 9.7927233 0 1 0.3649,-0.198386 3.7131192,5.3848031 9.7927233 0 1 0.3725,-0.147964 z m -3.6743,18.835145 c 0,0 0.099,0.01008 0.2713,0.06174 0.1721,0.05169 0.417,0.145159 0.7086,0.312191 0.1457,0.08353 0.3032,0.1854 0.4689,0.309663 0.1657,0.124313 0.3399,0.270951 0.519,0.443938 0.1792,0.172974 0.3633,0.372309 0.5493,0.601953 0.1859,0.229695 0.3735,0.489716 0.5597,0.783986 0.3724,0.588609 0.7002,1.177097 1.0376,1.72317 0.1687,0.273036 0.3399,0.535521 0.5201,0.782065 0.1802,0.246544 0.3695,0.477203 0.5748,0.686711 0.2053,0.20952 0.4265,0.397782 0.6703,0.559667 0.1219,0.08092 0.2494,0.155317 0.3834,0.22238 0.1341,0.06705 0.2748,0.126885 0.4227,0.178711 0.148,0.05185 0.3032,0.09573 0.4667,0.131053 0.1635,0.03531 0.3352,0.06197 0.5159,0.07941 0.1807,0.01749 0.3706,0.02566 0.5702,0.02394 0.1997,-0.0017 0.4093,-0.0132 0.6295,-0.03538 0,0 -0.1139,0.08004 -0.3164,0.196886 -0.2024,0.116849 -0.4933,0.270449 -0.8474,0.417195 -0.1771,0.07327 -0.37,0.145108 -0.5755,0.209587 -0.2054,0.0647 -0.4236,0.121117 -0.6508,0.166868 -0.2274,0.04495 -0.4644,0.07699 -0.7075,0.09128 -0.2432,0.01429 -0.4925,0.01077 -0.745,-0.01637 -0.2524,-0.02714 -0.5081,-0.0778 -0.7635,-0.157186 -0.2555,-0.07943 -0.5109,-0.187674 -0.763,-0.330273 -0.2521,-0.142547 -0.501,-0.319254 -0.7433,-0.535852 -0.2424,-0.216587 -0.4784,-0.472852 -0.7047,-0.774307 -0.2263,-0.301467 -0.443,-0.648192 -0.6469,-1.045395 -0.2039,-0.397243 -0.3951,-0.844981 -0.5702,-1.348801 -0.1753,-0.503825 -0.3345,-1.063709 -0.4746,-1.685042 -0.1401,-0.621293 -0.2609,-1.304056 -0.3594,-2.053725 z m 20.0853,-4.360892 a 3.7131192,5.3848027 70.627231 0 1 0.5175,-0.142849 3.7131192,5.3848027 70.627231 0 1 0.5222,-0.105775 3.7131192,5.3848027 70.627231 0 1 0.5216,-0.06747 3.7131192,5.3848027 70.627231 0 1 0.5157,-0.02849 3.7131192,5.3848027 70.627231 0 1 0.5046,0.01069 3.7131192,5.3848027 70.627231 0 1 0.4888,0.05009 3.7131192,5.3848027 70.627231 0 1 0.468,0.08852 3.7131192,5.3848027 70.627231 0 1 0.4424,0.126505 3.7131192,5.3848027 70.627231 0 1 0.4124,0.162887 3.7131192,5.3848027 70.627231 0 1 0.3782,0.197826 3.7131192,5.3848027 70.627231 0 1 0.3404,0.230722 3.7131192,5.3848027 70.627231 0 1 0.2991,0.261555 3.7131192,5.3848027 70.627231 0 1 0.255,0.28938 3.7131192,5.3848027 70.627231 0 1 0.208,0.31451 3.7131192,5.3848027 70.627231 0 1 0.1593,0.336378 3.7131192,5.3848027 70.627231 0 1 0.082,0.249618 3.7131192,5.3848027 70.627231 0 1 0.072,0.366154 3.7131192,5.3848027 70.627231 0 1 0.02,0.378539 3.7131192,5.3848027 70.627231 0 1 -0.032,0.387104 3.7131192,5.3848027 70.627231 0 1 -0.084,0.392057 3.7131192,5.3848027 70.627231 0 1 -0.1349,0.39291 3.7131192,5.3848027 70.627231 0 1 -0.1845,0.389901 3.7131192,5.3848027 70.627231 0 1 -0.2326,0.382848 3.7131192,5.3848027 70.627231 0 1 -0.2781,0.37207 3.7131192,5.3848027 70.627231 0 1 -0.3207,0.357736 3.7131192,5.3848027 70.627231 0 1 -0.3606,0.339537 3.7131192,5.3848027 70.627231 0 1 -0.3963,0.318206 3.7131192,5.3848027 70.627231 0 1 -0.4283,0.293563 3.7131192,5.3848027 70.627231 0 1 -0.4562,0.266011 3.7131192,5.3848027 70.627231 0 1 -0.4792,0.235723 3.7131192,5.3848027 70.627231 0 1 -0.4976,0.203206 3.7131192,5.3848027 70.627231 0 1 -0.3607,0.122796 3.7131192,5.3848027 70.627231 0 1 -0.5177,0.142917 3.7131192,5.3848027 70.627231 0 1 -0.5219,0.105746 3.7131192,5.3848027 70.627231 0 1 -0.5216,0.06747 3.7131192,5.3848027 70.627231 0 1 -0.5158,0.02849 3.7131192,5.3848027 70.627231 0 1 -0.5046,-0.01069 3.7131192,5.3848027 70.627231 0 1 -0.4888,-0.05009 3.7131192,5.3848027 70.627231 0 1 -0.468,-0.08852 3.7131192,5.3848027 70.627231 0 1 -0.4424,-0.126505 3.7131192,5.3848027 70.627231 0 1 -0.4124,-0.162887 3.7131192,5.3848027 70.627231 0 1 -0.3782,-0.197865 3.7131192,5.3848027 70.627231 0 1 -0.3404,-0.230723 3.7131192,5.3848027 70.627231 0 1 -0.2993,-0.261458 3.7131192,5.3848027 70.627231 0 1 -0.2547,-0.28924 3.7131192,5.3848027 70.627231 0 1 -0.2082,-0.314453 3.7131192,5.3848027 70.627231 0 1 -0.1592,-0.336632 3.7131192,5.3848027 70.627231 0 1 -0.082,-0.249657 3.7131192,5.3848027 70.627231 0 1 -0.073,-0.366042 3.7131192,5.3848027 70.627231 0 1 -0.02,-0.37837 3.7131192,5.3848027 70.627231 0 1 0.032,-0.38729 3.7131192,5.3848027 70.627231 0 1 0.084,-0.392057 3.7131192,5.3848027 70.627231 0 1 0.1349,-0.392921 3.7131192,5.3848027 70.627231 0 1 0.1847,-0.389704 3.7131192,5.3848027 70.627231 0 1 0.2324,-0.383034 3.7131192,5.3848027 70.627231 0 1 0.278,-0.372013 3.7131192,5.3848027 70.627231 0 1 0.3209,-0.357804 3.7131192,5.3848027 70.627231 0 1 0.3604,-0.339509 3.7131192,5.3848027 70.627231 0 1 0.3964,-0.318223 3.7131192,5.3848027 70.627231 0 1 0.4283,-0.293562 3.7131192,5.3848027 70.627231 0 1 0.4562,-0.266012 3.7131192,5.3848027 70.627231 0 1 0.4792,-0.235723 3.7131192,5.3848027 70.627231 0 1 0.4977,-0.203008 3.7131192,5.3848027 70.627231 0 1 0.3606,-0.123203 z"
             id="path5201" />
          <path
             sodipodi:nodetypes="ccccccccccccccccccccccccccccccccccccccccccc"
             style="opacity:1;vector-effect:none;fill:#a05a2c;fill-opacity:1;stroke:none;stroke-width:0.29723483;stroke-linecap:butt;stroke-linejoin:miter;stroke-miterlimit:4;stroke-dasharray:none;stroke-dashoffset:0;stroke-opacity:1"
             d="m 1739.9598,27.599314 c -0.6328,0.649834 -0.9259,1.592484 -2.1159,3.928085 -0.746,1.46387 -0.071,5.73039 -0.9338,8.546154 -0.5152,1.680906 -2.8798,1.716928 -2.8522,3.624817 0.1189,8.20781 7.5897,13.800194 7.6609,13.853278 l 0.01,0.008 0.01,0.008 c 2e-4,1.35e-4 0.01,0.01027 0.01,0.01072 0,0 2e-4,2.42e-4 0,1.58e-4 0,0 0.01,0.0099 0.01,0.0099 l 0.01,0.008 0.01,0.008 c 0.072,0.05112 7.6921,5.439139 15.5383,3.026918 1.8238,-0.560814 1.1226,-3.049979 2.5635,-4.057305 2.4136,-1.687482 6.6889,-2.129565 7.8522,-3.289668 1.8562,-1.850936 2.663,-2.419774 3.0866,-3.221898 -0.5829,0.525452 -1.3076,1.022367 -4.7859,1.646963 -2.3543,0.266951 -6.0535,2.541402 -8.0979,4.773878 0,0 0.3409,-0.922455 1.0884,-1.578628 -2.7665,-3.191561 -5.8104,-6.049177 -9.1334,-8.496773 -2e-4,-2.31e-4 0,-1.58e-4 0,0 -3.3513,-2.408687 -7.0068,-4.425675 -10.8947,-6.076065 -0.3943,0.913083 -1.1671,1.521342 -1.1671,1.521342 1.4951,-2.63215 2.521,-6.851692 2.0507,-9.174003 -0.4759,-3.501718 -0.226,-4.344108 0.095,-5.06034 z m 6.7258,18.599617 c 0.2068,0.148701 0.4049,0.296051 0.5902,0.438917 0.5018,0.365108 1.0134,0.806881 1.5238,1.230384 3e-4,2.71e-4 10e-5,1.98e-4 0,0 0.5601,0.35525 1.1378,0.70627 1.6397,1.071378 1.5405,1.061785 3.6284,2.769454 3.8086,4.325657 0.2884,2.489857 -2.313,1.941971 -4.1894,2.376738 -1.8729,0.433886 -3.6529,0.57563 -6.0396,-1.155299 l -0.012,-0.01106 c 0,0.0011 -0.01,-0.0076 -0.01,-0.0096 -2e-4,-1.91e-4 -2e-4,-1.91e-4 -4e-4,-4.5e-5 0,0.0011 -0.01,-0.0023 -0.013,-0.005 l -0.012,-0.01117 c -2.3812,-1.738379 -2.7941,-3.475591 -2.9575,-5.391118 -0.1636,-1.919115 -1.4853,-4.225822 0.9725,-4.717475 1.3441,-0.268957 3.2478,0.815939 4.6972,1.854447 z"
             id="path5203"
             inkscape:connector-curvature="0" />
          <path
             style="opacity:1;vector-effect:none;fill:#a05a2c;fill-opacity:1;stroke:none;stroke-width:0.1859425;stroke-linecap:butt;stroke-linejoin:miter;stroke-miterlimit:4;stroke-dasharray:none;stroke-dashoffset:0;stroke-opacity:1"
             d="m 1748.1012,21.109808 c -2.0712,-1.051328 -5.4271,-1.890688 -7.7659,1.517039 3.0893,-0.443943 4.6507,-0.50437 9.9607,3.614209 1.0732,0.666591 4.7297,2.807437 5.3324,4.418375 0,0 2.0134,-1.572633 1.7943,-2.873505 -0.821,-3.159323 -4.9565,-3.638427 -7.7642,-5.703185 -0.3195,-0.248111 -0.8669,-0.622485 -1.5573,-0.972894 z"
             id="path5205"
             inkscape:connector-curvature="0"
             sodipodi:nodetypes="cccccccc" />
          <g
             id="g5209"
             transform="matrix(1.1831725,0.82357083,-0.78840636,1.1881839,2016.9847,-368.92394)"
             style="fill:#d38d5f;fill-opacity:1">
            <path
               style="opacity:1;vector-effect:none;fill:#a05a2c;fill-opacity:1;stroke:none;stroke-width:0.50199479;stroke-linecap:butt;stroke-linejoin:miter;stroke-miterlimit:4;stroke-dasharray:none;stroke-dashoffset:0;stroke-opacity:1"
               d="m 1.8351634,342.51753 c -0.6590667,0.71988 -1.77476233,2.05762 -1.40974414,2.86879 0.36502433,0.81113 1.54148654,0.98401 1.54148654,0.98401 0,0 -0.689365,-0.64886 -1.13549994,-1.35863 -0.446137,-0.70976 1.00375754,-2.49417 1.00375754,-2.49417 z m 5.89976,0 c 0,0 1.4507916,1.78441 1.0046526,2.49417 -0.446137,0.70977 -1.1363968,1.35863 -1.1363968,1.35863 0,0 1.1764641,-0.17295 1.5414865,-0.98401 0.3650202,-0.81117 -0.7506774,-2.14891 -1.4097423,-2.86879 z m -5.5583042,2.52731 c -0.1184966,0 -0.2225474,0.0247 -0.3011269,0.078 -0.3143198,0.2129 -0.1720671,0.56815 -0.1720671,0.56815 0.6590667,-0.79085 2.1595017,0.314 2.463685,0.49654 0.2574072,0.1543 0.523969,0.16486 0.6183891,0.16486 0.095222,3e-5 0.3606536,-0.0102 0.6174878,-0.16486 0.3041832,-0.18252 1.8055193,-1.28739 2.4645799,-0.49654 0,0 0.1413572,-0.35525 -0.17296,-0.56815 -0.3143241,-0.21294 -1.0337898,0.0511 -1.4697901,0.30468 -0.4171181,0.24249 -0.9011382,0.51771 -1.4393115,0.51979 -0.538547,0 -1.0228558,-0.27715 -1.4402167,-0.51979 -0.3269982,-0.1902 -0.8131424,-0.38652 -1.1686571,-0.3827 z"
               id="path5207"
               inkscape:connector-curvature="0"
               sodipodi:nodetypes="ccccccccccccccccccccccc" />
          </g>
          <path
             sodipodi:nodetypes="ccccccccccc"
             inkscape:connector-curvature="0"
             id="path5211"
             d="m 1778.0088,42.860594 17.4224,-19.354968 -15.7806,4.114886 2.3414,-9.883199 -10.286,1.92533 1.155,-8.891393 -9.1159,3.019796 3.3142,-15.2865175 -20.4534,16.8961095 c 0,0 1.1275,4.071708 13.4531,8.975217 12.3257,4.903525 17.9498,18.484739 17.9498,18.484739 z"
             style="opacity:1;vector-effect:none;fill:#ffcc00;fill-opacity:1;stroke:none;stroke-width:0.08165716;stroke-linecap:butt;stroke-linejoin:miter;stroke-miterlimit:4;stroke-dasharray:none;stroke-dashoffset:0;stroke-opacity:1" />
          <path
             style="opacity:1;vector-effect:none;fill:#ffcc00;fill-opacity:1;stroke:none;stroke-width:0.22850402;stroke-linecap:butt;stroke-linejoin:miter;stroke-miterlimit:4;stroke-dasharray:none;stroke-dashoffset:0;stroke-opacity:1"
             d="m 1774.9805,36.964303 c 0,0 3.6766,-2.201503 6.9901,-5.129991 0,0 -2.6615,6.260676 2.9286,13.910309 7.2821,9.12121 -5.4399,4.614498 -9.9187,-8.780318 z"
             id="path5229"
             inkscape:connector-curvature="0"
             sodipodi:nodetypes="cccc" />
          <path
             sodipodi:nodetypes="cccccccc"
             inkscape:connector-curvature="0"
             id="path5231"
             d="m 1774.2483,42.224042 c 1.3814,1.867316 2.7676,5.036736 -0.2034,7.910082 -0.076,-3.12014 -0.2766,-4.6698 -5.2215,-9.220342 -0.8359,-0.947298 -3.5554,-4.196494 -5.2442,-4.522668 0,0 1.2156,-2.247125 2.5348,-2.247574 3.2519,0.28378 4.4125,4.281901 6.9158,6.70684 0.2978,0.273709 0.7581,0.751185 1.2185,1.373713 z"
             style="opacity:1;vector-effect:none;fill:#a05a2c;fill-opacity:1;stroke:none;stroke-width:0.1859425;stroke-linecap:butt;stroke-linejoin:miter;stroke-miterlimit:4;stroke-dasharray:none;stroke-dashoffset:0;stroke-opacity:1" />
          <g
             id="g5227"
             transform="matrix(0.19230703,0.17243797,-0.20128254,0.19333546,1895.1547,-30.540742)">
            <path
               style="fill:#ffffff;stroke-width:0.11224927"
               d="m -176.61352,437.90286 c -0.0689,0.005 -0.15637,0.0354 -0.28655,0.0859 -0.20602,0.0799 -0.85454,0.30208 -1.44104,0.49351 -0.5865,0.19141 -1.12951,0.39744 -1.20668,0.45776 -0.20028,0.15657 -0.20588,18.49283 -0.006,18.69301 0.0912,0.0912 0.61447,0.13483 1.61972,0.13483 1.87319,0 1.83528,0.0295 1.84444,-1.43929 l 0.007,-1.08632 1.32879,-1.20668 c 0.75412,-0.6848 1.42541,-1.20668 1.5522,-1.20668 0.13975,0 1.15741,0.91426 2.71766,2.44142 l 2.49448,2.44143 1.64318,0.0561 c 1.87449,0.064 2.00158,0.05 2.15597,-0.23853 0.15668,-0.29276 0.0362,-0.47461 -0.92298,-1.39062 -4.6358,-4.4271 -5.59493,-5.39007 -5.59493,-5.61838 0,-0.22487 0.73183,-1.00921 2.154,-2.30835 0.22779,-0.20807 1.32582,-1.23689 2.44011,-2.28642 2.68919,-2.53291 2.6895,-2.63786 0.007,-2.63786 h -1.58705 l -0.97407,0.92431 c -0.53568,0.50838 -1.52949,1.45928 -2.20859,2.11323 -4.55118,4.38251 -4.70315,4.50567 -5.08498,4.12383 -0.1014,-0.10138 -0.13462,-1.61107 -0.13462,-6.10508 0,-5.71257 -0.009,-5.98199 -0.21463,-6.23554 -0.12435,-0.15347 -0.18787,-0.21437 -0.30276,-0.20564 z"
               id="path5213"
               inkscape:connector-curvature="0" />
            <path
               style="fill:#ffffff;stroke-width:0.11224927"
               d="m -152.41153,438.23654 c -1.03768,0 -1.56981,0.043 -1.66137,0.13461 -0.19518,0.19517 -0.19518,19.17901 0,19.37418 0.0909,0.0909 0.60799,0.13483 1.59078,0.13483 1.19732,0 1.49258,-0.0331 1.66138,-0.18591 0.19577,-0.17718 0.2052,-0.6248 0.2052,-9.68699 0,-7.24027 -0.032,-9.53347 -0.13461,-9.63611 -0.0916,-0.0916 -0.62369,-0.13461 -1.66138,-0.13461 z"
               id="path5215"
               inkscape:connector-curvature="0" />
            <path
               style="fill:#ffffff;stroke-width:0.11224927"
               d="m -145.67657,438.23654 c -1.03768,0 -1.56982,0.043 -1.66138,0.13461 -0.19892,0.19891 -0.19443,18.96734 0.005,19.28605 0.12781,0.20464 0.26437,0.22296 1.66137,0.22296 1.03415,0 1.56525,-0.0433 1.65678,-0.13483 0.19517,-0.19517 0.19517,-19.17901 0,-19.37418 -0.0916,-0.0916 -0.6237,-0.13461 -1.66138,-0.13461 z"
               id="path5217"
               inkscape:connector-curvature="0" />
            <path
               style="fill:#ffffff;stroke-width:0.11224927"
               d="m -159.30039,438.34879 c -1.92844,0 -1.86658,-0.0583 -1.86658,1.75718 v 1.3858 h 1.79599 1.79599 v -1.43689 c 0,-0.96783 -0.0439,-1.48074 -0.13462,-1.57149 -0.0909,-0.0909 -0.60799,-0.1346 -1.59078,-0.1346 z"
               id="path5219"
               inkscape:connector-curvature="0" />
            <path
               style="fill:#ffffff;stroke-width:0.11224927"
               d="m -161.16697,443.06326 v 7.15896 c 0,6.29776 0.021,7.18899 0.17473,7.40845 0.16487,0.23539 0.25481,0.24949 1.59078,0.24949 1.16006,0 1.45308,-0.0337 1.62126,-0.18591 0.19479,-0.17631 0.20521,-0.55379 0.20521,-7.40845 v -7.22254 h -1.79599 z"
               id="path5221"
               inkscape:connector-curvature="0" />
            <path
               style="fill:#ffffff;stroke-width:0.11224927"
               d="m -188.8123,443.40327 c -2.97664,0.002 -5.79092,0.0523 -6.25395,0.11181 -1.06392,0.13669 -2.19359,0.67661 -2.55389,1.22071 -0.42673,0.64443 -0.50162,1.16818 -0.45097,3.15022 0.0409,1.602 0.0823,1.94302 0.3032,2.49185 0.33118,0.82273 0.70574,1.16894 1.65151,1.52654 0.76587,0.28958 0.79003,0.29126 5.05144,0.35516 4.07493,0.0611 4.29399,0.075 4.52965,0.28853 0.21105,0.19118 0.24041,0.31202 0.19841,0.81841 -0.0588,0.70965 -0.34924,1.14942 -0.88243,1.33624 -0.27368,0.0959 -1.8426,0.13577 -5.52016,0.14032 l -5.13782,0.006 -0.10041,0.25256 c -0.0553,0.13891 -0.18569,0.72264 -0.28983,1.29723 -0.17974,0.99152 -0.17945,1.05578 0.008,1.26281 0.19057,0.21058 0.39568,0.21803 5.93277,0.21769 4.67625,-2.9e-4 5.92202,-0.0326 6.7457,-0.17472 2.49056,-0.4299 3.06731,-1.29618 2.95181,-4.43429 -0.0728,-1.97776 -0.41518,-2.65785 -1.60767,-3.19385 -0.9087,-0.40844 -1.94589,-0.50296 -5.51885,-0.50381 -2.00216,-3.7e-4 -3.51747,-0.0483 -3.77284,-0.11925 -0.59989,-0.16659 -0.86315,-0.63406 -0.86358,-1.53401 -3.7e-4,-0.61483 0.0394,-0.74429 0.3271,-1.06637 l 0.32732,-0.36656 5.00277,-0.0324 c 4.58643,-0.0298 5.01141,-0.0485 5.10493,-0.2245 0.19678,-0.37044 0.46149,-2.39726 0.34223,-2.6201 -0.10739,-0.20067 -0.35058,-0.20991 -5.52433,-0.20652 z"
               id="path5225"
               inkscape:connector-curvature="0" />
            <path
               style="fill:#ffffff;fill-opacity:1;stroke-width:0.11224927"
               d="m -138.33674,443.13866 c -1.5564,0.0213 -1.95063,0.0653 -2.07968,0.15565 -0.23539,0.16487 -0.24949,0.25459 -0.24949,1.59056 0,1.16007 0.0335,1.45309 0.18569,1.62126 0.11096,0.1226 0.30854,0.17214 2.14348,0.19205 h 5.98846 c -0.0547,0.0488 -0.11595,0.10187 -0.16728,0.14843 l -6.79722,6.3366 c -0.49798,0.573 -1.34018,1.17831 -1.34018,1.91832 -0.0104,0.21682 -0.0129,0.51245 -0.0129,0.95215 0,1.16006 0.0335,1.45309 0.18569,1.62126 0.11096,0.1226 0.30854,0.17213 2.14348,0.19204 h 9.29279 c 1.83477,-0.0199 2.03231,-0.0695 2.14326,-0.19204 0.1522,-0.16817 0.18592,-0.4612 0.18592,-1.62126 0,-1.33597 -0.0141,-1.42569 -0.2495,-1.59057 -0.12905,-0.0904 -0.52328,-0.13432 -2.07968,-0.15565 h -6.2546 l 5.21016,-4.8572 c 1.01363,-1.02404 2.1691,-1.95312 3.1877,-2.94418 0.1522,-0.16817 0.18592,-0.46119 0.18592,-1.62126 0,-1.33597 -0.0141,-1.42569 -0.2495,-1.59056 -0.12905,-0.0904 -0.52328,-0.13433 -2.07968,-0.15565 z"
               id="path5223"
               inkscape:connector-curvature="0" />
          </g>
        </g>
      </g>
      <path
         transform="rotate(155.38722,1124.297,51.441083)"
         inkscape:transform-center-y="0.2377491"
         inkscape:transform-center-x="-0.005145438"
         d="m 1116.6295,52.679112 -1.6228,-0.698786 -1.3275,1.166071 0.1631,-1.759352 -1.5192,-0.902171 1.7236,-0.388553 0.3886,-1.723644 0.9021,1.519213 1.7594,-0.163099 -1.1661,1.327478 z"
         inkscape:randomized="0"
         inkscape:rounded="0"
         inkscape:flatsided="false"
         sodipodi:arg2="1.4137167"
         sodipodi:arg1="0.78539816"
         sodipodi:r2="1.1116418"
         sodipodi:r1="2.5409768"
         sodipodi:cy="50.88237"
         sodipodi:cx="1114.8328"
         sodipodi:sides="5"
         id="path14307"
         style="opacity:1;vector-effect:none;fill:#ffcc00;fill-opacity:1;fill-rule:evenodd;stroke:none;stroke-width:0.28945509;stroke-linecap:butt;stroke-linejoin:miter;stroke-miterlimit:4;stroke-dasharray:none;stroke-dashoffset:0;stroke-opacity:1"
         sodipodi:type="star" />
      <path
         transform="rotate(-150.29436,1124.4584,50.515873)"
         inkscape:transform-center-y="0.71306269"
         inkscape:transform-center-x="0.66499612"
         d="m 1130.4296,54.422873 -2.9759,-0.433949 -1.6688,2.501905 -0.5069,-2.964362 -2.8952,-0.813982 2.6627,-1.398127 -0.1205,-3.004974 2.1525,2.100272 2.8206,-1.043194 -1.3323,2.696166 z"
         inkscape:randomized="0"
         inkscape:rounded="0"
         inkscape:flatsided="false"
         sodipodi:arg2="1.1519173"
         sodipodi:arg1="0.52359878"
         sodipodi:r2="1.8920976"
         sodipodi:r1="4.3249326"
         sodipodi:cy="52.260406"
         sodipodi:cx="1126.6841"
         sodipodi:sides="5"
         id="path14309"
         style="opacity:1;vector-effect:none;fill:#ffcc00;fill-opacity:1;fill-rule:evenodd;stroke:none;stroke-width:0.28945509;stroke-linecap:butt;stroke-linejoin:miter;stroke-miterlimit:4;stroke-dasharray:none;stroke-dashoffset:0;stroke-opacity:1"
         sodipodi:type="star" />
      <path
         sodipodi:type="star"
         style="opacity:1;vector-effect:none;fill:#ffcc00;fill-opacity:1;fill-rule:evenodd;stroke:none;stroke-width:0.28945509;stroke-linecap:butt;stroke-linejoin:miter;stroke-miterlimit:4;stroke-dasharray:none;stroke-dashoffset:0;stroke-opacity:1"
         id="path14313"
         sodipodi:sides="5"
         sodipodi:cx="1114.8328"
         sodipodi:cy="50.88237"
         sodipodi:r1="2.5409768"
         sodipodi:r2="1.1116418"
         sodipodi:arg1="0.78539816"
         sodipodi:arg2="1.4137167"
         inkscape:flatsided="false"
         inkscape:rounded="0"
         inkscape:randomized="0"
         d="m 1116.6295,52.679112 -1.6228,-0.698786 -1.3275,1.166071 0.1631,-1.759352 -1.5192,-0.902171 1.7236,-0.388553 0.3886,-1.723644 0.9021,1.519213 1.7594,-0.163099 -1.1661,1.327478 z"
         inkscape:transform-center-x="-0.0092209344"
         inkscape:transform-center-y="0.23386427"
         transform="rotate(155.08988,1116.6304,54.374788)" />
    </g>
  </g>
</svg>
