<?xml version="1.0" encoding="UTF-8" standalone="no"?>
<!-- Created with Inkscape (http://www.inkscape.org/) -->

<svg
   xmlns:dc="http://purl.org/dc/elements/1.1/"
   xmlns:cc="http://creativecommons.org/ns#"
   xmlns:rdf="http://www.w3.org/1999/02/22-rdf-syntax-ns#"
   xmlns:svg="http://www.w3.org/2000/svg"
   xmlns="http://www.w3.org/2000/svg"
   xmlns:sodipodi="http://sodipodi.sourceforge.net/DTD/sodipodi-0.dtd"
   xmlns:inkscape="http://www.inkscape.org/namespaces/inkscape"
   width="400"
   height="400"
   viewBox="0 0 105.83333 105.83334"
   version="1.1"
   id="svg15453"
   inkscape:export-filename="/home/probe/Work/Qtox/Mikeyslice/skillz-strategy-page.png"
   inkscape:export-xdpi="96"
   inkscape:export-ydpi="96"
   sodipodi:docname="skillz-promo-code-page.svg"
   inkscape:version="0.92.4 (5da689c313, 2019-01-14)">
  <defs
     id="defs15447" />
  <sodipodi:namedview
     id="base"
     pagecolor="#1e1e1e"
     bordercolor="#666666"
     borderopacity="1.0"
     inkscape:pageopacity="0.0"
     inkscape:pageshadow="2"
     inkscape:zoom="3.959798"
     inkscape:cx="143.80689"
     inkscape:cy="212.60084"
     inkscape:document-units="mm"
     inkscape:current-layer="layer1"
     showgrid="false"
     units="px"
     inkscape:pagecheckerboard="true"
     borderlayer="true"
     inkscape:showpageshadow="false"
     inkscape:window-width="1920"
     inkscape:window-height="1028"
     inkscape:window-x="0"
     inkscape:window-y="0"
     inkscape:window-maximized="1" />
  <metadata
     id="metadata15450">
    <rdf:RDF>
      <cc:Work
         rdf:about="">
        <dc:format>image/svg+xml</dc:format>
        <dc:type
           rdf:resource="http://purl.org/dc/dcmitype/StillImage" />
        <dc:title />
      </cc:Work>
    </rdf:RDF>
  </metadata>
  <g
     inkscape:label="Layer 1"
     inkscape:groupmode="layer"
     id="layer1"
     transform="translate(0,-191.16665)">
    <g
       id="g14517"
       transform="matrix(0.76661902,0,0,0.76661902,-1299.0066,199.14261)">
      <path
         sodipodi:nodetypes="ccscscsccc"
         style="opacity:1;vector-effect:none;fill:#000000;fill-opacity:1;fill-rule:evenodd;stroke:none;stroke-width:0.60543102;stroke-linecap:butt;stroke-linejoin:miter;stroke-miterlimit:4;stroke-dasharray:none;stroke-dashoffset:0;stroke-opacity:1"
         d="m 1739.3584,18.267 c -0.7925,0.211184 -1.5577,0.58171 -2.2487,1.117338 l -32.7975,25.422909 c -2.7641,2.142588 -3.2644,6.092585 -1.1218,8.856688 l 46.0898,59.459445 c 2.1425,2.7641 6.0925,3.26437 8.8566,1.1218 l 32.7975,-25.42291 c 2.7641,-2.142588 3.2648,-6.092665 1.1222,-8.856796 l -46.0902,-59.459338 c -1.6069,-2.073074 -4.2304,-2.872748 -6.6079,-2.239136 z"
         id="path13772"
         inkscape:connector-curvature="0" />
      <g
         transform="rotate(-14.711115,364.95009,-1397.6222)"
         id="g13278">
        <g
           transform="matrix(0.29098464,-0.12393496,0.12393496,0.29098464,1215.4303,-0.47564858)"
           id="g13264">
          <path
             style="opacity:1;vector-effect:none;fill:#fe0000;fill-opacity:1;fill-rule:evenodd;stroke:none;stroke-width:2.80961537;stroke-linecap:butt;stroke-linejoin:miter;stroke-miterlimit:4;stroke-dasharray:none;stroke-dashoffset:0;stroke-opacity:1"
             d="m 5070.8926,833.8125 c -3.8061,0.014 -7.6772,0.77531 -11.4102,2.36523 l -177.1738,75.46094 c -14.9318,6.35971 -21.8324,23.4998 -15.4727,38.43164 l 136.8047,321.20309 c 6.3597,14.9319 23.4998,21.8324 38.4317,15.4727 l 177.1738,-75.4609 c 14.9318,-6.3597 21.8343,-23.4998 15.4746,-38.4317 L 5097.9141,851.65039 c -4.7698,-11.19888 -15.6032,-17.88005 -27.0215,-17.83789 z m -3.3379,13.92773 c 1.7944,-0.007 3.5726,0.16405 5.3125,0.5 1.7399,0.33596 3.4406,0.83878 5.0781,1.49805 1.6375,0.65928 3.2119,1.47417 4.6992,2.4375 1.4873,0.96333 2.8885,2.07414 4.1778,3.32227 1.2892,1.24812 2.4664,2.63478 3.5097,4.14843 1.0434,1.51366 1.9536,3.15415 2.7032,4.91407 l 128.9941,302.86525 c 0.7496,1.7599 1.3034,3.5524 1.6719,5.3535 0.3684,1.8011 0.5519,3.6118 0.5586,5.4062 0.01,1.7945 -0.1641,3.5727 -0.5,5.3125 -0.336,1.7399 -0.8369,3.4407 -1.4961,5.0782 -0.6593,1.6375 -1.4761,3.2119 -2.4395,4.6992 -0.9633,1.4873 -2.0741,2.8885 -3.3222,4.1777 -1.2482,1.2893 -2.6329,2.4665 -4.1465,3.5098 -1.5137,1.0433 -3.1561,1.9516 -4.916,2.7012 l -162.6797,69.289 c -1.76,0.7496 -3.5525,1.3034 -5.3536,1.6719 -1.801,0.3685 -3.6118,0.552 -5.4062,0.5586 -1.7944,0.01 -3.5726,-0.164 -5.3125,-0.5 -1.7399,-0.336 -3.4406,-0.8388 -5.0781,-1.4981 -1.6375,-0.6592 -3.2119,-1.4741 -4.6992,-2.4375 -1.4873,-0.9633 -2.8885,-2.0741 -4.1778,-3.3222 -1.2892,-1.2481 -2.4664,-2.6348 -3.5097,-4.1485 -1.0434,-1.5136 -1.9516,-3.1541 -2.7012,-4.914 L 4879.5254,955.49805 c -0.7496,-1.75992 -1.3034,-3.55243 -1.6719,-5.35352 -0.3685,-1.80108 -0.55,-3.61184 -0.5566,-5.40625 -0.01,-1.79441 0.1621,-3.57261 0.498,-5.3125 0.336,-1.73988 0.8388,-3.44061 1.4981,-5.07812 0.6592,-1.63752 1.4741,-3.21192 2.4375,-4.69922 0.9633,-1.4873 2.0741,-2.8885 3.3222,-4.17774 1.2482,-1.28924 2.6348,-2.46643 4.1485,-3.50976 1.5136,-1.04334 3.1541,-1.9516 4.914,-2.70117 l 162.6817,-69.28907 c 1.7599,-0.74958 3.5524,-1.3034 5.3535,-1.67187 1.8011,-0.36847 3.6099,-0.55197 5.4043,-0.5586 z"
             id="path13248"
             transform="matrix(0.64696436,0.27555233,-0.27555233,0.64696436,-3099.7534,-858.6321)"
             inkscape:connector-curvature="0" />
          <g
             id="g13260"
             transform="matrix(3.3383586,0,0,3.3383586,-354.9465,309.88832)"
             style="fill:#fe0000;fill-opacity:1">
            <circle
               r="0.55987155"
               cy="235.18507"
               cx="49.828571"
               id="circle13250"
               style="opacity:1;vector-effect:none;fill:#fe0000;fill-opacity:1;fill-rule:evenodd;stroke:none;stroke-width:0.39299998;stroke-linecap:butt;stroke-linejoin:miter;stroke-miterlimit:4;stroke-dasharray:none;stroke-dashoffset:0;stroke-opacity:1" />
            <circle
               style="opacity:1;vector-effect:none;fill:#fe0000;fill-opacity:1;fill-rule:evenodd;stroke:none;stroke-width:0.39299998;stroke-linecap:butt;stroke-linejoin:miter;stroke-miterlimit:4;stroke-dasharray:none;stroke-dashoffset:0;stroke-opacity:1"
               id="circle13252"
               cx="51.190075"
               cy="235.18507"
               r="0.55987155" />
            <circle
               r="0.55987155"
               cy="235.18507"
               cx="52.551579"
               id="circle13254"
               style="opacity:1;vector-effect:none;fill:#fe0000;fill-opacity:1;fill-rule:evenodd;stroke:none;stroke-width:0.39299998;stroke-linecap:butt;stroke-linejoin:miter;stroke-miterlimit:4;stroke-dasharray:none;stroke-dashoffset:0;stroke-opacity:1" />
            <circle
               style="opacity:1;vector-effect:none;fill:#fe0000;fill-opacity:1;fill-rule:evenodd;stroke:none;stroke-width:0.39299998;stroke-linecap:butt;stroke-linejoin:miter;stroke-miterlimit:4;stroke-dasharray:none;stroke-dashoffset:0;stroke-opacity:1"
               id="circle13256"
               cx="53.913082"
               cy="235.18507"
               r="0.55987155" />
            <circle
               r="0.55987155"
               cy="235.18507"
               cx="55.274586"
               id="circle13258"
               style="opacity:1;vector-effect:none;fill:#fe0000;fill-opacity:1;fill-rule:evenodd;stroke:none;stroke-width:0.39299998;stroke-linecap:butt;stroke-linejoin:miter;stroke-miterlimit:4;stroke-dasharray:none;stroke-dashoffset:0;stroke-opacity:1" />
          </g>
          <rect
             style="opacity:1;vector-effect:none;fill:#fe0000;fill-opacity:1;fill-rule:evenodd;stroke:none;stroke-width:1.99224579;stroke-linecap:butt;stroke-linejoin:miter;stroke-miterlimit:4;stroke-dasharray:none;stroke-dashoffset:0;stroke-opacity:1"
             id="rect13262"
             width="31.950043"
             height="4.0571485"
             x="-140.54352"
             y="1097.3685"
             ry="2.0285742" />
        </g>
        <g
           id="g13266"
           transform="matrix(0.3222256,-0.13724097,0.13724097,0.3222256,1167.1056,79.1807)" />
        <g
           id="g13268"
           transform="matrix(0.3207509,-0.13661288,0.13661288,0.3207509,1136.1868,101.27167)" />
        <g
           id="g13276"
           transform="matrix(0.05442896,0.30407118,-0.30407118,0.05442896,1388.1005,326.11672)">
          <g
             style="fill:#fe0000;fill-opacity:1"
             id="g13274"
             transform="matrix(4.4789831,0,0,4.4789831,-105.64828,-1408.2339)">
            <g
               style="fill:#fe0000;fill-opacity:1"
               id="g13270" />
            <g
               style="fill:#fe0000;fill-opacity:1"
               transform="rotate(90,30.948557,377.2961)"
               id="g13272" />
          </g>
        </g>
      </g>
      <g
         transform="matrix(-0.24747513,0.72367775,-0.72367775,-0.24747513,2642.327,56.290769)"
         id="g13286">
        <path
           style="opacity:1;vector-effect:none;fill:#fcd1ae;fill-opacity:1;stroke:none;stroke-width:2.51587796;stroke-linecap:butt;stroke-linejoin:miter;stroke-miterlimit:4;stroke-dasharray:none;stroke-dashoffset:0;stroke-opacity:1"
           d="m 429.28673,1085.1181 c 0,0 11.33795,0.3652 19.5338,5.6216 0,0 2.06683,-6.0044 -0.0525,-9.0046 -2.11902,-3 -18.14729,-9.4106 -19.48125,3.383 z"
           id="path13280"
           inkscape:connector-curvature="0" />
        <path
           inkscape:connector-curvature="0"
           id="path13282"
           d="m 424.76303,1098.2947 c 0,0 14.02951,2.0304 23.4765,9.6984 0,0 3.40179,-7.1693 1.18709,-11.1898 -2.21433,-4.0204 -21.22775,-14.2108 -24.66374,1.4917 z"
           style="opacity:1;vector-effect:none;fill:#fcd1ae;fill-opacity:1;stroke:none;stroke-width:3.14392972;stroke-linecap:butt;stroke-linejoin:miter;stroke-miterlimit:4;stroke-dasharray:none;stroke-dashoffset:0;stroke-opacity:1" />
        <path
           style="opacity:1;vector-effect:none;fill:#fcd1ae;fill-opacity:1;stroke:none;stroke-width:3.14392972;stroke-linecap:butt;stroke-linejoin:miter;stroke-miterlimit:4;stroke-dasharray:none;stroke-dashoffset:0;stroke-opacity:1"
           d="m 418.96794,1113.6541 c 0,0 7.3708,10.5418 23.47651,9.6984 0,0 3.40178,-7.1693 1.18709,-11.1899 -2.21434,-4.0203 -21.22776,-14.2108 -24.66374,1.4918 z"
           id="path13284"
           inkscape:connector-curvature="0"
           sodipodi:nodetypes="ccccc" />
      </g>
      <g
         transform="matrix(0.29352184,0.23814625,-0.23814625,0.29352184,1799.9089,-47.302921)"
         id="g13326">
        <path
           inkscape:connector-curvature="0"
           id="path13288"
           d="m 179.70568,176.58803 c -0.1765,1.47167 -0.37861,2.91896 -0.6003,4.33002 0.11356,1.15942 0.062,2.2428 -0.0936,3.43502 1.01878,1.946 0.77207,5.19801 0.77207,5.19801 -0.22302,-1.46362 -0.57586,-2.61532 -1.05349,-3.4364 -0.33881,1.86394 -0.83197,4.10885 -1.33399,7.26431 -0.62879,3.95216 -3.26285,6.18133 -5.4415,8.60335 -0.40916,0.45483 -0.80972,0.91256 -1.20334,1.37326 4.63073,1.67004 7.31234,-3.23566 9.74043,-7.31958 2.98801,-5.02558 5.20762,-11.99192 2.73194,-16.91795 -0.81962,-1.63088 -2.13116,-2.32563 -3.51817,-2.53004 z"
           style="opacity:1;vector-effect:none;fill:#fcd1ae;fill-opacity:1;stroke:none;stroke-width:1.12935436;stroke-linecap:butt;stroke-linejoin:miter;stroke-miterlimit:4;stroke-dasharray:none;stroke-dashoffset:0;stroke-opacity:1" />
        <path
           inkscape:connector-curvature="0"
           id="path13290"
           d="m 67.800136,176.72372 c -1.135822,0.31383 -2.171299,1.02427 -2.859847,2.39435 -2.475679,4.92603 -0.256103,11.89237 2.731479,16.91795 2.326121,3.91239 4.885702,8.57783 9.167998,7.49456 -0.44028,-0.52037 -0.891788,-1.03585 -1.352722,-1.54824 -2.178643,-2.42202 -4.812724,-4.65119 -5.441485,-8.60335 -0.415978,-2.61453 -0.788847,-4.58644 -1.073136,-6.25103 -0.249156,0.67821 -0.449215,1.48256 -0.592529,2.42312 0,0 -0.165278,-2.18468 0.335327,-4.04446 -0.203591,-1.41169 -0.308802,-2.62891 -0.253109,-3.88503 a 3.6311661,3.6311661 0 0 1 0,-0.005 c -0.0026,-0.009 -0.0152,-0.0527 -0.01497,-0.0525 0,-0.003 -0.0073,-0.0302 -0.0073,-0.0302 a 3.6311661,3.6311661 0 0 1 -0.06304,-0.64371 c -0.212503,-1.35943 -0.406364,-2.75148 -0.576554,-4.16644 z"
           style="opacity:1;vector-effect:none;fill:#fcd1ae;fill-opacity:1;stroke:none;stroke-width:1.12935436;stroke-linecap:butt;stroke-linejoin:miter;stroke-miterlimit:4;stroke-dasharray:none;stroke-dashoffset:0;stroke-opacity:1" />
        <path
           inkscape:connector-curvature="0"
           id="path13292"
           d="m 124.2623,150.91416 c -2.3362,0 -4.67086,0.0222 -6.99387,0.09 -2.32301,0.0677 -4.63449,0.18097 -6.92351,0.36318 -1.14451,0.0911 -2.28328,0.1995 -3.41539,0.32803 -1.13211,0.12851 -2.25716,0.2773 -3.37427,0.44908 -1.11711,0.17178 -2.22634,0.36662 -3.32585,0.5875 -1.099507,0.22088 -2.189427,0.46744 -3.268735,0.74328 -1.419428,0.423 -2.907954,0.93518 -4.438723,1.5067 -1.530769,0.5715 -3.10388,1.20261 -4.692718,1.86393 -3.177771,1.32262 -6.418509,2.76626 -9.509266,4.09564 -1.550584,0.66691 -3.064654,1.30514 -4.531476,1.88586 -1.000835,0.39621 -1.945205,0.71743 -2.898698,1.05075 -0.179172,6.81977 0.594681,13.74677 1.70861,19.83126 5.134601,11.49187 9.859937,18.08607 12.895868,23.61167 3.328448,5.41959 5.432218,21.84823 16.499488,29.30396 16.09416,10.30974 31.0432,8.09421 43.49272,0 11.06719,-7.45573 9.70273,-14.43779 13.0311,-19.85729 3.03598,-5.52569 1.93376,-10.24413 16.36654,-33.05834 1.13442,-6.19644 1.93335,-13.27009 1.70312,-20.21091 -0.62022,-0.22872 -1.21166,-0.41811 -1.85068,-0.6711 -1.46669,-0.58072 -2.98055,-1.21895 -4.53101,-1.88586 -3.09254,-1.33023 -6.33552,-2.77504 -9.51521,-4.09838 -1.58984,-0.66167 -3.16388,-1.29273 -4.69547,-1.86439 -1.53158,-0.57167 -3.02059,-1.08387 -4.44055,-1.50668 -0.93735,-0.2518 -1.93475,-0.48037 -2.97909,-0.68801 -1.04436,-0.20764 -2.1355,-0.39437 -3.26052,-0.56147 -1.12502,-0.1671 -2.28399,-0.31476 -3.46336,-0.44498 -1.17936,-0.13019 -2.37933,-0.24298 -3.5867,-0.33989 -2.41475,-0.19383 -4.85941,-0.32461 -7.22823,-0.40704 -2.36882,-0.0824 -4.66187,-0.11651 -6.77412,-0.11651 z m -29.693218,15.89278 a 16.613573,11.455974 88.083386 0 1 1.145772,0.0809 16.613573,11.455974 88.083386 0 1 1.137092,0.24625 16.613573,11.455974 88.083386 0 1 1.117447,0.40842 16.613573,11.455974 88.083386 0 1 1.086381,0.56741 16.613573,11.455974 88.083386 0 1 1.044806,0.71999 16.613573,11.455974 88.083386 0 1 0.99228,0.8657 16.613573,11.455974 88.083386 0 1 0.93059,1.00325 16.613573,11.455974 88.083386 0 1 0.85887,1.12979 16.613573,11.455974 88.083386 0 1 0.77893,1.24582 16.613573,11.455974 88.083386 0 1 0.69121,1.34905 16.613573,11.455974 88.083386 0 1 0.59664,1.43908 16.613573,11.455974 88.083386 0 1 0.49568,1.51445 16.613573,11.455974 88.083386 0 1 0.39015,1.57475 16.613573,11.455974 88.083386 0 1 0.28096,1.61951 16.613573,11.455974 88.083386 0 1 0.16857,1.64787 16.613573,11.455974 88.083386 0 1 0.0503,1.17455 16.613573,11.455974 88.083386 0 1 -0.0265,1.65835 16.613573,11.455974 88.083386 0 1 -0.14117,1.6419 16.613573,11.455974 88.083386 0 1 -0.25355,1.60901 16.613573,11.455974 88.083386 0 1 -0.36411,1.56059 16.613573,11.455974 88.083386 0 1 -0.47055,1.49571 16.613573,11.455974 88.083386 0 1 -0.57243,1.41623 16.613573,11.455974 88.083386 0 1 -0.66882,1.32304 16.613573,11.455974 88.083386 0 1 -0.75836,1.21657 16.613573,11.455974 88.083386 0 1 -0.84015,1.09736 16.613573,11.455974 88.083386 0 1 -0.91415,0.96713 16.613573,11.455974 88.083386 0 1 -0.9781,0.82826 16.613573,11.455974 88.083386 0 1 -1.032936,0.6798 16.613573,11.455974 88.083386 0 1 -1.077702,0.52582 16.613573,11.455974 88.083386 0 1 -1.110595,0.36548 16.613573,11.455974 88.083386 0 1 -1.133436,0.2024 16.613573,11.455974 88.083386 0 1 -0.809989,0.0434 16.613573,11.455974 88.083386 0 1 -1.145316,-0.0809 16.613573,11.455974 88.083386 0 1 -1.137092,-0.24624 16.613573,11.455974 88.083386 0 1 -1.117447,-0.40842 16.613573,11.455974 88.083386 0 1 -1.086381,-0.56741 16.613573,11.455974 88.083386 0 1 -1.044809,-0.71998 16.613573,11.455974 88.083386 0 1 -0.992728,-0.86573 16.613573,11.455974 88.083386 0 1 -0.930142,-1.00325 16.613573,11.455974 88.083386 0 1 -0.858878,-1.12976 16.613573,11.455974 88.083386 0 1 -0.779373,-1.24583 16.613573,11.455974 88.083386 0 1 -0.691214,-1.34907 16.613573,11.455974 88.083386 0 1 -0.596179,-1.43906 16.613573,11.455974 88.083386 0 1 -0.496137,-1.51444 16.613573,11.455974 88.083386 0 1 -0.390154,-1.57477 16.613573,11.455974 88.083386 0 1 -0.2805,-1.61952 16.613573,11.455974 88.083386 0 1 -0.168576,-1.64784 16.613573,11.455974 88.083386 0 1 -0.05024,-1.17456 16.613573,11.455974 88.083386 0 1 0.0265,-1.65834 16.613573,11.455974 88.083386 0 1 0.140694,-1.64192 16.613573,11.455974 88.083386 0 1 0.253998,-1.60902 16.613573,11.455974 88.083386 0 1 0.363653,-1.56059 16.613573,11.455974 88.083386 0 1 0.471016,-1.49571 16.613573,11.455974 88.083386 0 1 0.572437,-1.41623 16.613573,11.455974 88.083386 0 1 0.668806,-1.32301 16.613573,11.455974 88.083386 0 1 0.758368,-1.21659 16.613573,11.455974 88.083386 0 1 0.840142,-1.09735 16.613573,11.455974 88.083386 0 1 0.914159,-0.96715 16.613573,11.455974 88.083386 0 1 0.978109,-0.82826 16.613573,11.455974 88.083386 0 1 1.032929,-0.67978 16.613573,11.455974 88.083386 0 1 1.077245,-0.52584 16.613573,11.455974 88.083386 0 1 1.111052,-0.36548 16.613573,11.455974 88.083386 0 1 1.133438,-0.20237 16.613573,11.455974 88.083386 0 1 0.809531,-0.0434 z m 57.505128,0 a 11.455975,16.613573 1.9166138 0 1 0.80999,0.0434 11.455975,16.613573 1.9166138 0 1 1.13344,0.20193 11.455975,16.613573 1.9166138 0 1 1.11059,0.36592 11.455975,16.613573 1.9166138 0 1 1.07725,0.52538 11.455975,16.613573 1.9166138 0 1 1.03339,0.68024 11.455975,16.613573 1.9166138 0 1 0.97811,0.82826 11.455975,16.613573 1.9166138 0 1 0.91369,0.96715 11.455975,16.613573 1.9166138 0 1 0.8406,1.09735 11.455975,16.613573 1.9166138 0 1 0.75836,1.21659 11.455975,16.613573 1.9166138 0 1 0.66883,1.32257 11.455975,16.613573 1.9166138 0 1 0.57243,1.41667 11.455975,16.613573 1.9166138 0 1 0.47055,1.49571 11.455975,16.613573 1.9166138 0 1 0.36411,1.56059 11.455975,16.613573 1.9166138 0 1 0.25354,1.60902 11.455975,16.613573 1.9166138 0 1 0.14117,1.64192 11.455975,16.613573 1.9166138 0 1 0.0265,1.65788 11.455975,16.613573 1.9166138 0 1 -0.0503,1.17502 11.455975,16.613573 1.9166138 0 1 -0.16857,1.64784 11.455975,16.613573 1.9166138 0 1 -0.28096,1.61952 11.455975,16.613573 1.9166138 0 1 -0.39015,1.57477 11.455975,16.613573 1.9166138 0 1 -0.49568,1.51444 11.455975,16.613573 1.9166138 0 1 -0.59664,1.43861 11.455975,16.613573 1.9166138 0 1 -0.69121,1.34952 11.455975,16.613573 1.9166138 0 1 -0.77892,1.24583 11.455975,16.613573 1.9166138 0 1 -0.85887,1.12976 11.455975,16.613573 1.9166138 0 1 -0.9306,1.00325 11.455975,16.613573 1.9166138 0 1 -0.99227,0.86573 11.455975,16.613573 1.9166138 0 1 -1.04481,0.71998 11.455975,16.613573 1.9166138 0 1 -1.08638,0.56741 11.455975,16.613573 1.9166138 0 1 -1.11745,0.40842 11.455975,16.613573 1.9166138 0 1 -1.13709,0.24624 11.455975,16.613573 1.9166138 0 1 -1.14577,0.0804 11.455975,16.613573 1.9166138 0 1 -0.80954,-0.0429 11.455975,16.613573 1.9166138 0 1 -1.13343,-0.2024 11.455975,16.613573 1.9166138 0 1 -1.11106,-0.36548 11.455975,16.613573 1.9166138 0 1 -1.07724,-0.52582 11.455975,16.613573 1.9166138 0 1 -1.03293,-0.68024 11.455975,16.613573 1.9166138 0 1 -0.97857,-0.82782 11.455975,16.613573 1.9166138 0 1 -0.91369,-0.96759 11.455975,16.613573 1.9166138 0 1 -0.84014,-1.09735 11.455975,16.613573 1.9166138 0 1 -0.75837,-1.21612 11.455975,16.613573 1.9166138 0 1 -0.66882,-1.32304 11.455975,16.613573 1.9166138 0 1 -0.57289,-1.41623 11.455975,16.613573 1.9166138 0 1 -0.47055,-1.49615 11.455975,16.613573 1.9166138 0 1 -0.36365,-1.56015 11.455975,16.613573 1.9166138 0 1 -0.254,-1.60901 11.455975,16.613573 1.9166138 0 1 -0.14071,-1.6419 11.455975,16.613573 1.9166138 0 1 -0.027,-1.65835 11.455975,16.613573 1.9166138 0 1 0.0507,-1.17455 11.455975,16.613573 1.9166138 0 1 0.16812,-1.64787 11.455975,16.613573 1.9166138 0 1 0.28096,-1.61951 11.455975,16.613573 1.9166138 0 1 0.39015,-1.57475 11.455975,16.613573 1.9166138 0 1 0.49614,-1.51445 11.455975,16.613573 1.9166138 0 1 0.59618,-1.43908 11.455975,16.613573 1.9166138 0 1 0.69121,-1.34905 11.455975,16.613573 1.9166138 0 1 0.77892,-1.24582 11.455975,16.613573 1.9166138 0 1 0.85933,-1.12979 11.455975,16.613573 1.9166138 0 1 0.93014,-1.00325 11.455975,16.613573 1.9166138 0 1 0.99273,-0.8657 11.455975,16.613573 1.9166138 0 1 1.04435,-0.72046 11.455975,16.613573 1.9166138 0 1 1.08684,-0.56694 11.455975,16.613573 1.9166138 0 1 1.11745,-0.40889 11.455975,16.613573 1.9166138 0 1 1.13709,-0.24578 11.455975,16.613573 1.9166138 0 1 1.14531,-0.0809 z m -42.98608,47.49836 c 0,0 0.16103,0.44585 0.50801,1.11426 0.1735,0.3342 0.39352,0.72391 0.66335,1.14167 0.26982,0.41775 0.58911,0.86325 0.96166,1.30886 0.37255,0.44559 0.79842,0.89158 1.28008,1.30931 0.48167,0.41776 1.01915,0.80747 1.61633,1.14167 0.29858,0.1671 0.61198,0.32017 0.94064,0.45593 0.32867,0.13578 0.67294,0.2543 1.03248,0.35177 0.35953,0.0975 0.73446,0.17393 1.12567,0.22614 0.39121,0.0522 0.79838,0.0799 1.22206,0.0799 0.84737,0 1.82259,-0.0764 2.88042,-0.21061 1.05784,-0.13421 2.19819,-0.32632 3.3761,-0.55644 1.17791,-0.23009 2.39328,-0.49814 3.60087,-0.78578 1.20758,-0.28763 2.4074,-0.59454 3.55426,-0.90135 2.29373,-0.61361 4.37574,-1.22738 5.88419,-1.68758 1.50846,-0.46021 2.44367,-0.76705 2.44367,-0.76705 0,0 -0.69426,0.48928 -1.89043,1.21612 -0.59808,0.36342 -1.3215,0.78653 -2.14672,1.23715 -0.82522,0.45062 -1.7522,0.92905 -2.75662,1.40388 -1.00441,0.47483 -2.08646,0.94596 -3.22214,1.38196 -1.13567,0.43602 -2.32475,0.8367 -3.54376,1.17091 -0.60949,0.1671 -1.2266,0.31787 -1.84794,0.44769 -0.62134,0.12984 -1.24725,0.23877 -1.87444,0.32347 -0.62719,0.0847 -1.25562,0.14511 -1.88267,0.17679 -0.62705,0.0317 -1.25261,0.0347 -1.87353,0.006 -0.62091,-0.0292 -1.20314,-0.0921 -1.74972,-0.18458 -0.54658,-0.0925 -1.05756,-0.21435 -1.53455,-0.36136 -0.47698,-0.14703 -0.92004,-0.31923 -1.33216,-0.51213 -0.41213,-0.1929 -0.79331,-0.40674 -1.14532,-0.63683 -0.352,-0.23012 -0.6751,-0.47645 -0.97171,-0.73508 -0.29662,-0.25865 -0.56676,-0.52965 -0.81273,-0.80816 -0.24597,-0.27849 -0.46786,-0.56463 -0.66791,-0.8543 -0.20006,-0.28969 -0.37792,-0.58268 -0.5368,-0.87487 -0.31776,-0.58439 -0.55815,-1.1653 -0.73963,-1.7077 -0.18148,-0.54238 -0.30432,-1.04645 -0.38741,-1.47744 -0.16618,-0.86197 -0.1736,-1.43176 -0.1736,-1.43176 z m 10.3124,10.46089 c 0,0 0.0417,0.0717 0.13112,0.17955 0.0894,0.1078 0.22649,0.25142 0.41847,0.39516 0.19198,0.14375 0.43876,0.28737 0.74649,0.39518 0.30773,0.10781 0.67668,0.17999 1.11333,0.17999 0.87332,0 2.2736,-0.14474 3.45559,-0.28918 1.18199,-0.14443 2.14535,-0.28873 2.14535,-0.28873 0,0 -0.17879,0.12614 -0.487,0.31341 -0.3082,0.18724 -0.74559,0.43558 -1.26318,0.68024 -0.51759,0.24465 -1.11516,0.48564 -1.74332,0.65786 -0.31409,0.0861 -0.63573,0.15506 -0.95892,0.19873 -0.32321,0.0436 -0.6481,0.0621 -0.96806,0.047 -0.31997,-0.015 -0.60029,-0.065 -0.84608,-0.1407 -0.2458,-0.0757 -0.45683,-0.17746 -0.63822,-0.29603 -0.18139,-0.11859 -0.33329,-0.25395 -0.46004,-0.39747 -0.12676,-0.1435 -0.22833,-0.29531 -0.3102,-0.44587 -0.16375,-0.30116 -0.24773,-0.5984 -0.29056,-0.8205 -0.0428,-0.22211 -0.0448,-0.36868 -0.0448,-0.36868 z"
           style="opacity:1;vector-effect:none;fill:#fcd1ae;fill-opacity:1;stroke:none;stroke-width:1.2470839;stroke-linecap:butt;stroke-linejoin:miter;stroke-miterlimit:4;stroke-dasharray:none;stroke-dashoffset:0;stroke-opacity:1" />
        <path
           inkscape:connector-curvature="0"
           id="path13294"
           d="m 72.003824,180.8218 c -0.3508,2.43442 0.510523,4.96864 1.627267,11.98802 0.699949,4.3994 7.933947,8.30019 10.533804,15.85044 1.552104,4.50734 -2.522308,12.73513 0.581963,16.87409 13.354541,17.80587 38.656022,18.14898 38.896722,18.1518 h 0.0207 0.0207 c 5e-4,0 0.033,0 0.037,0 h 8.9e-4 c 0.004,2.7e-4 0.033,0 0.033,0 h 0.0207 0.0207 c 0.24062,0 25.54218,-0.34593 38.89672,-18.1518 3.10428,-4.13896 -0.97014,-12.36675 0.58198,-16.87409 2.59985,-7.55025 9.83384,-11.45104 10.53379,-15.85044 1.11675,-7.01938 1.97811,-9.5536 1.6273,-11.98802 -0.43965,2.08186 -1.23571,4.32753 -7.8655,11.24586 -4.73592,4.34114 -9.21818,15.22921 -10.13901,23.38539 0,0 -0.7241,-2.5664 -0.13207,-5.19743 -11.15703,-2.58417 -22.38942,-3.99344 -33.5798,-4.05851 h -0.004 c -11.19036,0.0654 -22.42275,1.47434 -33.579784,4.05851 0.591873,2.63103 -0.13206,5.19743 -0.13206,5.19743 -0.920856,-8.15618 -5.403099,-19.04425 -10.139012,-23.38539 -6.629784,-6.91833 -7.42582,-9.164 -7.865477,-11.24586 z m 44.418356,30.05009 c 0.69061,0 1.36015,0 1.99407,0.0203 1.68282,0 3.50934,0.15223 5.3041,0.26654 8.8e-4,1.8e-4 0.003,-9e-5 0.004,0 1.79475,-0.11378 3.62127,-0.26654 5.30409,-0.26654 5.07139,-0.12969 12.37345,0.28342 15.25113,3.40811 4.60435,4.99878 -1.97335,7.94763 -5.39364,11.89413 -3.41413,3.93943 -7.0907,7.08957 -15.08481,7.10212 h -0.0426 c -0.0128,0 -0.0207,0 -0.033,0 -8.9e-4,-9e-5 -8.9e-4,0 -8.9e-4,0 -0.0128,2.7e-4 -0.0207,0 -0.037,0 h -0.0424 c -7.99412,-0.0124 -11.6707,-3.16269 -15.08478,-7.10212 -3.42032,-3.9465 -9.998028,-6.89535 -5.39369,-11.89413 2.51799,-2.73393 8.42259,-3.39229 13.25705,-3.42747 z"
           style="opacity:1;vector-effect:none;fill:#a05a2c;fill-opacity:1;stroke:none;stroke-width:0.80594307;stroke-linecap:butt;stroke-linejoin:miter;stroke-miterlimit:4;stroke-dasharray:none;stroke-dashoffset:0;stroke-opacity:1"
           sodipodi:nodetypes="ccccccssccccccccccccccccccccccccccsccsccccc" />
        <path
           sodipodi:nodetypes="cccccccccc"
           inkscape:connector-curvature="0"
           id="path13296"
           d="m 95.248667,158.29986 c -4.585933,-0.31234 -11.34783,0.75542 -12.97126,8.77201 3.931673,-5.19629 11.063846,-7.22307 16.631043,-4.3529 -3.253543,-0.53618 -6.228477,-0.65181 -9.185659,0.69725 4.619891,-0.20466 9.015126,1.76439 13.493789,2.53175 2.47052,0.38386 10.787,1.45418 13.13118,3.9221 0,0 2.45067,-4.4223 1.04505,-6.62217 -3.93987,-5.11937 -11.8431,-2.79237 -18.554739,-4.38066 -0.773909,-0.20475 -2.060735,-0.46298 -3.589404,-0.56721 z"
           style="opacity:1;vector-effect:none;fill:#a05a2c;fill-opacity:1;stroke:none;stroke-width:0.36797193;stroke-linecap:butt;stroke-linejoin:miter;stroke-miterlimit:4;stroke-dasharray:none;stroke-dashoffset:0;stroke-opacity:1" />
        <path
           style="opacity:1;vector-effect:none;fill:#a05a2c;fill-opacity:1;stroke:none;stroke-width:0.36797193;stroke-linecap:butt;stroke-linejoin:miter;stroke-miterlimit:4;stroke-dasharray:none;stroke-dashoffset:0;stroke-opacity:1"
           d="m 152.22016,158.29986 c 4.58598,-0.31234 11.34787,0.75542 12.97127,8.77201 -3.93164,-5.19629 -11.06381,-7.22307 -16.63105,-4.3529 3.25355,-0.53618 6.22852,-0.65181 9.18569,0.69725 -4.61989,-0.20466 -9.01515,1.76439 -13.49378,2.53175 -2.47051,0.38386 -10.78704,1.45418 -13.13122,3.9221 0,0 -2.45062,-4.4223 -1.04502,-6.62217 3.93988,-5.11937 11.84312,-2.79237 18.55475,-4.38066 0.77386,-0.20475 2.06069,-0.46298 3.58936,-0.56721 z"
           id="path13298"
           inkscape:connector-curvature="0"
           sodipodi:nodetypes="cccccccccc" />
        <g
           style="fill:#d38d5f;fill-opacity:1"
           transform="matrix(4.8615225,0,0,4.8615225,101.05077,-1475.8547)"
           id="g13302">
          <path
             sodipodi:nodetypes="ccccccccccccccccccccccc"
             inkscape:connector-curvature="0"
             id="path13300"
             d="m 1.9285154,342.74357 c -0.6114549,0.66788 -1.64655144,1.90897 -1.30790258,2.66154 0.33865455,0.75254 1.43012778,0.91293 1.43012778,0.91293 0,0 -0.6395645,-0.60199 -1.05347012,-1.26048 -0.41390755,-0.65849 0.93124492,-2.31399 0.93124492,-2.31399 z m 5.4735547,0 c 0,0 1.3459847,1.6555 0.9320753,2.31399 -0.4139076,0.65849 -1.0543022,1.26048 -1.0543022,1.26048 0,0 1.091475,-0.16045 1.4301278,-0.91293 0.3386507,-0.75257 -0.6964477,-1.99366 -1.3079009,-2.66154 z m -5.156766,2.34474 c -0.1099363,0 -0.2064704,0.0229 -0.2793732,0.0724 -0.291613,0.19753 -0.1596367,0.52711 -0.1596367,0.52711 0.6114549,-0.73371 2.0034968,0.29132 2.2857056,0.46067 0.2388118,0.14316 0.4861169,0.15295 0.5737159,0.15295 0.088343,3e-5 0.3345996,-0.009 0.5728798,-0.15295 0.2822086,-0.16933 1.6750865,-1.19438 2.2865358,-0.46067 0,0 0.1311455,-0.32958 -0.1604652,-0.52711 -0.2916169,-0.19755 -0.9591076,0.0474 -1.3636108,0.28268 -0.3869849,0.22497 -0.8360388,0.48031 -1.3353339,0.48223 -0.4996418,0 -0.9489635,-0.25712 -1.3361738,-0.48223 -0.3033755,-0.17646 -0.7544001,-0.3586 -1.084232,-0.35506 z"
             style="opacity:1;vector-effect:none;fill:#a05a2c;fill-opacity:1;stroke:none;stroke-width:0.46573013;stroke-linecap:butt;stroke-linejoin:miter;stroke-miterlimit:4;stroke-dasharray:none;stroke-dashoffset:0;stroke-opacity:1" />
        </g>
        <path
           sodipodi:nodetypes="ccccccsccccccscccccccccccccc"
           inkscape:connector-curvature="0"
           id="path13304"
           d="m 123.85113,86.378919 v 0.02924 c -3.90208,0.146565 -28.510581,3.33692 -43.367092,10.850551 0,0 -15.71464,2.724462 -14.237176,43.42208 -1.744327,5.6371 -8.825981,18.51632 -4.029374,19.48361 6.178545,0.8059 21.491102,-8.32729 33.713911,-11.95386 9.197301,-2.36333 18.867901,-2.69995 28.330901,-2.69995 8.60645,0 20.10242,0.47904 28.33272,2.69995 12.22278,3.62657 27.53398,12.75976 33.71255,11.95386 4.76587,-4.40498 -1.92823,-14.4454 -4.02939,-19.48361 0,0 2.28865,-35.06415 -14.23717,-43.42208 -14.85899,-7.5148 -39.46963,-10.704149 -43.3671,-10.850551 v -0.02924 c 0,0 -0.29811,0.0124 -0.41161,0.0124 -0.11303,0 -0.41117,-0.0124 -0.41117,-0.0124 z m 0.41117,51.421471 c 19.9336,0.0336 29.60536,2.43905 38.37421,5.31494 8.83279,2.89678 21.7739,11.60836 22.8661,9.6614 0,3.08933 -6.85123,-0.26911 -14.23855,-3.76123 -7.33797,-3.46884 -18.92492,-9.85009 -46.724,-9.93504 v -0.0124 h -0.27776 -0.27731 v 0.0124 c -27.798835,0.084 -39.386483,6.4662 -46.724451,9.93504 -7.387322,3.49228 -14.236731,6.85056 -14.236731,3.76123 1.092245,1.94696 14.033865,-6.76462 22.866559,-9.6614 8.768888,-2.87589 18.438323,-5.2803 38.371933,-5.31494 z"
           style="opacity:1;vector-effect:none;fill:#4d4d4d;fill-opacity:1;stroke:none;stroke-width:0.82287592;stroke-linecap:butt;stroke-linejoin:miter;stroke-miterlimit:4;stroke-dasharray:none;stroke-dashoffset:0;stroke-opacity:1" />
        <g
           transform="matrix(0.59484123,0,0,0.59484123,220.46118,-146.84896)"
           id="g13320">
          <path
             inkscape:connector-curvature="0"
             id="path13306"
             d="m -176.61352,437.90286 c -0.0689,0.005 -0.15637,0.0354 -0.28655,0.0859 -0.20602,0.0799 -0.85454,0.30208 -1.44104,0.49351 -0.5865,0.19141 -1.12951,0.39744 -1.20668,0.45776 -0.20028,0.15657 -0.20588,18.49283 -0.006,18.69301 0.0912,0.0912 0.61447,0.13483 1.61972,0.13483 1.87319,0 1.83528,0.0295 1.84444,-1.43929 l 0.007,-1.08632 1.32879,-1.20668 c 0.75412,-0.6848 1.42541,-1.20668 1.5522,-1.20668 0.13975,0 1.15741,0.91426 2.71766,2.44142 l 2.49448,2.44143 1.64318,0.0561 c 1.87449,0.064 2.00158,0.05 2.15597,-0.23853 0.15668,-0.29276 0.0362,-0.47461 -0.92298,-1.39062 -4.6358,-4.4271 -5.59493,-5.39007 -5.59493,-5.61838 0,-0.22487 0.73183,-1.00921 2.154,-2.30835 0.22779,-0.20807 1.32582,-1.23689 2.44011,-2.28642 2.68919,-2.53291 2.6895,-2.63786 0.007,-2.63786 h -1.58705 l -0.97407,0.92431 c -0.53568,0.50838 -1.52949,1.45928 -2.20859,2.11323 -4.55118,4.38251 -4.70315,4.50567 -5.08498,4.12383 -0.1014,-0.10138 -0.13462,-1.61107 -0.13462,-6.10508 0,-5.71257 -0.009,-5.98199 -0.21463,-6.23554 -0.12435,-0.15347 -0.18787,-0.21437 -0.30276,-0.20564 z"
             style="fill:#ffffff;stroke-width:0.11224927" />
          <path
             inkscape:connector-curvature="0"
             id="path13308"
             d="m -152.41153,438.23654 c -1.03768,0 -1.56981,0.043 -1.66137,0.13461 -0.19518,0.19517 -0.19518,19.17901 0,19.37418 0.0909,0.0909 0.60799,0.13483 1.59078,0.13483 1.19732,0 1.49258,-0.0331 1.66138,-0.18591 0.19577,-0.17718 0.2052,-0.6248 0.2052,-9.68699 0,-7.24027 -0.032,-9.53347 -0.13461,-9.63611 -0.0916,-0.0916 -0.62369,-0.13461 -1.66138,-0.13461 z"
             style="fill:#ffffff;stroke-width:0.11224927" />
          <path
             inkscape:connector-curvature="0"
             id="path13310"
             d="m -145.67657,438.23654 c -1.03768,0 -1.56982,0.043 -1.66138,0.13461 -0.19892,0.19891 -0.19443,18.96734 0.005,19.28605 0.12781,0.20464 0.26437,0.22296 1.66137,0.22296 1.03415,0 1.56525,-0.0433 1.65678,-0.13483 0.19517,-0.19517 0.19517,-19.17901 0,-19.37418 -0.0916,-0.0916 -0.6237,-0.13461 -1.66138,-0.13461 z"
             style="fill:#ffffff;stroke-width:0.11224927" />
          <path
             inkscape:connector-curvature="0"
             id="path13312"
             d="m -159.30039,438.34879 c -1.92844,0 -1.86658,-0.0583 -1.86658,1.75718 v 1.3858 h 1.79599 1.79599 v -1.43689 c 0,-0.96783 -0.0439,-1.48074 -0.13462,-1.57149 -0.0909,-0.0909 -0.60799,-0.1346 -1.59078,-0.1346 z"
             style="fill:#ffffff;stroke-width:0.11224927" />
          <path
             inkscape:connector-curvature="0"
             id="path13314"
             d="m -161.16697,443.06326 v 7.15896 c 0,6.29776 0.021,7.18899 0.17473,7.40845 0.16487,0.23539 0.25481,0.24949 1.59078,0.24949 1.16006,0 1.45308,-0.0337 1.62126,-0.18591 0.19479,-0.17631 0.20521,-0.55379 0.20521,-7.40845 v -7.22254 h -1.79599 z"
             style="fill:#ffffff;stroke-width:0.11224927" />
          <path
             inkscape:connector-curvature="0"
             id="path13316"
             d="m -138.33674,443.13866 c -1.5564,0.0213 -1.95063,0.0653 -2.07968,0.15565 -0.23539,0.16487 -0.24949,0.25459 -0.24949,1.59056 0,1.16007 0.0335,1.45309 0.18569,1.62126 0.11096,0.1226 0.30854,0.17214 2.14348,0.19205 h 5.98846 c -0.0547,0.0488 -0.11595,0.10187 -0.16728,0.14843 l -6.79722,6.3366 c -0.49798,0.573 -1.34018,1.17831 -1.34018,1.91832 -0.0104,0.21682 -0.0129,0.51245 -0.0129,0.95215 0,1.16006 0.0335,1.45309 0.18569,1.62126 0.11096,0.1226 0.30854,0.17213 2.14348,0.19204 h 9.29279 c 1.83477,-0.0199 2.03231,-0.0695 2.14326,-0.19204 0.1522,-0.16817 0.18592,-0.4612 0.18592,-1.62126 0,-1.33597 -0.0141,-1.42569 -0.2495,-1.59057 -0.12905,-0.0904 -0.52328,-0.13432 -2.07968,-0.15565 h -6.2546 l 5.21016,-4.8572 c 1.01363,-1.02404 2.1691,-1.95312 3.1877,-2.94418 0.1522,-0.16817 0.18592,-0.46119 0.18592,-1.62126 0,-1.33597 -0.0141,-1.42569 -0.2495,-1.59056 -0.12905,-0.0904 -0.52328,-0.13433 -2.07968,-0.15565 z"
             style="fill:#488fe9;fill-opacity:1;stroke-width:0.11224927" />
          <path
             inkscape:connector-curvature="0"
             id="path13318"
             d="m -188.8123,443.40327 c -2.97664,0.002 -5.79092,0.0523 -6.25395,0.11181 -1.06392,0.13669 -2.19359,0.67661 -2.55389,1.22071 -0.42673,0.64443 -0.50162,1.16818 -0.45097,3.15022 0.0409,1.602 0.0823,1.94302 0.3032,2.49185 0.33118,0.82273 0.70574,1.16894 1.65151,1.52654 0.76587,0.28958 0.79003,0.29126 5.05144,0.35516 4.07493,0.0611 4.29399,0.075 4.52965,0.28853 0.21105,0.19118 0.24041,0.31202 0.19841,0.81841 -0.0588,0.70965 -0.34924,1.14942 -0.88243,1.33624 -0.27368,0.0959 -1.8426,0.13577 -5.52016,0.14032 l -5.13782,0.006 -0.10041,0.25256 c -0.0553,0.13891 -0.18569,0.72264 -0.28983,1.29723 -0.17974,0.99152 -0.17945,1.05578 0.008,1.26281 0.19057,0.21058 0.39568,0.21803 5.93277,0.21769 4.67625,-2.9e-4 5.92202,-0.0326 6.7457,-0.17472 2.49056,-0.4299 3.06731,-1.29618 2.95181,-4.43429 -0.0728,-1.97776 -0.41518,-2.65785 -1.60767,-3.19385 -0.9087,-0.40844 -1.94589,-0.50296 -5.51885,-0.50381 -2.00216,-3.7e-4 -3.51747,-0.0483 -3.77284,-0.11925 -0.59989,-0.16659 -0.86315,-0.63406 -0.86358,-1.53401 -3.7e-4,-0.61483 0.0394,-0.74429 0.3271,-1.06637 l 0.32732,-0.36656 5.00277,-0.0324 c 4.58643,-0.0298 5.01141,-0.0485 5.10493,-0.2245 0.19678,-0.37044 0.46149,-2.39726 0.34223,-2.6201 -0.10739,-0.20067 -0.35058,-0.20991 -5.52433,-0.20652 z"
             style="fill:#ffffff;stroke-width:0.11224927" />
        </g>
        <g
           transform="matrix(0.88405249,0,0,0.88405249,321.77132,-978.20779)"
           id="g13322"
           style="font-style:normal;font-variant:normal;font-weight:normal;font-stretch:normal;font-size:24.85676003px;line-height:1.25;font-family:sans-serif;font-variant-ligatures:normal;font-variant-position:normal;font-variant-caps:normal;font-variant-numeric:normal;font-variant-alternates:normal;font-feature-settings:normal;text-indent:0;text-align:start;text-decoration:none;text-decoration-line:none;text-decoration-style:solid;text-decoration-color:#000000;letter-spacing:0px;word-spacing:0px;text-transform:none;writing-mode:lr-tb;direction:ltr;text-orientation:mixed;dominant-baseline:auto;baseline-shift:baseline;text-anchor:start;white-space:normal;shape-padding:0;opacity:1;vector-effect:none;fill:#5aa02c;fill-opacity:1;stroke:none;stroke-width:0.62141895;stroke-linecap:butt;stroke-linejoin:miter;stroke-miterlimit:4;stroke-dasharray:none;stroke-dashoffset:0;stroke-opacity:1"
           aria-label="$" />
        <g
           transform="matrix(0.88405249,0,0,0.88405249,321.77132,-978.20779)"
           id="g13324"
           style="font-style:normal;font-variant:normal;font-weight:normal;font-stretch:normal;font-size:24.85676003px;line-height:1.25;font-family:sans-serif;font-variant-ligatures:normal;font-variant-position:normal;font-variant-caps:normal;font-variant-numeric:normal;font-variant-alternates:normal;font-feature-settings:normal;text-indent:0;text-align:start;text-decoration:none;text-decoration-line:none;text-decoration-style:solid;text-decoration-color:#000000;letter-spacing:0px;word-spacing:0px;text-transform:none;writing-mode:lr-tb;direction:ltr;text-orientation:mixed;dominant-baseline:auto;baseline-shift:baseline;text-anchor:start;white-space:normal;shape-padding:0;opacity:1;vector-effect:none;fill:#5aa02c;fill-opacity:1;stroke:none;stroke-width:0.62141895;stroke-linecap:butt;stroke-linejoin:miter;stroke-miterlimit:4;stroke-dasharray:none;stroke-dashoffset:0;stroke-opacity:1"
           aria-label="$" />
      </g>
      <path
         sodipodi:nodetypes="ccccc"
         inkscape:connector-curvature="0"
         id="path5857"
         d="m 1774.46,65.975274 -64.9265,-14.211982 11.3908,14.948248 65.2168,14.261796 z"
         style="opacity:1;vector-effect:none;fill:#fe0000;fill-opacity:1;fill-rule:evenodd;stroke:none;stroke-width:0.10601407;stroke-linecap:butt;stroke-linejoin:miter;stroke-miterlimit:4;stroke-dasharray:none;stroke-dashoffset:0;stroke-opacity:1" />
      <g
         aria-label="2F05J"
         transform="matrix(1.0501121,0.23893682,0.1529258,0.98707519,0,0)"
         style="font-style:normal;font-variant:normal;font-weight:900;font-stretch:normal;font-size:11.46270943px;line-height:1.25;font-family:Carbon;-inkscape-font-specification:'Carbon, Heavy';font-variant-ligatures:normal;font-variant-position:normal;font-variant-caps:normal;font-variant-numeric:normal;font-variant-alternates:normal;font-feature-settings:normal;text-indent:0;text-align:start;text-decoration:none;text-decoration-line:none;text-decoration-style:solid;text-decoration-color:#000000;letter-spacing:0px;word-spacing:0px;text-transform:none;writing-mode:lr-tb;direction:ltr;text-orientation:mixed;dominant-baseline:auto;baseline-shift:baseline;text-anchor:start;white-space:normal;shape-padding:0;opacity:1;vector-effect:none;fill:#000000;fill-opacity:1;stroke:none;stroke-width:0.28656486;stroke-linecap:butt;stroke-linejoin:miter;stroke-miterlimit:4;stroke-dasharray:none;stroke-dashoffset:0;stroke-opacity:1"
         id="text5861">
        <path
           d="m 1701.1106,-343.90439 v -2.00597 q 0,-0.56168 0.1948,-1.00872 0.1949,-0.44705 0.6305,-0.77947 l 1.7996,-1.40991 q 0.2522,-0.19486 0.3439,-0.36681 0.092,-0.17194 0.092,-0.40119 v -0.88263 q 0,-0.51582 -0.5731,-0.51582 -0.5732,0 -0.5732,0.51582 v 1.2609 h -1.7996 v -1.08896 q 0,-0.49289 0.1719,-0.81385 0.172,-0.33242 0.4815,-0.52729 0.3209,-0.20632 0.7565,-0.28656 0.4356,-0.0917 0.9629,-0.0917 0.5387,0 0.9972,0.0917 0.47,0.0802 0.8024,0.2751 0.3439,0.19487 0.5388,0.52729 0.1948,0.33242 0.1948,0.81385 v 0.79093 q 0,0.50436 -0.1948,0.84824 -0.1834,0.34388 -0.6076,0.6763 l -1.7423,1.37552 q -0.1834,0.14902 -0.3095,0.27511 -0.1261,0.12609 -0.2063,0.2751 -0.069,0.13755 -0.1032,0.29803 -0.034,0.16048 -0.034,0.37827 v 0.59606 h 3.072 v 1.18066 z"
           style="font-style:normal;font-variant:normal;font-weight:900;font-stretch:normal;font-size:11.46270943px;font-family:Carbon;-inkscape-font-specification:'Carbon, Heavy';font-variant-ligatures:normal;font-variant-caps:normal;font-variant-numeric:normal;font-feature-settings:normal;text-align:start;writing-mode:lr-tb;text-anchor:start;fill:#000000;fill-opacity:1;stroke-width:0.28656486"
           id="path84" />
        <path
           d="m 1706.9435,-343.90439 v -8.16145 h 4.2068 v 1.11189 h -2.2582 v 2.14352 h 2.1894 v 1.0775 h -2.1894 v 3.82854 z"
           style="font-style:normal;font-variant:normal;font-weight:900;font-stretch:normal;font-size:11.46270943px;font-family:Carbon;-inkscape-font-specification:'Carbon, Heavy';font-variant-ligatures:normal;font-variant-caps:normal;font-variant-numeric:normal;font-feature-settings:normal;text-align:start;writing-mode:lr-tb;text-anchor:start;fill:#000000;fill-opacity:1;stroke-width:0.28656486"
           id="path86" />
        <path
           d="m 1711.6767,-350.59861 q 0,-0.48143 0.1948,-0.81385 0.1949,-0.33242 0.5273,-0.52729 0.3439,-0.19486 0.8024,-0.2751 0.47,-0.0917 1.0087,-0.0917 0.5273,0 0.9858,0.0917 0.4585,0.0802 0.7909,0.28656 0.3439,0.19487 0.5388,0.52729 0.1949,0.32096 0.1949,0.81385 v 5.21553 q 0,0.4929 -0.1949,0.82532 -0.1949,0.32096 -0.5388,0.52728 -0.3324,0.19487 -0.7909,0.27511 -0.4585,0.0917 -0.9858,0.0917 -0.5387,0 -1.0087,-0.0917 -0.4585,-0.0802 -0.8024,-0.27511 -0.3324,-0.19486 -0.5273,-0.52728 -0.1948,-0.33242 -0.1948,-0.81385 z m 3.1064,-0.16048 q 0,-0.51582 -0.5732,-0.51582 -0.5731,0 -0.5731,0.51582 v 5.55942 q 0,0.51582 0.5731,0.51582 0.5732,0 0.5732,-0.51582 z"
           style="font-style:normal;font-variant:normal;font-weight:900;font-stretch:normal;font-size:11.46270943px;font-family:Carbon;-inkscape-font-specification:'Carbon, Heavy';font-variant-ligatures:normal;font-variant-caps:normal;font-variant-numeric:normal;font-feature-settings:normal;text-align:start;writing-mode:lr-tb;text-anchor:start;fill:#000000;fill-opacity:1;stroke-width:0.28656486"
           id="path88" />
        <path
           d="m 1720.3998,-347.33174 q 0,-0.66484 -0.7566,-0.66484 h -2.1893 v -4.06926 h 4.8487 v 0.96287 h -3.0491 v 2.06329 h 1.1578 q 0.9628,0 1.4557,0.32095 0.4929,0.3095 0.4929,0.96287 v 2.39571 q 0,0.48143 -0.1949,0.81385 -0.1948,0.33242 -0.5387,0.52728 -0.3324,0.19487 -0.8024,0.27511 -0.4585,0.0917 -0.9972,0.0917 -0.5273,0 -0.9629,-0.0917 -0.4356,-0.0802 -0.7566,-0.27511 -0.3094,-0.20632 -0.4814,-0.52728 -0.1719,-0.33242 -0.1719,-0.82532 v -1.47868 h 1.7996 v 1.65063 q 0,0.51582 0.5732,0.51582 0.5731,0 0.5731,-0.51582 z"
           style="font-style:normal;font-variant:normal;font-weight:900;font-stretch:normal;font-size:11.46270943px;font-family:Carbon;-inkscape-font-specification:'Carbon, Heavy';font-variant-ligatures:normal;font-variant-caps:normal;font-variant-numeric:normal;font-feature-settings:normal;text-align:start;writing-mode:lr-tb;text-anchor:start;fill:#000000;fill-opacity:1;stroke-width:0.28656486"
           id="path90" />
        <path
           d="m 1725.9603,-352.06584 h 1.9601 v 6.70569 q 0,0.48143 -0.1949,0.81385 -0.1948,0.33242 -0.5387,0.52728 -0.3324,0.19487 -0.8024,0.27511 -0.4585,0.0917 -0.9973,0.0917 -0.5272,0 -0.9628,-0.0917 -0.4356,-0.0802 -0.7566,-0.27511 -0.3095,-0.20632 -0.4814,-0.52728 -0.1719,-0.33242 -0.1719,-0.82532 v -1.70794 h 1.7996 v 1.87989 q 0,0.51582 0.5731,0.51582 0.5732,0 0.5732,-0.51582 z"
           style="font-style:normal;font-variant:normal;font-weight:900;font-stretch:normal;font-size:11.46270943px;font-family:Carbon;-inkscape-font-specification:'Carbon, Heavy';font-variant-ligatures:normal;font-variant-caps:normal;font-variant-numeric:normal;font-feature-settings:normal;text-align:start;writing-mode:lr-tb;text-anchor:start;fill:#000000;fill-opacity:1;stroke-width:0.28656486"
           id="path92" />
      </g>
      <g
         aria-label="Enter promo code"
         transform="matrix(1.0501121,0.24694756,0.1529258,0.98824178,0,0)"
         style="font-style:normal;font-variant:normal;font-weight:900;font-stretch:normal;font-size:5.81403828px;line-height:1.25;font-family:Carbon;-inkscape-font-specification:'Carbon, Heavy';font-variant-ligatures:normal;font-variant-position:normal;font-variant-caps:normal;font-variant-numeric:normal;font-variant-alternates:normal;font-feature-settings:normal;text-indent:0;text-align:start;text-decoration:none;text-decoration-line:none;text-decoration-style:solid;text-decoration-color:#000000;letter-spacing:0px;word-spacing:0px;text-transform:none;writing-mode:lr-tb;direction:ltr;text-orientation:mixed;dominant-baseline:auto;baseline-shift:baseline;text-anchor:start;white-space:normal;shape-padding:0;opacity:1;vector-effect:none;fill:#ffffff;fill-opacity:1;stroke:none;stroke-width:0.14534949;stroke-linecap:butt;stroke-linejoin:miter;stroke-miterlimit:4;stroke-dasharray:none;stroke-dashoffset:0;stroke-opacity:1"
         id="text14067">
        <path
           d="m 1695.3367,-370.52191 v -4.1396 h 2.1803 v 0.56396 h -1.1919 v 1.04072 h 1.157 v 0.54652 h -1.157 v 1.41862 h 1.1977 v 0.56978 z"
           style="font-style:normal;font-variant:normal;font-weight:900;font-stretch:normal;font-size:5.81403828px;font-family:Carbon;-inkscape-font-specification:'Carbon, Heavy';font-variant-ligatures:normal;font-variant-caps:normal;font-variant-numeric:normal;font-feature-settings:normal;text-align:start;writing-mode:lr-tb;text-anchor:start;fill:#ffffff;fill-opacity:1;stroke-width:0.14534949"
           id="path55" />
        <path
           d="m 1697.8629,-370.52191 z m 1.5756,0 v -3.4768 q 0,-0.26163 -0.2907,-0.26163 -0.2907,0 -0.2907,0.26163 v 3.4768 h -0.9942 v -3.3954 q 0,-0.24419 0.099,-0.4128 0.099,-0.1686 0.2675,-0.26744 0.1744,-0.0988 0.407,-0.13954 0.2383,-0.0465 0.5116,-0.0465 0.2674,0 0.5,0.0465 0.2326,0.0407 0.4012,0.14535 0.1744,0.0988 0.2732,0.26745 0.099,0.16279 0.099,0.41279 v 3.38959 z"
           style="font-style:normal;font-variant:normal;font-weight:900;font-stretch:normal;font-size:5.81403828px;font-family:Carbon;-inkscape-font-specification:'Carbon, Heavy';font-variant-ligatures:normal;font-variant-caps:normal;font-variant-numeric:normal;font-feature-settings:normal;text-align:start;writing-mode:lr-tb;text-anchor:start;fill:#ffffff;fill-opacity:1;stroke-width:0.14534949"
           id="path57" />
        <path
           d="m 1700.6467,-370.52191 z m 0.7966,0 v -3.61052 h -0.7966 v -0.52908 h 2.5757 v 0.52908 h -0.7908 v 3.61052 z"
           style="font-style:normal;font-variant:normal;font-weight:900;font-stretch:normal;font-size:5.81403828px;font-family:Carbon;-inkscape-font-specification:'Carbon, Heavy';font-variant-ligatures:normal;font-variant-caps:normal;font-variant-numeric:normal;font-feature-settings:normal;text-align:start;writing-mode:lr-tb;text-anchor:start;fill:#ffffff;fill-opacity:1;stroke-width:0.14534949"
           id="path59" />
        <path
           d="m 1703.4559,-370.52191 z m 0,0 v -4.1396 h 2.1803 v 0.56396 h -1.1919 v 1.04072 h 1.157 v 0.54652 h -1.157 v 1.41862 h 1.1977 v 0.56978 z"
           style="font-style:normal;font-variant:normal;font-weight:900;font-stretch:normal;font-size:5.81403828px;font-family:Carbon;-inkscape-font-specification:'Carbon, Heavy';font-variant-ligatures:normal;font-variant-caps:normal;font-variant-numeric:normal;font-feature-settings:normal;text-align:start;writing-mode:lr-tb;text-anchor:start;fill:#ffffff;fill-opacity:1;stroke-width:0.14534949"
           id="path61" />
        <path
           d="m 1705.9821,-370.52191 z m 1.5756,0 v -1.43026 q 0,-0.39535 -0.3663,-0.39535 h -0.2151 v 1.82561 h -0.9942 v -3.3954 q 0,-0.24419 0.099,-0.4128 0.099,-0.1686 0.2674,-0.26744 0.1744,-0.0988 0.407,-0.13954 0.2384,-0.0465 0.5116,-0.0465 0.2675,0 0.4884,0.0465 0.2209,0.0407 0.3837,0.14535 0.1628,0.0988 0.25,0.26745 0.093,0.16279 0.093,0.41279 v 0.67443 q 0,0.29652 -0.1628,0.45931 -0.1628,0.15698 -0.5407,0.18605 0.3779,0.0349 0.5523,0.17442 0.1802,0.13954 0.1802,0.38373 v 1.51165 z m 0,-3.4768 q 0,-0.26163 -0.2907,-0.26163 -0.2907,0 -0.2907,0.26163 v 1.18607 h 0.2151 q 0.1745,0 0.2675,-0.0814 0.099,-0.0872 0.099,-0.2907 z"
           style="font-style:normal;font-variant:normal;font-weight:900;font-stretch:normal;font-size:5.81403828px;font-family:Carbon;-inkscape-font-specification:'Carbon, Heavy';font-variant-ligatures:normal;font-variant-caps:normal;font-variant-numeric:normal;font-feature-settings:normal;text-align:start;writing-mode:lr-tb;text-anchor:start;fill:#ffffff;fill-opacity:1;stroke-width:0.14534949"
           id="path63" />
        <path
           d="m 1710.2291,-370.52191 z m 0,0 v -3.3954 q 0,-0.24419 0.099,-0.4128 0.099,-0.1686 0.2675,-0.26744 0.1744,-0.0988 0.407,-0.13954 0.2383,-0.0465 0.5116,-0.0465 0.2674,0 0.4942,0.0465 0.2267,0.0407 0.3895,0.14535 0.1686,0.0988 0.2617,0.26745 0.099,0.16279 0.099,0.41279 v 1.0349 q 0,0.20931 -0.076,0.38954 -0.076,0.17442 -0.2209,0.30233 -0.1454,0.12791 -0.3605,0.20349 -0.2151,0.0698 -0.4942,0.0698 -0.1744,0 -0.3837,-0.0349 v 1.42444 z m 1.5756,-3.4768 q 0,-0.26163 -0.2907,-0.26163 -0.2907,0 -0.2907,0.26163 v 1.54654 h 0.2093 q 0.1512,0 0.2616,-0.0872 0.1105,-0.093 0.1105,-0.27908 z"
           style="font-style:normal;font-variant:normal;font-weight:900;font-stretch:normal;font-size:5.81403828px;font-family:Carbon;-inkscape-font-specification:'Carbon, Heavy';font-variant-ligatures:normal;font-variant-caps:normal;font-variant-numeric:normal;font-feature-settings:normal;text-align:start;writing-mode:lr-tb;text-anchor:start;fill:#ffffff;fill-opacity:1;stroke-width:0.14534949"
           id="path65" />
        <path
           d="m 1713.0339,-370.52191 z m 1.5756,0 v -1.43026 q 0,-0.39535 -0.3663,-0.39535 h -0.2151 v 1.82561 h -0.9942 v -3.3954 q 0,-0.24419 0.099,-0.4128 0.099,-0.1686 0.2675,-0.26744 0.1744,-0.0988 0.407,-0.13954 0.2383,-0.0465 0.5116,-0.0465 0.2675,0 0.4884,0.0465 0.2209,0.0407 0.3837,0.14535 0.1628,0.0988 0.25,0.26745 0.093,0.16279 0.093,0.41279 v 0.67443 q 0,0.29652 -0.1627,0.45931 -0.1628,0.15698 -0.5408,0.18605 0.378,0.0349 0.5524,0.17442 0.1802,0.13954 0.1802,0.38373 v 1.51165 z m 0,-3.4768 q 0,-0.26163 -0.2907,-0.26163 -0.2907,0 -0.2907,0.26163 v 1.18607 h 0.2151 q 0.1744,0 0.2675,-0.0814 0.099,-0.0872 0.099,-0.2907 z"
           style="font-style:normal;font-variant:normal;font-weight:900;font-stretch:normal;font-size:5.81403828px;font-family:Carbon;-inkscape-font-specification:'Carbon, Heavy';font-variant-ligatures:normal;font-variant-caps:normal;font-variant-numeric:normal;font-feature-settings:normal;text-align:start;writing-mode:lr-tb;text-anchor:start;fill:#ffffff;fill-opacity:1;stroke-width:0.14534949"
           id="path67" />
        <path
           d="m 1715.9404,-370.52191 z m 0,-3.3954 q 0,-0.24419 0.099,-0.4128 0.099,-0.1686 0.2675,-0.26744 0.1744,-0.0988 0.4069,-0.13954 0.2384,-0.0465 0.5117,-0.0465 0.2674,0 0.5,0.0465 0.2326,0.0407 0.4012,0.14535 0.1744,0.0988 0.2732,0.26745 0.099,0.16279 0.099,0.41279 v 2.64539 q 0,0.25001 -0.099,0.41861 -0.099,0.1628 -0.2732,0.26745 -0.1686,0.0988 -0.4012,0.13953 -0.2326,0.0465 -0.5,0.0465 -0.2733,0 -0.5117,-0.0465 -0.2325,-0.0407 -0.4069,-0.13953 -0.1686,-0.0988 -0.2675,-0.26745 -0.099,-0.1686 -0.099,-0.41279 z m 1.5756,-0.0814 q 0,-0.26163 -0.2907,-0.26163 -0.2907,0 -0.2907,0.26163 v 2.81981 q 0,0.26163 0.2907,0.26163 0.2907,0 0.2907,-0.26163 z"
           style="font-style:normal;font-variant:normal;font-weight:900;font-stretch:normal;font-size:5.81403828px;font-family:Carbon;-inkscape-font-specification:'Carbon, Heavy';font-variant-ligatures:normal;font-variant-caps:normal;font-variant-numeric:normal;font-feature-settings:normal;text-align:start;writing-mode:lr-tb;text-anchor:start;fill:#ffffff;fill-opacity:1;stroke-width:0.14534949"
           id="path69" />
        <path
           d="m 1718.8707,-370.52191 z m 3.1395,0 v -3.45354 q 0,-0.26163 -0.2965,-0.26163 -0.2849,0 -0.2849,0.28489 v 3.43028 h -0.9942 v -3.48842 q 0,-0.0988 -0.093,-0.1628 -0.087,-0.0639 -0.186,-0.0639 -0.2907,0 -0.2907,0.26163 v 3.45354 h -0.9942 v -3.43028 q 0,-0.21512 0.099,-0.3721 0.1046,-0.15698 0.2791,-0.25582 0.1744,-0.10465 0.4011,-0.15117 0.2268,-0.0523 0.4768,-0.0523 0.5,0 0.8081,0.23256 0.3373,-0.23256 0.8256,-0.23256 0.25,0 0.471,0.0523 0.2267,0.0465 0.3953,0.15117 0.1686,0.0988 0.2675,0.25582 0.1046,0.15698 0.1046,0.3721 v 3.43028 z"
           style="font-style:normal;font-variant:normal;font-weight:900;font-stretch:normal;font-size:5.81403828px;font-family:Carbon;-inkscape-font-specification:'Carbon, Heavy';font-variant-ligatures:normal;font-variant-caps:normal;font-variant-numeric:normal;font-feature-settings:normal;text-align:start;writing-mode:lr-tb;text-anchor:start;fill:#ffffff;fill-opacity:1;stroke-width:0.14534949"
           id="path71" />
        <path
           d="m 1723.3669,-370.52191 z m 0,-3.3954 q 0,-0.24419 0.099,-0.4128 0.099,-0.1686 0.2675,-0.26744 0.1744,-0.0988 0.407,-0.13954 0.2383,-0.0465 0.5116,-0.0465 0.2675,0 0.5,0.0465 0.2326,0.0407 0.4012,0.14535 0.1744,0.0988 0.2732,0.26745 0.099,0.16279 0.099,0.41279 v 2.64539 q 0,0.25001 -0.099,0.41861 -0.099,0.1628 -0.2732,0.26745 -0.1686,0.0988 -0.4012,0.13953 -0.2325,0.0465 -0.5,0.0465 -0.2733,0 -0.5116,-0.0465 -0.2326,-0.0407 -0.407,-0.13953 -0.1686,-0.0988 -0.2675,-0.26745 -0.099,-0.1686 -0.099,-0.41279 z m 1.5756,-0.0814 q 0,-0.26163 -0.2907,-0.26163 -0.2907,0 -0.2907,0.26163 v 2.81981 q 0,0.26163 0.2907,0.26163 0.2907,0 0.2907,-0.26163 z"
           style="font-style:normal;font-variant:normal;font-weight:900;font-stretch:normal;font-size:5.81403828px;font-family:Carbon;-inkscape-font-specification:'Carbon, Heavy';font-variant-ligatures:normal;font-variant-caps:normal;font-variant-numeric:normal;font-feature-settings:normal;text-align:start;writing-mode:lr-tb;text-anchor:start;fill:#ffffff;fill-opacity:1;stroke-width:0.14534949"
           id="path73" />
        <path
           d="m 1727.5912,-370.52191 z m 1.5756,-1.61049 h 0.9128 v 0.86629 q 0,0.25001 -0.087,0.41861 -0.087,0.1628 -0.25,0.26745 -0.157,0.0988 -0.3779,0.13953 -0.221,0.0465 -0.4884,0.0465 -0.2733,0 -0.5117,-0.0465 -0.2325,-0.0407 -0.4069,-0.13953 -0.1687,-0.0988 -0.2675,-0.26745 -0.099,-0.1686 -0.099,-0.41279 v -2.65702 q 0,-0.24419 0.099,-0.4128 0.099,-0.1686 0.2675,-0.26744 0.1744,-0.0988 0.4069,-0.13954 0.2384,-0.0465 0.5117,-0.0465 0.2674,0 0.4884,0.0465 0.2209,0.0407 0.3779,0.14535 0.1628,0.0988 0.25,0.26745 0.087,0.16279 0.087,0.41279 v 0.77909 h -0.9128 v -0.8663 q 0,-0.26163 -0.2907,-0.26163 -0.2907,0 -0.2907,0.26163 v 2.81981 q 0,0.26163 0.2907,0.26163 0.2907,0 0.2907,-0.26163 z"
           style="font-style:normal;font-variant:normal;font-weight:900;font-stretch:normal;font-size:5.81403828px;font-family:Carbon;-inkscape-font-specification:'Carbon, Heavy';font-variant-ligatures:normal;font-variant-caps:normal;font-variant-numeric:normal;font-feature-settings:normal;text-align:start;writing-mode:lr-tb;text-anchor:start;fill:#ffffff;fill-opacity:1;stroke-width:0.14534949"
           id="path75" />
        <path
           d="m 1730.396,-370.52191 z m 0,-3.3954 q 0,-0.24419 0.099,-0.4128 0.099,-0.1686 0.2675,-0.26744 0.1744,-0.0988 0.407,-0.13954 0.2383,-0.0465 0.5116,-0.0465 0.2674,0 0.5,0.0465 0.2326,0.0407 0.4012,0.14535 0.1744,0.0988 0.2732,0.26745 0.099,0.16279 0.099,0.41279 v 2.64539 q 0,0.25001 -0.099,0.41861 -0.099,0.1628 -0.2732,0.26745 -0.1686,0.0988 -0.4012,0.13953 -0.2326,0.0465 -0.5,0.0465 -0.2733,0 -0.5116,-0.0465 -0.2326,-0.0407 -0.407,-0.13953 -0.1686,-0.0988 -0.2675,-0.26745 -0.099,-0.1686 -0.099,-0.41279 z m 1.5756,-0.0814 q 0,-0.26163 -0.2907,-0.26163 -0.2907,0 -0.2907,0.26163 v 2.81981 q 0,0.26163 0.2907,0.26163 0.2907,0 0.2907,-0.26163 z"
           style="font-style:normal;font-variant:normal;font-weight:900;font-stretch:normal;font-size:5.81403828px;font-family:Carbon;-inkscape-font-specification:'Carbon, Heavy';font-variant-ligatures:normal;font-variant-caps:normal;font-variant-numeric:normal;font-feature-settings:normal;text-align:start;writing-mode:lr-tb;text-anchor:start;fill:#ffffff;fill-opacity:1;stroke-width:0.14534949"
           id="path77" />
        <path
           d="m 1733.3437,-370.52191 z m 0,0 v -4.1396 h 1.25 q 1.3082,0 1.3082,0.97676 v 2.19189 q 0,0.97095 -1.3198,0.97095 z m 1.5698,-3.38959 q 0,-0.27326 -0.4477,-0.27326 h -0.1337 v 3.15703 h 0.1337 q 0.4477,0 0.4477,-0.26745 z"
           style="font-style:normal;font-variant:normal;font-weight:900;font-stretch:normal;font-size:5.81403828px;font-family:Carbon;-inkscape-font-specification:'Carbon, Heavy';font-variant-ligatures:normal;font-variant-caps:normal;font-variant-numeric:normal;font-feature-settings:normal;text-align:start;writing-mode:lr-tb;text-anchor:start;fill:#ffffff;fill-opacity:1;stroke-width:0.14534949"
           id="path79" />
        <path
           d="m 1736.2961,-370.52191 z m 0,0 v -4.1396 h 2.1803 v 0.56396 h -1.1919 v 1.04072 h 1.157 v 0.54652 h -1.157 v 1.41862 h 1.1977 v 0.56978 z"
           style="font-style:normal;font-variant:normal;font-weight:900;font-stretch:normal;font-size:5.81403828px;font-family:Carbon;-inkscape-font-specification:'Carbon, Heavy';font-variant-ligatures:normal;font-variant-caps:normal;font-variant-numeric:normal;font-feature-settings:normal;text-align:start;writing-mode:lr-tb;text-anchor:start;fill:#ffffff;fill-opacity:1;stroke-width:0.14534949"
           id="path81" />
      </g>
      <path
         sodipodi:nodetypes="ccccccccc"
         inkscape:connector-curvature="0"
         id="rect14069"
         d="m 1753.4919,92.774447 7.8987,2.997292 v 0.0024 l 2.9824,1.131757 5.8376,-16.403826 -2.9825,-1.131758 -4.7044,13.417612 -7.8988,-2.997254 z"
         style="opacity:1;vector-effect:none;fill:#008000;fill-opacity:1;fill-rule:evenodd;stroke:none;stroke-width:0.18438087;stroke-linecap:butt;stroke-linejoin:miter;stroke-miterlimit:4;stroke-dasharray:none;stroke-dashoffset:0;stroke-opacity:1" />
    </g>
  </g>
</svg>
