<?xml version="1.0" encoding="UTF-8" standalone="no"?>
<!-- Created with Inkscape (http://www.inkscape.org/) -->

<svg
   xmlns:dc="http://purl.org/dc/elements/1.1/"
   xmlns:cc="http://creativecommons.org/ns#"
   xmlns:rdf="http://www.w3.org/1999/02/22-rdf-syntax-ns#"
   xmlns:svg="http://www.w3.org/2000/svg"
   xmlns="http://www.w3.org/2000/svg"
   xmlns:sodipodi="http://sodipodi.sourceforge.net/DTD/sodipodi-0.dtd"
   xmlns:inkscape="http://www.inkscape.org/namespaces/inkscape"
   width="800"
   height="200"
   viewBox="0 0 211.66666 52.916668"
   version="1.1"
   id="svg2425"
   inkscape:version="0.92.4 (5da689c313, 2019-01-14)"
   sodipodi:docname="promo-code-ticket.svg">
  <defs
     id="defs2419" />
  <sodipodi:namedview
     id="base"
     pagecolor="#1e1e1e"
     bordercolor="#666666"
     borderopacity="1.0"
     inkscape:pageopacity="0.0"
     inkscape:pageshadow="2"
     inkscape:zoom="0.98994949"
     inkscape:cx="365.32012"
     inkscape:cy="-4.8601884"
     inkscape:document-units="mm"
     inkscape:current-layer="layer1"
     showgrid="false"
     units="px"
     inkscape:pagecheckerboard="true"
     borderlayer="true"
     inkscape:showpageshadow="false"
     inkscape:window-width="1920"
     inkscape:window-height="1028"
     inkscape:window-x="0"
     inkscape:window-y="0"
     inkscape:window-maximized="1" />
  <metadata
     id="metadata2422">
    <rdf:RDF>
      <cc:Work
         rdf:about="">
        <dc:format>image/svg+xml</dc:format>
        <dc:type
           rdf:resource="http://purl.org/dc/dcmitype/StillImage" />
        <dc:title></dc:title>
      </cc:Work>
    </rdf:RDF>
  </metadata>
  <g
     inkscape:label="Layer 1"
     inkscape:groupmode="layer"
     id="layer1"
     transform="translate(0,-244.08332)">
    <path
       style="opacity:1;vector-effect:none;fill:#d40000;fill-opacity:1;fill-rule:evenodd;stroke:none;stroke-width:0.28945509;stroke-linecap:butt;stroke-linejoin:miter;stroke-miterlimit:4;stroke-dasharray:none;stroke-dashoffset:0;stroke-opacity:1"
       d="m 9.3487897,246.35418 c -3.8497472,0 -6.9489296,3.09918 -6.9489296,6.94893 v 7.51169 a 10.394345,10.394345 0 0 1 0.4196126,0.15347 10.394345,10.394345 0 0 1 0.9353434,0.45166 10.394345,10.394345 0 0 1 0.8857339,0.54312 10.394345,10.394345 0 0 1 0.8273399,0.6289 10.394345,10.394345 0 0 1 0.7601601,0.70796 10.394345,10.394345 0 0 1 0.6857463,0.78084 10.394345,10.394345 0 0 1 0.6040974,0.84491 10.394345,10.394345 0 0 1 0.5172814,0.90123 10.394345,10.394345 0 0 1 0.4242633,0.94826 10.394345,10.394345 0 0 1 0.3276288,0.98599 10.394345,10.394345 0 0 1 0.227376,1.01389 10.394345,10.394345 0 0 1 0.1255739,1.03146 10.394345,10.394345 0 0 1 0.025839,0.73536 10.394345,10.394345 0 0 1 -0.051676,1.03766 10.394345,10.394345 0 0 1 -0.1555462,1.02733 10.394345,10.394345 0 0 1 -0.2568318,1.00666 10.394345,10.394345 0 0 1 -0.3565673,0.97617 10.394345,10.394345 0 0 1 -0.4516522,0.93534 10.394345,10.394345 0 0 1 -0.5431192,0.88573 10.394345,10.394345 0 0 1 -0.6289021,0.82734 10.394345,10.394345 0 0 1 -0.7079671,0.76016 10.394345,10.394345 0 0 1 -0.7808309,0.68575 10.394345,10.394345 0 0 1 -0.8449098,0.60461 10.394345,10.394345 0 0 1 -0.901237,0.51677 10.394345,10.394345 0 0 1 -0.9487792,0.42426 10.394345,10.394345 0 0 1 -0.1379761,0.046 v 7.50497 c 0,3.84975 3.0991825,6.94893 6.9489297,6.94893 H 58.799519 a 2.645833,2.645833 0 0 1 0.01394,-0.11627 2.645833,2.645833 0 0 1 0.05839,-0.25838 2.645833,2.645833 0 0 1 0.0832,-0.25063 2.645833,2.645833 0 0 1 0.108003,-0.24133 2.645833,2.645833 0 0 1 0.131776,-0.22945 2.645833,2.645833 0 0 1 0.153477,-0.21549 2.645833,2.645833 0 0 1 0.174667,-0.19843 2.645833,2.645833 0 0 1 0.193786,-0.18035 2.645833,2.645833 0 0 1 0.210323,-0.1602 2.645833,2.645833 0 0 1 0.225311,-0.13798 2.645833,2.645833 0 0 1 0.238228,-0.11524 2.645833,2.645833 0 0 1 0.248563,-0.0904 2.645833,2.645833 0 0 1 0.256315,-0.0656 2.645833,2.645833 0 0 1 0.261483,-0.0393 2.645833,2.645833 0 0 1 0.264067,-0.0135 2.645833,2.645833 0 0 1 0.187068,0.007 2.645833,2.645833 0 0 1 0.262517,0.0315 2.645833,2.645833 0 0 1 0.258382,0.0584 2.645833,2.645833 0 0 1 0.250629,0.0832 2.645833,2.645833 0 0 1 0.241329,0.108 2.645833,2.645833 0 0 1 0.229444,0.13178 2.645833,2.645833 0 0 1 0.215493,0.15348 2.645833,2.645833 0 0 1 0.198437,0.17466 2.645833,2.645833 0 0 1 0.180351,0.19379 2.645833,2.645833 0 0 1 0.160194,0.21032 2.645833,2.645833 0 0 1 0.137978,0.22531 2.645833,2.645833 0 0 1 0.115239,0.23823 2.645833,2.645833 0 0 1 0.09043,0.24856 2.645833,2.645833 0 0 1 0.06563,0.25632 2.645833,2.645833 0 0 1 0.02894,0.19224 H 202.31788 c 3.84975,0 6.94893,-3.09919 6.94893,-6.94893 v -7.5365 a 10.394345,10.394345 0 0 1 -0.3514,-0.12867 10.394345,10.394345 0 0 1 -0.93586,-0.45165 10.394345,10.394345 0 0 1 -0.88573,-0.54312 10.394345,10.394345 0 0 1 -0.82682,-0.6289 10.394345,10.394345 0 0 1 -0.76016,-0.70797 10.394345,10.394345 0 0 1 -0.68575,-0.78083 10.394345,10.394345 0 0 1 -0.60461,-0.84491 10.394345,10.394345 0 0 1 -0.51677,-0.90124 10.394345,10.394345 0 0 1 -0.42478,-0.94826 10.394345,10.394345 0 0 1 -0.32763,-0.98599 10.394345,10.394345 0 0 1 -0.22737,-1.01389 10.394345,10.394345 0 0 1 -0.12506,-1.03146 10.394345,10.394345 0 0 1 -0.0264,-0.73536 10.394345,10.394345 0 0 1 0.0522,-1.03766 10.394345,10.394345 0 0 1 0.15503,-1.02733 10.394345,10.394345 0 0 1 0.25735,-1.00665 10.394345,10.394345 0 0 1 0.35605,-0.97617 10.394345,10.394345 0 0 1 0.45217,-0.93534 10.394345,10.394345 0 0 1 0.54312,-0.88574 10.394345,10.394345 0 0 1 0.62838,-0.82734 10.394345,10.394345 0 0 1 0.70849,-0.76016 10.394345,10.394345 0 0 1 0.78031,-0.68574 10.394345,10.394345 0 0 1 0.84543,-0.60462 10.394345,10.394345 0 0 1 0.90123,-0.51676 10.394345,10.394345 0 0 1 0.94826,-0.42427 10.394345,10.394345 0 0 1 0.0703,-0.0233 v -7.52771 c 0,-3.84975 -3.0992,-6.94893 -6.94893,-6.94893 H 64.042608 a 2.645833,2.645833 0 0 1 -0.01394,0.11627 2.645833,2.645833 0 0 1 -0.0584,0.25839 2.645833,2.645833 0 0 1 -0.0832,0.25063 2.645833,2.645833 0 0 1 -0.108002,0.24132 2.645833,2.645833 0 0 1 -0.131776,0.22945 2.645833,2.645833 0 0 1 -0.15348,0.21549 2.645833,2.645833 0 0 1 -0.174664,0.19844 2.645833,2.645833 0 0 1 -0.193789,0.18035 2.645833,2.645833 0 0 1 -0.210323,0.16019 2.645833,2.645833 0 0 1 -0.225308,0.13798 2.645833,2.645833 0 0 1 -0.238228,0.11524 2.645833,2.645833 0 0 1 -0.248563,0.0904 2.645833,2.645833 0 0 1 -0.256315,0.0651 2.645833,2.645833 0 0 1 -0.261485,0.0393 2.645833,2.645833 0 0 1 -0.264065,0.0134 2.645833,2.645833 0 0 1 -0.187069,-0.007 2.645833,2.645833 0 0 1 -0.262516,-0.0315 2.645833,2.645833 0 0 1 -0.258382,-0.0584 2.645833,2.645833 0 0 1 -0.250632,-0.0832 2.645833,2.645833 0 0 1 -0.241329,-0.108 2.645833,2.645833 0 0 1 -0.229444,-0.13177 2.645833,2.645833 0 0 1 -0.21549,-0.15348 2.645833,2.645833 0 0 1 -0.198437,-0.17467 2.645833,2.645833 0 0 1 -0.180351,-0.19379 2.645833,2.645833 0 0 1 -0.160197,-0.21032 2.645833,2.645833 0 0 1 -0.137975,-0.22531 2.645833,2.645833 0 0 1 -0.115239,-0.23823 2.645833,2.645833 0 0 1 -0.09043,-0.24856 2.645833,2.645833 0 0 1 -0.06563,-0.25632 2.645833,2.645833 0 0 1 -0.02894,-0.19223 z m 52.0722743,4.02663 a 2.645833,2.645833 0 0 1 0.187068,0.007 2.645833,2.645833 0 0 1 0.262517,0.031 2.645833,2.645833 0 0 1 0.258382,0.0584 2.645833,2.645833 0 0 1 0.250629,0.0832 2.645833,2.645833 0 0 1 0.241329,0.108 2.645833,2.645833 0 0 1 0.229444,0.13178 2.645833,2.645833 0 0 1 0.215492,0.15348 2.645833,2.645833 0 0 1 0.198438,0.17466 2.645833,2.645833 0 0 1 0.180351,0.19379 2.645833,2.645833 0 0 1 0.160194,0.21033 2.645833,2.645833 0 0 1 0.137978,0.2253 2.645833,2.645833 0 0 1 0.115239,0.23823 2.645833,2.645833 0 0 1 0.09043,0.24856 2.645833,2.645833 0 0 1 0.06563,0.25632 2.645833,2.645833 0 0 1 0.03928,0.26148 2.645833,2.645833 0 0 1 0.01344,0.26407 2.645833,2.645833 0 0 1 -0.0067,0.18707 2.645833,2.645833 0 0 1 -0.03152,0.26252 2.645833,2.645833 0 0 1 -0.0584,0.25838 2.645833,2.645833 0 0 1 -0.0832,0.25063 2.645833,2.645833 0 0 1 -0.108003,0.24133 2.645833,2.645833 0 0 1 -0.131775,0.22944 2.645833,2.645833 0 0 1 -0.15348,0.21549 2.645833,2.645833 0 0 1 -0.174665,0.19844 2.645833,2.645833 0 0 1 -0.193788,0.18035 2.645833,2.645833 0 0 1 -0.210323,0.1602 2.645833,2.645833 0 0 1 -0.225309,0.13797 2.645833,2.645833 0 0 1 -0.238228,0.11524 2.645833,2.645833 0 0 1 -0.248563,0.0904 2.645833,2.645833 0 0 1 -0.256315,0.0656 2.645833,2.645833 0 0 1 -0.261485,0.0393 2.645833,2.645833 0 0 1 -0.264065,0.0134 2.645833,2.645833 0 0 1 -0.187068,-0.007 2.645833,2.645833 0 0 1 -0.262517,-0.0315 2.645833,2.645833 0 0 1 -0.258381,-0.0584 2.645833,2.645833 0 0 1 -0.250632,-0.0832 2.645833,2.645833 0 0 1 -0.241329,-0.108 2.645833,2.645833 0 0 1 -0.229444,-0.13178 2.645833,2.645833 0 0 1 -0.21549,-0.15348 2.645833,2.645833 0 0 1 -0.198438,-0.17466 2.645833,2.645833 0 0 1 -0.18035,-0.19379 2.645833,2.645833 0 0 1 -0.160197,-0.21032 2.645833,2.645833 0 0 1 -0.137975,-0.22531 2.645833,2.645833 0 0 1 -0.11524,-0.23823 2.645833,2.645833 0 0 1 -0.09043,-0.24856 2.645833,2.645833 0 0 1 -0.06563,-0.25632 2.645833,2.645833 0 0 1 -0.03927,-0.26148 2.645833,2.645833 0 0 1 -0.01344,-0.26407 2.645833,2.645833 0 0 1 0.0067,-0.18707 2.645833,2.645833 0 0 1 0.03152,-0.26251 2.645833,2.645833 0 0 1 0.05839,-0.25838 2.645833,2.645833 0 0 1 0.0832,-0.25064 2.645833,2.645833 0 0 1 0.108003,-0.24133 2.645833,2.645833 0 0 1 0.131776,-0.22944 2.645833,2.645833 0 0 1 0.153477,-0.21549 2.645833,2.645833 0 0 1 0.174667,-0.19844 2.645833,2.645833 0 0 1 0.193786,-0.18035 2.645833,2.645833 0 0 1 0.210323,-0.16019 2.645833,2.645833 0 0 1 0.225311,-0.13798 2.645833,2.645833 0 0 1 0.238228,-0.11524 2.645833,2.645833 0 0 1 0.248563,-0.0904 2.645833,2.645833 0 0 1 0.256315,-0.0656 2.645833,2.645833 0 0 1 0.261482,-0.0393 2.645833,2.645833 0 0 1 0.264068,-0.0134 z m 44.558006,6.91844 c 0.54958,0 1.07844,0.0235 1.58698,0.0703 0.50855,0.0468 0.99678,0.11677 1.46451,0.21032 0.47943,0.0819 0.92396,0.19302 1.33326,0.33331 0.40927,0.1403 0.7833,0.30971 1.12241,0.5085 0.35079,0.19878 0.66359,0.43277 0.93844,0.70177 0.27485,0.26898 0.51177,0.57299 0.71055,0.91208 0.19879,0.33911 0.34813,0.71606 0.44752,1.1312 0.0994,0.41515 0.14883,0.86849 0.14883,1.35961 v 2.42052 c 0,0.51451 -0.0494,0.98799 -0.14883,1.42059 -0.0994,0.4326 -0.24873,0.82433 -0.44752,1.17512 -0.18709,0.3508 -0.4358,0.69841 -0.74569,1.04335 -0.30989,0.34493 -0.68097,0.68719 -1.11363,1.02629 l -5.33197,4.20956 c -0.37418,0.30402 -0.68998,0.58458 -0.94723,0.84181 -0.25725,0.25725 -0.46777,0.5383 -0.63149,0.84233 -0.14032,0.28063 -0.24558,0.58416 -0.31574,0.91157 -0.0701,0.32741 -0.10542,0.71373 -0.10542,1.15807 v 1.82418 h 9.4015 v 3.61321 H 98.366612 v -6.13916 c 0,-0.57297 0.04944,-1.11689 0.148828,-1.63142 0.09939,-0.51452 0.248732,-0.99969 0.447517,-1.45573 0.198786,-0.45603 0.458827,-0.88298 0.780314,-1.28054 0.321489,-0.39756 0.704429,-0.76573 1.148769,-1.10484 l 5.50767,-4.31498 c 0.25727,-0.19879 0.4736,-0.39172 0.64906,-0.57878 0.17547,-0.18706 0.31005,-0.36824 0.40359,-0.54364 0.0936,-0.17539 0.16356,-0.36534 0.21033,-0.56999 0.0468,-0.20464 0.0703,-0.42397 0.0703,-0.65784 v -2.70113 c 0,-0.26309 -0.0365,-0.49306 -0.10956,-0.69039 -0.0731,-0.19734 -0.1825,-0.36195 -0.32866,-0.49351 -0.14615,-0.13157 -0.32904,-0.23032 -0.54829,-0.29611 -0.21922,-0.0658 -0.47506,-0.0987 -0.76739,-0.0987 -0.29233,0 -0.54811,0.0329 -0.7674,0.0987 -0.21927,0.0658 -0.40206,0.16454 -0.54828,0.29611 -0.1462,0.13156 -0.25606,0.29617 -0.32918,0.49351 -0.0731,0.19733 -0.10956,0.4273 -0.10956,0.69039 v 3.85869 h -5.507155 v -3.33262 c 0,-0.50281 0.04359,-0.96164 0.131257,-1.37666 0.08767,-0.41501 0.219411,-0.78622 0.394808,-1.11362 0.175398,-0.33911 0.385943,-0.6431 0.631487,-0.91209 0.245543,-0.26899 0.526093,-0.50299 0.841813,-0.70177 0.32741,-0.21048 0.68386,-0.3887 1.0697,-0.53485 0.38584,-0.14616 0.80106,-0.26025 1.2454,-0.3421 0.44435,-0.0935 0.91232,-0.16356 1.40354,-0.21032 0.4912,-0.0468 1.00568,-0.0703 1.54357,-0.0703 z m 32.47605,0 c 0.5379,0 1.05834,0.0235 1.56115,0.0703 0.50281,0.0468 0.98799,0.11677 1.45572,0.21032 0.46773,0.0819 0.90348,0.19594 1.3069,0.3421 0.40342,0.14615 0.77452,0.32437 1.11363,0.53485 0.3508,0.19878 0.66372,0.43278 0.93844,0.70177 0.27472,0.26899 0.51126,0.57298 0.71003,0.91209 0.19879,0.3274 0.34813,0.69861 0.44752,1.11362 0.0994,0.41502 0.14883,0.87385 0.14883,1.37666 v 15.9613 c 0,0.50281 -0.0494,0.96496 -0.14883,1.38596 -0.0994,0.42101 -0.24873,0.80088 -0.44752,1.13998 -0.19877,0.32743 -0.43531,0.62554 -0.71003,0.89452 -0.27472,0.269 -0.58764,0.50886 -0.93844,0.71934 -0.33911,0.19879 -0.71021,0.3682 -1.11363,0.5085 -0.40342,0.14029 -0.83917,0.25146 -1.3069,0.33331 -0.46773,0.0935 -0.95291,0.16356 -1.45572,0.21032 -0.50281,0.0468 -1.02325,0.0703 -1.56115,0.0703 -0.54958,0 -1.08175,-0.0235 -1.59628,-0.0703 -0.51454,-0.0468 -1.01144,-0.11677 -1.49087,-0.21032 -0.46773,-0.0819 -0.90639,-0.19302 -1.31568,-0.33331 -0.40928,-0.1403 -0.78918,-0.30971 -1.13998,-0.5085 -0.33911,-0.19878 -0.64323,-0.43277 -0.91209,-0.70177 -0.26886,-0.26899 -0.50247,-0.57297 -0.70125,-0.91209 -0.19879,-0.3391 -0.34813,-0.71605 -0.44752,-1.13119 -0.0994,-0.41515 -0.14883,-0.86849 -0.14883,-1.35961 v -16.03106 c 0,-0.49112 0.0494,-0.94446 0.14883,-1.35961 0.0994,-0.41514 0.24873,-0.79209 0.44752,-1.1312 0.19878,-0.33909 0.43239,-0.6431 0.70125,-0.91208 0.26886,-0.269 0.57298,-0.50299 0.91209,-0.70177 0.3508,-0.19879 0.7307,-0.3682 1.13998,-0.5085 0.40929,-0.14029 0.84795,-0.25146 1.31568,-0.33331 0.47943,-0.0935 0.97633,-0.16356 1.49087,-0.21032 0.51453,-0.0468 1.0467,-0.0703 1.59628,-0.0703 z m -77.034056,0.0879 a 2.645833,2.645833 0 0 1 0.187068,0.007 2.645833,2.645833 0 0 1 0.262517,0.0315 2.645833,2.645833 0 0 1 0.258382,0.0584 2.645833,2.645833 0 0 1 0.250629,0.0832 2.645833,2.645833 0 0 1 0.241329,0.108 2.645833,2.645833 0 0 1 0.229444,0.13178 2.645833,2.645833 0 0 1 0.215492,0.15348 2.645833,2.645833 0 0 1 0.198438,0.17466 2.645833,2.645833 0 0 1 0.180351,0.19379 2.645833,2.645833 0 0 1 0.160194,0.21032 2.645833,2.645833 0 0 1 0.137978,0.22531 2.645833,2.645833 0 0 1 0.115239,0.23823 2.645833,2.645833 0 0 1 0.09043,0.24856 2.645833,2.645833 0 0 1 0.06563,0.25632 2.645833,2.645833 0 0 1 0.03928,0.26148 2.645833,2.645833 0 0 1 0.01344,0.26407 2.645833,2.645833 0 0 1 -0.0067,0.18706 2.645833,2.645833 0 0 1 -0.03152,0.26252 2.645833,2.645833 0 0 1 -0.0584,0.25838 2.645833,2.645833 0 0 1 -0.0832,0.25064 2.645833,2.645833 0 0 1 -0.108003,0.24132 2.645833,2.645833 0 0 1 -0.131775,0.22945 2.645833,2.645833 0 0 1 -0.15348,0.21549 2.645833,2.645833 0 0 1 -0.174665,0.19844 2.645833,2.645833 0 0 1 -0.193788,0.18035 2.645833,2.645833 0 0 1 -0.210323,0.16019 2.645833,2.645833 0 0 1 -0.225309,0.13798 2.645833,2.645833 0 0 1 -0.238228,0.11524 2.645833,2.645833 0 0 1 -0.248563,0.0904 2.645833,2.645833 0 0 1 -0.256315,0.0651 2.645833,2.645833 0 0 1 -0.261485,0.0398 2.645833,2.645833 0 0 1 -0.264065,0.0129 2.645833,2.645833 0 0 1 -0.187068,-0.007 2.645833,2.645833 0 0 1 -0.262517,-0.0315 2.645833,2.645833 0 0 1 -0.258381,-0.0584 2.645833,2.645833 0 0 1 -0.250632,-0.0832 2.645833,2.645833 0 0 1 -0.241329,-0.108 2.645833,2.645833 0 0 1 -0.229444,-0.13178 2.645833,2.645833 0 0 1 -0.21549,-0.15348 2.645833,2.645833 0 0 1 -0.198438,-0.17466 2.645833,2.645833 0 0 1 -0.18035,-0.19379 2.645833,2.645833 0 0 1 -0.160197,-0.21033 2.645833,2.645833 0 0 1 -0.137975,-0.2253 2.645833,2.645833 0 0 1 -0.11524,-0.23823 2.645833,2.645833 0 0 1 -0.09043,-0.24856 2.645833,2.645833 0 0 1 -0.06563,-0.25632 2.645833,2.645833 0 0 1 -0.03927,-0.26148 2.645833,2.645833 0 0 1 -0.01344,-0.26407 2.645833,2.645833 0 0 1 0.0067,-0.18707 2.645833,2.645833 0 0 1 0.03152,-0.26252 2.645833,2.645833 0 0 1 0.05839,-0.25838 2.645833,2.645833 0 0 1 0.0832,-0.25063 2.645833,2.645833 0 0 1 0.108003,-0.24133 2.645833,2.645833 0 0 1 0.131776,-0.22944 2.645833,2.645833 0 0 1 0.153477,-0.21549 2.645833,2.645833 0 0 1 0.174667,-0.19844 2.645833,2.645833 0 0 1 0.193786,-0.18035 2.645833,2.645833 0 0 1 0.210323,-0.1602 2.645833,2.645833 0 0 1 0.225311,-0.13797 2.645833,2.645833 0 0 1 0.238228,-0.11524 2.645833,2.645833 0 0 1 0.248563,-0.0904 2.645833,2.645833 0 0 1 0.256315,-0.0656 2.645833,2.645833 0 0 1 0.261482,-0.0393 2.645833,2.645833 0 0 1 0.264068,-0.0134 z m 54.796136,0.64905 h 12.87415 v 3.40238 h -6.91068 v 6.55981 h 6.70036 v 3.29747 h -6.70036 v 11.71711 h -5.96347 z m 32.16548,0 h 14.83889 v 2.94659 h -9.33121 v 6.31435 h 3.54293 c 0.49112,0 0.9522,0.0206 1.38338,0.0615 0.43118,0.0409 0.8323,0.10217 1.20354,0.18397 0.37125,0.0818 0.71291,0.18421 1.02423,0.30696 0.3113,0.12274 0.59247,0.26572 0.84388,0.42943 0.2514,0.15786 0.47135,0.33775 0.65991,0.5395 0.18855,0.20175 0.34557,0.42515 0.47129,0.67076 0.1257,0.24561 0.22033,0.51309 0.28318,0.80254 0.0628,0.28944 0.094,0.60105 0.094,0.93431 v 7.33133 c 0,0.49112 -0.0494,0.94446 -0.14883,1.35961 -0.0994,0.41514 -0.24873,0.79209 -0.44751,1.13119 -0.19879,0.33912 -0.43531,0.6431 -0.71004,0.91209 -0.27472,0.269 -0.58764,0.50299 -0.93844,0.70177 -0.33908,0.19879 -0.71313,0.3682 -1.12241,0.5085 -0.40929,0.14029 -0.85387,0.25146 -1.33325,0.33331 -0.46775,0.0935 -0.95584,0.16356 -1.46452,0.21032 -0.50866,0.0468 -1.03791,0.0703 -1.5875,0.0703 -0.53789,0 -1.05248,-0.0235 -1.54357,-0.0703 -0.49109,-0.0468 -0.95867,-0.11677 -1.40302,-0.21032 -0.44434,-0.0819 -0.85943,-0.19302 -1.2454,-0.33331 -0.38596,-0.1403 -0.74281,-0.30971 -1.07022,-0.5085 -0.31572,-0.21048 -0.59627,-0.45034 -0.8418,-0.71934 -0.24556,-0.26898 -0.45609,-0.56709 -0.63149,-0.89452 -0.1754,-0.3391 -0.30714,-0.71897 -0.39481,-1.13998 -0.0877,-0.421 -0.13126,-0.88315 -0.13126,-1.38596 v -4.52479 h 5.50768 v 5.05137 c 0,0.26311 0.0365,0.49306 0.10955,0.6904 0.073,0.19734 0.18251,0.36195 0.32866,0.49351 0.14616,0.13157 0.32905,0.23032 0.54829,0.29611 0.21924,0.0658 0.47506,0.0987 0.76739,0.0987 0.29233,0 0.54816,-0.0329 0.7674,-0.0987 0.21924,-0.0658 0.40213,-0.16454 0.54829,-0.29611 0.14613,-0.13156 0.25559,-0.29617 0.32866,-0.49351 0.0731,-0.19734 0.10955,-0.42729 0.10955,-0.6904 v -6.52518 c 0,-0.3391 -0.0482,-0.63607 -0.14469,-0.89038 -0.0965,-0.25432 -0.24116,-0.46609 -0.43408,-0.63563 -0.1929,-0.16953 -0.43408,-0.2966 -0.72347,-0.38137 -0.2894,-0.0848 -0.62698,-0.12712 -1.01286,-0.12712 h -6.70037 z m 26.03252,0 h 5.9986 v 20.52123 c 0,0.49112 -0.0494,0.94446 -0.14883,1.35961 -0.0994,0.41514 -0.24874,0.79209 -0.44751,1.13119 -0.19879,0.33912 -0.4357,0.6431 -0.71056,0.91209 -0.27485,0.269 -0.58764,0.50299 -0.93844,0.70177 -0.3391,0.19879 -0.71326,0.3682 -1.12241,0.5085 -0.40916,0.14029 -0.85331,0.25146 -1.33274,0.33331 -0.46773,0.0935 -0.95583,0.16356 -1.46451,0.21032 -0.50865,0.0468 -1.03791,0.0703 -1.5875,0.0703 -0.53786,0 -1.05235,-0.0235 -1.54357,-0.0703 -0.49122,-0.0468 -0.95919,-0.11677 -1.40353,-0.21032 -0.44435,-0.0819 -0.85957,-0.19302 -1.24541,-0.33331 -0.38582,-0.1403 -0.74228,-0.30971 -1.0697,-0.5085 -0.31572,-0.21048 -0.59626,-0.45034 -0.84181,-0.71934 -0.24554,-0.26898 -0.45608,-0.56709 -0.63148,-0.89452 -0.1754,-0.3391 -0.30714,-0.71897 -0.39481,-1.13998 -0.0877,-0.421 -0.13126,-0.88315 -0.13126,-1.38596 v -5.22655 h 5.50768 v 5.75313 c 0,0.26311 0.0365,0.49306 0.10955,0.6904 0.0731,0.19734 0.18251,0.36195 0.32866,0.49351 0.14615,0.13157 0.32905,0.23032 0.54829,0.29611 0.21924,0.0658 0.47508,0.0987 0.76739,0.0987 0.29233,0 0.54816,-0.0329 0.7674,-0.0987 0.21924,-0.0658 0.40213,-0.16454 0.54829,-0.29611 0.14615,-0.13156 0.25558,-0.29617 0.32866,-0.49351 0.0731,-0.19734 0.10955,-0.42729 0.10955,-0.6904 z m -156.912902,1.46808 c 0.424404,0 0.816335,0.0368 1.176155,0.11059 0.359822,0.0646 0.669261,0.18018 0.927592,0.34623 0.267559,0.15685 0.475082,0.36909 0.622701,0.63665 0.07842,0.12918 0.137041,0.27554 0.176217,0.43925 0.03918,0.16371 0.05891,0.34476 0.05891,0.54312 v 2.46342 c 0,0.33214 -0.05989,0.64158 -0.179834,0.92759 -0.119939,0.27679 -0.295411,0.51636 -0.526066,0.71934 -0.230655,0.20298 -0.51646,0.36478 -0.857829,0.48472 -0.341369,0.11071 -0.733298,0.16588 -1.176156,0.16588 -0.276784,0 -0.581496,-0.0279 -0.913639,-0.0832 v 3.39101 l -2.366264,-5.3e-4 v -8.08166 c 0,-0.19375 0.01974,-0.37257 0.05891,-0.5364 0.03918,-0.16384 0.09779,-0.31271 0.176216,-0.44649 0.156845,-0.26756 0.369095,-0.47981 0.636654,-0.63665 0.276786,-0.15684 0.599369,-0.2677 0.968416,-0.33228 0.378273,-0.0738 0.784383,-0.11059 1.218014,-0.11059 z m 6.676595,0 c 0.424404,0 0.811607,0.0368 1.162203,0.11059 0.350593,0.0646 0.655306,0.18018 0.913639,0.34623 0.258334,0.15685 0.456404,0.36909 0.594797,0.63665 0.147613,0.25834 0.221691,0.58565 0.221691,0.98237 v 1.60559 c 0,0.23527 -0.03255,0.44406 -0.09715,0.62632 -0.0646,0.18226 -0.161255,0.33799 -0.290422,0.46715 -0.129165,0.12456 -0.301171,0.22385 -0.51573,0.29766 -0.214561,0.0738 -0.471679,0.12215 -0.77153,0.14521 0.299851,0.0277 0.559534,0.0761 0.778764,0.14521 0.219229,0.0691 0.398008,0.15902 0.536401,0.26975 0.143007,0.11072 0.250468,0.242 0.321945,0.39429 0.07148,0.1523 0.106971,0.3256 0.106969,0.51935 v 3.59771 h -2.269628 v -3.40444 c 0,-0.15685 -0.01794,-0.29423 -0.05426,-0.41186 -0.03632,-0.11763 -0.09117,-0.21562 -0.163815,-0.29404 -0.07264,-0.0784 -0.163359,-0.13701 -0.272334,-0.17622 -0.108976,-0.0392 -0.23606,-0.0589 -0.381372,-0.0589 h -0.512114 v 4.34547 h -2.36678 v -8.08167 c 0,-0.19375 0.01974,-0.37257 0.05891,-0.5364 0.03918,-0.16384 0.09779,-0.31271 0.176216,-0.44649 0.156846,-0.26756 0.369095,-0.47981 0.636654,-0.63665 0.276785,-0.15684 0.599886,-0.2677 0.968933,-0.33228 0.378274,-0.0738 0.784383,-0.11059 1.218014,-0.11059 z m 6.918439,0 c 0.424405,0 0.821063,0.0368 1.190109,0.11059 0.369047,0.0646 0.687441,0.18018 0.95498,0.34623 0.276788,0.15685 0.493244,0.36909 0.650091,0.63665 0.07842,0.12918 0.137039,0.27554 0.176216,0.43925 0.03918,0.16371 0.05891,0.34476 0.05891,0.54312 v 6.29729 c 0,0.19836 -0.01974,0.38069 -0.05891,0.54674 -0.03918,0.16604 -0.09779,0.31581 -0.176216,0.44958 -0.156847,0.25834 -0.373303,0.47059 -0.650091,0.63666 -0.267539,0.15684 -0.585933,0.26717 -0.95498,0.33176 -0.369046,0.0738 -0.765704,0.11111 -1.190109,0.11111 -0.433628,0 -0.839739,-0.0373 -1.218012,-0.11111 -0.369048,-0.0646 -0.692147,-0.17493 -0.968933,-0.33176 -0.26756,-0.15684 -0.479808,-0.3691 -0.636653,-0.63666 -0.07842,-0.13377 -0.137041,-0.28264 -0.176218,-0.44648 -0.03917,-0.16384 -0.05891,-0.34265 -0.05891,-0.5364 v -6.32416 c 0,-0.19375 0.01974,-0.37257 0.05891,-0.5364 0.03918,-0.16384 0.0978,-0.31271 0.176218,-0.44649 0.156845,-0.26756 0.369093,-0.47981 0.636653,-0.63665 0.276786,-0.15684 0.599885,-0.2677 0.968933,-0.33228 0.378273,-0.0738 0.784384,-0.11059 1.218012,-0.11059 z m 6.905522,0 c 0.396727,0 0.755229,0.0463 1.075904,0.13849 0.320673,0.0922 0.603515,0.23043 0.848011,0.41497 0.267557,-0.18454 0.565031,-0.32273 0.89245,-0.41497 0.327422,-0.0922 0.684787,-0.13849 1.072288,-0.13849 0.396724,0 0.770781,0.0415 1.121378,0.12454 0.35982,0.0738 0.673468,0.19412 0.941028,0.36019 0.26756,0.15683 0.479808,0.35964 0.636653,0.60874 0.08304,0.12456 0.145558,0.26062 0.187069,0.40825 0.04151,0.14762 0.06201,0.3068 0.06201,0.47749 v 8.16487 h -2.352829 v -8.22016 c 0,-0.2076 -0.05908,-0.36338 -0.176733,-0.46716 -0.117658,-0.10378 -0.2939,-0.15555 -0.529167,-0.15555 -0.226042,0 -0.395507,0.0565 -0.508497,0.1695 -0.112988,0.11299 -0.169498,0.28246 -0.169498,0.5085 v 8.16487 h -2.36678 v -8.30337 c 0,-0.15683 -0.07356,-0.28608 -0.221176,-0.38757 -0.138393,-0.10148 -0.286022,-0.15193 -0.442867,-0.15193 -0.230653,0 -0.403508,0.0518 -0.518832,0.15555 -0.115321,0.10378 -0.173114,0.25956 -0.173114,0.46716 v 8.22016 h -2.366783 v -8.16487 c 0,-0.34137 0.0788,-0.63663 0.235646,-0.88574 0.166071,-0.2491 0.387255,-0.45191 0.664043,-0.60874 0.276765,-0.16607 0.595159,-0.28638 0.954979,-0.36019 0.35982,-0.083 0.73809,-0.12454 1.134814,-0.12454 z m 10.771952,0 c 0.424405,0 0.821063,0.0368 1.190109,0.11059 0.369046,0.0646 0.687443,0.18018 0.954979,0.34623 0.276789,0.15685 0.493245,0.36909 0.650092,0.63665 0.07842,0.12918 0.137443,0.27554 0.176731,0.43925 0.03931,0.16371 0.05891,0.34476 0.05891,0.54312 v 6.29729 c 0,0.19836 -0.0196,0.38069 -0.05891,0.54674 -0.03929,0.16604 -0.09831,0.31581 -0.176731,0.44958 -0.156847,0.25834 -0.373303,0.47059 -0.650092,0.63666 -0.267536,0.15684 -0.585933,0.26717 -0.954979,0.33176 -0.369046,0.0738 -0.765704,0.11111 -1.190109,0.11111 -0.433631,0 -0.83974,-0.0373 -1.218012,-0.11111 -0.369049,-0.0646 -0.692147,-0.17493 -0.968933,-0.33176 -0.26756,-0.15684 -0.479809,-0.3691 -0.636654,-0.63666 -0.07842,-0.13377 -0.137041,-0.28264 -0.176218,-0.44648 -0.03917,-0.16384 -0.05891,-0.34265 -0.05891,-0.5364 v -6.32416 c 0,-0.19375 0.01974,-0.37257 0.05891,-0.5364 0.03918,-0.16384 0.0978,-0.31271 0.176218,-0.44649 0.156845,-0.26756 0.369094,-0.47981 0.636654,-0.63665 0.276786,-0.15684 0.599884,-0.2677 0.968933,-0.33228 0.378272,-0.0738 0.784381,-0.11059 1.218012,-0.11059 z m 89.680314,0.95188 c -0.29233,0 -0.54815,0.0329 -0.76739,0.0987 -0.21924,0.0658 -0.40213,0.16454 -0.54829,0.29611 -0.14615,0.13156 -0.25559,0.29617 -0.32866,0.49351 -0.0731,0.19733 -0.10955,0.4273 -0.10955,0.69039 v 17.01395 c 0,0.26311 0.0365,0.49306 0.10955,0.6904 0.0731,0.19734 0.18251,0.36195 0.32866,0.49351 0.14616,0.13157 0.32905,0.23032 0.54829,0.29611 0.21924,0.0658 0.47506,0.0987 0.76739,0.0987 0.29234,0 0.54816,-0.0329 0.7674,-0.0987 0.21924,-0.0658 0.40212,-0.16454 0.54829,-0.29611 0.14615,-0.13156 0.25558,-0.29617 0.32866,-0.49351 0.0731,-0.19734 0.10955,-0.42729 0.10955,-0.6904 v -17.01395 c 0,-0.26309 -0.0365,-0.49306 -0.10955,-0.69039 -0.0731,-0.19734 -0.18251,-0.36195 -0.32866,-0.49351 -0.14617,-0.13157 -0.32905,-0.23032 -0.54829,-0.29611 -0.21924,-0.0658 -0.47506,-0.0987 -0.7674,-0.0987 z M 17.502298,260.7502 c -0.230655,0 -0.403509,0.0518 -0.518832,0.15555 -0.115323,0.10377 -0.173116,0.25956 -0.173116,0.46715 v 3.68091 h 0.498161 c 0.239881,0 0.447403,-0.0688 0.622701,-0.20722 0.08765,-0.0738 0.153558,-0.16619 0.197404,-0.27699 0.04385,-0.11077 0.06563,-0.23995 0.06563,-0.38757 v -2.80913 c 0,-0.20759 -0.05779,-0.36338 -0.173116,-0.46715 -0.115323,-0.10378 -0.288176,-0.15555 -0.518832,-0.15555 z m 6.676595,0 c -0.230655,0 -0.403509,0.0518 -0.518832,0.15555 -0.115323,0.10377 -0.173116,0.25956 -0.173116,0.46715 v 2.82308 h 0.512114 c 0.276785,0 0.488518,-0.0646 0.636136,-0.19378 0.07842,-0.0692 0.137428,-0.16167 0.176734,-0.27699 0.03931,-0.11532 0.05891,-0.2535 0.05891,-0.41496 v -1.93735 c 0,-0.20759 -0.05779,-0.36338 -0.173116,-0.46715 -0.115323,-0.10378 -0.288178,-0.15555 -0.51883,-0.15555 z m 6.918439,0 c -0.230653,0 -0.403894,0.0518 -0.519348,0.15555 -0.115448,0.10377 -0.173114,0.25956 -0.173114,0.46715 v 6.71174 c 0,0.20759 0.05766,0.36337 0.173114,0.46715 0.115454,0.10378 0.288695,0.15555 0.519348,0.15555 0.230656,0 0.403509,-0.0518 0.518832,-0.15555 0.115324,-0.10378 0.173117,-0.25956 0.173117,-0.46715 v -6.71174 c 0,-0.20759 -0.05779,-0.36338 -0.173117,-0.46715 -0.115323,-0.10378 -0.288176,-0.15555 -0.518832,-0.15555 z m 17.677474,0 c -0.230653,0 -0.403511,0.0518 -0.518829,0.15555 -0.115324,0.10377 -0.173117,0.25956 -0.173117,0.46715 v 6.71174 c 0,0.20759 0.05779,0.36337 0.173117,0.46715 0.115318,0.10378 0.288176,0.15555 0.518829,0.15555 0.230656,0 0.403508,-0.0518 0.518832,-0.15555 0.115324,-0.10378 0.173117,-0.25956 0.173117,-0.46715 v -6.71174 c 0,-0.20759 -0.05779,-0.36338 -0.173117,-0.46715 -0.115324,-0.10378 -0.288176,-0.15555 -0.518832,-0.15555 z m 12.670028,3.5543 v 5.3e-4 a 2.6458331,2.6458331 0 0 1 0.264067,0.0134 2.6458331,2.6458331 0 0 1 0.261483,0.0398 2.6458331,2.6458331 0 0 1 0.256315,0.0651 2.6458331,2.6458331 0 0 1 0.248563,0.091 2.6458331,2.6458331 0 0 1 0.238228,0.11472 2.6458331,2.6458331 0 0 1 0.225311,0.13849 2.6458331,2.6458331 0 0 1 0.210323,0.15969 2.6458331,2.6458331 0 0 1 0.193786,0.18035 2.6458331,2.6458331 0 0 1 0.174149,0.19895 2.6458331,2.6458331 0 0 1 0.153995,0.21497 2.6458331,2.6458331 0 0 1 0.131776,0.22945 2.6458331,2.6458331 0 0 1 0.108003,0.24133 2.6458331,2.6458331 0 0 1 0.0832,0.25114 2.6458331,2.6458331 0 0 1 0.05788,0.25787 2.6458331,2.6458331 0 0 1 0.03204,0.26251 2.6458331,2.6458331 0 0 1 0.0067,0.18707 2.6458331,2.6458331 0 0 1 -0.01344,0.26459 2.6458331,2.6458331 0 0 1 -0.03928,0.26148 2.6458331,2.6458331 0 0 1 -0.06563,0.25631 2.6458331,2.6458331 0 0 1 -0.09043,0.24805 2.6458331,2.6458331 0 0 1 -0.11524,0.23823 2.6458331,2.6458331 0 0 1 -0.137975,0.22531 2.6458331,2.6458331 0 0 1 -0.160197,0.21084 2.6458331,2.6458331 0 0 1 -0.18035,0.19327 2.6458331,2.6458331 0 0 1 -0.198954,0.17467 2.6458331,2.6458331 0 0 1 -0.214974,0.15399 2.6458331,2.6458331 0 0 1 -0.229444,0.13126 2.6458331,2.6458331 0 0 1 -0.241329,0.10852 2.6458331,2.6458331 0 0 1 -0.251148,0.0832 2.6458331,2.6458331 0 0 1 -0.257865,0.0579 2.6458331,2.6458331 0 0 1 -0.262517,0.032 2.6458331,2.6458331 0 0 1 -0.187069,0.006 2.6458331,2.6458331 0 0 1 -0.264064,-0.0124 2.6458331,2.6458331 0 0 1 -0.261485,-0.0403 2.6458331,2.6458331 0 0 1 -0.256316,-0.0646 2.6458331,2.6458331 0 0 1 -0.248562,-0.0915 2.6458331,2.6458331 0 0 1 -0.238229,-0.11473 2.6458331,2.6458331 0 0 1 -0.225308,-0.13849 2.6458331,2.6458331 0 0 1 -0.210841,-0.16019 2.6458331,2.6458331 0 0 1 -0.19327,-0.17984 2.6458331,2.6458331 0 0 1 -0.174665,-0.19895 2.6458331,2.6458331 0 0 1 -0.15348,-0.21498 2.6458331,2.6458331 0 0 1 -0.131775,-0.22944 2.6458331,2.6458331 0 0 1 -0.108003,-0.24133 2.6458331,2.6458331 0 0 1 -0.08372,-0.25115 2.6458331,2.6458331 0 0 1 -0.05788,-0.25786 2.6458331,2.6458331 0 0 1 -0.03152,-0.26252 2.6458331,2.6458331 0 0 1 -0.0067,-0.18758 2.6458331,2.6458331 0 0 1 0.01291,-0.26407 2.6458331,2.6458331 0 0 1 0.03979,-0.26148 2.6458331,2.6458331 0 0 1 0.06563,-0.25632 2.6458331,2.6458331 0 0 1 0.09043,-0.24805 2.6458331,2.6458331 0 0 1 0.115239,-0.23822 2.6458331,2.6458331 0 0 1 0.137977,-0.22583 2.6458331,2.6458331 0 0 1 0.160195,-0.21032 2.6458331,2.6458331 0 0 1 0.180351,-0.19327 2.6458331,2.6458331 0 0 1 0.198437,-0.17467 2.6458331,2.6458331 0 0 1 0.215493,-0.15399 2.6458331,2.6458331 0 0 1 0.228925,-0.13178 2.6458331,2.6458331 0 0 1 0.241848,-0.108 2.6458331,2.6458331 0 0 1 0.250629,-0.0832 2.6458331,2.6458331 0 0 1 0.258382,-0.0579 2.6458331,2.6458331 0 0 1 0.262516,-0.032 2.6458331,2.6458331 0 0 1 0.187069,-0.007 z m -43.99783,6.82595 c 0.424404,0 0.812125,0.0373 1.16272,0.1111 0.350592,0.0646 0.650063,0.17966 0.899169,0.34571 0.258334,0.15685 0.45692,0.3691 0.595313,0.63666 0.138393,0.25833 0.207739,0.58564 0.207739,0.98237 v 1.85466 h -2.172994 v -2.06189 c 0,-0.20758 -0.05779,-0.36337 -0.173116,-0.46715 -0.115323,-0.10378 -0.288176,-0.15555 -0.518831,-0.15555 -0.230655,0 -0.403509,0.0518 -0.518831,0.15555 -0.115324,0.10378 -0.173117,0.25957 -0.173117,0.46715 v 6.71174 c 0,0.20759 0.05779,0.36338 0.173117,0.46715 0.115322,0.10378 0.288176,0.15555 0.518831,0.15555 0.230655,0 0.403508,-0.0518 0.518831,-0.15555 0.115323,-0.10377 0.173116,-0.25956 0.173116,-0.46715 v -2.26963 h 2.172994 v 2.06241 c 0,0.39672 -0.06935,0.72876 -0.207739,0.99632 -0.138393,0.25833 -0.336979,0.47059 -0.595313,0.63665 -0.249106,0.15685 -0.548577,0.26769 -0.899169,0.33228 -0.350595,0.0738 -0.738316,0.11059 -1.16272,0.11059 -0.433631,0 -0.83974,-0.0368 -1.218014,-0.11059 -0.369047,-0.0646 -0.69163,-0.17545 -0.968416,-0.33228 -0.267559,-0.15684 -0.479809,-0.36909 -0.636654,-0.63665 -0.07842,-0.13378 -0.13704,-0.28265 -0.176216,-0.44649 -0.03918,-0.16383 -0.05891,-0.34267 -0.05891,-0.5364 v -6.32416 c 2e-6,-0.19375 0.01974,-0.37256 0.05891,-0.5364 0.03918,-0.16384 0.09779,-0.31272 0.176216,-0.44648 0.156845,-0.26756 0.369095,-0.47981 0.636654,-0.63666 0.276786,-0.15684 0.599369,-0.26717 0.968416,-0.33176 0.378274,-0.0738 0.784383,-0.1111 1.218014,-0.1111 z m 10.364741,0 c 0.424404,0 0.821063,0.0373 1.190109,0.1111 0.369048,0.0646 0.687422,0.17966 0.954981,0.34571 0.276784,0.15685 0.493761,0.3691 0.650606,0.63666 0.07842,0.12916 0.13704,0.27554 0.176217,0.43925 0.03918,0.16371 0.05891,0.34475 0.05891,0.54312 v 6.29729 c 0,0.19836 -0.01974,0.38069 -0.05891,0.54673 -0.03918,0.16605 -0.09779,0.31581 -0.176217,0.44959 -0.156845,0.25833 -0.373822,0.47059 -0.650606,0.63665 -0.267559,0.15685 -0.585933,0.26769 -0.954981,0.33228 -0.369046,0.0738 -0.765705,0.11059 -1.190109,0.11059 -0.433629,0 -0.83974,-0.0368 -1.218012,-0.11059 -0.369051,-0.0646 -0.691631,-0.17545 -0.968417,-0.33228 -0.267557,-0.15684 -0.479809,-0.36909 -0.636654,-0.63665 -0.07842,-0.13378 -0.137428,-0.28265 -0.176733,-0.44649 -0.0393,-0.16383 -0.05891,-0.34267 -0.05891,-0.5364 v -6.32416 c 0,-0.19375 0.01961,-0.37256 0.05891,-0.5364 0.03931,-0.16384 0.09831,-0.31272 0.176733,-0.44648 0.156845,-0.26756 0.369097,-0.47981 0.636654,-0.63666 0.276786,-0.15684 0.599366,-0.26717 0.968417,-0.33176 0.378272,-0.0738 0.784383,-0.1111 1.218012,-0.1111 z m 33.609319,0.26871 a 2.645833,2.645833 0 0 1 0.187068,0.007 2.645833,2.645833 0 0 1 0.262517,0.0315 2.645833,2.645833 0 0 1 0.258382,0.0584 2.645833,2.645833 0 0 1 0.250629,0.0832 2.645833,2.645833 0 0 1 0.241329,0.108 2.645833,2.645833 0 0 1 0.229444,0.13177 2.645833,2.645833 0 0 1 0.215492,0.15348 2.645833,2.645833 0 0 1 0.198438,0.17467 2.645833,2.645833 0 0 1 0.180351,0.19379 2.645833,2.645833 0 0 1 0.160194,0.21032 2.645833,2.645833 0 0 1 0.137978,0.22531 2.645833,2.645833 0 0 1 0.115239,0.23823 2.645833,2.645833 0 0 1 0.09043,0.24856 2.645833,2.645833 0 0 1 0.06563,0.25632 2.645833,2.645833 0 0 1 0.03928,0.26148 2.645833,2.645833 0 0 1 0.01344,0.26407 2.645833,2.645833 0 0 1 -0.0067,0.18706 2.645833,2.645833 0 0 1 -0.03152,0.26252 2.645833,2.645833 0 0 1 -0.0584,0.25838 2.645833,2.645833 0 0 1 -0.0832,0.25063 2.645833,2.645833 0 0 1 -0.108003,0.24133 2.645833,2.645833 0 0 1 -0.131775,0.22945 2.645833,2.645833 0 0 1 -0.15348,0.21549 2.645833,2.645833 0 0 1 -0.174665,0.19843 2.645833,2.645833 0 0 1 -0.193788,0.18035 2.645833,2.645833 0 0 1 -0.210323,0.1602 2.645833,2.645833 0 0 1 -0.225309,0.13798 2.645833,2.645833 0 0 1 -0.238228,0.11523 2.645833,2.645833 0 0 1 -0.248563,0.0904 2.645833,2.645833 0 0 1 -0.256315,0.0651 2.645833,2.645833 0 0 1 -0.261485,0.0398 2.645833,2.645833 0 0 1 -0.264065,0.0129 2.645833,2.645833 0 0 1 -0.187068,-0.007 2.645833,2.645833 0 0 1 -0.262517,-0.032 2.645833,2.645833 0 0 1 -0.258381,-0.0579 2.645833,2.645833 0 0 1 -0.250632,-0.0832 2.645833,2.645833 0 0 1 -0.241329,-0.10801 2.645833,2.645833 0 0 1 -0.229444,-0.13177 2.645833,2.645833 0 0 1 -0.21549,-0.15348 2.645833,2.645833 0 0 1 -0.198438,-0.17467 2.645833,2.645833 0 0 1 -0.18035,-0.19378 2.645833,2.645833 0 0 1 -0.160197,-0.21033 2.645833,2.645833 0 0 1 -0.137975,-0.22531 2.645833,2.645833 0 0 1 -0.11524,-0.23823 2.645833,2.645833 0 0 1 -0.09043,-0.24856 2.645833,2.645833 0 0 1 -0.06563,-0.25631 2.645833,2.645833 0 0 1 -0.03927,-0.26149 2.645833,2.645833 0 0 1 -0.01344,-0.26406 2.645833,2.645833 0 0 1 0.0067,-0.18707 2.645833,2.645833 0 0 1 0.03152,-0.26252 2.645833,2.645833 0 0 1 0.05839,-0.25838 2.645833,2.645833 0 0 1 0.0832,-0.25063 2.645833,2.645833 0 0 1 0.108003,-0.24133 2.645833,2.645833 0 0 1 0.131776,-0.22944 2.645833,2.645833 0 0 1 0.153477,-0.21549 2.645833,2.645833 0 0 1 0.174667,-0.19844 2.645833,2.645833 0 0 1 0.193786,-0.18035 2.645833,2.645833 0 0 1 0.210323,-0.1602 2.645833,2.645833 0 0 1 0.225311,-0.13797 2.645833,2.645833 0 0 1 0.238228,-0.11524 2.645833,2.645833 0 0 1 0.248563,-0.0904 2.645833,2.645833 0 0 1 0.256315,-0.0656 2.645833,2.645833 0 0 1 0.261482,-0.0393 2.645833,2.645833 0 0 1 0.264068,-0.0134 z m -25.963274,0.0222 h 2.975531 c 0.518969,0 0.972941,0.0483 1.362188,0.1452 0.389247,0.0969 0.713558,0.24242 0.973069,0.43615 0.259509,0.19375 0.454184,0.43596 0.583943,0.72658 0.12976,0.2906 0.194821,0.62949 0.194821,1.01699 v 5.21725 c 0,0.38519 -0.06548,0.72238 -0.196371,1.01131 -0.130887,0.28892 -0.327332,0.5298 -0.589111,0.72243 -0.261781,0.19265 -0.588655,0.33672 -0.981337,0.43305 -0.392676,0.0963 -0.851005,0.1447 -1.374592,0.1447 H 35.45779 Z m 10.716141,0 h 5.189865 v 1.34203 h -2.837037 v 2.47737 h 2.753839 v 1.30121 h -2.753839 v 3.37654 h 2.850989 v 1.35651 h -5.203817 z m -18.362186,0.95498 c -0.230654,0 -0.403509,0.0518 -0.51883,0.15554 -0.115324,0.10378 -0.173117,0.25957 -0.173117,0.46716 v 6.71173 c 0,0.20759 0.05779,0.36338 0.173117,0.46716 0.115321,0.10377 0.288176,0.15554 0.51883,0.15554 0.230655,0 0.403508,-0.0518 0.518832,-0.15554 0.115324,-0.10378 0.173116,-0.25957 0.173116,-0.46716 v -6.71173 c 0,-0.20759 -0.05779,-0.36338 -0.173116,-0.46716 -0.115324,-0.10378 -0.288177,-0.15554 -0.518832,-0.15554 z m 9.998874,0.17983 v 7.51479 h 0.318328 c 0.3552,0 0.621842,-0.053 0.799433,-0.15917 0.08879,-0.053 0.155075,-0.11937 0.199472,-0.19895 0.04439,-0.0796 0.06666,-0.17244 0.06666,-0.27854 v -6.22804 c 0,-0.10841 -0.02228,-0.20347 -0.06666,-0.28474 -0.0444,-0.0813 -0.110678,-0.14893 -0.199472,-0.20309 -0.177591,-0.10831 -0.444233,-0.16226 -0.799433,-0.16226 z m 23.610445,12.85503 a 2.645833,2.645833 0 0 1 0.187068,0.007 2.645833,2.645833 0 0 1 0.262517,0.0315 2.645833,2.645833 0 0 1 0.258382,0.0584 2.645833,2.645833 0 0 1 0.250629,0.0832 2.645833,2.645833 0 0 1 0.241329,0.108 2.645833,2.645833 0 0 1 0.229444,0.13178 2.645833,2.645833 0 0 1 0.215492,0.15348 2.645833,2.645833 0 0 1 0.198438,0.17466 2.645833,2.645833 0 0 1 0.180351,0.19379 2.645833,2.645833 0 0 1 0.160194,0.21032 2.645833,2.645833 0 0 1 0.137978,0.22531 2.645833,2.645833 0 0 1 0.115239,0.23823 2.645833,2.645833 0 0 1 0.09043,0.24856 2.645833,2.645833 0 0 1 0.06563,0.25632 2.645833,2.645833 0 0 1 0.03928,0.26148 2.645833,2.645833 0 0 1 0.01344,0.26407 2.645833,2.645833 0 0 1 -0.0067,0.18707 2.645833,2.645833 0 0 1 -0.03152,0.26251 2.645833,2.645833 0 0 1 -0.0584,0.25839 2.645833,2.645833 0 0 1 -0.0832,0.25063 2.645833,2.645833 0 0 1 -0.108003,0.24133 2.645833,2.645833 0 0 1 -0.131775,0.22944 2.645833,2.645833 0 0 1 -0.15348,0.21549 2.645833,2.645833 0 0 1 -0.174665,0.19844 2.645833,2.645833 0 0 1 -0.193788,0.18035 2.645833,2.645833 0 0 1 -0.210323,0.1602 2.645833,2.645833 0 0 1 -0.225309,0.13797 2.645833,2.645833 0 0 1 -0.238228,0.11524 2.645833,2.645833 0 0 1 -0.248563,0.0899 2.645833,2.645833 0 0 1 -0.256315,0.0656 2.645833,2.645833 0 0 1 -0.261485,0.0393 2.645833,2.645833 0 0 1 -0.264065,0.0134 2.645833,2.645833 0 0 1 -0.187068,-0.007 2.645833,2.645833 0 0 1 -0.262517,-0.0315 2.645833,2.645833 0 0 1 -0.258381,-0.0584 2.645833,2.645833 0 0 1 -0.250632,-0.0832 2.645833,2.645833 0 0 1 -0.241329,-0.108 2.645833,2.645833 0 0 1 -0.229444,-0.13177 2.645833,2.645833 0 0 1 -0.21549,-0.15348 2.645833,2.645833 0 0 1 -0.198438,-0.17467 2.645833,2.645833 0 0 1 -0.18035,-0.19379 2.645833,2.645833 0 0 1 -0.160197,-0.21032 2.645833,2.645833 0 0 1 -0.137975,-0.22531 2.645833,2.645833 0 0 1 -0.11524,-0.23823 2.645833,2.645833 0 0 1 -0.09043,-0.24856 2.645833,2.645833 0 0 1 -0.06563,-0.25632 2.645833,2.645833 0 0 1 -0.03927,-0.26148 2.645833,2.645833 0 0 1 -0.01344,-0.26406 2.645833,2.645833 0 0 1 0.0067,-0.18707 2.645833,2.645833 0 0 1 0.03152,-0.26252 2.645833,2.645833 0 0 1 0.05839,-0.25838 2.645833,2.645833 0 0 1 0.0832,-0.25063 2.645833,2.645833 0 0 1 0.108003,-0.24133 2.645833,2.645833 0 0 1 0.131776,-0.22945 2.645833,2.645833 0 0 1 0.153477,-0.21549 2.645833,2.645833 0 0 1 0.174667,-0.19843 2.645833,2.645833 0 0 1 0.193786,-0.18035 2.645833,2.645833 0 0 1 0.210323,-0.1602 2.645833,2.645833 0 0 1 0.225311,-0.13798 2.645833,2.645833 0 0 1 0.238228,-0.11524 2.645833,2.645833 0 0 1 0.248563,-0.0904 2.645833,2.645833 0 0 1 0.256315,-0.0656 2.645833,2.645833 0 0 1 0.261482,-0.0393 2.645833,2.645833 0 0 1 0.264068,-0.0134 z"
       id="path2647"
       inkscape:connector-curvature="0" />
  </g>
</svg>
