<?xml version="1.0" encoding="utf-8"?>
<!-- Generator: Adobe Illustrator 23.0.2, SVG Export Plug-In . SVG Version: 6.00 Build 0)  -->
<svg version="1.1" id="android-dl" xmlns="http://www.w3.org/2000/svg" xmlns:xlink="http://www.w3.org/1999/xlink" x="0px" y="0px" width="100px" height="auto"
	 viewBox="0 0 1481 504" style="enable-background:new 0 0 1481 504;" xml:space="preserve">
<style type="text/css">
	.st0{stroke:#FFFFFF;stroke-miterlimit:10;}
	.st1{fill:#79C257;}
	.st2{fill:#FFFFFF;}
	.st3{font-family:'Roboto-Regular';}
	.st4{font-size:115.2678px;}
	.st5{font-size:213.8918px;}
	.st6{letter-spacing:3;}
	.st7{font-size:77.0807px;}
	.st8{letter-spacing:1;}
</style>
<g transform="translate(2 2)">
	<path class="st0" d="M60,0h1357c33.1,0,60,26.9,60,60v380c0,33.1-26.9,60-60,60H60c-33.1,0-60-26.9-60-60V60C0,26.9,26.9,0,60,0z"
		/>
</g>
<g>
	<path class="st1" d="M420.7,214.5c0-11.2-9.2-20.4-20.4-20.4s-20.4,9.2-20.4,20.4v85c0,11.2,9.2,20.4,20.4,20.4s20.4-9.2,20.4-20.4
		V214.5z"/>
	<path class="st1" d="M182.7,214.5c0-11.2-9.2-20.4-20.4-20.4s-20.4,9.2-20.4,20.4v85c0,11.2,9.2,20.4,20.4,20.4s20.4-9.2,20.4-20.4
		V214.5z"/>
	<g>
		<path class="st1" d="M325.9,117.3l14.4-26c0.8-1.4,0.3-3.2-1.1-3.9c-0.4-0.2-0.9-0.4-1.4-0.4c-1,0-2,0.5-2.5,1.5l-14.6,26.3
			c-11.9-5.3-25.3-8.3-39.4-8.3s-27.5,3-39.4,8.3l-14.6-26.3c-0.8-1.4-2.5-1.9-3.9-1.1s-1.9,2.5-1.1,3.9l14.4,26
			c-27.7,14.4-46.3,41.7-46.4,73.1h182C372.3,159.1,353.6,131.7,325.9,117.3z M239.3,157.1c-4.2,0-7.6-3.4-7.6-7.6s3.4-7.6,7.6-7.6
			s7.6,3.4,7.6,7.6S243.5,157.1,239.3,157.1z M323.3,157.1c-4.2,0-7.6-3.4-7.6-7.6s3.4-7.6,7.6-7.6s7.6,3.4,7.6,7.6
			S327.5,157.1,323.3,157.1z"/>
		<path class="st1" d="M190.3,197.6v131.9c0,12.2,9.8,22,22,22h14.6v45c0,11.2,9.2,20.4,20.4,20.4s20.4-9.2,20.4-20.4v-45h27.2v45
			c0,11.2,9.2,20.4,20.4,20.4s20.4-9.2,20.4-20.4v-45h14.6c12.2,0,22-9.8,22-22V197.6H190.3z"/>
	</g>
</g>
<text transform="matrix(1 0 0 1 519.7452 186.9564)" class="st2 st3 st4">Download for</text>
<text transform="matrix(1 0 0 1 510.9341 383.5234)" class="st2 st3 st5 st6">Android</text>
<g>
	<text transform="matrix(1 0 0 1 1270 277.0752)" class="st2 st3 st7 st8">TM</text>
</g>
</svg>
